<svg xmlns="http://www.w3.org/2000/svg" version="1.1" width="512" height="40">
<path d="M 2.878906 13.319336 L 2.878906 6.412109 L 6.729980 6.412109 L 6.729980 7.335938 L 3.738281 7.335938 L 3.738281 13.319336 Z " fill="rgb(0, 0, 0)" fill-opacity="1.000000" />
<path d="M 2.878906 26.319336 L 2.878906 12.300781 L 3.738281 12.300781 L 3.738281 26.319336 Z " fill="rgb(0, 0, 0)" fill-opacity="1.000000" />
<path d="M 2.878906 33.335938 L 2.878906 25.300781 L 3.738281 25.300781 L 3.738281 32.412109 L 6.729980 32.412109 L 6.729980 33.335938 Z " fill="rgb(0, 0, 0)" fill-opacity="1.000000" />
<path d="M 6.892578 33.335938 L 6.892578 32.412109 L 13.729980 32.412109 L 13.729980 33.335938 Z " fill="rgb(0, 0, 0)" fill-opacity="1.000000" />
<path d="M 13.892578 33.335938 L 13.892578 32.412109 L 20.729980 32.412109 L 20.729980 33.335938 Z " fill="rgb(0, 0, 0)" fill-opacity="1.000000" />
<path d="M 20.892578 33.335938 L 20.892578 32.412109 L 27.729980 32.412109 L 27.729980 33.335938 Z " fill="rgb(0, 0, 0)" fill-opacity="1.000000" />
<path d="M 27.892578 33.335938 L 27.892578 32.412109 L 34.729980 32.412109 L 34.729980 33.335938 Z " fill="rgb(0, 0, 0)" fill-opacity="1.000000" />
<path d="M 34.892578 33.335938 L 34.892578 32.412109 L 41.729980 32.412109 L 41.729980 33.335938 Z " fill="rgb(0, 0, 0)" fill-opacity="1.000000" />
<path d="M 41.892578 33.335938 L 41.892578 32.412109 L 48.729980 32.412109 L 48.729980 33.335938 Z " fill="rgb(0, 0, 0)" fill-opacity="1.000000" />
<path d="M 48.892578 33.335938 L 48.892578 32.412109 L 55.729980 32.412109 L 55.729980 33.335938 Z " fill="rgb(0, 0, 0)" fill-opacity="1.000000" />
<path d="M 55.892578 33.335938 L 55.892578 32.412109 L 62.729980 32.412109 L 62.729980 33.335938 Z " fill="rgb(0, 0, 0)" fill-opacity="1.000000" />
<path d="M 62.892578 33.335938 L 62.892578 32.412109 L 69.729980 32.412109 L 69.729980 33.335938 Z " fill="rgb(0, 0, 0)" fill-opacity="1.000000" />
<path d="M 69.892578 33.335938 L 69.892578 32.412109 L 76.729980 32.412109 L 76.729980 33.335938 Z " fill="rgb(0, 0, 0)" fill-opacity="1.000000" />
<path d="M 76.892578 33.335938 L 76.892578 32.412109 L 83.729980 32.412109 L 83.729980 33.335938 Z " fill="rgb(0, 0, 0)" fill-opacity="1.000000" />
<path d="M 83.892578 33.335938 L 83.892578 32.412109 L 86.878906 32.412109 L 86.878906 25.300781 L 87.738281 25.300781 L 87.738281 33.335938 Z " fill="rgb(0, 0, 0)" fill-opacity="1.000000" />
<path d="M 107.878906 33.335938 L 107.878906 25.300781 L 108.738281 25.300781 L 108.738281 32.412109 L 111.729980 32.412109 L 111.729980 33.335938 Z " fill="rgb(0, 0, 0)" fill-opacity="1.000000" />
<path d="M 111.892578 33.335938 L 111.892578 32.412109 L 118.729980 32.412109 L 118.729980 33.335938 Z " fill="rgb(0, 0, 0)" fill-opacity="1.000000" />
<path d="M 118.892578 33.335938 L 118.892578 32.412109 L 125.729980 32.412109 L 125.729980 33.335938 Z " fill="rgb(0, 0, 0)" fill-opacity="1.000000" />
<path d="M 125.892578 33.335938 L 125.892578 32.412109 L 132.729980 32.412109 L 132.729980 33.335938 Z " fill="rgb(0, 0, 0)" fill-opacity="1.000000" />
<path d="M 132.892578 33.335938 L 132.892578 32.412109 L 139.729980 32.412109 L 139.729980 33.335938 Z " fill="rgb(0, 0, 0)" fill-opacity="1.000000" />
<path d="M 139.892578 33.335938 L 139.892578 32.412109 L 146.729980 32.412109 L 146.729980 33.335938 Z " fill="rgb(0, 0, 0)" fill-opacity="1.000000" />
<path d="M 146.892578 33.335938 L 146.892578 32.412109 L 153.729980 32.412109 L 153.729980 33.335938 Z " fill="rgb(0, 0, 0)" fill-opacity="1.000000" />
<path d="M 153.892578 33.335938 L 153.892578 32.412109 L 160.729980 32.412109 L 160.729980 33.335938 Z " fill="rgb(0, 0, 0)" fill-opacity="1.000000" />
<path d="M 160.892578 33.335938 L 160.892578 32.412109 L 167.729980 32.412109 L 167.729980 33.335938 Z " fill="rgb(0, 0, 0)" fill-opacity="1.000000" />
<path d="M 167.892578 33.335938 L 167.892578 32.412109 L 174.729980 32.412109 L 174.729980 33.335938 Z " fill="rgb(0, 0, 0)" fill-opacity="1.000000" />
<path d="M 174.892578 33.335938 L 174.892578 32.412109 L 181.729980 32.412109 L 181.729980 33.335938 Z " fill="rgb(0, 0, 0)" fill-opacity="1.000000" />
<path d="M 181.892578 33.335938 L 181.892578 32.412109 L 188.729980 32.412109 L 188.729980 33.335938 Z " fill="rgb(0, 0, 0)" fill-opacity="1.000000" />
<path d="M 188.892578 33.335938 L 188.892578 32.412109 L 191.878906 32.412109 L 191.878906 25.300781 L 192.738281 25.300781 L 192.738281 33.335938 Z " fill="rgb(0, 0, 0)" fill-opacity="1.000000" />
<path d="M 212.878906 33.335938 L 212.878906 25.300781 L 213.738281 25.300781 L 213.738281 32.412109 L 216.729980 32.412109 L 216.729980 33.335938 Z " fill="rgb(0, 0, 0)" fill-opacity="1.000000" />
<path d="M 216.892578 33.335938 L 216.892578 32.412109 L 223.729980 32.412109 L 223.729980 33.335938 Z " fill="rgb(0, 0, 0)" fill-opacity="1.000000" />
<path d="M 223.892578 33.335938 L 223.892578 32.412109 L 230.729980 32.412109 L 230.729980 33.335938 Z " fill="rgb(0, 0, 0)" fill-opacity="1.000000" />
<path d="M 230.892578 33.335938 L 230.892578 32.412109 L 237.729980 32.412109 L 237.729980 33.335938 Z " fill="rgb(0, 0, 0)" fill-opacity="1.000000" />
<path d="M 237.892578 33.335938 L 237.892578 32.412109 L 244.729980 32.412109 L 244.729980 33.335938 Z " fill="rgb(0, 0, 0)" fill-opacity="1.000000" />
<path d="M 244.892578 33.335938 L 244.892578 32.412109 L 251.729980 32.412109 L 251.729980 33.335938 Z " fill="rgb(0, 0, 0)" fill-opacity="1.000000" />
<path d="M 251.892578 33.335938 L 251.892578 32.412109 L 258.729980 32.412109 L 258.729980 33.335938 Z " fill="rgb(0, 0, 0)" fill-opacity="1.000000" />
<path d="M 258.892578 33.335938 L 258.892578 32.412109 L 265.729980 32.412109 L 265.729980 33.335938 Z " fill="rgb(0, 0, 0)" fill-opacity="1.000000" />
<path d="M 265.892578 33.335938 L 265.892578 32.412109 L 272.729980 32.412109 L 272.729980 33.335938 Z " fill="rgb(0, 0, 0)" fill-opacity="1.000000" />
<path d="M 272.892578 33.335938 L 272.892578 32.412109 L 279.729980 32.412109 L 279.729980 33.335938 Z " fill="rgb(0, 0, 0)" fill-opacity="1.000000" />
<path d="M 279.892578 33.335938 L 279.892578 32.412109 L 286.729980 32.412109 L 286.729980 33.335938 Z " fill="rgb(0, 0, 0)" fill-opacity="1.000000" />
<path d="M 286.892578 33.335938 L 286.892578 32.412109 L 293.729980 32.412109 L 293.729980 33.335938 Z " fill="rgb(0, 0, 0)" fill-opacity="1.000000" />
<path d="M 293.892578 33.335938 L 293.892578 32.412109 L 296.878906 32.412109 L 296.878906 25.300781 L 297.738281 25.300781 L 297.738281 33.335938 Z " fill="rgb(0, 0, 0)" fill-opacity="1.000000" />
<path d="M 317.878906 33.335938 L 317.878906 25.300781 L 318.738281 25.300781 L 318.738281 32.412109 L 321.729980 32.412109 L 321.729980 33.335938 Z " fill="rgb(0, 0, 0)" fill-opacity="1.000000" />
<path d="M 321.892578 33.335938 L 321.892578 32.412109 L 328.729980 32.412109 L 328.729980 33.335938 Z " fill="rgb(0, 0, 0)" fill-opacity="1.000000" />
<path d="M 328.892578 33.335938 L 328.892578 32.412109 L 335.729980 32.412109 L 335.729980 33.335938 Z " fill="rgb(0, 0, 0)" fill-opacity="1.000000" />
<path d="M 335.892578 33.335938 L 335.892578 32.412109 L 342.729980 32.412109 L 342.729980 33.335938 Z " fill="rgb(0, 0, 0)" fill-opacity="1.000000" />
<path d="M 342.892578 33.335938 L 342.892578 32.412109 L 349.729980 32.412109 L 349.729980 33.335938 Z " fill="rgb(0, 0, 0)" fill-opacity="1.000000" />
<path d="M 349.892578 33.335938 L 349.892578 32.412109 L 356.729980 32.412109 L 356.729980 33.335938 Z " fill="rgb(0, 0, 0)" fill-opacity="1.000000" />
<path d="M 356.892578 33.335938 L 356.892578 32.412109 L 363.729980 32.412109 L 363.729980 33.335938 Z " fill="rgb(0, 0, 0)" fill-opacity="1.000000" />
<path d="M 363.892578 33.335938 L 363.892578 32.412109 L 370.729980 32.412109 L 370.729980 33.335938 Z " fill="rgb(0, 0, 0)" fill-opacity="1.000000" />
<path d="M 370.892578 33.335938 L 370.892578 32.412109 L 377.729980 32.412109 L 377.729980 33.335938 Z " fill="rgb(0, 0, 0)" fill-opacity="1.000000" />
<path d="M 377.892578 33.335938 L 377.892578 32.412109 L 384.729980 32.412109 L 384.729980 33.335938 Z " fill="rgb(0, 0, 0)" fill-opacity="1.000000" />
<path d="M 384.892578 33.335938 L 384.892578 32.412109 L 391.729980 32.412109 L 391.729980 33.335938 Z " fill="rgb(0, 0, 0)" fill-opacity="1.000000" />
<path d="M 391.892578 33.335938 L 391.892578 32.412109 L 398.729980 32.412109 L 398.729980 33.335938 Z " fill="rgb(0, 0, 0)" fill-opacity="1.000000" />
<path d="M 398.892578 33.335938 L 398.892578 32.412109 L 401.878906 32.412109 L 401.878906 25.300781 L 402.738281 25.300781 L 402.738281 33.335938 Z " fill="rgb(0, 0, 0)" fill-opacity="1.000000" />
<path d="M 422.878906 33.335938 L 422.878906 25.300781 L 423.738281 25.300781 L 423.738281 32.412109 L 426.729980 32.412109 L 426.729980 33.335938 Z " fill="rgb(0, 0, 0)" fill-opacity="1.000000" />
<path d="M 426.892578 33.335938 L 426.892578 32.412109 L 433.729980 32.412109 L 433.729980 33.335938 Z " fill="rgb(0, 0, 0)" fill-opacity="1.000000" />
<path d="M 433.892578 33.335938 L 433.892578 32.412109 L 440.729980 32.412109 L 440.729980 33.335938 Z " fill="rgb(0, 0, 0)" fill-opacity="1.000000" />
<path d="M 440.892578 33.335938 L 440.892578 32.412109 L 447.729980 32.412109 L 447.729980 33.335938 Z " fill="rgb(0, 0, 0)" fill-opacity="1.000000" />
<path d="M 447.892578 33.335938 L 447.892578 32.412109 L 454.729980 32.412109 L 454.729980 33.335938 Z " fill="rgb(0, 0, 0)" fill-opacity="1.000000" />
<path d="M 454.892578 33.335938 L 454.892578 32.412109 L 461.729980 32.412109 L 461.729980 33.335938 Z " fill="rgb(0, 0, 0)" fill-opacity="1.000000" />
<path d="M 461.892578 33.335938 L 461.892578 32.412109 L 468.729980 32.412109 L 468.729980 33.335938 Z " fill="rgb(0, 0, 0)" fill-opacity="1.000000" />
<path d="M 468.892578 33.335938 L 468.892578 32.412109 L 475.729980 32.412109 L 475.729980 33.335938 Z " fill="rgb(0, 0, 0)" fill-opacity="1.000000" />
<path d="M 475.892578 33.335938 L 475.892578 32.412109 L 482.729980 32.412109 L 482.729980 33.335938 Z " fill="rgb(0, 0, 0)" fill-opacity="1.000000" />
<path d="M 482.892578 33.335938 L 482.892578 32.412109 L 489.729980 32.412109 L 489.729980 33.335938 Z " fill="rgb(0, 0, 0)" fill-opacity="1.000000" />
<path d="M 489.892578 33.335938 L 489.892578 32.412109 L 496.729980 32.412109 L 496.729980 33.335938 Z " fill="rgb(0, 0, 0)" fill-opacity="1.000000" />
<path d="M 496.892578 33.335938 L 496.892578 32.412109 L 503.729980 32.412109 L 503.729980 33.335938 Z " fill="rgb(0, 0, 0)" fill-opacity="1.000000" />
<path d="M 503.892578 33.335938 L 503.892578 32.412109 L 506.878906 32.412109 L 506.878906 25.300781 L 507.738281 25.300781 L 507.738281 33.335938 Z " fill="rgb(0, 0, 0)" fill-opacity="1.000000" />
<path d="M 26.435547 15.254883 L 26.435547 16.355957 Q 25.941406 16.039062 25.444580 15.877930 Q 24.947754 15.716797 24.442871 15.716797 Q 23.674805 15.716797 23.229004 16.073975 Q 22.783203 16.431152 22.783203 17.038086 Q 22.783203 17.569824 23.075928 17.849121 Q 23.368652 18.128418 24.168945 18.316406 L 24.738281 18.445312 Q 25.866211 18.708496 26.381836 19.272461 Q 26.897461 19.836426 26.897461 20.808594 Q 26.897461 21.952637 26.188477 22.554199 Q 25.479492 23.155762 24.125977 23.155762 Q 23.562012 23.155762 22.992676 23.034912 Q 22.423340 22.914062 21.848633 22.672363 L 21.848633 21.517578 Q 22.466309 21.909668 23.016846 22.092285 Q 23.567383 22.274902 24.125977 22.274902 Q 24.947754 22.274902 25.404297 21.906982 Q 25.860840 21.539062 25.860840 20.878418 Q 25.860840 20.276855 25.546631 19.959961 Q 25.232422 19.643066 24.453613 19.471191 L 23.873535 19.336914 Q 22.756348 19.084473 22.251465 18.574219 Q 21.746582 18.063965 21.746582 17.204590 Q 21.746582 16.130371 22.468994 15.483154 Q 23.191406 14.835938 24.389160 14.835938 Q 24.851074 14.835938 25.361328 14.940674 Q 25.871582 15.045410 26.435547 15.254883 Z " fill="rgb(0, 0, 0)" fill-opacity="1.000000" />
<path d="M 31.297852 15.276367 L 31.297852 16.984375 L 33.542969 16.984375 L 33.542969 17.752441 L 31.297852 17.752441 L 31.297852 21.018066 Q 31.297852 21.684082 31.550293 21.947266 Q 31.802734 22.210449 32.431152 22.210449 L 33.542969 22.210449 L 33.542969 23.000000 L 32.334473 23.000000 Q 31.222656 23.000000 30.766113 22.554199 Q 30.309570 22.108398 30.309570 21.018066 L 30.309570 17.752441 L 28.703613 17.752441 L 28.703613 16.984375 L 30.309570 16.984375 L 30.309570 15.276367 Z " fill="rgb(0, 0, 0)" fill-opacity="1.000000" />
<path d="M 41.203613 18.225098 Q 40.886719 17.978027 40.559082 17.865234 Q 40.231445 17.752441 39.839355 17.752441 Q 38.915527 17.752441 38.426758 18.332520 Q 37.937988 18.912598 37.937988 20.008301 L 37.937988 23.000000 L 36.944336 23.000000 L 36.944336 16.984375 L 37.937988 16.984375 L 37.937988 18.160645 Q 38.185059 17.521484 38.697998 17.180420 Q 39.210938 16.839355 39.914551 16.839355 Q 40.279785 16.839355 40.596680 16.930664 Q 40.913574 17.021973 41.203613 17.215332 Z " fill="rgb(0, 0, 0)" fill-opacity="1.000000" />
<path d="M 43.697266 17.005859 L 46.227051 17.005859 L 46.227051 22.231934 L 48.187500 22.231934 L 48.187500 23.000000 L 43.278320 23.000000 L 43.278320 22.231934 L 45.238770 22.231934 L 45.238770 17.773926 L 43.697266 17.773926 Z M 45.238770 14.669434 L 46.227051 14.669434 L 46.227051 15.915527 L 45.238770 15.915527 Z " fill="rgb(0, 0, 0)" fill-opacity="1.000000" />
<path d="M 54.645020 19.272461 L 54.645020 23.000000 L 53.651367 23.000000 L 53.651367 19.272461 Q 53.651367 18.461426 53.366699 18.080078 Q 53.082031 17.698730 52.475098 17.698730 Q 51.782227 17.698730 51.408936 18.190186 Q 51.035645 18.681641 51.035645 19.600098 L 51.035645 23.000000 L 50.047363 23.000000 L 50.047363 16.984375 L 51.035645 16.984375 L 51.035645 17.886719 Q 51.298828 17.371094 51.750000 17.105225 Q 52.201172 16.839355 52.818848 16.839355 Q 53.737305 16.839355 54.191162 17.443604 Q 54.645020 18.047852 54.645020 19.272461 Z " fill="rgb(0, 0, 0)" fill-opacity="1.000000" />
<path d="M 60.608398 19.943848 Q 60.608398 18.832031 60.245850 18.254639 Q 59.883301 17.677246 59.190430 17.677246 Q 58.465332 17.677246 58.083984 18.254639 Q 57.702637 18.832031 57.702637 19.943848 Q 57.702637 21.055664 58.086670 21.638428 Q 58.470703 22.221191 59.201172 22.221191 Q 59.883301 22.221191 60.245850 21.635742 Q 60.608398 21.050293 60.608398 19.943848 Z M 61.596680 22.613281 Q 61.596680 23.966797 60.957520 24.665039 Q 60.318359 25.363281 59.077637 25.363281 Q 58.669434 25.363281 58.223633 25.288086 Q 57.777832 25.212891 57.332031 25.067871 L 57.332031 24.090332 Q 57.858398 24.337402 58.288086 24.455566 Q 58.717773 24.573730 59.077637 24.573730 Q 59.877930 24.573730 60.243164 24.138672 Q 60.608398 23.703613 60.608398 22.758301 L 60.608398 22.715332 L 60.608398 22.043945 Q 60.372070 22.548828 59.963867 22.795898 Q 59.555664 23.042969 58.970215 23.042969 Q 57.917480 23.042969 57.289062 22.199707 Q 56.660645 21.356445 56.660645 19.943848 Q 56.660645 18.525879 57.289062 17.682617 Q 57.917480 16.839355 58.970215 16.839355 Q 59.550293 16.839355 59.953125 17.070312 Q 60.355957 17.301270 60.608398 17.784668 L 60.608398 17.005859 L 61.596680 17.005859 Z " fill="rgb(0, 0, 0)" fill-opacity="1.000000" />
<path d="M 86.878906 26.319336 L 86.878906 12.300781 L 87.738281 12.300781 L 87.738281 26.319336 Z " fill="rgb(0, 0, 0)" fill-opacity="1.000000" />
<path d="M 90.892578 20.335938 L 90.892578 19.412109 L 97.729980 19.412109 L 97.729980 20.335938 Z " fill="rgb(0, 0, 0)" fill-opacity="1.000000" />
<path d="M 98.032227 23.418945 L 98.032227 16.866211 L 104.590332 20.142578 Z " fill="rgb(0, 0, 0)" fill-opacity="1.000000" />
<path d="M 107.878906 26.319336 L 107.878906 12.300781 L 108.738281 12.300781 L 108.738281 26.319336 Z " fill="rgb(0, 0, 0)" fill-opacity="1.000000" />
<path d="M 126.252441 14.980957 L 132.370117 14.980957 L 132.370117 15.894043 L 129.861816 15.894043 L 129.861816 23.000000 L 128.771484 23.000000 L 128.771484 15.894043 L 126.252441 15.894043 Z " fill="rgb(0, 0, 0)" fill-opacity="1.000000" />
<path d="M 136.308594 17.677246 Q 135.556641 17.677246 135.169922 18.262695 Q 134.783203 18.848145 134.783203 19.997559 Q 134.783203 21.141602 135.169922 21.729736 Q 135.556641 22.317871 136.308594 22.317871 Q 137.065918 22.317871 137.452637 21.729736 Q 137.839355 21.141602 137.839355 19.997559 Q 137.839355 18.848145 137.452637 18.262695 Q 137.065918 17.677246 136.308594 17.677246 Z M 136.308594 16.839355 Q 137.560059 16.839355 138.223389 17.650391 Q 138.886719 18.461426 138.886719 19.997559 Q 138.886719 21.539062 138.226074 22.347412 Q 137.565430 23.155762 136.308594 23.155762 Q 135.057129 23.155762 134.396484 22.347412 Q 133.735840 21.539062 133.735840 19.997559 Q 133.735840 18.461426 134.396484 17.650391 Q 135.057129 16.839355 136.308594 16.839355 Z " fill="rgb(0, 0, 0)" fill-opacity="1.000000" />
<path d="M 141.267578 14.642578 L 142.288086 14.642578 L 142.288086 19.481934 L 144.882324 16.984375 L 146.085449 16.984375 L 143.716797 19.250977 L 146.456055 23.000000 L 145.247559 23.000000 L 143.023926 19.895508 L 142.288086 20.588379 L 142.288086 23.000000 L 141.267578 23.000000 Z " fill="rgb(0, 0, 0)" fill-opacity="1.000000" />
<path d="M 153.015625 19.498047 L 153.015625 19.981445 L 148.734863 19.981445 L 148.734863 20.013672 Q 148.691895 21.243652 149.204834 21.780762 Q 149.717773 22.317871 150.652344 22.317871 Q 151.125000 22.317871 151.640625 22.167480 Q 152.156250 22.017090 152.741699 21.710938 L 152.741699 22.693848 Q 152.177734 22.924805 151.654053 23.040283 Q 151.130371 23.155762 150.641602 23.155762 Q 149.239746 23.155762 148.450195 22.315186 Q 147.660645 21.474609 147.660645 19.997559 Q 147.660645 18.558105 148.434082 17.698730 Q 149.207520 16.839355 150.496582 16.839355 Q 151.645996 16.839355 152.309326 17.618164 Q 152.972656 18.396973 153.015625 19.498047 Z M 152.027344 19.208008 Q 151.962891 18.584961 151.573486 18.131104 Q 151.184082 17.677246 150.453613 17.677246 Q 149.739258 17.677246 149.277344 18.149902 Q 148.815430 18.622559 148.772461 19.213379 Z " fill="rgb(0, 0, 0)" fill-opacity="1.000000" />
<path d="M 159.645020 19.272461 L 159.645020 23.000000 L 158.651367 23.000000 L 158.651367 19.272461 Q 158.651367 18.461426 158.366699 18.080078 Q 158.082031 17.698730 157.475098 17.698730 Q 156.782227 17.698730 156.408936 18.190186 Q 156.035645 18.681641 156.035645 19.600098 L 156.035645 23.000000 L 155.047363 23.000000 L 155.047363 16.984375 L 156.035645 16.984375 L 156.035645 17.886719 Q 156.298828 17.371094 156.750000 17.105225 Q 157.201172 16.839355 157.818848 16.839355 Q 158.737305 16.839355 159.191162 17.443604 Q 159.645020 18.047852 159.645020 19.272461 Z " fill="rgb(0, 0, 0)" fill-opacity="1.000000" />
<path d="M 166.226074 17.193848 L 166.226074 18.160645 Q 165.801758 17.913574 165.372070 17.790039 Q 164.942383 17.666504 164.496582 17.666504 Q 163.825195 17.666504 163.494873 17.884033 Q 163.164551 18.101562 163.164551 18.547363 Q 163.164551 18.950195 163.411621 19.148926 Q 163.658691 19.347656 164.641602 19.535645 L 165.039062 19.610840 Q 165.774902 19.750488 166.153564 20.169434 Q 166.532227 20.588379 166.532227 21.259766 Q 166.532227 22.151367 165.898438 22.653564 Q 165.264648 23.155762 164.136719 23.155762 Q 163.690918 23.155762 163.202148 23.061768 Q 162.713379 22.967773 162.144043 22.779785 L 162.144043 21.759277 Q 162.697266 22.043945 163.202148 22.186279 Q 163.707031 22.328613 164.158203 22.328613 Q 164.813477 22.328613 165.173340 22.062744 Q 165.533203 21.796875 165.533203 21.318848 Q 165.533203 20.631348 164.217285 20.368164 L 164.174316 20.357422 L 163.803711 20.282227 Q 162.949707 20.115723 162.557617 19.720947 Q 162.165527 19.326172 162.165527 18.644043 Q 162.165527 17.779297 162.750977 17.309326 Q 163.336426 16.839355 164.421387 16.839355 Q 164.904785 16.839355 165.350586 16.927979 Q 165.796387 17.016602 166.226074 17.193848 Z " fill="rgb(0, 0, 0)" fill-opacity="1.000000" />
<path d="M 191.878906 26.319336 L 191.878906 12.300781 L 192.738281 12.300781 L 192.738281 26.319336 Z " fill="rgb(0, 0, 0)" fill-opacity="1.000000" />
<path d="M 195.892578 20.335938 L 195.892578 19.412109 L 202.729980 19.412109 L 202.729980 20.335938 Z " fill="rgb(0, 0, 0)" fill-opacity="1.000000" />
<path d="M 203.032227 23.418945 L 203.032227 16.866211 L 209.590332 20.142578 Z " fill="rgb(0, 0, 0)" fill-opacity="1.000000" />
<path d="M 212.878906 26.319336 L 212.878906 12.300781 L 213.738281 12.300781 L 213.738281 26.319336 Z " fill="rgb(0, 0, 0)" fill-opacity="1.000000" />
<path d="M 248.308594 15.937012 L 247.164551 20.040527 L 249.452637 20.040527 Z M 247.653320 14.980957 L 248.969238 14.980957 L 251.423828 23.000000 L 250.301270 23.000000 L 249.710449 20.910645 L 246.901367 20.910645 L 246.321289 23.000000 L 245.198730 23.000000 Z " fill="rgb(0, 0, 0)" fill-opacity="1.000000" />
<path d="M 257.435547 15.254883 L 257.435547 16.355957 Q 256.941406 16.039062 256.444580 15.877930 Q 255.947754 15.716797 255.442871 15.716797 Q 254.674805 15.716797 254.229004 16.073975 Q 253.783203 16.431152 253.783203 17.038086 Q 253.783203 17.569824 254.075928 17.849121 Q 254.368652 18.128418 255.168945 18.316406 L 255.738281 18.445312 Q 256.866211 18.708496 257.381836 19.272461 Q 257.897461 19.836426 257.897461 20.808594 Q 257.897461 21.952637 257.188477 22.554199 Q 256.479492 23.155762 255.125977 23.155762 Q 254.562012 23.155762 253.992676 23.034912 Q 253.423340 22.914062 252.848633 22.672363 L 252.848633 21.517578 Q 253.466309 21.909668 254.016846 22.092285 Q 254.567383 22.274902 255.125977 22.274902 Q 255.947754 22.274902 256.404297 21.906982 Q 256.860840 21.539062 256.860840 20.878418 Q 256.860840 20.276855 256.546631 19.959961 Q 256.232422 19.643066 255.453613 19.471191 L 254.873535 19.336914 Q 253.756348 19.084473 253.251465 18.574219 Q 252.746582 18.063965 252.746582 17.204590 Q 252.746582 16.130371 253.468994 15.483154 Q 254.191406 14.835938 255.389160 14.835938 Q 255.851074 14.835938 256.361328 14.940674 Q 256.871582 15.045410 257.435547 15.254883 Z " fill="rgb(0, 0, 0)" fill-opacity="1.000000" />
<path d="M 259.252441 14.980957 L 265.370117 14.980957 L 265.370117 15.894043 L 262.861816 15.894043 L 262.861816 23.000000 L 261.771484 23.000000 L 261.771484 15.894043 L 259.252441 15.894043 Z " fill="rgb(0, 0, 0)" fill-opacity="1.000000" />
<path d="M 296.878906 26.319336 L 296.878906 12.300781 L 297.738281 12.300781 L 297.738281 26.319336 Z " fill="rgb(0, 0, 0)" fill-opacity="1.000000" />
<path d="M 300.892578 20.335938 L 300.892578 19.412109 L 307.729980 19.412109 L 307.729980 20.335938 Z " fill="rgb(0, 0, 0)" fill-opacity="1.000000" />
<path d="M 308.032227 23.418945 L 308.032227 16.866211 L 314.590332 20.142578 Z " fill="rgb(0, 0, 0)" fill-opacity="1.000000" />
<path d="M 317.878906 26.319336 L 317.878906 12.300781 L 318.738281 12.300781 L 318.738281 26.319336 Z " fill="rgb(0, 0, 0)" fill-opacity="1.000000" />
<path d="M 330.981934 18.955566 L 330.981934 22.108398 L 332.265625 22.108398 Q 333.210938 22.108398 333.613770 21.778076 Q 334.016602 21.447754 334.016602 20.690430 Q 334.016602 19.691406 333.592285 19.323486 Q 333.167969 18.955566 332.265625 18.955566 Z M 330.981934 15.872559 L 330.981934 18.074707 L 332.244141 18.074707 Q 333.028320 18.074707 333.380127 17.773926 Q 333.731934 17.473145 333.731934 17.016602 Q 333.731934 16.409668 333.385498 16.141113 Q 333.039062 15.872559 332.244141 15.872559 Z M 329.891602 14.980957 L 332.265625 14.980957 Q 333.495605 14.980957 334.161621 15.512695 Q 334.827637 16.044434 334.827637 17.016602 Q 334.827637 17.537598 334.475830 17.961914 Q 334.124023 18.386230 333.420410 18.493652 Q 334.209961 18.611816 334.658447 19.167725 Q 335.106934 19.723633 335.106934 20.797852 Q 335.106934 21.888184 334.392578 22.444092 Q 333.678223 23.000000 332.265625 23.000000 L 329.891602 23.000000 Z " fill="rgb(0, 0, 0)" fill-opacity="1.000000" />
<path d="M 340.608398 21.066406 Q 340.361328 21.694824 339.979980 22.720703 Q 339.448242 24.138672 339.265625 24.450195 Q 339.018555 24.869141 338.647949 25.078613 Q 338.277344 25.288086 337.783203 25.288086 L 336.988281 25.288086 L 336.988281 24.460938 L 337.573730 24.460938 Q 338.008789 24.460938 338.255859 24.208496 Q 338.502930 23.956055 338.884277 22.903320 L 336.558594 16.984375 L 337.605957 16.984375 L 339.389160 21.689453 L 341.145508 16.984375 L 342.192871 16.984375 Z " fill="rgb(0, 0, 0)" fill-opacity="1.000000" />
<path d="M 346.297852 15.276367 L 346.297852 16.984375 L 348.542969 16.984375 L 348.542969 17.752441 L 346.297852 17.752441 L 346.297852 21.018066 Q 346.297852 21.684082 346.550293 21.947266 Q 346.802734 22.210449 347.431152 22.210449 L 348.542969 22.210449 L 348.542969 23.000000 L 347.334473 23.000000 Q 346.222656 23.000000 345.766113 22.554199 Q 345.309570 22.108398 345.309570 21.018066 L 345.309570 17.752441 L 343.703613 17.752441 L 343.703613 16.984375 L 345.309570 16.984375 L 345.309570 15.276367 Z " fill="rgb(0, 0, 0)" fill-opacity="1.000000" />
<path d="M 356.015625 19.498047 L 356.015625 19.981445 L 351.734863 19.981445 L 351.734863 20.013672 Q 351.691895 21.243652 352.204834 21.780762 Q 352.717773 22.317871 353.652344 22.317871 Q 354.125000 22.317871 354.640625 22.167480 Q 355.156250 22.017090 355.741699 21.710938 L 355.741699 22.693848 Q 355.177734 22.924805 354.654053 23.040283 Q 354.130371 23.155762 353.641602 23.155762 Q 352.239746 23.155762 351.450195 22.315186 Q 350.660645 21.474609 350.660645 19.997559 Q 350.660645 18.558105 351.434082 17.698730 Q 352.207520 16.839355 353.496582 16.839355 Q 354.645996 16.839355 355.309326 17.618164 Q 355.972656 18.396973 356.015625 19.498047 Z M 355.027344 19.208008 Q 354.962891 18.584961 354.573486 18.131104 Q 354.184082 17.677246 353.453613 17.677246 Q 352.739258 17.677246 352.277344 18.149902 Q 351.815430 18.622559 351.772461 19.213379 Z " fill="rgb(0, 0, 0)" fill-opacity="1.000000" />
<path d="M 362.698730 22.693848 Q 362.301270 22.924805 361.879639 23.040283 Q 361.458008 23.155762 361.017578 23.155762 Q 359.621094 23.155762 358.834229 22.317871 Q 358.047363 21.479980 358.047363 19.997559 Q 358.047363 18.515137 358.834229 17.677246 Q 359.621094 16.839355 361.017578 16.839355 Q 361.452637 16.839355 361.866211 16.952148 Q 362.279785 17.064941 362.698730 17.301270 L 362.698730 18.337891 Q 362.306641 17.988770 361.911865 17.833008 Q 361.517090 17.677246 361.017578 17.677246 Q 360.088379 17.677246 359.588867 18.278809 Q 359.089355 18.880371 359.089355 19.997559 Q 359.089355 21.109375 359.591553 21.713623 Q 360.093750 22.317871 361.017578 22.317871 Q 361.533203 22.317871 361.941406 22.159424 Q 362.349609 22.000977 362.698730 21.667969 Z " fill="rgb(0, 0, 0)" fill-opacity="1.000000" />
<path d="M 367.308594 17.677246 Q 366.556641 17.677246 366.169922 18.262695 Q 365.783203 18.848145 365.783203 19.997559 Q 365.783203 21.141602 366.169922 21.729736 Q 366.556641 22.317871 367.308594 22.317871 Q 368.065918 22.317871 368.452637 21.729736 Q 368.839355 21.141602 368.839355 19.997559 Q 368.839355 18.848145 368.452637 18.262695 Q 368.065918 17.677246 367.308594 17.677246 Z M 367.308594 16.839355 Q 368.560059 16.839355 369.223389 17.650391 Q 369.886719 18.461426 369.886719 19.997559 Q 369.886719 21.539062 369.226074 22.347412 Q 368.565430 23.155762 367.308594 23.155762 Q 366.057129 23.155762 365.396484 22.347412 Q 364.735840 21.539062 364.735840 19.997559 Q 364.735840 18.461426 365.396484 17.650391 Q 366.057129 16.839355 367.308594 16.839355 Z " fill="rgb(0, 0, 0)" fill-opacity="1.000000" />
<path d="M 375.608398 17.752441 L 375.608398 14.642578 L 376.596680 14.642578 L 376.596680 23.000000 L 375.608398 23.000000 L 375.608398 22.242676 Q 375.361328 22.688477 374.950439 22.922119 Q 374.539551 23.155762 374.002441 23.155762 Q 372.912109 23.155762 372.286377 22.309814 Q 371.660645 21.463867 371.660645 19.976074 Q 371.660645 18.509766 372.289062 17.674561 Q 372.917480 16.839355 374.002441 16.839355 Q 374.544922 16.839355 374.958496 17.072998 Q 375.372070 17.306641 375.608398 17.752441 Z M 372.702637 19.997559 Q 372.702637 21.146973 373.067871 21.732422 Q 373.433105 22.317871 374.147461 22.317871 Q 374.861816 22.317871 375.235107 21.727051 Q 375.608398 21.136230 375.608398 19.997559 Q 375.608398 18.853516 375.235107 18.265381 Q 374.861816 17.677246 374.147461 17.677246 Q 373.433105 17.677246 373.067871 18.262695 Q 372.702637 18.848145 372.702637 19.997559 Z " fill="rgb(0, 0, 0)" fill-opacity="1.000000" />
<path d="M 384.015625 19.498047 L 384.015625 19.981445 L 379.734863 19.981445 L 379.734863 20.013672 Q 379.691895 21.243652 380.204834 21.780762 Q 380.717773 22.317871 381.652344 22.317871 Q 382.125000 22.317871 382.640625 22.167480 Q 383.156250 22.017090 383.741699 21.710938 L 383.741699 22.693848 Q 383.177734 22.924805 382.654053 23.040283 Q 382.130371 23.155762 381.641602 23.155762 Q 380.239746 23.155762 379.450195 22.315186 Q 378.660645 21.474609 378.660645 19.997559 Q 378.660645 18.558105 379.434082 17.698730 Q 380.207520 16.839355 381.496582 16.839355 Q 382.645996 16.839355 383.309326 17.618164 Q 383.972656 18.396973 384.015625 19.498047 Z M 383.027344 19.208008 Q 382.962891 18.584961 382.573486 18.131104 Q 382.184082 17.677246 381.453613 17.677246 Q 380.739258 17.677246 380.277344 18.149902 Q 379.815430 18.622559 379.772461 19.213379 Z " fill="rgb(0, 0, 0)" fill-opacity="1.000000" />
<path d="M 401.878906 26.319336 L 401.878906 12.300781 L 402.738281 12.300781 L 402.738281 26.319336 Z " fill="rgb(0, 0, 0)" fill-opacity="1.000000" />
<path d="M 405.892578 20.335938 L 405.892578 19.412109 L 412.729980 19.412109 L 412.729980 20.335938 Z " fill="rgb(0, 0, 0)" fill-opacity="1.000000" />
<path d="M 413.032227 23.418945 L 413.032227 16.866211 L 419.590332 20.142578 Z " fill="rgb(0, 0, 0)" fill-opacity="1.000000" />
<path d="M 422.878906 26.319336 L 422.878906 12.300781 L 423.738281 12.300781 L 423.738281 26.319336 Z " fill="rgb(0, 0, 0)" fill-opacity="1.000000" />
<path d="M 445.860840 18.998535 Q 445.860840 17.231445 445.498291 16.474121 Q 445.135742 15.716797 444.308594 15.716797 Q 443.486816 15.716797 443.124268 16.474121 Q 442.761719 17.231445 442.761719 18.998535 Q 442.761719 20.760254 443.124268 21.517578 Q 443.486816 22.274902 444.308594 22.274902 Q 445.135742 22.274902 445.498291 21.520264 Q 445.860840 20.765625 445.860840 18.998535 Z M 446.994141 18.998535 Q 446.994141 21.093262 446.330811 22.124512 Q 445.667480 23.155762 444.308594 23.155762 Q 442.949707 23.155762 442.289062 22.129883 Q 441.628418 21.104004 441.628418 18.998535 Q 441.628418 16.898438 442.291748 15.867188 Q 442.955078 14.835938 444.308594 14.835938 Q 445.667480 14.835938 446.330811 15.867188 Q 446.994141 16.898438 446.994141 18.998535 Z " fill="rgb(0, 0, 0)" fill-opacity="1.000000" />
<path d="M 452.930664 19.997559 Q 452.930664 18.848145 452.565430 18.262695 Q 452.200195 17.677246 451.485840 17.677246 Q 450.766113 17.677246 450.395508 18.265381 Q 450.024902 18.853516 450.024902 19.997559 Q 450.024902 21.136230 450.395508 21.727051 Q 450.766113 22.317871 451.485840 22.317871 Q 452.200195 22.317871 452.565430 21.732422 Q 452.930664 21.146973 452.930664 19.997559 Z M 450.024902 17.752441 Q 450.261230 17.312012 450.677490 17.075684 Q 451.093750 16.839355 451.641602 16.839355 Q 452.726562 16.839355 453.349609 17.674561 Q 453.972656 18.509766 453.972656 19.976074 Q 453.972656 21.463867 453.346924 22.309814 Q 452.721191 23.155762 451.630859 23.155762 Q 451.093750 23.155762 450.682861 22.922119 Q 450.271973 22.688477 450.024902 22.242676 L 450.024902 23.000000 L 449.036621 23.000000 L 449.036621 14.642578 L 450.024902 14.642578 Z " fill="rgb(0, 0, 0)" fill-opacity="1.000000" />
<path d="M 458.222656 23.107422 L 458.222656 17.752441 L 456.520020 17.752441 L 456.520020 16.984375 L 459.210938 16.984375 L 459.210938 23.107422 Q 459.210938 24.154785 458.730225 24.721436 Q 458.249512 25.288086 457.363281 25.288086 L 455.999023 25.288086 L 455.999023 24.450195 L 457.255859 24.450195 Q 457.739258 24.450195 457.980957 24.114502 Q 458.222656 23.778809 458.222656 23.107422 Z M 458.222656 14.642578 L 459.210938 14.642578 L 459.210938 15.894043 L 458.222656 15.894043 Z " fill="rgb(0, 0, 0)" fill-opacity="1.000000" />
<path d="M 468.015625 19.498047 L 468.015625 19.981445 L 463.734863 19.981445 L 463.734863 20.013672 Q 463.691895 21.243652 464.204834 21.780762 Q 464.717773 22.317871 465.652344 22.317871 Q 466.125000 22.317871 466.640625 22.167480 Q 467.156250 22.017090 467.741699 21.710938 L 467.741699 22.693848 Q 467.177734 22.924805 466.654053 23.040283 Q 466.130371 23.155762 465.641602 23.155762 Q 464.239746 23.155762 463.450195 22.315186 Q 462.660645 21.474609 462.660645 19.997559 Q 462.660645 18.558105 463.434082 17.698730 Q 464.207520 16.839355 465.496582 16.839355 Q 466.645996 16.839355 467.309326 17.618164 Q 467.972656 18.396973 468.015625 19.498047 Z M 467.027344 19.208008 Q 466.962891 18.584961 466.573486 18.131104 Q 466.184082 17.677246 465.453613 17.677246 Q 464.739258 17.677246 464.277344 18.149902 Q 463.815430 18.622559 463.772461 19.213379 Z " fill="rgb(0, 0, 0)" fill-opacity="1.000000" />
<path d="M 474.698730 22.693848 Q 474.301270 22.924805 473.879639 23.040283 Q 473.458008 23.155762 473.017578 23.155762 Q 471.621094 23.155762 470.834229 22.317871 Q 470.047363 21.479980 470.047363 19.997559 Q 470.047363 18.515137 470.834229 17.677246 Q 471.621094 16.839355 473.017578 16.839355 Q 473.452637 16.839355 473.866211 16.952148 Q 474.279785 17.064941 474.698730 17.301270 L 474.698730 18.337891 Q 474.306641 17.988770 473.911865 17.833008 Q 473.517090 17.677246 473.017578 17.677246 Q 472.088379 17.677246 471.588867 18.278809 Q 471.089355 18.880371 471.089355 19.997559 Q 471.089355 21.109375 471.591553 21.713623 Q 472.093750 22.317871 473.017578 22.317871 Q 473.533203 22.317871 473.941406 22.159424 Q 474.349609 22.000977 474.698730 21.667969 Z " fill="rgb(0, 0, 0)" fill-opacity="1.000000" />
<path d="M 479.297852 15.276367 L 479.297852 16.984375 L 481.542969 16.984375 L 481.542969 17.752441 L 479.297852 17.752441 L 479.297852 21.018066 Q 479.297852 21.684082 479.550293 21.947266 Q 479.802734 22.210449 480.431152 22.210449 L 481.542969 22.210449 L 481.542969 23.000000 L 480.334473 23.000000 Q 479.222656 23.000000 478.766113 22.554199 Q 478.309570 22.108398 478.309570 21.018066 L 478.309570 17.752441 L 476.703613 17.752441 L 476.703613 16.984375 L 478.309570 16.984375 L 478.309570 15.276367 Z " fill="rgb(0, 0, 0)" fill-opacity="1.000000" />
<path d="M 488.226074 17.193848 L 488.226074 18.160645 Q 487.801758 17.913574 487.372070 17.790039 Q 486.942383 17.666504 486.496582 17.666504 Q 485.825195 17.666504 485.494873 17.884033 Q 485.164551 18.101562 485.164551 18.547363 Q 485.164551 18.950195 485.411621 19.148926 Q 485.658691 19.347656 486.641602 19.535645 L 487.039062 19.610840 Q 487.774902 19.750488 488.153564 20.169434 Q 488.532227 20.588379 488.532227 21.259766 Q 488.532227 22.151367 487.898438 22.653564 Q 487.264648 23.155762 486.136719 23.155762 Q 485.690918 23.155762 485.202148 23.061768 Q 484.713379 22.967773 484.144043 22.779785 L 484.144043 21.759277 Q 484.697266 22.043945 485.202148 22.186279 Q 485.707031 22.328613 486.158203 22.328613 Q 486.813477 22.328613 487.173340 22.062744 Q 487.533203 21.796875 487.533203 21.318848 Q 487.533203 20.631348 486.217285 20.368164 L 486.174316 20.357422 L 485.803711 20.282227 Q 484.949707 20.115723 484.557617 19.720947 Q 484.165527 19.326172 484.165527 18.644043 Q 484.165527 17.779297 484.750977 17.309326 Q 485.336426 16.839355 486.421387 16.839355 Q 486.904785 16.839355 487.350586 16.927979 Q 487.796387 17.016602 488.226074 17.193848 Z " fill="rgb(0, 0, 0)" fill-opacity="1.000000" />
<path d="M 506.878906 26.319336 L 506.878906 12.300781 L 507.738281 12.300781 L 507.738281 26.319336 Z " fill="rgb(0, 0, 0)" fill-opacity="1.000000" />
<path d="M 6.892578 7.335938 L 6.892578 6.412109 L 13.729980 6.412109 L 13.729980 7.335938 Z " fill="rgb(0, 0, 0)" fill-opacity="1.000000" />
<path d="M 13.892578 7.335938 L 13.892578 6.412109 L 20.729980 6.412109 L 20.729980 7.335938 Z " fill="rgb(0, 0, 0)" fill-opacity="1.000000" />
<path d="M 20.892578 7.335938 L 20.892578 6.412109 L 27.729980 6.412109 L 27.729980 7.335938 Z " fill="rgb(0, 0, 0)" fill-opacity="1.000000" />
<path d="M 27.892578 7.335938 L 27.892578 6.412109 L 34.729980 6.412109 L 34.729980 7.335938 Z " fill="rgb(0, 0, 0)" fill-opacity="1.000000" />
<path d="M 34.892578 7.335938 L 34.892578 6.412109 L 41.729980 6.412109 L 41.729980 7.335938 Z " fill="rgb(0, 0, 0)" fill-opacity="1.000000" />
<path d="M 41.892578 7.335938 L 41.892578 6.412109 L 48.729980 6.412109 L 48.729980 7.335938 Z " fill="rgb(0, 0, 0)" fill-opacity="1.000000" />
<path d="M 48.892578 7.335938 L 48.892578 6.412109 L 55.729980 6.412109 L 55.729980 7.335938 Z " fill="rgb(0, 0, 0)" fill-opacity="1.000000" />
<path d="M 55.892578 7.335938 L 55.892578 6.412109 L 62.729980 6.412109 L 62.729980 7.335938 Z " fill="rgb(0, 0, 0)" fill-opacity="1.000000" />
<path d="M 62.892578 7.335938 L 62.892578 6.412109 L 69.729980 6.412109 L 69.729980 7.335938 Z " fill="rgb(0, 0, 0)" fill-opacity="1.000000" />
<path d="M 69.892578 7.335938 L 69.892578 6.412109 L 76.729980 6.412109 L 76.729980 7.335938 Z " fill="rgb(0, 0, 0)" fill-opacity="1.000000" />
<path d="M 76.892578 7.335938 L 76.892578 6.412109 L 83.729980 6.412109 L 83.729980 7.335938 Z " fill="rgb(0, 0, 0)" fill-opacity="1.000000" />
<path d="M 86.878906 13.319336 L 86.878906 7.335938 L 83.892578 7.335938 L 83.892578 6.412109 L 87.738281 6.412109 L 87.738281 13.319336 Z " fill="rgb(0, 0, 0)" fill-opacity="1.000000" />
<path d="M 107.878906 13.319336 L 107.878906 6.412109 L 111.729980 6.412109 L 111.729980 7.335938 L 108.738281 7.335938 L 108.738281 13.319336 Z " fill="rgb(0, 0, 0)" fill-opacity="1.000000" />
<path d="M 111.892578 7.335938 L 111.892578 6.412109 L 118.729980 6.412109 L 118.729980 7.335938 Z " fill="rgb(0, 0, 0)" fill-opacity="1.000000" />
<path d="M 118.892578 7.335938 L 118.892578 6.412109 L 125.729980 6.412109 L 125.729980 7.335938 Z " fill="rgb(0, 0, 0)" fill-opacity="1.000000" />
<path d="M 125.892578 7.335938 L 125.892578 6.412109 L 132.729980 6.412109 L 132.729980 7.335938 Z " fill="rgb(0, 0, 0)" fill-opacity="1.000000" />
<path d="M 132.892578 7.335938 L 132.892578 6.412109 L 139.729980 6.412109 L 139.729980 7.335938 Z " fill="rgb(0, 0, 0)" fill-opacity="1.000000" />
<path d="M 139.892578 7.335938 L 139.892578 6.412109 L 146.729980 6.412109 L 146.729980 7.335938 Z " fill="rgb(0, 0, 0)" fill-opacity="1.000000" />
<path d="M 146.892578 7.335938 L 146.892578 6.412109 L 153.729980 6.412109 L 153.729980 7.335938 Z " fill="rgb(0, 0, 0)" fill-opacity="1.000000" />
<path d="M 153.892578 7.335938 L 153.892578 6.412109 L 160.729980 6.412109 L 160.729980 7.335938 Z " fill="rgb(0, 0, 0)" fill-opacity="1.000000" />
<path d="M 160.892578 7.335938 L 160.892578 6.412109 L 167.729980 6.412109 L 167.729980 7.335938 Z " fill="rgb(0, 0, 0)" fill-opacity="1.000000" />
<path d="M 167.892578 7.335938 L 167.892578 6.412109 L 174.729980 6.412109 L 174.729980 7.335938 Z " fill="rgb(0, 0, 0)" fill-opacity="1.000000" />
<path d="M 174.892578 7.335938 L 174.892578 6.412109 L 181.729980 6.412109 L 181.729980 7.335938 Z " fill="rgb(0, 0, 0)" fill-opacity="1.000000" />
<path d="M 181.892578 7.335938 L 181.892578 6.412109 L 188.729980 6.412109 L 188.729980 7.335938 Z " fill="rgb(0, 0, 0)" fill-opacity="1.000000" />
<path d="M 191.878906 13.319336 L 191.878906 7.335938 L 188.892578 7.335938 L 188.892578 6.412109 L 192.738281 6.412109 L 192.738281 13.319336 Z " fill="rgb(0, 0, 0)" fill-opacity="1.000000" />
<path d="M 212.878906 13.319336 L 212.878906 6.412109 L 216.729980 6.412109 L 216.729980 7.335938 L 213.738281 7.335938 L 213.738281 13.319336 Z " fill="rgb(0, 0, 0)" fill-opacity="1.000000" />
<path d="M 216.892578 7.335938 L 216.892578 6.412109 L 223.729980 6.412109 L 223.729980 7.335938 Z " fill="rgb(0, 0, 0)" fill-opacity="1.000000" />
<path d="M 223.892578 7.335938 L 223.892578 6.412109 L 230.729980 6.412109 L 230.729980 7.335938 Z " fill="rgb(0, 0, 0)" fill-opacity="1.000000" />
<path d="M 230.892578 7.335938 L 230.892578 6.412109 L 237.729980 6.412109 L 237.729980 7.335938 Z " fill="rgb(0, 0, 0)" fill-opacity="1.000000" />
<path d="M 237.892578 7.335938 L 237.892578 6.412109 L 244.729980 6.412109 L 244.729980 7.335938 Z " fill="rgb(0, 0, 0)" fill-opacity="1.000000" />
<path d="M 244.892578 7.335938 L 244.892578 6.412109 L 251.729980 6.412109 L 251.729980 7.335938 Z " fill="rgb(0, 0, 0)" fill-opacity="1.000000" />
<path d="M 251.892578 7.335938 L 251.892578 6.412109 L 258.729980 6.412109 L 258.729980 7.335938 Z " fill="rgb(0, 0, 0)" fill-opacity="1.000000" />
<path d="M 258.892578 7.335938 L 258.892578 6.412109 L 265.729980 6.412109 L 265.729980 7.335938 Z " fill="rgb(0, 0, 0)" fill-opacity="1.000000" />
<path d="M 265.892578 7.335938 L 265.892578 6.412109 L 272.729980 6.412109 L 272.729980 7.335938 Z " fill="rgb(0, 0, 0)" fill-opacity="1.000000" />
<path d="M 272.892578 7.335938 L 272.892578 6.412109 L 279.729980 6.412109 L 279.729980 7.335938 Z " fill="rgb(0, 0, 0)" fill-opacity="1.000000" />
<path d="M 279.892578 7.335938 L 279.892578 6.412109 L 286.729980 6.412109 L 286.729980 7.335938 Z " fill="rgb(0, 0, 0)" fill-opacity="1.000000" />
<path d="M 286.892578 7.335938 L 286.892578 6.412109 L 293.729980 6.412109 L 293.729980 7.335938 Z " fill="rgb(0, 0, 0)" fill-opacity="1.000000" />
<path d="M 296.878906 13.319336 L 296.878906 7.335938 L 293.892578 7.335938 L 293.892578 6.412109 L 297.738281 6.412109 L 297.738281 13.319336 Z " fill="rgb(0, 0, 0)" fill-opacity="1.000000" />
<path d="M 317.878906 13.319336 L 317.878906 6.412109 L 321.729980 6.412109 L 321.729980 7.335938 L 318.738281 7.335938 L 318.738281 13.319336 Z " fill="rgb(0, 0, 0)" fill-opacity="1.000000" />
<path d="M 321.892578 7.335938 L 321.892578 6.412109 L 328.729980 6.412109 L 328.729980 7.335938 Z " fill="rgb(0, 0, 0)" fill-opacity="1.000000" />
<path d="M 328.892578 7.335938 L 328.892578 6.412109 L 335.729980 6.412109 L 335.729980 7.335938 Z " fill="rgb(0, 0, 0)" fill-opacity="1.000000" />
<path d="M 335.892578 7.335938 L 335.892578 6.412109 L 342.729980 6.412109 L 342.729980 7.335938 Z " fill="rgb(0, 0, 0)" fill-opacity="1.000000" />
<path d="M 342.892578 7.335938 L 342.892578 6.412109 L 349.729980 6.412109 L 349.729980 7.335938 Z " fill="rgb(0, 0, 0)" fill-opacity="1.000000" />
<path d="M 349.892578 7.335938 L 349.892578 6.412109 L 356.729980 6.412109 L 356.729980 7.335938 Z " fill="rgb(0, 0, 0)" fill-opacity="1.000000" />
<path d="M 356.892578 7.335938 L 356.892578 6.412109 L 363.729980 6.412109 L 363.729980 7.335938 Z " fill="rgb(0, 0, 0)" fill-opacity="1.000000" />
<path d="M 363.892578 7.335938 L 363.892578 6.412109 L 370.729980 6.412109 L 370.729980 7.335938 Z " fill="rgb(0, 0, 0)" fill-opacity="1.000000" />
<path d="M 370.892578 7.335938 L 370.892578 6.412109 L 377.729980 6.412109 L 377.729980 7.335938 Z " fill="rgb(0, 0, 0)" fill-opacity="1.000000" />
<path d="M 377.892578 7.335938 L 377.892578 6.412109 L 384.729980 6.412109 L 384.729980 7.335938 Z " fill="rgb(0, 0, 0)" fill-opacity="1.000000" />
<path d="M 384.892578 7.335938 L 384.892578 6.412109 L 391.729980 6.412109 L 391.729980 7.335938 Z " fill="rgb(0, 0, 0)" fill-opacity="1.000000" />
<path d="M 391.892578 7.335938 L 391.892578 6.412109 L 398.729980 6.412109 L 398.729980 7.335938 Z " fill="rgb(0, 0, 0)" fill-opacity="1.000000" />
<path d="M 401.878906 13.319336 L 401.878906 7.335938 L 398.892578 7.335938 L 398.892578 6.412109 L 402.738281 6.412109 L 402.738281 13.319336 Z " fill="rgb(0, 0, 0)" fill-opacity="1.000000" />
<path d="M 422.878906 13.319336 L 422.878906 6.412109 L 426.729980 6.412109 L 426.729980 7.335938 L 423.738281 7.335938 L 423.738281 13.319336 Z " fill="rgb(0, 0, 0)" fill-opacity="1.000000" />
<path d="M 426.892578 7.335938 L 426.892578 6.412109 L 433.729980 6.412109 L 433.729980 7.335938 Z " fill="rgb(0, 0, 0)" fill-opacity="1.000000" />
<path d="M 433.892578 7.335938 L 433.892578 6.412109 L 440.729980 6.412109 L 440.729980 7.335938 Z " fill="rgb(0, 0, 0)" fill-opacity="1.000000" />
<path d="M 440.892578 7.335938 L 440.892578 6.412109 L 447.729980 6.412109 L 447.729980 7.335938 Z " fill="rgb(0, 0, 0)" fill-opacity="1.000000" />
<path d="M 447.892578 7.335938 L 447.892578 6.412109 L 454.729980 6.412109 L 454.729980 7.335938 Z " fill="rgb(0, 0, 0)" fill-opacity="1.000000" />
<path d="M 454.892578 7.335938 L 454.892578 6.412109 L 461.729980 6.412109 L 461.729980 7.335938 Z " fill="rgb(0, 0, 0)" fill-opacity="1.000000" />
<path d="M 461.892578 7.335938 L 461.892578 6.412109 L 468.729980 6.412109 L 468.729980 7.335938 Z " fill="rgb(0, 0, 0)" fill-opacity="1.000000" />
<path d="M 468.892578 7.335938 L 468.892578 6.412109 L 475.729980 6.412109 L 475.729980 7.335938 Z " fill="rgb(0, 0, 0)" fill-opacity="1.000000" />
<path d="M 475.892578 7.335938 L 475.892578 6.412109 L 482.729980 6.412109 L 482.729980 7.335938 Z " fill="rgb(0, 0, 0)" fill-opacity="1.000000" />
<path d="M 482.892578 7.335938 L 482.892578 6.412109 L 489.729980 6.412109 L 489.729980 7.335938 Z " fill="rgb(0, 0, 0)" fill-opacity="1.000000" />
<path d="M 489.892578 7.335938 L 489.892578 6.412109 L 496.729980 6.412109 L 496.729980 7.335938 Z " fill="rgb(0, 0, 0)" fill-opacity="1.000000" />
<path d="M 496.892578 7.335938 L 496.892578 6.412109 L 503.729980 6.412109 L 503.729980 7.335938 Z " fill="rgb(0, 0, 0)" fill-opacity="1.000000" />
<path d="M 506.878906 13.319336 L 506.878906 7.335938 L 503.892578 7.335938 L 503.892578 6.412109 L 507.738281 6.412109 L 507.738281 13.319336 Z " fill="rgb(0, 0, 0)" fill-opacity="1.000000" />
</svg>