<svg xmlns="http://www.w3.org/2000/svg" version="1.1" width="372" height="196">
<path d="M 0.252441 1.980957 L 6.370117 1.980957 L 6.370117 2.894043 L 3.861816 2.894043 L 3.861816 10.000000 L 2.771484 10.000000 L 2.771484 2.894043 L 0.252441 2.894043 Z " fill="rgb(0, 0, 0)" fill-opacity="1.000000" />
<path d="M 79.019531 26.319336 L 79.019531 12.300781 L 79.878906 12.300781 L 79.878906 26.319336 Z M 80.738281 26.319336 L 80.738281 12.300781 L 81.597656 12.300781 L 81.597656 26.319336 Z " fill="rgb(0, 0, 0)" fill-opacity="1.000000" />
<path d="M 79.019531 39.319336 L 79.019531 25.300781 L 79.878906 25.300781 L 79.878906 39.319336 Z M 80.738281 39.319336 L 80.738281 25.300781 L 81.597656 25.300781 L 81.597656 39.319336 Z " fill="rgb(0, 0, 0)" fill-opacity="1.000000" />
<path d="M 79.019531 52.319336 L 79.019531 38.300781 L 79.878906 38.300781 L 79.878906 52.319336 Z M 80.738281 52.319336 L 80.738281 38.300781 L 81.597656 38.300781 L 81.597656 52.319336 Z " fill="rgb(0, 0, 0)" fill-opacity="1.000000" />
<path d="M 80.738281 58.412109 L 80.738281 51.300781 L 81.597656 51.300781 L 81.597656 57.488281 L 83.729980 57.488281 L 83.729980 58.412109 Z M 79.019531 65.319336 L 79.019531 51.300781 L 79.878906 51.300781 L 79.878906 65.319336 Z M 80.738281 65.319336 L 80.738281 59.335938 L 83.729980 59.335938 L 83.729980 60.259766 L 81.597656 60.259766 L 81.597656 65.319336 Z " fill="rgb(0, 0, 0)" fill-opacity="1.000000" />
<path d="M 79.019531 78.319336 L 79.019531 64.300781 L 79.878906 64.300781 L 79.878906 78.319336 Z M 80.738281 78.319336 L 80.738281 64.300781 L 81.597656 64.300781 L 81.597656 78.319336 Z " fill="rgb(0, 0, 0)" fill-opacity="1.000000" />
<path d="M 79.019531 91.319336 L 79.019531 77.300781 L 79.878906 77.300781 L 79.878906 91.319336 Z M 80.738281 91.319336 L 80.738281 77.300781 L 81.597656 77.300781 L 81.597656 91.319336 Z " fill="rgb(0, 0, 0)" fill-opacity="1.000000" />
<path d="M 79.019531 104.319336 L 79.019531 90.300781 L 79.878906 90.300781 L 79.878906 104.319336 Z M 80.738281 104.319336 L 80.738281 90.300781 L 81.597656 90.300781 L 81.597656 104.319336 Z " fill="rgb(0, 0, 0)" fill-opacity="1.000000" />
<path d="M 80.738281 110.412109 L 80.738281 103.300781 L 81.597656 103.300781 L 81.597656 109.488281 L 83.729980 109.488281 L 83.729980 110.412109 Z M 79.019531 117.319336 L 79.019531 103.300781 L 79.878906 103.300781 L 79.878906 117.319336 Z M 80.738281 117.319336 L 80.738281 111.335938 L 83.729980 111.335938 L 83.729980 112.259766 L 81.597656 112.259766 L 81.597656 117.319336 Z " fill="rgb(0, 0, 0)" fill-opacity="1.000000" />
<path d="M 79.019531 130.319336 L 79.019531 116.300781 L 79.878906 116.300781 L 79.878906 130.319336 Z M 80.738281 130.319336 L 80.738281 116.300781 L 81.597656 116.300781 L 81.597656 130.319336 Z " fill="rgb(0, 0, 0)" fill-opacity="1.000000" />
<path d="M 79.019531 143.319336 L 79.019531 129.300781 L 79.878906 129.300781 L 79.878906 143.319336 Z M 80.738281 143.319336 L 80.738281 129.300781 L 81.597656 129.300781 L 81.597656 143.319336 Z " fill="rgb(0, 0, 0)" fill-opacity="1.000000" />
<path d="M 93.449219 169.319336 L 93.449219 161.950195 L 97.729980 161.950195 L 97.729980 163.797852 L 95.167969 163.797852 L 95.167969 169.319336 Z " fill="rgb(0, 0, 0)" fill-opacity="1.000000" />
<path d="M 93.449219 182.319336 L 93.449219 168.300781 L 95.167969 168.300781 L 95.167969 182.319336 Z " fill="rgb(0, 0, 0)" fill-opacity="1.000000" />
<path d="M 93.449219 189.797852 L 93.449219 181.300781 L 95.167969 181.300781 L 95.167969 187.950195 L 97.729980 187.950195 L 97.729980 189.797852 Z " fill="rgb(0, 0, 0)" fill-opacity="1.000000" />
<path d="M 97.892578 189.797852 L 97.892578 187.950195 L 104.729980 187.950195 L 104.729980 189.797852 Z " fill="rgb(0, 0, 0)" fill-opacity="1.000000" />
<path d="M 104.892578 189.797852 L 104.892578 187.950195 L 111.729980 187.950195 L 111.729980 189.797852 Z " fill="rgb(0, 0, 0)" fill-opacity="1.000000" />
<path d="M 111.892578 189.797852 L 111.892578 187.950195 L 118.729980 187.950195 L 118.729980 189.797852 Z " fill="rgb(0, 0, 0)" fill-opacity="1.000000" />
<path d="M 118.892578 189.797852 L 118.892578 187.950195 L 125.729980 187.950195 L 125.729980 189.797852 Z " fill="rgb(0, 0, 0)" fill-opacity="1.000000" />
<path d="M 125.892578 189.797852 L 125.892578 187.950195 L 132.729980 187.950195 L 132.729980 189.797852 Z " fill="rgb(0, 0, 0)" fill-opacity="1.000000" />
<path d="M 132.892578 189.797852 L 132.892578 187.950195 L 139.729980 187.950195 L 139.729980 189.797852 Z " fill="rgb(0, 0, 0)" fill-opacity="1.000000" />
<path d="M 139.892578 189.797852 L 139.892578 187.950195 L 146.729980 187.950195 L 146.729980 189.797852 Z " fill="rgb(0, 0, 0)" fill-opacity="1.000000" />
<path d="M 146.892578 189.797852 L 146.892578 187.950195 L 153.729980 187.950195 L 153.729980 189.797852 Z " fill="rgb(0, 0, 0)" fill-opacity="1.000000" />
<path d="M 153.892578 189.797852 L 153.892578 187.950195 L 160.729980 187.950195 L 160.729980 189.797852 Z " fill="rgb(0, 0, 0)" fill-opacity="1.000000" />
<path d="M 160.892578 189.797852 L 160.892578 187.950195 L 167.729980 187.950195 L 167.729980 189.797852 Z " fill="rgb(0, 0, 0)" fill-opacity="1.000000" />
<path d="M 167.892578 189.797852 L 167.892578 187.950195 L 170.449219 187.950195 L 170.449219 181.300781 L 172.167969 181.300781 L 172.167969 189.797852 Z " fill="rgb(0, 0, 0)" fill-opacity="1.000000" />
<path d="M 275.449219 189.797852 L 275.449219 181.300781 L 277.167969 181.300781 L 277.167969 187.950195 L 279.729980 187.950195 L 279.729980 189.797852 Z " fill="rgb(0, 0, 0)" fill-opacity="1.000000" />
<path d="M 279.892578 189.797852 L 279.892578 187.950195 L 286.729980 187.950195 L 286.729980 189.797852 Z " fill="rgb(0, 0, 0)" fill-opacity="1.000000" />
<path d="M 286.892578 189.797852 L 286.892578 187.950195 L 293.729980 187.950195 L 293.729980 189.797852 Z " fill="rgb(0, 0, 0)" fill-opacity="1.000000" />
<path d="M 293.892578 189.797852 L 293.892578 187.950195 L 300.729980 187.950195 L 300.729980 189.797852 Z " fill="rgb(0, 0, 0)" fill-opacity="1.000000" />
<path d="M 300.892578 189.797852 L 300.892578 187.950195 L 307.729980 187.950195 L 307.729980 189.797852 Z " fill="rgb(0, 0, 0)" fill-opacity="1.000000" />
<path d="M 307.892578 189.797852 L 307.892578 187.950195 L 314.729980 187.950195 L 314.729980 189.797852 Z " fill="rgb(0, 0, 0)" fill-opacity="1.000000" />
<path d="M 314.892578 189.797852 L 314.892578 187.950195 L 321.729980 187.950195 L 321.729980 189.797852 Z " fill="rgb(0, 0, 0)" fill-opacity="1.000000" />
<path d="M 321.892578 189.797852 L 321.892578 187.950195 L 328.729980 187.950195 L 328.729980 189.797852 Z " fill="rgb(0, 0, 0)" fill-opacity="1.000000" />
<path d="M 328.892578 189.797852 L 328.892578 187.950195 L 335.729980 187.950195 L 335.729980 189.797852 Z " fill="rgb(0, 0, 0)" fill-opacity="1.000000" />
<path d="M 335.892578 189.797852 L 335.892578 187.950195 L 342.729980 187.950195 L 342.729980 189.797852 Z " fill="rgb(0, 0, 0)" fill-opacity="1.000000" />
<path d="M 342.892578 189.797852 L 342.892578 187.950195 L 349.729980 187.950195 L 349.729980 189.797852 Z " fill="rgb(0, 0, 0)" fill-opacity="1.000000" />
<path d="M 349.892578 189.797852 L 349.892578 187.950195 L 352.449219 187.950195 L 352.449219 181.300781 L 354.167969 181.300781 L 354.167969 189.797852 Z " fill="rgb(0, 0, 0)" fill-opacity="1.000000" />
<path d="M 113.981934 174.955566 L 113.981934 178.108398 L 115.265625 178.108398 Q 116.210938 178.108398 116.613770 177.778076 Q 117.016602 177.447754 117.016602 176.690430 Q 117.016602 175.691406 116.592285 175.323486 Q 116.167969 174.955566 115.265625 174.955566 Z M 113.981934 171.872559 L 113.981934 174.074707 L 115.244141 174.074707 Q 116.028320 174.074707 116.380127 173.773926 Q 116.731934 173.473145 116.731934 173.016602 Q 116.731934 172.409668 116.385498 172.141113 Q 116.039062 171.872559 115.244141 171.872559 Z M 112.891602 170.980957 L 115.265625 170.980957 Q 116.495605 170.980957 117.161621 171.512695 Q 117.827637 172.044434 117.827637 173.016602 Q 117.827637 173.537598 117.475830 173.961914 Q 117.124023 174.386230 116.420410 174.493652 Q 117.209961 174.611816 117.658447 175.167725 Q 118.106934 175.723633 118.106934 176.797852 Q 118.106934 177.888184 117.392578 178.444092 Q 116.678223 179.000000 115.265625 179.000000 L 112.891602 179.000000 Z " fill="rgb(0, 0, 0)" fill-opacity="1.000000" />
<path d="M 120.058105 170.980957 L 124.816895 170.980957 L 124.816895 171.894043 L 121.143066 171.894043 L 121.143066 174.053223 L 124.655762 174.053223 L 124.655762 174.966309 L 121.143066 174.966309 L 121.143066 178.086914 L 124.918945 178.086914 L 124.918945 179.000000 L 120.058105 179.000000 Z " fill="rgb(0, 0, 0)" fill-opacity="1.000000" />
<path d="M 127.251465 170.980957 L 131.972656 170.980957 L 131.972656 171.894043 L 128.341797 171.894043 L 128.341797 174.042480 L 131.634277 174.042480 L 131.634277 174.955566 L 128.341797 174.955566 L 128.341797 179.000000 L 127.251465 179.000000 Z " fill="rgb(0, 0, 0)" fill-opacity="1.000000" />
<path d="M 137.860840 174.998535 Q 137.860840 173.231445 137.498291 172.474121 Q 137.135742 171.716797 136.308594 171.716797 Q 135.486816 171.716797 135.124268 172.474121 Q 134.761719 173.231445 134.761719 174.998535 Q 134.761719 176.760254 135.124268 177.517578 Q 135.486816 178.274902 136.308594 178.274902 Q 137.135742 178.274902 137.498291 177.520264 Q 137.860840 176.765625 137.860840 174.998535 Z M 138.994141 174.998535 Q 138.994141 177.093262 138.330811 178.124512 Q 137.667480 179.155762 136.308594 179.155762 Q 134.949707 179.155762 134.289062 178.129883 Q 133.628418 177.104004 133.628418 174.998535 Q 133.628418 172.898438 134.291748 171.867188 Q 134.955078 170.835938 136.308594 170.835938 Q 137.667480 170.835938 138.330811 171.867188 Q 138.994141 172.898438 138.994141 174.998535 Z " fill="rgb(0, 0, 0)" fill-opacity="1.000000" />
<path d="M 144.082031 175.213379 Q 144.500977 175.320801 144.796387 175.618896 Q 145.091797 175.916992 145.532227 176.808594 L 146.622559 179.000000 L 145.457031 179.000000 L 144.500977 176.975098 Q 144.087402 176.110352 143.757080 175.860596 Q 143.426758 175.610840 142.895020 175.610840 L 141.858398 175.610840 L 141.858398 179.000000 L 140.768066 179.000000 L 140.768066 170.980957 L 143.002441 170.980957 Q 144.323730 170.980957 145.027344 171.577148 Q 145.730957 172.173340 145.730957 173.301270 Q 145.730957 174.096191 145.298584 174.598389 Q 144.866211 175.100586 144.082031 175.213379 Z M 141.858398 171.872559 L 141.858398 174.719238 L 143.045410 174.719238 Q 143.824219 174.719238 144.205566 174.370117 Q 144.586914 174.020996 144.586914 173.301270 Q 144.586914 172.608398 144.181396 172.240479 Q 143.775879 171.872559 143.002441 171.872559 Z " fill="rgb(0, 0, 0)" fill-opacity="1.000000" />
<path d="M 148.058105 170.980957 L 152.816895 170.980957 L 152.816895 171.894043 L 149.143066 171.894043 L 149.143066 174.053223 L 152.655762 174.053223 L 152.655762 174.966309 L 149.143066 174.966309 L 149.143066 178.086914 L 152.918945 178.086914 L 152.918945 179.000000 L 148.058105 179.000000 Z " fill="rgb(0, 0, 0)" fill-opacity="1.000000" />
<path d="M 170.449219 182.319336 L 170.449219 168.300781 L 172.167969 168.300781 L 172.167969 182.319336 Z " fill="rgb(0, 0, 0)" fill-opacity="1.000000" />
<path d="M 275.449219 182.319336 L 275.449219 168.300781 L 277.167969 168.300781 L 277.167969 182.319336 Z " fill="rgb(0, 0, 0)" fill-opacity="1.000000" />
<path d="M 297.308594 171.937012 L 296.164551 176.040527 L 298.452637 176.040527 Z M 296.653320 170.980957 L 297.969238 170.980957 L 300.423828 179.000000 L 299.301270 179.000000 L 298.710449 176.910645 L 295.901367 176.910645 L 295.321289 179.000000 L 294.198730 179.000000 Z " fill="rgb(0, 0, 0)" fill-opacity="1.000000" />
<path d="M 302.251465 170.980957 L 306.972656 170.980957 L 306.972656 171.894043 L 303.341797 171.894043 L 303.341797 174.042480 L 306.634277 174.042480 L 306.634277 174.955566 L 303.341797 174.955566 L 303.341797 179.000000 L 302.251465 179.000000 Z " fill="rgb(0, 0, 0)" fill-opacity="1.000000" />
<path d="M 308.252441 170.980957 L 314.370117 170.980957 L 314.370117 171.894043 L 311.861816 171.894043 L 311.861816 179.000000 L 310.771484 179.000000 L 310.771484 171.894043 L 308.252441 171.894043 Z " fill="rgb(0, 0, 0)" fill-opacity="1.000000" />
<path d="M 316.058105 170.980957 L 320.816895 170.980957 L 320.816895 171.894043 L 317.143066 171.894043 L 317.143066 174.053223 L 320.655762 174.053223 L 320.655762 174.966309 L 317.143066 174.966309 L 317.143066 178.086914 L 320.918945 178.086914 L 320.918945 179.000000 L 316.058105 179.000000 Z " fill="rgb(0, 0, 0)" fill-opacity="1.000000" />
<path d="M 326.082031 175.213379 Q 326.500977 175.320801 326.796387 175.618896 Q 327.091797 175.916992 327.532227 176.808594 L 328.622559 179.000000 L 327.457031 179.000000 L 326.500977 176.975098 Q 326.087402 176.110352 325.757080 175.860596 Q 325.426758 175.610840 324.895020 175.610840 L 323.858398 175.610840 L 323.858398 179.000000 L 322.768066 179.000000 L 322.768066 170.980957 L 325.002441 170.980957 Q 326.323730 170.980957 327.027344 171.577148 Q 327.730957 172.173340 327.730957 173.301270 Q 327.730957 174.096191 327.298584 174.598389 Q 326.866211 175.100586 326.082031 175.213379 Z M 323.858398 171.872559 L 323.858398 174.719238 L 325.045410 174.719238 Q 325.824219 174.719238 326.205566 174.370117 Q 326.586914 174.020996 326.586914 173.301270 Q 326.586914 172.608398 326.181396 172.240479 Q 325.775879 171.872559 325.002441 171.872559 Z " fill="rgb(0, 0, 0)" fill-opacity="1.000000" />
<path d="M 352.449219 182.319336 L 352.449219 168.300781 L 354.167969 168.300781 L 354.167969 182.319336 Z " fill="rgb(0, 0, 0)" fill-opacity="1.000000" />
<path d="M 97.892578 163.797852 L 97.892578 161.950195 L 104.729980 161.950195 L 104.729980 163.797852 Z " fill="rgb(0, 0, 0)" fill-opacity="1.000000" />
<path d="M 104.892578 163.797852 L 104.892578 161.950195 L 111.729980 161.950195 L 111.729980 163.797852 Z " fill="rgb(0, 0, 0)" fill-opacity="1.000000" />
<path d="M 111.892578 163.797852 L 111.892578 161.950195 L 118.729980 161.950195 L 118.729980 163.797852 Z " fill="rgb(0, 0, 0)" fill-opacity="1.000000" />
<path d="M 118.892578 163.797852 L 118.892578 161.950195 L 125.729980 161.950195 L 125.729980 163.797852 Z " fill="rgb(0, 0, 0)" fill-opacity="1.000000" />
<path d="M 125.892578 163.797852 L 125.892578 161.950195 L 132.729980 161.950195 L 132.729980 163.797852 Z " fill="rgb(0, 0, 0)" fill-opacity="1.000000" />
<path d="M 132.892578 163.797852 L 132.892578 161.950195 L 139.729980 161.950195 L 139.729980 163.797852 Z " fill="rgb(0, 0, 0)" fill-opacity="1.000000" />
<path d="M 139.892578 163.797852 L 139.892578 161.950195 L 146.729980 161.950195 L 146.729980 163.797852 Z " fill="rgb(0, 0, 0)" fill-opacity="1.000000" />
<path d="M 146.892578 163.797852 L 146.892578 161.950195 L 153.729980 161.950195 L 153.729980 163.797852 Z " fill="rgb(0, 0, 0)" fill-opacity="1.000000" />
<path d="M 153.892578 163.797852 L 153.892578 161.950195 L 160.729980 161.950195 L 160.729980 163.797852 Z " fill="rgb(0, 0, 0)" fill-opacity="1.000000" />
<path d="M 160.892578 163.797852 L 160.892578 161.950195 L 167.729980 161.950195 L 167.729980 163.797852 Z " fill="rgb(0, 0, 0)" fill-opacity="1.000000" />
<path d="M 170.449219 169.319336 L 170.449219 163.797852 L 167.892578 163.797852 L 167.892578 161.950195 L 172.167969 161.950195 L 172.167969 169.319336 Z " fill="rgb(0, 0, 0)" fill-opacity="1.000000" />
<path d="M 275.449219 169.319336 L 275.449219 161.950195 L 279.729980 161.950195 L 279.729980 163.797852 L 277.167969 163.797852 L 277.167969 169.319336 Z " fill="rgb(0, 0, 0)" fill-opacity="1.000000" />
<path d="M 279.892578 163.797852 L 279.892578 161.950195 L 286.729980 161.950195 L 286.729980 163.797852 Z " fill="rgb(0, 0, 0)" fill-opacity="1.000000" />
<path d="M 286.892578 163.797852 L 286.892578 161.950195 L 293.729980 161.950195 L 293.729980 163.797852 Z " fill="rgb(0, 0, 0)" fill-opacity="1.000000" />
<path d="M 293.892578 163.797852 L 293.892578 161.950195 L 300.729980 161.950195 L 300.729980 163.797852 Z " fill="rgb(0, 0, 0)" fill-opacity="1.000000" />
<path d="M 300.892578 163.797852 L 300.892578 161.950195 L 307.729980 161.950195 L 307.729980 163.797852 Z " fill="rgb(0, 0, 0)" fill-opacity="1.000000" />
<path d="M 307.892578 163.797852 L 307.892578 161.950195 L 314.729980 161.950195 L 314.729980 163.797852 Z " fill="rgb(0, 0, 0)" fill-opacity="1.000000" />
<path d="M 314.892578 163.797852 L 314.892578 161.950195 L 321.729980 161.950195 L 321.729980 163.797852 Z " fill="rgb(0, 0, 0)" fill-opacity="1.000000" />
<path d="M 321.892578 163.797852 L 321.892578 161.950195 L 328.729980 161.950195 L 328.729980 163.797852 Z " fill="rgb(0, 0, 0)" fill-opacity="1.000000" />
<path d="M 328.892578 163.797852 L 328.892578 161.950195 L 335.729980 161.950195 L 335.729980 163.797852 Z " fill="rgb(0, 0, 0)" fill-opacity="1.000000" />
<path d="M 335.892578 163.797852 L 335.892578 161.950195 L 342.729980 161.950195 L 342.729980 163.797852 Z " fill="rgb(0, 0, 0)" fill-opacity="1.000000" />
<path d="M 342.892578 163.797852 L 342.892578 161.950195 L 349.729980 161.950195 L 349.729980 163.797852 Z " fill="rgb(0, 0, 0)" fill-opacity="1.000000" />
<path d="M 352.449219 169.319336 L 352.449219 163.797852 L 349.892578 163.797852 L 349.892578 161.950195 L 354.167969 161.950195 L 354.167969 169.319336 Z " fill="rgb(0, 0, 0)" fill-opacity="1.000000" />
<path d="M 184.019531 130.319336 L 184.019531 116.300781 L 184.878906 116.300781 L 184.878906 130.319336 Z M 185.738281 130.319336 L 185.738281 116.300781 L 186.597656 116.300781 L 186.597656 130.319336 Z " fill="rgb(0, 0, 0)" fill-opacity="1.000000" />
<path d="M 261.019531 143.319336 L 261.019531 129.300781 L 261.878906 129.300781 L 261.878906 143.319336 Z M 262.738281 143.319336 L 262.738281 129.300781 L 263.597656 129.300781 L 263.597656 143.319336 Z " fill="rgb(0, 0, 0)" fill-opacity="1.000000" />
<path d="M 261.019531 130.319336 L 261.019531 116.300781 L 261.878906 116.300781 L 261.878906 130.319336 Z M 262.738281 130.319336 L 262.738281 116.300781 L 263.597656 116.300781 L 263.597656 130.319336 Z " fill="rgb(0, 0, 0)" fill-opacity="1.000000" />
<path d="M 366.019531 130.319336 L 366.019531 116.300781 L 366.878906 116.300781 L 366.878906 130.319336 Z M 367.738281 130.319336 L 367.738281 116.300781 L 368.597656 116.300781 L 368.597656 130.319336 Z " fill="rgb(0, 0, 0)" fill-opacity="1.000000" />
<path d="M 83.892578 110.412109 L 83.892578 109.488281 L 90.729980 109.488281 L 90.729980 110.412109 Z M 83.892578 112.259766 L 83.892578 111.335938 L 90.729980 111.335938 L 90.729980 112.259766 Z " fill="rgb(0, 0, 0)" fill-opacity="1.000000" />
<path d="M 90.892578 110.412109 L 90.892578 109.488281 L 97.729980 109.488281 L 97.729980 110.412109 Z M 90.892578 112.259766 L 90.892578 111.335938 L 97.729980 111.335938 L 97.729980 112.259766 Z " fill="rgb(0, 0, 0)" fill-opacity="1.000000" />
<path d="M 97.892578 110.412109 L 97.892578 109.488281 L 104.729980 109.488281 L 104.729980 110.412109 Z M 97.892578 112.259766 L 97.892578 111.335938 L 104.729980 111.335938 L 104.729980 112.259766 Z " fill="rgb(0, 0, 0)" fill-opacity="1.000000" />
<path d="M 104.892578 110.412109 L 104.892578 109.488281 L 111.729980 109.488281 L 111.729980 110.412109 Z M 104.892578 112.259766 L 104.892578 111.335938 L 111.729980 111.335938 L 111.729980 112.259766 Z " fill="rgb(0, 0, 0)" fill-opacity="1.000000" />
<path d="M 111.892578 110.412109 L 111.892578 109.488281 L 118.729980 109.488281 L 118.729980 110.412109 Z M 111.892578 112.259766 L 111.892578 111.335938 L 118.729980 111.335938 L 118.729980 112.259766 Z " fill="rgb(0, 0, 0)" fill-opacity="1.000000" />
<path d="M 118.892578 110.412109 L 118.892578 109.488281 L 125.729980 109.488281 L 125.729980 110.412109 Z M 118.892578 112.259766 L 118.892578 111.335938 L 125.729980 111.335938 L 125.729980 112.259766 Z " fill="rgb(0, 0, 0)" fill-opacity="1.000000" />
<path d="M 125.892578 110.412109 L 125.892578 109.488281 L 132.729980 109.488281 L 132.729980 110.412109 Z M 125.892578 112.259766 L 125.892578 111.335938 L 132.729980 111.335938 L 132.729980 112.259766 Z " fill="rgb(0, 0, 0)" fill-opacity="1.000000" />
<path d="M 132.892578 110.412109 L 132.892578 109.488281 L 139.729980 109.488281 L 139.729980 110.412109 Z M 132.892578 112.259766 L 132.892578 111.335938 L 139.729980 111.335938 L 139.729980 112.259766 Z " fill="rgb(0, 0, 0)" fill-opacity="1.000000" />
<path d="M 139.892578 110.412109 L 139.892578 109.488281 L 146.729980 109.488281 L 146.729980 110.412109 Z M 139.892578 112.259766 L 139.892578 111.335938 L 146.729980 111.335938 L 146.729980 112.259766 Z " fill="rgb(0, 0, 0)" fill-opacity="1.000000" />
<path d="M 146.892578 110.412109 L 146.892578 109.488281 L 153.729980 109.488281 L 153.729980 110.412109 Z M 146.892578 112.259766 L 146.892578 111.335938 L 153.729980 111.335938 L 153.729980 112.259766 Z " fill="rgb(0, 0, 0)" fill-opacity="1.000000" />
<path d="M 153.892578 110.412109 L 153.892578 109.488281 L 160.729980 109.488281 L 160.729980 110.412109 Z M 153.892578 112.259766 L 153.892578 111.335938 L 160.729980 111.335938 L 160.729980 112.259766 Z " fill="rgb(0, 0, 0)" fill-opacity="1.000000" />
<path d="M 160.892578 110.412109 L 160.892578 109.488281 L 167.729980 109.488281 L 167.729980 110.412109 Z M 160.892578 112.259766 L 160.892578 111.335938 L 167.729980 111.335938 L 167.729980 112.259766 Z " fill="rgb(0, 0, 0)" fill-opacity="1.000000" />
<path d="M 167.892578 110.412109 L 167.892578 109.488281 L 174.729980 109.488281 L 174.729980 110.412109 Z M 167.892578 112.259766 L 167.892578 111.335938 L 174.729980 111.335938 L 174.729980 112.259766 Z " fill="rgb(0, 0, 0)" fill-opacity="1.000000" />
<path d="M 174.892578 110.412109 L 174.892578 109.488281 L 181.729980 109.488281 L 181.729980 110.412109 Z M 174.892578 112.259766 L 174.892578 111.335938 L 181.729980 111.335938 L 181.729980 112.259766 Z " fill="rgb(0, 0, 0)" fill-opacity="1.000000" />
<path d="M 181.892578 110.412109 L 181.892578 109.488281 L 184.019531 109.488281 L 184.019531 103.300781 L 184.878906 103.300781 L 184.878906 110.412109 Z M 184.019531 117.319336 L 184.019531 112.259766 L 181.892578 112.259766 L 181.892578 111.335938 L 184.878906 111.335938 L 184.878906 117.319336 Z M 185.738281 117.319336 L 185.738281 103.300781 L 186.597656 103.300781 L 186.597656 117.319336 Z " fill="rgb(0, 0, 0)" fill-opacity="1.000000" />
<path d="M 262.738281 110.412109 L 262.738281 103.300781 L 263.597656 103.300781 L 263.597656 109.488281 L 265.729980 109.488281 L 265.729980 110.412109 Z M 261.019531 117.319336 L 261.019531 103.300781 L 261.878906 103.300781 L 261.878906 117.319336 Z M 262.738281 117.319336 L 262.738281 111.335938 L 265.729980 111.335938 L 265.729980 112.259766 L 263.597656 112.259766 L 263.597656 117.319336 Z " fill="rgb(0, 0, 0)" fill-opacity="1.000000" />
<path d="M 265.892578 110.412109 L 265.892578 109.488281 L 272.729980 109.488281 L 272.729980 110.412109 Z M 265.892578 112.259766 L 265.892578 111.335938 L 272.729980 111.335938 L 272.729980 112.259766 Z " fill="rgb(0, 0, 0)" fill-opacity="1.000000" />
<path d="M 272.892578 110.412109 L 272.892578 109.488281 L 279.729980 109.488281 L 279.729980 110.412109 Z M 272.892578 112.259766 L 272.892578 111.335938 L 279.729980 111.335938 L 279.729980 112.259766 Z " fill="rgb(0, 0, 0)" fill-opacity="1.000000" />
<path d="M 279.892578 110.412109 L 279.892578 109.488281 L 286.729980 109.488281 L 286.729980 110.412109 Z M 279.892578 112.259766 L 279.892578 111.335938 L 286.729980 111.335938 L 286.729980 112.259766 Z " fill="rgb(0, 0, 0)" fill-opacity="1.000000" />
<path d="M 286.892578 110.412109 L 286.892578 109.488281 L 293.729980 109.488281 L 293.729980 110.412109 Z M 286.892578 112.259766 L 286.892578 111.335938 L 293.729980 111.335938 L 293.729980 112.259766 Z " fill="rgb(0, 0, 0)" fill-opacity="1.000000" />
<path d="M 293.892578 110.412109 L 293.892578 109.488281 L 300.729980 109.488281 L 300.729980 110.412109 Z M 293.892578 112.259766 L 293.892578 111.335938 L 300.729980 111.335938 L 300.729980 112.259766 Z " fill="rgb(0, 0, 0)" fill-opacity="1.000000" />
<path d="M 300.892578 110.412109 L 300.892578 109.488281 L 307.729980 109.488281 L 307.729980 110.412109 Z M 300.892578 112.259766 L 300.892578 111.335938 L 307.729980 111.335938 L 307.729980 112.259766 Z " fill="rgb(0, 0, 0)" fill-opacity="1.000000" />
<path d="M 307.892578 110.412109 L 307.892578 109.488281 L 314.729980 109.488281 L 314.729980 110.412109 Z M 307.892578 112.259766 L 307.892578 111.335938 L 314.729980 111.335938 L 314.729980 112.259766 Z " fill="rgb(0, 0, 0)" fill-opacity="1.000000" />
<path d="M 314.892578 110.412109 L 314.892578 109.488281 L 321.729980 109.488281 L 321.729980 110.412109 Z M 314.892578 112.259766 L 314.892578 111.335938 L 321.729980 111.335938 L 321.729980 112.259766 Z " fill="rgb(0, 0, 0)" fill-opacity="1.000000" />
<path d="M 321.892578 110.412109 L 321.892578 109.488281 L 328.729980 109.488281 L 328.729980 110.412109 Z M 321.892578 112.259766 L 321.892578 111.335938 L 328.729980 111.335938 L 328.729980 112.259766 Z " fill="rgb(0, 0, 0)" fill-opacity="1.000000" />
<path d="M 328.892578 110.412109 L 328.892578 109.488281 L 335.729980 109.488281 L 335.729980 110.412109 Z M 328.892578 112.259766 L 328.892578 111.335938 L 335.729980 111.335938 L 335.729980 112.259766 Z " fill="rgb(0, 0, 0)" fill-opacity="1.000000" />
<path d="M 335.892578 110.412109 L 335.892578 109.488281 L 342.729980 109.488281 L 342.729980 110.412109 Z M 335.892578 112.259766 L 335.892578 111.335938 L 342.729980 111.335938 L 342.729980 112.259766 Z " fill="rgb(0, 0, 0)" fill-opacity="1.000000" />
<path d="M 342.892578 110.412109 L 342.892578 109.488281 L 349.729980 109.488281 L 349.729980 110.412109 Z M 342.892578 112.259766 L 342.892578 111.335938 L 349.729980 111.335938 L 349.729980 112.259766 Z " fill="rgb(0, 0, 0)" fill-opacity="1.000000" />
<path d="M 349.892578 110.412109 L 349.892578 109.488281 L 356.729980 109.488281 L 356.729980 110.412109 Z M 349.892578 112.259766 L 349.892578 111.335938 L 356.729980 111.335938 L 356.729980 112.259766 Z " fill="rgb(0, 0, 0)" fill-opacity="1.000000" />
<path d="M 356.892578 110.412109 L 356.892578 109.488281 L 363.729980 109.488281 L 363.729980 110.412109 Z M 356.892578 112.259766 L 356.892578 111.335938 L 363.729980 111.335938 L 363.729980 112.259766 Z " fill="rgb(0, 0, 0)" fill-opacity="1.000000" />
<path d="M 363.892578 110.412109 L 363.892578 109.488281 L 366.019531 109.488281 L 366.019531 103.300781 L 366.878906 103.300781 L 366.878906 110.412109 Z M 366.019531 117.319336 L 366.019531 112.259766 L 363.892578 112.259766 L 363.892578 111.335938 L 366.878906 111.335938 L 366.878906 117.319336 Z M 367.738281 117.319336 L 367.738281 103.300781 L 368.597656 103.300781 L 368.597656 117.319336 Z " fill="rgb(0, 0, 0)" fill-opacity="1.000000" />
<path d="M 127.450195 87.092285 L 129.136719 87.092285 L 129.136719 81.033691 L 127.117188 82.005859 L 127.117188 80.963867 L 129.125977 80.007812 L 130.210938 80.007812 L 130.210938 87.092285 L 131.875977 87.092285 L 131.875977 88.000000 L 127.450195 88.000000 Z " fill="rgb(0, 0, 0)" fill-opacity="1.000000" />
<path d="M 184.019531 104.319336 L 184.019531 90.300781 L 184.878906 90.300781 L 184.878906 104.319336 Z M 185.738281 104.319336 L 185.738281 90.300781 L 186.597656 90.300781 L 186.597656 104.319336 Z " fill="rgb(0, 0, 0)" fill-opacity="1.000000" />
<path d="M 261.019531 104.319336 L 261.019531 90.300781 L 261.878906 90.300781 L 261.878906 104.319336 Z M 262.738281 104.319336 L 262.738281 90.300781 L 263.597656 90.300781 L 263.597656 104.319336 Z " fill="rgb(0, 0, 0)" fill-opacity="1.000000" />
<path d="M 366.019531 104.319336 L 366.019531 90.300781 L 366.878906 90.300781 L 366.878906 104.319336 Z M 367.738281 104.319336 L 367.738281 90.300781 L 368.597656 90.300781 L 368.597656 104.319336 Z " fill="rgb(0, 0, 0)" fill-opacity="1.000000" />
<path d="M 184.019531 91.319336 L 184.019531 77.300781 L 184.878906 77.300781 L 184.878906 91.319336 Z M 185.738281 91.319336 L 185.738281 77.300781 L 186.597656 77.300781 L 186.597656 91.319336 Z " fill="rgb(0, 0, 0)" fill-opacity="1.000000" />
<path d="M 261.019531 91.319336 L 261.019531 77.300781 L 261.878906 77.300781 L 261.878906 91.319336 Z M 262.738281 91.319336 L 262.738281 77.300781 L 263.597656 77.300781 L 263.597656 91.319336 Z " fill="rgb(0, 0, 0)" fill-opacity="1.000000" />
<path d="M 366.019531 91.319336 L 366.019531 77.300781 L 366.878906 77.300781 L 366.878906 91.319336 Z M 367.738281 91.319336 L 367.738281 77.300781 L 368.597656 77.300781 L 368.597656 91.319336 Z " fill="rgb(0, 0, 0)" fill-opacity="1.000000" />
<path d="M 184.019531 78.319336 L 184.019531 64.300781 L 184.878906 64.300781 L 184.878906 78.319336 Z M 185.738281 78.319336 L 185.738281 64.300781 L 186.597656 64.300781 L 186.597656 78.319336 Z " fill="rgb(0, 0, 0)" fill-opacity="1.000000" />
<path d="M 261.019531 78.319336 L 261.019531 64.300781 L 261.878906 64.300781 L 261.878906 78.319336 Z M 262.738281 78.319336 L 262.738281 64.300781 L 263.597656 64.300781 L 263.597656 78.319336 Z " fill="rgb(0, 0, 0)" fill-opacity="1.000000" />
<path d="M 366.019531 78.319336 L 366.019531 64.300781 L 366.878906 64.300781 L 366.878906 78.319336 Z M 367.738281 78.319336 L 367.738281 64.300781 L 368.597656 64.300781 L 368.597656 78.319336 Z " fill="rgb(0, 0, 0)" fill-opacity="1.000000" />
<path d="M 83.892578 58.412109 L 83.892578 57.488281 L 90.729980 57.488281 L 90.729980 58.412109 Z M 83.892578 60.259766 L 83.892578 59.335938 L 90.729980 59.335938 L 90.729980 60.259766 Z " fill="rgb(0, 0, 0)" fill-opacity="1.000000" />
<path d="M 90.892578 58.412109 L 90.892578 57.488281 L 97.729980 57.488281 L 97.729980 58.412109 Z M 90.892578 60.259766 L 90.892578 59.335938 L 97.729980 59.335938 L 97.729980 60.259766 Z " fill="rgb(0, 0, 0)" fill-opacity="1.000000" />
<path d="M 97.892578 58.412109 L 97.892578 57.488281 L 104.729980 57.488281 L 104.729980 58.412109 Z M 97.892578 60.259766 L 97.892578 59.335938 L 104.729980 59.335938 L 104.729980 60.259766 Z " fill="rgb(0, 0, 0)" fill-opacity="1.000000" />
<path d="M 104.892578 58.412109 L 104.892578 57.488281 L 111.729980 57.488281 L 111.729980 58.412109 Z M 104.892578 60.259766 L 104.892578 59.335938 L 111.729980 59.335938 L 111.729980 60.259766 Z " fill="rgb(0, 0, 0)" fill-opacity="1.000000" />
<path d="M 111.892578 58.412109 L 111.892578 57.488281 L 118.729980 57.488281 L 118.729980 58.412109 Z M 111.892578 60.259766 L 111.892578 59.335938 L 118.729980 59.335938 L 118.729980 60.259766 Z " fill="rgb(0, 0, 0)" fill-opacity="1.000000" />
<path d="M 118.892578 58.412109 L 118.892578 57.488281 L 125.729980 57.488281 L 125.729980 58.412109 Z M 118.892578 60.259766 L 118.892578 59.335938 L 125.729980 59.335938 L 125.729980 60.259766 Z " fill="rgb(0, 0, 0)" fill-opacity="1.000000" />
<path d="M 125.892578 58.412109 L 125.892578 57.488281 L 132.729980 57.488281 L 132.729980 58.412109 Z M 125.892578 60.259766 L 125.892578 59.335938 L 132.729980 59.335938 L 132.729980 60.259766 Z " fill="rgb(0, 0, 0)" fill-opacity="1.000000" />
<path d="M 132.892578 58.412109 L 132.892578 57.488281 L 139.729980 57.488281 L 139.729980 58.412109 Z M 132.892578 60.259766 L 132.892578 59.335938 L 139.729980 59.335938 L 139.729980 60.259766 Z " fill="rgb(0, 0, 0)" fill-opacity="1.000000" />
<path d="M 139.892578 58.412109 L 139.892578 57.488281 L 146.729980 57.488281 L 146.729980 58.412109 Z M 139.892578 60.259766 L 139.892578 59.335938 L 146.729980 59.335938 L 146.729980 60.259766 Z " fill="rgb(0, 0, 0)" fill-opacity="1.000000" />
<path d="M 146.892578 58.412109 L 146.892578 57.488281 L 153.729980 57.488281 L 153.729980 58.412109 Z M 146.892578 60.259766 L 146.892578 59.335938 L 153.729980 59.335938 L 153.729980 60.259766 Z " fill="rgb(0, 0, 0)" fill-opacity="1.000000" />
<path d="M 153.892578 58.412109 L 153.892578 57.488281 L 160.729980 57.488281 L 160.729980 58.412109 Z M 153.892578 60.259766 L 153.892578 59.335938 L 160.729980 59.335938 L 160.729980 60.259766 Z " fill="rgb(0, 0, 0)" fill-opacity="1.000000" />
<path d="M 160.892578 58.412109 L 160.892578 57.488281 L 167.729980 57.488281 L 167.729980 58.412109 Z M 160.892578 60.259766 L 160.892578 59.335938 L 167.729980 59.335938 L 167.729980 60.259766 Z " fill="rgb(0, 0, 0)" fill-opacity="1.000000" />
<path d="M 167.892578 58.412109 L 167.892578 57.488281 L 174.729980 57.488281 L 174.729980 58.412109 Z M 167.892578 60.259766 L 167.892578 59.335938 L 174.729980 59.335938 L 174.729980 60.259766 Z " fill="rgb(0, 0, 0)" fill-opacity="1.000000" />
<path d="M 174.892578 58.412109 L 174.892578 57.488281 L 181.729980 57.488281 L 181.729980 58.412109 Z M 174.892578 60.259766 L 174.892578 59.335938 L 181.729980 59.335938 L 181.729980 60.259766 Z " fill="rgb(0, 0, 0)" fill-opacity="1.000000" />
<path d="M 181.892578 58.412109 L 181.892578 57.488281 L 184.019531 57.488281 L 184.019531 51.300781 L 184.878906 51.300781 L 184.878906 58.412109 Z M 184.019531 65.319336 L 184.019531 60.259766 L 181.892578 60.259766 L 181.892578 59.335938 L 184.878906 59.335938 L 184.878906 65.319336 Z M 185.738281 65.319336 L 185.738281 51.300781 L 186.597656 51.300781 L 186.597656 65.319336 Z " fill="rgb(0, 0, 0)" fill-opacity="1.000000" />
<path d="M 262.738281 58.412109 L 262.738281 51.300781 L 263.597656 51.300781 L 263.597656 57.488281 L 265.729980 57.488281 L 265.729980 58.412109 Z M 261.019531 65.319336 L 261.019531 51.300781 L 261.878906 51.300781 L 261.878906 65.319336 Z M 262.738281 65.319336 L 262.738281 59.335938 L 265.729980 59.335938 L 265.729980 60.259766 L 263.597656 60.259766 L 263.597656 65.319336 Z " fill="rgb(0, 0, 0)" fill-opacity="1.000000" />
<path d="M 265.892578 58.412109 L 265.892578 57.488281 L 272.729980 57.488281 L 272.729980 58.412109 Z M 265.892578 60.259766 L 265.892578 59.335938 L 272.729980 59.335938 L 272.729980 60.259766 Z " fill="rgb(0, 0, 0)" fill-opacity="1.000000" />
<path d="M 272.892578 58.412109 L 272.892578 57.488281 L 279.729980 57.488281 L 279.729980 58.412109 Z M 272.892578 60.259766 L 272.892578 59.335938 L 279.729980 59.335938 L 279.729980 60.259766 Z " fill="rgb(0, 0, 0)" fill-opacity="1.000000" />
<path d="M 279.892578 58.412109 L 279.892578 57.488281 L 286.729980 57.488281 L 286.729980 58.412109 Z M 279.892578 60.259766 L 279.892578 59.335938 L 286.729980 59.335938 L 286.729980 60.259766 Z " fill="rgb(0, 0, 0)" fill-opacity="1.000000" />
<path d="M 286.892578 58.412109 L 286.892578 57.488281 L 293.729980 57.488281 L 293.729980 58.412109 Z M 286.892578 60.259766 L 286.892578 59.335938 L 293.729980 59.335938 L 293.729980 60.259766 Z " fill="rgb(0, 0, 0)" fill-opacity="1.000000" />
<path d="M 293.892578 58.412109 L 293.892578 57.488281 L 300.729980 57.488281 L 300.729980 58.412109 Z M 293.892578 60.259766 L 293.892578 59.335938 L 300.729980 59.335938 L 300.729980 60.259766 Z " fill="rgb(0, 0, 0)" fill-opacity="1.000000" />
<path d="M 300.892578 58.412109 L 300.892578 57.488281 L 307.729980 57.488281 L 307.729980 58.412109 Z M 300.892578 60.259766 L 300.892578 59.335938 L 307.729980 59.335938 L 307.729980 60.259766 Z " fill="rgb(0, 0, 0)" fill-opacity="1.000000" />
<path d="M 307.892578 58.412109 L 307.892578 57.488281 L 314.729980 57.488281 L 314.729980 58.412109 Z M 307.892578 60.259766 L 307.892578 59.335938 L 314.729980 59.335938 L 314.729980 60.259766 Z " fill="rgb(0, 0, 0)" fill-opacity="1.000000" />
<path d="M 314.892578 58.412109 L 314.892578 57.488281 L 321.729980 57.488281 L 321.729980 58.412109 Z M 314.892578 60.259766 L 314.892578 59.335938 L 321.729980 59.335938 L 321.729980 60.259766 Z " fill="rgb(0, 0, 0)" fill-opacity="1.000000" />
<path d="M 321.892578 58.412109 L 321.892578 57.488281 L 328.729980 57.488281 L 328.729980 58.412109 Z M 321.892578 60.259766 L 321.892578 59.335938 L 328.729980 59.335938 L 328.729980 60.259766 Z " fill="rgb(0, 0, 0)" fill-opacity="1.000000" />
<path d="M 328.892578 58.412109 L 328.892578 57.488281 L 335.729980 57.488281 L 335.729980 58.412109 Z M 328.892578 60.259766 L 328.892578 59.335938 L 335.729980 59.335938 L 335.729980 60.259766 Z " fill="rgb(0, 0, 0)" fill-opacity="1.000000" />
<path d="M 335.892578 58.412109 L 335.892578 57.488281 L 342.729980 57.488281 L 342.729980 58.412109 Z M 335.892578 60.259766 L 335.892578 59.335938 L 342.729980 59.335938 L 342.729980 60.259766 Z " fill="rgb(0, 0, 0)" fill-opacity="1.000000" />
<path d="M 342.892578 58.412109 L 342.892578 57.488281 L 349.729980 57.488281 L 349.729980 58.412109 Z M 342.892578 60.259766 L 342.892578 59.335938 L 349.729980 59.335938 L 349.729980 60.259766 Z " fill="rgb(0, 0, 0)" fill-opacity="1.000000" />
<path d="M 349.892578 58.412109 L 349.892578 57.488281 L 356.729980 57.488281 L 356.729980 58.412109 Z M 349.892578 60.259766 L 349.892578 59.335938 L 356.729980 59.335938 L 356.729980 60.259766 Z " fill="rgb(0, 0, 0)" fill-opacity="1.000000" />
<path d="M 356.892578 58.412109 L 356.892578 57.488281 L 363.729980 57.488281 L 363.729980 58.412109 Z M 356.892578 60.259766 L 356.892578 59.335938 L 363.729980 59.335938 L 363.729980 60.259766 Z " fill="rgb(0, 0, 0)" fill-opacity="1.000000" />
<path d="M 363.892578 58.412109 L 363.892578 57.488281 L 366.019531 57.488281 L 366.019531 51.300781 L 366.878906 51.300781 L 366.878906 58.412109 Z M 366.019531 65.319336 L 366.019531 60.259766 L 363.892578 60.259766 L 363.892578 59.335938 L 366.878906 59.335938 L 366.878906 65.319336 Z M 367.738281 65.319336 L 367.738281 51.300781 L 368.597656 51.300781 L 368.597656 65.319336 Z " fill="rgb(0, 0, 0)" fill-opacity="1.000000" />
<path d="M 128.003418 35.086914 L 131.687988 35.086914 L 131.687988 36.000000 L 126.816406 36.000000 L 126.816406 35.086914 Q 127.820801 34.028809 128.572754 33.217773 Q 129.324707 32.406738 129.609375 32.073730 Q 130.146484 31.418457 130.334473 31.012939 Q 130.522461 30.607422 130.522461 30.183105 Q 130.522461 29.511719 130.127686 29.130371 Q 129.732910 28.749023 129.045410 28.749023 Q 128.556641 28.749023 128.019531 28.926270 Q 127.482422 29.103516 126.880859 29.463379 L 126.880859 28.367676 Q 127.434082 28.104492 127.968506 27.970215 Q 128.502930 27.835938 129.023926 27.835938 Q 130.200195 27.835938 130.917236 28.461670 Q 131.634277 29.087402 131.634277 30.102539 Q 131.634277 30.618164 131.395264 31.133789 Q 131.156250 31.649414 130.619141 32.272461 Q 130.318359 32.621582 129.746338 33.239258 Q 129.174316 33.856934 128.003418 35.086914 Z " fill="rgb(0, 0, 0)" fill-opacity="1.000000" />
<path d="M 184.019531 52.319336 L 184.019531 38.300781 L 184.878906 38.300781 L 184.878906 52.319336 Z M 185.738281 52.319336 L 185.738281 38.300781 L 186.597656 38.300781 L 186.597656 52.319336 Z " fill="rgb(0, 0, 0)" fill-opacity="1.000000" />
<path d="M 261.019531 52.319336 L 261.019531 38.300781 L 261.878906 38.300781 L 261.878906 52.319336 Z M 262.738281 52.319336 L 262.738281 38.300781 L 263.597656 38.300781 L 263.597656 52.319336 Z " fill="rgb(0, 0, 0)" fill-opacity="1.000000" />
<path d="M 366.019531 52.319336 L 366.019531 38.300781 L 366.878906 38.300781 L 366.878906 52.319336 Z M 367.738281 52.319336 L 367.738281 38.300781 L 368.597656 38.300781 L 368.597656 52.319336 Z " fill="rgb(0, 0, 0)" fill-opacity="1.000000" />
<path d="M 184.019531 39.319336 L 184.019531 25.300781 L 184.878906 25.300781 L 184.878906 39.319336 Z M 185.738281 39.319336 L 185.738281 25.300781 L 186.597656 25.300781 L 186.597656 39.319336 Z " fill="rgb(0, 0, 0)" fill-opacity="1.000000" />
<path d="M 261.019531 39.319336 L 261.019531 25.300781 L 261.878906 25.300781 L 261.878906 39.319336 Z M 262.738281 39.319336 L 262.738281 25.300781 L 263.597656 25.300781 L 263.597656 39.319336 Z " fill="rgb(0, 0, 0)" fill-opacity="1.000000" />
<path d="M 312.167969 31.708496 Q 312.957520 31.917969 313.376465 32.452393 Q 313.795410 32.986816 313.795410 33.787109 Q 313.795410 34.893555 313.051514 35.524658 Q 312.307617 36.155762 310.991699 36.155762 Q 310.438477 36.155762 309.863770 36.053711 Q 309.289062 35.951660 308.735840 35.758301 L 308.735840 34.678711 Q 309.283691 34.963379 309.815430 35.103027 Q 310.347168 35.242676 310.873535 35.242676 Q 311.765137 35.242676 312.243164 34.839844 Q 312.721191 34.437012 312.721191 33.679688 Q 312.721191 32.981445 312.243164 32.570557 Q 311.765137 32.159668 310.948730 32.159668 L 310.121582 32.159668 L 310.121582 31.268066 L 310.948730 31.268066 Q 311.695312 31.268066 312.114258 30.940430 Q 312.533203 30.612793 312.533203 30.027344 Q 312.533203 29.409668 312.143799 29.079346 Q 311.754395 28.749023 311.034668 28.749023 Q 310.556641 28.749023 310.046387 28.856445 Q 309.536133 28.963867 308.977539 29.178711 L 308.977539 28.179688 Q 309.627441 28.007812 310.135010 27.921875 Q 310.642578 27.835938 311.034668 27.835938 Q 312.205566 27.835938 312.906494 28.424072 Q 313.607422 29.012207 313.607422 29.984375 Q 313.607422 30.645020 313.239502 31.085449 Q 312.871582 31.525879 312.167969 31.708496 Z " fill="rgb(0, 0, 0)" fill-opacity="1.000000" />
<path d="M 366.019531 39.319336 L 366.019531 25.300781 L 366.878906 25.300781 L 366.878906 39.319336 Z M 367.738281 39.319336 L 367.738281 25.300781 L 368.597656 25.300781 L 368.597656 39.319336 Z " fill="rgb(0, 0, 0)" fill-opacity="1.000000" />
<path d="M 184.019531 26.319336 L 184.019531 12.300781 L 184.878906 12.300781 L 184.878906 26.319336 Z M 185.738281 26.319336 L 185.738281 12.300781 L 186.597656 12.300781 L 186.597656 26.319336 Z " fill="rgb(0, 0, 0)" fill-opacity="1.000000" />
<path d="M 261.019531 26.319336 L 261.019531 12.300781 L 261.878906 12.300781 L 261.878906 26.319336 Z M 262.738281 26.319336 L 262.738281 12.300781 L 263.597656 12.300781 L 263.597656 26.319336 Z " fill="rgb(0, 0, 0)" fill-opacity="1.000000" />
<path d="M 366.019531 26.319336 L 366.019531 12.300781 L 366.878906 12.300781 L 366.878906 26.319336 Z M 367.738281 26.319336 L 367.738281 12.300781 L 368.597656 12.300781 L 368.597656 26.319336 Z " fill="rgb(0, 0, 0)" fill-opacity="1.000000" />
<path d="M 10.308594 4.677246 Q 9.556641 4.677246 9.169922 5.262695 Q 8.783203 5.848145 8.783203 6.997559 Q 8.783203 8.141602 9.169922 8.729736 Q 9.556641 9.317871 10.308594 9.317871 Q 11.065918 9.317871 11.452637 8.729736 Q 11.839355 8.141602 11.839355 6.997559 Q 11.839355 5.848145 11.452637 5.262695 Q 11.065918 4.677246 10.308594 4.677246 Z M 10.308594 3.839355 Q 11.560059 3.839355 12.223389 4.650391 Q 12.886719 5.461426 12.886719 6.997559 Q 12.886719 8.539062 12.226074 9.347412 Q 11.565430 10.155762 10.308594 10.155762 Q 9.057129 10.155762 8.396484 9.347412 Q 7.735840 8.539062 7.735840 6.997559 Q 7.735840 5.461426 8.396484 4.650391 Q 9.057129 3.839355 10.308594 3.839355 Z " fill="rgb(0, 0, 0)" fill-opacity="1.000000" />
<path d="M 16.014160 9.242676 L 16.014160 12.288086 L 15.020508 12.288086 L 15.020508 3.984375 L 16.014160 3.984375 L 16.014160 4.752441 Q 16.261230 4.306641 16.672119 4.072998 Q 17.083008 3.839355 17.620117 3.839355 Q 18.710449 3.839355 19.330811 4.682617 Q 19.951172 5.525879 19.951172 7.019043 Q 19.951172 8.485352 19.328125 9.320557 Q 18.705078 10.155762 17.620117 10.155762 Q 17.072266 10.155762 16.661377 9.922119 Q 16.250488 9.688477 16.014160 9.242676 Z M 18.914551 6.997559 Q 18.914551 5.848145 18.552002 5.262695 Q 18.189453 4.677246 17.475098 4.677246 Q 16.755371 4.677246 16.384766 5.265381 Q 16.014160 5.853516 16.014160 6.997559 Q 16.014160 8.136230 16.384766 8.727051 Q 16.755371 9.317871 17.475098 9.317871 Q 18.189453 9.317871 18.552002 8.732422 Q 18.914551 8.146973 18.914551 6.997559 Z " fill="rgb(0, 0, 0)" fill-opacity="1.000000" />
<path d="M 27.892578 7.335938 L 27.892578 6.412109 L 34.729980 6.412109 L 34.729980 7.335938 Z " fill="rgb(0, 0, 0)" fill-opacity="1.000000" />
<path d="M 34.892578 7.335938 L 34.892578 6.412109 L 41.729980 6.412109 L 41.729980 7.335938 Z " fill="rgb(0, 0, 0)" fill-opacity="1.000000" />
<path d="M 41.892578 7.335938 L 41.892578 6.412109 L 48.729980 6.412109 L 48.729980 7.335938 Z " fill="rgb(0, 0, 0)" fill-opacity="1.000000" />
<path d="M 48.892578 7.335938 L 48.892578 6.412109 L 55.729980 6.412109 L 55.729980 7.335938 Z " fill="rgb(0, 0, 0)" fill-opacity="1.000000" />
<path d="M 55.892578 7.335938 L 55.892578 6.412109 L 62.729980 6.412109 L 62.729980 7.335938 Z " fill="rgb(0, 0, 0)" fill-opacity="1.000000" />
<path d="M 63.032227 10.418945 L 63.032227 3.866211 L 69.590332 7.142578 Z " fill="rgb(0, 0, 0)" fill-opacity="1.000000" />
<path d="M 79.019531 13.319336 L 79.019531 5.488281 L 83.729980 5.488281 L 83.729980 6.412109 L 79.878906 6.412109 L 79.878906 13.319336 Z M 80.738281 13.319336 L 80.738281 7.335938 L 83.729980 7.335938 L 83.729980 8.259766 L 81.597656 8.259766 L 81.597656 13.319336 Z " fill="rgb(0, 0, 0)" fill-opacity="1.000000" />
<path d="M 83.892578 6.412109 L 83.892578 5.488281 L 90.729980 5.488281 L 90.729980 6.412109 Z M 83.892578 8.259766 L 83.892578 7.335938 L 90.729980 7.335938 L 90.729980 8.259766 Z " fill="rgb(0, 0, 0)" fill-opacity="1.000000" />
<path d="M 90.892578 6.412109 L 90.892578 5.488281 L 97.729980 5.488281 L 97.729980 6.412109 Z M 90.892578 8.259766 L 90.892578 7.335938 L 97.729980 7.335938 L 97.729980 8.259766 Z " fill="rgb(0, 0, 0)" fill-opacity="1.000000" />
<path d="M 97.892578 6.412109 L 97.892578 5.488281 L 104.729980 5.488281 L 104.729980 6.412109 Z M 97.892578 8.259766 L 97.892578 7.335938 L 104.729980 7.335938 L 104.729980 8.259766 Z " fill="rgb(0, 0, 0)" fill-opacity="1.000000" />
<path d="M 104.892578 6.412109 L 104.892578 5.488281 L 111.729980 5.488281 L 111.729980 6.412109 Z M 104.892578 8.259766 L 104.892578 7.335938 L 111.729980 7.335938 L 111.729980 8.259766 Z " fill="rgb(0, 0, 0)" fill-opacity="1.000000" />
<path d="M 111.892578 6.412109 L 111.892578 5.488281 L 118.729980 5.488281 L 118.729980 6.412109 Z M 111.892578 8.259766 L 111.892578 7.335938 L 118.729980 7.335938 L 118.729980 8.259766 Z " fill="rgb(0, 0, 0)" fill-opacity="1.000000" />
<path d="M 118.892578 6.412109 L 118.892578 5.488281 L 125.729980 5.488281 L 125.729980 6.412109 Z M 118.892578 8.259766 L 118.892578 7.335938 L 125.729980 7.335938 L 125.729980 8.259766 Z " fill="rgb(0, 0, 0)" fill-opacity="1.000000" />
<path d="M 125.892578 6.412109 L 125.892578 5.488281 L 132.729980 5.488281 L 132.729980 6.412109 Z M 125.892578 8.259766 L 125.892578 7.335938 L 132.729980 7.335938 L 132.729980 8.259766 Z " fill="rgb(0, 0, 0)" fill-opacity="1.000000" />
<path d="M 132.892578 6.412109 L 132.892578 5.488281 L 139.729980 5.488281 L 139.729980 6.412109 Z M 132.892578 8.259766 L 132.892578 7.335938 L 139.729980 7.335938 L 139.729980 8.259766 Z " fill="rgb(0, 0, 0)" fill-opacity="1.000000" />
<path d="M 139.892578 6.412109 L 139.892578 5.488281 L 146.729980 5.488281 L 146.729980 6.412109 Z M 139.892578 8.259766 L 139.892578 7.335938 L 146.729980 7.335938 L 146.729980 8.259766 Z " fill="rgb(0, 0, 0)" fill-opacity="1.000000" />
<path d="M 146.892578 6.412109 L 146.892578 5.488281 L 153.729980 5.488281 L 153.729980 6.412109 Z M 146.892578 8.259766 L 146.892578 7.335938 L 153.729980 7.335938 L 153.729980 8.259766 Z " fill="rgb(0, 0, 0)" fill-opacity="1.000000" />
<path d="M 153.892578 6.412109 L 153.892578 5.488281 L 160.729980 5.488281 L 160.729980 6.412109 Z M 153.892578 8.259766 L 153.892578 7.335938 L 160.729980 7.335938 L 160.729980 8.259766 Z " fill="rgb(0, 0, 0)" fill-opacity="1.000000" />
<path d="M 160.892578 6.412109 L 160.892578 5.488281 L 167.729980 5.488281 L 167.729980 6.412109 Z M 160.892578 8.259766 L 160.892578 7.335938 L 167.729980 7.335938 L 167.729980 8.259766 Z " fill="rgb(0, 0, 0)" fill-opacity="1.000000" />
<path d="M 167.892578 6.412109 L 167.892578 5.488281 L 174.729980 5.488281 L 174.729980 6.412109 Z M 167.892578 8.259766 L 167.892578 7.335938 L 174.729980 7.335938 L 174.729980 8.259766 Z " fill="rgb(0, 0, 0)" fill-opacity="1.000000" />
<path d="M 174.892578 6.412109 L 174.892578 5.488281 L 181.729980 5.488281 L 181.729980 6.412109 Z M 174.892578 8.259766 L 174.892578 7.335938 L 181.729980 7.335938 L 181.729980 8.259766 Z " fill="rgb(0, 0, 0)" fill-opacity="1.000000" />
<path d="M 185.738281 13.319336 L 185.738281 6.412109 L 181.892578 6.412109 L 181.892578 5.488281 L 186.597656 5.488281 L 186.597656 13.319336 Z M 184.019531 13.319336 L 184.019531 8.259766 L 181.892578 8.259766 L 181.892578 7.335938 L 184.878906 7.335938 L 184.878906 13.319336 Z " fill="rgb(0, 0, 0)" fill-opacity="1.000000" />
<path d="M 261.019531 13.319336 L 261.019531 5.488281 L 265.729980 5.488281 L 265.729980 6.412109 L 261.878906 6.412109 L 261.878906 13.319336 Z M 262.738281 13.319336 L 262.738281 7.335938 L 265.729980 7.335938 L 265.729980 8.259766 L 263.597656 8.259766 L 263.597656 13.319336 Z " fill="rgb(0, 0, 0)" fill-opacity="1.000000" />
<path d="M 265.892578 6.412109 L 265.892578 5.488281 L 272.729980 5.488281 L 272.729980 6.412109 Z M 265.892578 8.259766 L 265.892578 7.335938 L 272.729980 7.335938 L 272.729980 8.259766 Z " fill="rgb(0, 0, 0)" fill-opacity="1.000000" />
<path d="M 272.892578 6.412109 L 272.892578 5.488281 L 279.729980 5.488281 L 279.729980 6.412109 Z M 272.892578 8.259766 L 272.892578 7.335938 L 279.729980 7.335938 L 279.729980 8.259766 Z " fill="rgb(0, 0, 0)" fill-opacity="1.000000" />
<path d="M 279.892578 6.412109 L 279.892578 5.488281 L 286.729980 5.488281 L 286.729980 6.412109 Z M 279.892578 8.259766 L 279.892578 7.335938 L 286.729980 7.335938 L 286.729980 8.259766 Z " fill="rgb(0, 0, 0)" fill-opacity="1.000000" />
<path d="M 286.892578 6.412109 L 286.892578 5.488281 L 293.729980 5.488281 L 293.729980 6.412109 Z M 286.892578 8.259766 L 286.892578 7.335938 L 293.729980 7.335938 L 293.729980 8.259766 Z " fill="rgb(0, 0, 0)" fill-opacity="1.000000" />
<path d="M 293.892578 6.412109 L 293.892578 5.488281 L 300.729980 5.488281 L 300.729980 6.412109 Z M 293.892578 8.259766 L 293.892578 7.335938 L 300.729980 7.335938 L 300.729980 8.259766 Z " fill="rgb(0, 0, 0)" fill-opacity="1.000000" />
<path d="M 300.892578 6.412109 L 300.892578 5.488281 L 307.729980 5.488281 L 307.729980 6.412109 Z M 300.892578 8.259766 L 300.892578 7.335938 L 307.729980 7.335938 L 307.729980 8.259766 Z " fill="rgb(0, 0, 0)" fill-opacity="1.000000" />
<path d="M 307.892578 6.412109 L 307.892578 5.488281 L 314.729980 5.488281 L 314.729980 6.412109 Z M 307.892578 8.259766 L 307.892578 7.335938 L 314.729980 7.335938 L 314.729980 8.259766 Z " fill="rgb(0, 0, 0)" fill-opacity="1.000000" />
<path d="M 314.892578 6.412109 L 314.892578 5.488281 L 321.729980 5.488281 L 321.729980 6.412109 Z M 314.892578 8.259766 L 314.892578 7.335938 L 321.729980 7.335938 L 321.729980 8.259766 Z " fill="rgb(0, 0, 0)" fill-opacity="1.000000" />
<path d="M 321.892578 6.412109 L 321.892578 5.488281 L 328.729980 5.488281 L 328.729980 6.412109 Z M 321.892578 8.259766 L 321.892578 7.335938 L 328.729980 7.335938 L 328.729980 8.259766 Z " fill="rgb(0, 0, 0)" fill-opacity="1.000000" />
<path d="M 328.892578 6.412109 L 328.892578 5.488281 L 335.729980 5.488281 L 335.729980 6.412109 Z M 328.892578 8.259766 L 328.892578 7.335938 L 335.729980 7.335938 L 335.729980 8.259766 Z " fill="rgb(0, 0, 0)" fill-opacity="1.000000" />
<path d="M 335.892578 6.412109 L 335.892578 5.488281 L 342.729980 5.488281 L 342.729980 6.412109 Z M 335.892578 8.259766 L 335.892578 7.335938 L 342.729980 7.335938 L 342.729980 8.259766 Z " fill="rgb(0, 0, 0)" fill-opacity="1.000000" />
<path d="M 342.892578 6.412109 L 342.892578 5.488281 L 349.729980 5.488281 L 349.729980 6.412109 Z M 342.892578 8.259766 L 342.892578 7.335938 L 349.729980 7.335938 L 349.729980 8.259766 Z " fill="rgb(0, 0, 0)" fill-opacity="1.000000" />
<path d="M 349.892578 6.412109 L 349.892578 5.488281 L 356.729980 5.488281 L 356.729980 6.412109 Z M 349.892578 8.259766 L 349.892578 7.335938 L 356.729980 7.335938 L 356.729980 8.259766 Z " fill="rgb(0, 0, 0)" fill-opacity="1.000000" />
<path d="M 356.892578 6.412109 L 356.892578 5.488281 L 363.729980 5.488281 L 363.729980 6.412109 Z M 356.892578 8.259766 L 356.892578 7.335938 L 363.729980 7.335938 L 363.729980 8.259766 Z " fill="rgb(0, 0, 0)" fill-opacity="1.000000" />
<path d="M 367.738281 13.319336 L 367.738281 6.412109 L 363.892578 6.412109 L 363.892578 5.488281 L 368.597656 5.488281 L 368.597656 13.319336 Z M 366.019531 13.319336 L 366.019531 8.259766 L 363.892578 8.259766 L 363.892578 7.335938 L 366.878906 7.335938 L 366.878906 13.319336 Z " fill="rgb(0, 0, 0)" fill-opacity="1.000000" />
</svg>