<svg xmlns="http://www.w3.org/2000/svg" version="1.1" width="337" height="170">
<path d="M 2.019531 78.319336 L 2.019531 70.488281 L 6.729980 70.488281 L 6.729980 71.412109 L 2.878906 71.412109 L 2.878906 78.319336 Z M 3.738281 78.319336 L 3.738281 72.335938 L 6.729980 72.335938 L 6.729980 73.259766 L 4.597656 73.259766 L 4.597656 78.319336 Z " fill="rgb(0, 0, 0)" fill-opacity="1.000000" />
<path d="M 2.019531 91.319336 L 2.019531 77.300781 L 2.878906 77.300781 L 2.878906 91.319336 Z M 3.738281 91.319336 L 3.738281 77.300781 L 4.597656 77.300781 L 4.597656 91.319336 Z " fill="rgb(0, 0, 0)" fill-opacity="1.000000" />
<path d="M 3.738281 97.412109 L 3.738281 90.300781 L 4.597656 90.300781 L 4.597656 96.488281 L 6.729980 96.488281 L 6.729980 97.412109 Z M 2.019531 99.259766 L 2.019531 90.300781 L 2.878906 90.300781 L 2.878906 98.335938 L 6.729980 98.335938 L 6.729980 99.259766 Z " fill="rgb(0, 0, 0)" fill-opacity="1.000000" />
<path d="M 11.860840 148.998535 Q 11.860840 147.231445 11.498291 146.474121 Q 11.135742 145.716797 10.308594 145.716797 Q 9.486816 145.716797 9.124268 146.474121 Q 8.761719 147.231445 8.761719 148.998535 Q 8.761719 150.760254 9.124268 151.517578 Q 9.486816 152.274902 10.308594 152.274902 Q 11.135742 152.274902 11.498291 151.520264 Q 11.860840 150.765625 11.860840 148.998535 Z M 12.994141 148.998535 Q 12.994141 151.093262 12.330811 152.124512 Q 11.667480 153.155762 10.308594 153.155762 Q 8.949707 153.155762 8.289062 152.129883 Q 7.628418 151.104004 7.628418 148.998535 Q 7.628418 146.898438 8.291748 145.867188 Q 8.955078 144.835938 10.308594 144.835938 Q 11.667480 144.835938 12.330811 145.867188 Q 12.994141 146.898438 12.994141 148.998535 Z " fill="rgb(0, 0, 0)" fill-opacity="1.000000" />
<path d="M 81.860840 161.998535 Q 81.860840 160.231445 81.498291 159.474121 Q 81.135742 158.716797 80.308594 158.716797 Q 79.486816 158.716797 79.124268 159.474121 Q 78.761719 160.231445 78.761719 161.998535 Q 78.761719 163.760254 79.124268 164.517578 Q 79.486816 165.274902 80.308594 165.274902 Q 81.135742 165.274902 81.498291 164.520264 Q 81.860840 163.765625 81.860840 161.998535 Z M 82.994141 161.998535 Q 82.994141 164.093262 82.330811 165.124512 Q 81.667480 166.155762 80.308594 166.155762 Q 78.949707 166.155762 78.289062 165.129883 Q 77.628418 164.104004 77.628418 161.998535 Q 77.628418 159.898438 78.291748 158.867188 Q 78.955078 157.835938 80.308594 157.835938 Q 81.667480 157.835938 82.330811 158.867188 Q 82.994141 159.898438 82.994141 161.998535 Z " fill="rgb(0, 0, 0)" fill-opacity="1.000000" />
<path d="M 86.014160 165.242676 L 86.014160 168.288086 L 85.020508 168.288086 L 85.020508 159.984375 L 86.014160 159.984375 L 86.014160 160.752441 Q 86.261230 160.306641 86.672119 160.072998 Q 87.083008 159.839355 87.620117 159.839355 Q 88.710449 159.839355 89.330811 160.682617 Q 89.951172 161.525879 89.951172 163.019043 Q 89.951172 164.485352 89.328125 165.320557 Q 88.705078 166.155762 87.620117 166.155762 Q 87.072266 166.155762 86.661377 165.922119 Q 86.250488 165.688477 86.014160 165.242676 Z M 88.914551 162.997559 Q 88.914551 161.848145 88.552002 161.262695 Q 88.189453 160.677246 87.475098 160.677246 Q 86.755371 160.677246 86.384766 161.265381 Q 86.014160 161.853516 86.014160 162.997559 Q 86.014160 164.136230 86.384766 164.727051 Q 86.755371 165.317871 87.475098 165.317871 Q 88.189453 165.317871 88.552002 164.732422 Q 88.914551 164.146973 88.914551 162.997559 Z " fill="rgb(0, 0, 0)" fill-opacity="1.000000" />
<path d="M 97.015625 162.498047 L 97.015625 162.981445 L 92.734863 162.981445 L 92.734863 163.013672 Q 92.691895 164.243652 93.204834 164.780762 Q 93.717773 165.317871 94.652344 165.317871 Q 95.125000 165.317871 95.640625 165.167480 Q 96.156250 165.017090 96.741699 164.710938 L 96.741699 165.693848 Q 96.177734 165.924805 95.654053 166.040283 Q 95.130371 166.155762 94.641602 166.155762 Q 93.239746 166.155762 92.450195 165.315186 Q 91.660645 164.474609 91.660645 162.997559 Q 91.660645 161.558105 92.434082 160.698730 Q 93.207520 159.839355 94.496582 159.839355 Q 95.645996 159.839355 96.309326 160.618164 Q 96.972656 161.396973 97.015625 162.498047 Z M 96.027344 162.208008 Q 95.962891 161.584961 95.573486 161.131104 Q 95.184082 160.677246 94.453613 160.677246 Q 93.739258 160.677246 93.277344 161.149902 Q 92.815430 161.622559 92.772461 162.213379 Z " fill="rgb(0, 0, 0)" fill-opacity="1.000000" />
<path d="M 104.203613 161.225098 Q 103.886719 160.978027 103.559082 160.865234 Q 103.231445 160.752441 102.839355 160.752441 Q 101.915527 160.752441 101.426758 161.332520 Q 100.937988 161.912598 100.937988 163.008301 L 100.937988 166.000000 L 99.944336 166.000000 L 99.944336 159.984375 L 100.937988 159.984375 L 100.937988 161.160645 Q 101.185059 160.521484 101.697998 160.180420 Q 102.210938 159.839355 102.914551 159.839355 Q 103.279785 159.839355 103.596680 159.930664 Q 103.913574 160.021973 104.203613 160.215332 Z " fill="rgb(0, 0, 0)" fill-opacity="1.000000" />
<path d="M 108.770508 162.976074 L 108.442871 162.976074 Q 107.578125 162.976074 107.140381 163.279541 Q 106.702637 163.583008 106.702637 164.184570 Q 106.702637 164.727051 107.030273 165.027832 Q 107.357910 165.328613 107.937988 165.328613 Q 108.754395 165.328613 109.221680 164.761963 Q 109.688965 164.195312 109.694336 163.196289 L 109.694336 162.976074 Z M 110.687988 162.567871 L 110.687988 166.000000 L 109.694336 166.000000 L 109.694336 165.108398 Q 109.377441 165.645508 108.896729 165.900635 Q 108.416016 166.155762 107.728516 166.155762 Q 106.810059 166.155762 106.262207 165.637451 Q 105.714355 165.119141 105.714355 164.249023 Q 105.714355 163.244629 106.388428 162.723633 Q 107.062500 162.202637 108.367676 162.202637 L 109.694336 162.202637 L 109.694336 162.046875 Q 109.688965 161.327148 109.329102 161.002197 Q 108.969238 160.677246 108.179688 160.677246 Q 107.674805 160.677246 107.159180 160.822266 Q 106.643555 160.967285 106.154785 161.246582 L 106.154785 160.258301 Q 106.702637 160.048828 107.204834 159.944092 Q 107.707031 159.839355 108.179688 159.839355 Q 108.926270 159.839355 109.455322 160.059570 Q 109.984375 160.279785 110.312012 160.720215 Q 110.516113 160.988770 110.602051 161.383545 Q 110.687988 161.778320 110.687988 162.567871 Z " fill="rgb(0, 0, 0)" fill-opacity="1.000000" />
<path d="M 117.645020 162.272461 L 117.645020 166.000000 L 116.651367 166.000000 L 116.651367 162.272461 Q 116.651367 161.461426 116.366699 161.080078 Q 116.082031 160.698730 115.475098 160.698730 Q 114.782227 160.698730 114.408936 161.190186 Q 114.035645 161.681641 114.035645 162.600098 L 114.035645 166.000000 L 113.047363 166.000000 L 113.047363 159.984375 L 114.035645 159.984375 L 114.035645 160.886719 Q 114.298828 160.371094 114.750000 160.105225 Q 115.201172 159.839355 115.818848 159.839355 Q 116.737305 159.839355 117.191162 160.443604 Q 117.645020 161.047852 117.645020 162.272461 Z " fill="rgb(0, 0, 0)" fill-opacity="1.000000" />
<path d="M 123.608398 160.752441 L 123.608398 157.642578 L 124.596680 157.642578 L 124.596680 166.000000 L 123.608398 166.000000 L 123.608398 165.242676 Q 123.361328 165.688477 122.950439 165.922119 Q 122.539551 166.155762 122.002441 166.155762 Q 120.912109 166.155762 120.286377 165.309814 Q 119.660645 164.463867 119.660645 162.976074 Q 119.660645 161.509766 120.289062 160.674561 Q 120.917480 159.839355 122.002441 159.839355 Q 122.544922 159.839355 122.958496 160.072998 Q 123.372070 160.306641 123.608398 160.752441 Z M 120.702637 162.997559 Q 120.702637 164.146973 121.067871 164.732422 Q 121.433105 165.317871 122.147461 165.317871 Q 122.861816 165.317871 123.235107 164.727051 Q 123.608398 164.136230 123.608398 162.997559 Q 123.608398 161.853516 123.235107 161.265381 Q 122.861816 160.677246 122.147461 160.677246 Q 121.433105 160.677246 121.067871 161.262695 Q 120.702637 161.848145 120.702637 162.997559 Z " fill="rgb(0, 0, 0)" fill-opacity="1.000000" />
<path d="M 221.860840 161.998535 Q 221.860840 160.231445 221.498291 159.474121 Q 221.135742 158.716797 220.308594 158.716797 Q 219.486816 158.716797 219.124268 159.474121 Q 218.761719 160.231445 218.761719 161.998535 Q 218.761719 163.760254 219.124268 164.517578 Q 219.486816 165.274902 220.308594 165.274902 Q 221.135742 165.274902 221.498291 164.520264 Q 221.860840 163.765625 221.860840 161.998535 Z M 222.994141 161.998535 Q 222.994141 164.093262 222.330811 165.124512 Q 221.667480 166.155762 220.308594 166.155762 Q 218.949707 166.155762 218.289062 165.129883 Q 217.628418 164.104004 217.628418 161.998535 Q 217.628418 159.898438 218.291748 158.867188 Q 218.955078 157.835938 220.308594 157.835938 Q 221.667480 157.835938 222.330811 158.867188 Q 222.994141 159.898438 222.994141 161.998535 Z " fill="rgb(0, 0, 0)" fill-opacity="1.000000" />
<path d="M 226.014160 165.242676 L 226.014160 168.288086 L 225.020508 168.288086 L 225.020508 159.984375 L 226.014160 159.984375 L 226.014160 160.752441 Q 226.261230 160.306641 226.672119 160.072998 Q 227.083008 159.839355 227.620117 159.839355 Q 228.710449 159.839355 229.330811 160.682617 Q 229.951172 161.525879 229.951172 163.019043 Q 229.951172 164.485352 229.328125 165.320557 Q 228.705078 166.155762 227.620117 166.155762 Q 227.072266 166.155762 226.661377 165.922119 Q 226.250488 165.688477 226.014160 165.242676 Z M 228.914551 162.997559 Q 228.914551 161.848145 228.552002 161.262695 Q 228.189453 160.677246 227.475098 160.677246 Q 226.755371 160.677246 226.384766 161.265381 Q 226.014160 161.853516 226.014160 162.997559 Q 226.014160 164.136230 226.384766 164.727051 Q 226.755371 165.317871 227.475098 165.317871 Q 228.189453 165.317871 228.552002 164.732422 Q 228.914551 164.146973 228.914551 162.997559 Z " fill="rgb(0, 0, 0)" fill-opacity="1.000000" />
<path d="M 237.015625 162.498047 L 237.015625 162.981445 L 232.734863 162.981445 L 232.734863 163.013672 Q 232.691895 164.243652 233.204834 164.780762 Q 233.717773 165.317871 234.652344 165.317871 Q 235.125000 165.317871 235.640625 165.167480 Q 236.156250 165.017090 236.741699 164.710938 L 236.741699 165.693848 Q 236.177734 165.924805 235.654053 166.040283 Q 235.130371 166.155762 234.641602 166.155762 Q 233.239746 166.155762 232.450195 165.315186 Q 231.660645 164.474609 231.660645 162.997559 Q 231.660645 161.558105 232.434082 160.698730 Q 233.207520 159.839355 234.496582 159.839355 Q 235.645996 159.839355 236.309326 160.618164 Q 236.972656 161.396973 237.015625 162.498047 Z M 236.027344 162.208008 Q 235.962891 161.584961 235.573486 161.131104 Q 235.184082 160.677246 234.453613 160.677246 Q 233.739258 160.677246 233.277344 161.149902 Q 232.815430 161.622559 232.772461 162.213379 Z " fill="rgb(0, 0, 0)" fill-opacity="1.000000" />
<path d="M 244.203613 161.225098 Q 243.886719 160.978027 243.559082 160.865234 Q 243.231445 160.752441 242.839355 160.752441 Q 241.915527 160.752441 241.426758 161.332520 Q 240.937988 161.912598 240.937988 163.008301 L 240.937988 166.000000 L 239.944336 166.000000 L 239.944336 159.984375 L 240.937988 159.984375 L 240.937988 161.160645 Q 241.185059 160.521484 241.697998 160.180420 Q 242.210938 159.839355 242.914551 159.839355 Q 243.279785 159.839355 243.596680 159.930664 Q 243.913574 160.021973 244.203613 160.215332 Z " fill="rgb(0, 0, 0)" fill-opacity="1.000000" />
<path d="M 248.770508 162.976074 L 248.442871 162.976074 Q 247.578125 162.976074 247.140381 163.279541 Q 246.702637 163.583008 246.702637 164.184570 Q 246.702637 164.727051 247.030273 165.027832 Q 247.357910 165.328613 247.937988 165.328613 Q 248.754395 165.328613 249.221680 164.761963 Q 249.688965 164.195312 249.694336 163.196289 L 249.694336 162.976074 Z M 250.687988 162.567871 L 250.687988 166.000000 L 249.694336 166.000000 L 249.694336 165.108398 Q 249.377441 165.645508 248.896729 165.900635 Q 248.416016 166.155762 247.728516 166.155762 Q 246.810059 166.155762 246.262207 165.637451 Q 245.714355 165.119141 245.714355 164.249023 Q 245.714355 163.244629 246.388428 162.723633 Q 247.062500 162.202637 248.367676 162.202637 L 249.694336 162.202637 L 249.694336 162.046875 Q 249.688965 161.327148 249.329102 161.002197 Q 248.969238 160.677246 248.179688 160.677246 Q 247.674805 160.677246 247.159180 160.822266 Q 246.643555 160.967285 246.154785 161.246582 L 246.154785 160.258301 Q 246.702637 160.048828 247.204834 159.944092 Q 247.707031 159.839355 248.179688 159.839355 Q 248.926270 159.839355 249.455322 160.059570 Q 249.984375 160.279785 250.312012 160.720215 Q 250.516113 160.988770 250.602051 161.383545 Q 250.687988 161.778320 250.687988 162.567871 Z " fill="rgb(0, 0, 0)" fill-opacity="1.000000" />
<path d="M 257.645020 162.272461 L 257.645020 166.000000 L 256.651367 166.000000 L 256.651367 162.272461 Q 256.651367 161.461426 256.366699 161.080078 Q 256.082031 160.698730 255.475098 160.698730 Q 254.782227 160.698730 254.408936 161.190186 Q 254.035645 161.681641 254.035645 162.600098 L 254.035645 166.000000 L 253.047363 166.000000 L 253.047363 159.984375 L 254.035645 159.984375 L 254.035645 160.886719 Q 254.298828 160.371094 254.750000 160.105225 Q 255.201172 159.839355 255.818848 159.839355 Q 256.737305 159.839355 257.191162 160.443604 Q 257.645020 161.047852 257.645020 162.272461 Z " fill="rgb(0, 0, 0)" fill-opacity="1.000000" />
<path d="M 263.608398 160.752441 L 263.608398 157.642578 L 264.596680 157.642578 L 264.596680 166.000000 L 263.608398 166.000000 L 263.608398 165.242676 Q 263.361328 165.688477 262.950439 165.922119 Q 262.539551 166.155762 262.002441 166.155762 Q 260.912109 166.155762 260.286377 165.309814 Q 259.660645 164.463867 259.660645 162.976074 Q 259.660645 161.509766 260.289062 160.674561 Q 260.917480 159.839355 262.002441 159.839355 Q 262.544922 159.839355 262.958496 160.072998 Q 263.372070 160.306641 263.608398 160.752441 Z M 260.702637 162.997559 Q 260.702637 164.146973 261.067871 164.732422 Q 261.433105 165.317871 262.147461 165.317871 Q 262.861816 165.317871 263.235107 164.727051 Q 263.608398 164.136230 263.608398 162.997559 Q 263.608398 161.853516 263.235107 161.265381 Q 262.861816 160.677246 262.147461 160.677246 Q 261.433105 160.677246 261.067871 161.262695 Q 260.702637 161.848145 260.702637 162.997559 Z " fill="rgb(0, 0, 0)" fill-opacity="1.000000" />
<path d="M 16.014160 152.242676 L 16.014160 155.288086 L 15.020508 155.288086 L 15.020508 146.984375 L 16.014160 146.984375 L 16.014160 147.752441 Q 16.261230 147.306641 16.672119 147.072998 Q 17.083008 146.839355 17.620117 146.839355 Q 18.710449 146.839355 19.330811 147.682617 Q 19.951172 148.525879 19.951172 150.019043 Q 19.951172 151.485352 19.328125 152.320557 Q 18.705078 153.155762 17.620117 153.155762 Q 17.072266 153.155762 16.661377 152.922119 Q 16.250488 152.688477 16.014160 152.242676 Z M 18.914551 149.997559 Q 18.914551 148.848145 18.552002 148.262695 Q 18.189453 147.677246 17.475098 147.677246 Q 16.755371 147.677246 16.384766 148.265381 Q 16.014160 148.853516 16.014160 149.997559 Q 16.014160 151.136230 16.384766 151.727051 Q 16.755371 152.317871 17.475098 152.317871 Q 18.189453 152.317871 18.552002 151.732422 Q 18.914551 151.146973 18.914551 149.997559 Z " fill="rgb(0, 0, 0)" fill-opacity="1.000000" />
<path d="M 26.698730 152.693848 Q 26.301270 152.924805 25.879639 153.040283 Q 25.458008 153.155762 25.017578 153.155762 Q 23.621094 153.155762 22.834229 152.317871 Q 22.047363 151.479980 22.047363 149.997559 Q 22.047363 148.515137 22.834229 147.677246 Q 23.621094 146.839355 25.017578 146.839355 Q 25.452637 146.839355 25.866211 146.952148 Q 26.279785 147.064941 26.698730 147.301270 L 26.698730 148.337891 Q 26.306641 147.988770 25.911865 147.833008 Q 25.517090 147.677246 25.017578 147.677246 Q 24.088379 147.677246 23.588867 148.278809 Q 23.089355 148.880371 23.089355 149.997559 Q 23.089355 151.109375 23.591553 151.713623 Q 24.093750 152.317871 25.017578 152.317871 Q 25.533203 152.317871 25.941406 152.159424 Q 26.349609 152.000977 26.698730 151.667969 Z " fill="rgb(0, 0, 0)" fill-opacity="1.000000" />
<path d="M 31.308594 147.677246 Q 30.556641 147.677246 30.169922 148.262695 Q 29.783203 148.848145 29.783203 149.997559 Q 29.783203 151.141602 30.169922 151.729736 Q 30.556641 152.317871 31.308594 152.317871 Q 32.065918 152.317871 32.452637 151.729736 Q 32.839355 151.141602 32.839355 149.997559 Q 32.839355 148.848145 32.452637 148.262695 Q 32.065918 147.677246 31.308594 147.677246 Z M 31.308594 146.839355 Q 32.560059 146.839355 33.223389 147.650391 Q 33.886719 148.461426 33.886719 149.997559 Q 33.886719 151.539062 33.226074 152.347412 Q 32.565430 153.155762 31.308594 153.155762 Q 30.057129 153.155762 29.396484 152.347412 Q 28.735840 151.539062 28.735840 149.997559 Q 28.735840 148.461426 29.396484 147.650391 Q 30.057129 146.839355 31.308594 146.839355 Z " fill="rgb(0, 0, 0)" fill-opacity="1.000000" />
<path d="M 39.608398 147.752441 L 39.608398 144.642578 L 40.596680 144.642578 L 40.596680 153.000000 L 39.608398 153.000000 L 39.608398 152.242676 Q 39.361328 152.688477 38.950439 152.922119 Q 38.539551 153.155762 38.002441 153.155762 Q 36.912109 153.155762 36.286377 152.309814 Q 35.660645 151.463867 35.660645 149.976074 Q 35.660645 148.509766 36.289062 147.674561 Q 36.917480 146.839355 38.002441 146.839355 Q 38.544922 146.839355 38.958496 147.072998 Q 39.372070 147.306641 39.608398 147.752441 Z M 36.702637 149.997559 Q 36.702637 151.146973 37.067871 151.732422 Q 37.433105 152.317871 38.147461 152.317871 Q 38.861816 152.317871 39.235107 151.727051 Q 39.608398 151.136230 39.608398 149.997559 Q 39.608398 148.853516 39.235107 148.265381 Q 38.861816 147.677246 38.147461 147.677246 Q 37.433105 147.677246 37.067871 148.262695 Q 36.702637 148.848145 36.702637 149.997559 Z " fill="rgb(0, 0, 0)" fill-opacity="1.000000" />
<path d="M 48.015625 149.498047 L 48.015625 149.981445 L 43.734863 149.981445 L 43.734863 150.013672 Q 43.691895 151.243652 44.204834 151.780762 Q 44.717773 152.317871 45.652344 152.317871 Q 46.125000 152.317871 46.640625 152.167480 Q 47.156250 152.017090 47.741699 151.710938 L 47.741699 152.693848 Q 47.177734 152.924805 46.654053 153.040283 Q 46.130371 153.155762 45.641602 153.155762 Q 44.239746 153.155762 43.450195 152.315186 Q 42.660645 151.474609 42.660645 149.997559 Q 42.660645 148.558105 43.434082 147.698730 Q 44.207520 146.839355 45.496582 146.839355 Q 46.645996 146.839355 47.309326 147.618164 Q 47.972656 148.396973 48.015625 149.498047 Z M 47.027344 149.208008 Q 46.962891 148.584961 46.573486 148.131104 Q 46.184082 147.677246 45.453613 147.677246 Q 44.739258 147.677246 44.277344 148.149902 Q 43.815430 148.622559 43.772461 149.213379 Z " fill="rgb(0, 0, 0)" fill-opacity="1.000000" />
<path d="M 70.252441 144.980957 L 76.370117 144.980957 L 76.370117 145.894043 L 73.861816 145.894043 L 73.861816 153.000000 L 72.771484 153.000000 L 72.771484 145.894043 L 70.252441 145.894043 Z " fill="rgb(0, 0, 0)" fill-opacity="1.000000" />
<path d="M 77.000000 146.984375 L 77.977539 146.984375 L 79.024902 151.845215 L 79.884277 148.740723 L 80.727539 148.740723 L 81.597656 151.845215 L 82.645020 146.984375 L 83.622559 146.984375 L 82.215332 153.000000 L 81.270020 153.000000 L 80.308594 149.702148 L 79.352539 153.000000 L 78.407227 153.000000 Z " fill="rgb(0, 0, 0)" fill-opacity="1.000000" />
<path d="M 87.308594 147.677246 Q 86.556641 147.677246 86.169922 148.262695 Q 85.783203 148.848145 85.783203 149.997559 Q 85.783203 151.141602 86.169922 151.729736 Q 86.556641 152.317871 87.308594 152.317871 Q 88.065918 152.317871 88.452637 151.729736 Q 88.839355 151.141602 88.839355 149.997559 Q 88.839355 148.848145 88.452637 148.262695 Q 88.065918 147.677246 87.308594 147.677246 Z M 87.308594 146.839355 Q 88.560059 146.839355 89.223389 147.650391 Q 89.886719 148.461426 89.886719 149.997559 Q 89.886719 151.539062 89.226074 152.347412 Q 88.565430 153.155762 87.308594 153.155762 Q 86.057129 153.155762 85.396484 152.347412 Q 84.735840 151.539062 84.735840 149.997559 Q 84.735840 148.461426 85.396484 147.650391 Q 86.057129 146.839355 87.308594 146.839355 Z " fill="rgb(0, 0, 0)" fill-opacity="1.000000" />
<path d="M 99.981934 148.955566 L 99.981934 152.108398 L 101.265625 152.108398 Q 102.210938 152.108398 102.613770 151.778076 Q 103.016602 151.447754 103.016602 150.690430 Q 103.016602 149.691406 102.592285 149.323486 Q 102.167969 148.955566 101.265625 148.955566 Z M 99.981934 145.872559 L 99.981934 148.074707 L 101.244141 148.074707 Q 102.028320 148.074707 102.380127 147.773926 Q 102.731934 147.473145 102.731934 147.016602 Q 102.731934 146.409668 102.385498 146.141113 Q 102.039062 145.872559 101.244141 145.872559 Z M 98.891602 144.980957 L 101.265625 144.980957 Q 102.495605 144.980957 103.161621 145.512695 Q 103.827637 146.044434 103.827637 147.016602 Q 103.827637 147.537598 103.475830 147.961914 Q 103.124023 148.386230 102.420410 148.493652 Q 103.209961 148.611816 103.658447 149.167725 Q 104.106934 149.723633 104.106934 150.797852 Q 104.106934 151.888184 103.392578 152.444092 Q 102.678223 153.000000 101.265625 153.000000 L 98.891602 153.000000 Z " fill="rgb(0, 0, 0)" fill-opacity="1.000000" />
<path d="M 109.608398 151.066406 Q 109.361328 151.694824 108.979980 152.720703 Q 108.448242 154.138672 108.265625 154.450195 Q 108.018555 154.869141 107.647949 155.078613 Q 107.277344 155.288086 106.783203 155.288086 L 105.988281 155.288086 L 105.988281 154.460938 L 106.573730 154.460938 Q 107.008789 154.460938 107.255859 154.208496 Q 107.502930 153.956055 107.884277 152.903320 L 105.558594 146.984375 L 106.605957 146.984375 L 108.389160 151.689453 L 110.145508 146.984375 L 111.192871 146.984375 Z " fill="rgb(0, 0, 0)" fill-opacity="1.000000" />
<path d="M 115.297852 145.276367 L 115.297852 146.984375 L 117.542969 146.984375 L 117.542969 147.752441 L 115.297852 147.752441 L 115.297852 151.018066 Q 115.297852 151.684082 115.550293 151.947266 Q 115.802734 152.210449 116.431152 152.210449 L 117.542969 152.210449 L 117.542969 153.000000 L 116.334473 153.000000 Q 115.222656 153.000000 114.766113 152.554199 Q 114.309570 152.108398 114.309570 151.018066 L 114.309570 147.752441 L 112.703613 147.752441 L 112.703613 146.984375 L 114.309570 146.984375 L 114.309570 145.276367 Z " fill="rgb(0, 0, 0)" fill-opacity="1.000000" />
<path d="M 125.015625 149.498047 L 125.015625 149.981445 L 120.734863 149.981445 L 120.734863 150.013672 Q 120.691895 151.243652 121.204834 151.780762 Q 121.717773 152.317871 122.652344 152.317871 Q 123.125000 152.317871 123.640625 152.167480 Q 124.156250 152.017090 124.741699 151.710938 L 124.741699 152.693848 Q 124.177734 152.924805 123.654053 153.040283 Q 123.130371 153.155762 122.641602 153.155762 Q 121.239746 153.155762 120.450195 152.315186 Q 119.660645 151.474609 119.660645 149.997559 Q 119.660645 148.558105 120.434082 147.698730 Q 121.207520 146.839355 122.496582 146.839355 Q 123.645996 146.839355 124.309326 147.618164 Q 124.972656 148.396973 125.015625 149.498047 Z M 124.027344 149.208008 Q 123.962891 148.584961 123.573486 148.131104 Q 123.184082 147.677246 122.453613 147.677246 Q 121.739258 147.677246 121.277344 148.149902 Q 120.815430 148.622559 120.772461 149.213379 Z " fill="rgb(0, 0, 0)" fill-opacity="1.000000" />
<path d="M 214.860840 148.998535 Q 214.860840 147.231445 214.498291 146.474121 Q 214.135742 145.716797 213.308594 145.716797 Q 212.486816 145.716797 212.124268 146.474121 Q 211.761719 147.231445 211.761719 148.998535 Q 211.761719 150.760254 212.124268 151.517578 Q 212.486816 152.274902 213.308594 152.274902 Q 214.135742 152.274902 214.498291 151.520264 Q 214.860840 150.765625 214.860840 148.998535 Z M 215.994141 148.998535 Q 215.994141 151.093262 215.330811 152.124512 Q 214.667480 153.155762 213.308594 153.155762 Q 211.949707 153.155762 211.289062 152.129883 Q 210.628418 151.104004 210.628418 148.998535 Q 210.628418 146.898438 211.291748 145.867188 Q 211.955078 144.835938 213.308594 144.835938 Q 214.667480 144.835938 215.330811 145.867188 Q 215.994141 146.898438 215.994141 148.998535 Z " fill="rgb(0, 0, 0)" fill-opacity="1.000000" />
<path d="M 222.645020 149.272461 L 222.645020 153.000000 L 221.651367 153.000000 L 221.651367 149.272461 Q 221.651367 148.461426 221.366699 148.080078 Q 221.082031 147.698730 220.475098 147.698730 Q 219.782227 147.698730 219.408936 148.190186 Q 219.035645 148.681641 219.035645 149.600098 L 219.035645 153.000000 L 218.047363 153.000000 L 218.047363 146.984375 L 219.035645 146.984375 L 219.035645 147.886719 Q 219.298828 147.371094 219.750000 147.105225 Q 220.201172 146.839355 220.818848 146.839355 Q 221.737305 146.839355 222.191162 147.443604 Q 222.645020 148.047852 222.645020 149.272461 Z " fill="rgb(0, 0, 0)" fill-opacity="1.000000" />
<path d="M 230.015625 149.498047 L 230.015625 149.981445 L 225.734863 149.981445 L 225.734863 150.013672 Q 225.691895 151.243652 226.204834 151.780762 Q 226.717773 152.317871 227.652344 152.317871 Q 228.125000 152.317871 228.640625 152.167480 Q 229.156250 152.017090 229.741699 151.710938 L 229.741699 152.693848 Q 229.177734 152.924805 228.654053 153.040283 Q 228.130371 153.155762 227.641602 153.155762 Q 226.239746 153.155762 225.450195 152.315186 Q 224.660645 151.474609 224.660645 149.997559 Q 224.660645 148.558105 225.434082 147.698730 Q 226.207520 146.839355 227.496582 146.839355 Q 228.645996 146.839355 229.309326 147.618164 Q 229.972656 148.396973 230.015625 149.498047 Z M 229.027344 149.208008 Q 228.962891 148.584961 228.573486 148.131104 Q 228.184082 147.677246 227.453613 147.677246 Q 226.739258 147.677246 226.277344 148.149902 Q 225.815430 148.622559 225.772461 149.213379 Z " fill="rgb(0, 0, 0)" fill-opacity="1.000000" />
<path d="M 239.981934 148.955566 L 239.981934 152.108398 L 241.265625 152.108398 Q 242.210938 152.108398 242.613770 151.778076 Q 243.016602 151.447754 243.016602 150.690430 Q 243.016602 149.691406 242.592285 149.323486 Q 242.167969 148.955566 241.265625 148.955566 Z M 239.981934 145.872559 L 239.981934 148.074707 L 241.244141 148.074707 Q 242.028320 148.074707 242.380127 147.773926 Q 242.731934 147.473145 242.731934 147.016602 Q 242.731934 146.409668 242.385498 146.141113 Q 242.039062 145.872559 241.244141 145.872559 Z M 238.891602 144.980957 L 241.265625 144.980957 Q 242.495605 144.980957 243.161621 145.512695 Q 243.827637 146.044434 243.827637 147.016602 Q 243.827637 147.537598 243.475830 147.961914 Q 243.124023 148.386230 242.420410 148.493652 Q 243.209961 148.611816 243.658447 149.167725 Q 244.106934 149.723633 244.106934 150.797852 Q 244.106934 151.888184 243.392578 152.444092 Q 242.678223 153.000000 241.265625 153.000000 L 238.891602 153.000000 Z " fill="rgb(0, 0, 0)" fill-opacity="1.000000" />
<path d="M 249.608398 151.066406 Q 249.361328 151.694824 248.979980 152.720703 Q 248.448242 154.138672 248.265625 154.450195 Q 248.018555 154.869141 247.647949 155.078613 Q 247.277344 155.288086 246.783203 155.288086 L 245.988281 155.288086 L 245.988281 154.460938 L 246.573730 154.460938 Q 247.008789 154.460938 247.255859 154.208496 Q 247.502930 153.956055 247.884277 152.903320 L 245.558594 146.984375 L 246.605957 146.984375 L 248.389160 151.689453 L 250.145508 146.984375 L 251.192871 146.984375 Z " fill="rgb(0, 0, 0)" fill-opacity="1.000000" />
<path d="M 255.297852 145.276367 L 255.297852 146.984375 L 257.542969 146.984375 L 257.542969 147.752441 L 255.297852 147.752441 L 255.297852 151.018066 Q 255.297852 151.684082 255.550293 151.947266 Q 255.802734 152.210449 256.431152 152.210449 L 257.542969 152.210449 L 257.542969 153.000000 L 256.334473 153.000000 Q 255.222656 153.000000 254.766113 152.554199 Q 254.309570 152.108398 254.309570 151.018066 L 254.309570 147.752441 L 252.703613 147.752441 L 252.703613 146.984375 L 254.309570 146.984375 L 254.309570 145.276367 Z " fill="rgb(0, 0, 0)" fill-opacity="1.000000" />
<path d="M 265.015625 149.498047 L 265.015625 149.981445 L 260.734863 149.981445 L 260.734863 150.013672 Q 260.691895 151.243652 261.204834 151.780762 Q 261.717773 152.317871 262.652344 152.317871 Q 263.125000 152.317871 263.640625 152.167480 Q 264.156250 152.017090 264.741699 151.710938 L 264.741699 152.693848 Q 264.177734 152.924805 263.654053 153.040283 Q 263.130371 153.155762 262.641602 153.155762 Q 261.239746 153.155762 260.450195 152.315186 Q 259.660645 151.474609 259.660645 149.997559 Q 259.660645 148.558105 260.434082 147.698730 Q 261.207520 146.839355 262.496582 146.839355 Q 263.645996 146.839355 264.309326 147.618164 Q 264.972656 148.396973 265.015625 149.498047 Z M 264.027344 149.208008 Q 263.962891 148.584961 263.573486 148.131104 Q 263.184082 147.677246 262.453613 147.677246 Q 261.739258 147.677246 261.277344 148.149902 Q 260.815430 148.622559 260.772461 149.213379 Z " fill="rgb(0, 0, 0)" fill-opacity="1.000000" />
<path d="M 37.878906 117.319336 L 37.878906 103.300781 L 38.738281 103.300781 L 38.738281 117.319336 Z " fill="rgb(0, 0, 0)" fill-opacity="1.000000" />
<path d="M 37.878906 130.319336 L 37.878906 116.300781 L 38.738281 116.300781 L 38.738281 130.319336 Z " fill="rgb(0, 0, 0)" fill-opacity="1.000000" />
<path d="M 100.878906 117.319336 L 100.878906 103.300781 L 101.738281 103.300781 L 101.738281 117.319336 Z " fill="rgb(0, 0, 0)" fill-opacity="1.000000" />
<path d="M 100.878906 130.319336 L 100.878906 116.300781 L 101.738281 116.300781 L 101.738281 130.319336 Z " fill="rgb(0, 0, 0)" fill-opacity="1.000000" />
<path d="M 240.878906 117.319336 L 240.878906 103.300781 L 241.738281 103.300781 L 241.738281 117.319336 Z " fill="rgb(0, 0, 0)" fill-opacity="1.000000" />
<path d="M 240.878906 130.319336 L 240.878906 116.300781 L 241.738281 116.300781 L 241.738281 130.319336 Z " fill="rgb(0, 0, 0)" fill-opacity="1.000000" />
<path d="M 6.892578 97.412109 L 6.892578 96.488281 L 13.729980 96.488281 L 13.729980 97.412109 Z M 6.892578 99.259766 L 6.892578 98.335938 L 13.729980 98.335938 L 13.729980 99.259766 Z " fill="rgb(0, 0, 0)" fill-opacity="1.000000" />
<path d="M 13.892578 97.412109 L 13.892578 96.488281 L 20.729980 96.488281 L 20.729980 97.412109 Z M 13.892578 99.259766 L 13.892578 98.335938 L 20.729980 98.335938 L 20.729980 99.259766 Z " fill="rgb(0, 0, 0)" fill-opacity="1.000000" />
<path d="M 20.892578 97.412109 L 20.892578 96.488281 L 27.729980 96.488281 L 27.729980 97.412109 Z M 20.892578 99.259766 L 20.892578 98.335938 L 27.729980 98.335938 L 27.729980 99.259766 Z " fill="rgb(0, 0, 0)" fill-opacity="1.000000" />
<path d="M 27.892578 97.412109 L 27.892578 96.488281 L 34.729980 96.488281 L 34.729980 97.412109 Z M 27.892578 99.259766 L 27.892578 98.335938 L 34.729980 98.335938 L 34.729980 99.259766 Z " fill="rgb(0, 0, 0)" fill-opacity="1.000000" />
<path d="M 35.032227 101.418945 L 38.308594 94.866211 L 41.590332 101.418945 Z " fill="rgb(0, 0, 0)" fill-opacity="1.000000" />
<path d="M 41.892578 97.412109 L 41.892578 96.488281 L 48.729980 96.488281 L 48.729980 97.412109 Z M 41.892578 99.259766 L 41.892578 98.335938 L 48.729980 98.335938 L 48.729980 99.259766 Z " fill="rgb(0, 0, 0)" fill-opacity="1.000000" />
<path d="M 48.892578 99.259766 L 48.892578 98.335938 L 55.729980 98.335938 L 55.729980 99.259766 Z M 48.892578 97.412109 L 48.892578 96.488281 L 51.019531 96.488281 L 51.019531 90.300781 L 51.878906 90.300781 L 51.878906 97.412109 Z M 52.738281 97.412109 L 52.738281 90.300781 L 53.597656 90.300781 L 53.597656 96.488281 L 55.729980 96.488281 L 55.729980 97.412109 Z " fill="rgb(0, 0, 0)" fill-opacity="1.000000" />
<path d="M 55.892578 97.412109 L 55.892578 96.488281 L 62.729980 96.488281 L 62.729980 97.412109 Z M 55.892578 99.259766 L 55.892578 98.335938 L 62.729980 98.335938 L 62.729980 99.259766 Z " fill="rgb(0, 0, 0)" fill-opacity="1.000000" />
<path d="M 62.892578 97.412109 L 62.892578 96.488281 L 69.729980 96.488281 L 69.729980 97.412109 Z M 62.892578 99.259766 L 62.892578 98.335938 L 69.729980 98.335938 L 69.729980 99.259766 Z " fill="rgb(0, 0, 0)" fill-opacity="1.000000" />
<path d="M 69.892578 97.412109 L 69.892578 96.488281 L 76.729980 96.488281 L 76.729980 97.412109 Z M 69.892578 99.259766 L 69.892578 98.335938 L 76.729980 98.335938 L 76.729980 99.259766 Z " fill="rgb(0, 0, 0)" fill-opacity="1.000000" />
<path d="M 76.892578 97.412109 L 76.892578 96.488281 L 83.729980 96.488281 L 83.729980 97.412109 Z M 76.892578 99.259766 L 76.892578 98.335938 L 83.729980 98.335938 L 83.729980 99.259766 Z " fill="rgb(0, 0, 0)" fill-opacity="1.000000" />
<path d="M 83.892578 97.412109 L 83.892578 96.488281 L 90.729980 96.488281 L 90.729980 97.412109 Z M 83.892578 99.259766 L 83.892578 98.335938 L 90.729980 98.335938 L 90.729980 99.259766 Z " fill="rgb(0, 0, 0)" fill-opacity="1.000000" />
<path d="M 90.892578 97.412109 L 90.892578 96.488281 L 97.729980 96.488281 L 97.729980 97.412109 Z M 90.892578 99.259766 L 90.892578 98.335938 L 97.729980 98.335938 L 97.729980 99.259766 Z " fill="rgb(0, 0, 0)" fill-opacity="1.000000" />
<path d="M 98.032227 101.418945 L 101.308594 94.866211 L 104.590332 101.418945 Z " fill="rgb(0, 0, 0)" fill-opacity="1.000000" />
<path d="M 104.892578 97.412109 L 104.892578 96.488281 L 111.729980 96.488281 L 111.729980 97.412109 Z M 104.892578 99.259766 L 104.892578 98.335938 L 111.729980 98.335938 L 111.729980 99.259766 Z " fill="rgb(0, 0, 0)" fill-opacity="1.000000" />
<path d="M 111.892578 97.412109 L 111.892578 96.488281 L 118.729980 96.488281 L 118.729980 97.412109 Z M 111.892578 99.259766 L 111.892578 98.335938 L 118.729980 98.335938 L 118.729980 99.259766 Z " fill="rgb(0, 0, 0)" fill-opacity="1.000000" />
<path d="M 118.892578 97.412109 L 118.892578 96.488281 L 125.729980 96.488281 L 125.729980 97.412109 Z M 118.892578 99.259766 L 118.892578 98.335938 L 125.729980 98.335938 L 125.729980 99.259766 Z " fill="rgb(0, 0, 0)" fill-opacity="1.000000" />
<path d="M 125.892578 97.412109 L 125.892578 96.488281 L 132.729980 96.488281 L 132.729980 97.412109 Z M 125.892578 99.259766 L 125.892578 98.335938 L 132.729980 98.335938 L 132.729980 99.259766 Z " fill="rgb(0, 0, 0)" fill-opacity="1.000000" />
<path d="M 132.892578 97.412109 L 132.892578 96.488281 L 139.729980 96.488281 L 139.729980 97.412109 Z M 132.892578 99.259766 L 132.892578 98.335938 L 139.729980 98.335938 L 139.729980 99.259766 Z " fill="rgb(0, 0, 0)" fill-opacity="1.000000" />
<path d="M 139.892578 97.412109 L 139.892578 96.488281 L 146.729980 96.488281 L 146.729980 97.412109 Z M 139.892578 99.259766 L 139.892578 98.335938 L 146.729980 98.335938 L 146.729980 99.259766 Z " fill="rgb(0, 0, 0)" fill-opacity="1.000000" />
<path d="M 146.892578 97.412109 L 146.892578 96.488281 L 153.729980 96.488281 L 153.729980 97.412109 Z M 146.892578 99.259766 L 146.892578 98.335938 L 153.729980 98.335938 L 153.729980 99.259766 Z " fill="rgb(0, 0, 0)" fill-opacity="1.000000" />
<path d="M 153.892578 97.412109 L 153.892578 96.488281 L 156.019531 96.488281 L 156.019531 90.300781 L 156.878906 90.300781 L 156.878906 97.412109 Z M 153.892578 99.259766 L 153.892578 98.335938 L 157.738281 98.335938 L 157.738281 90.300781 L 158.597656 90.300781 L 158.597656 99.259766 Z " fill="rgb(0, 0, 0)" fill-opacity="1.000000" />
<path d="M 164.738281 97.412109 L 164.738281 90.300781 L 165.597656 90.300781 L 165.597656 96.488281 L 167.729980 96.488281 L 167.729980 97.412109 Z M 163.019531 99.259766 L 163.019531 90.300781 L 163.878906 90.300781 L 163.878906 98.335938 L 167.729980 98.335938 L 167.729980 99.259766 Z " fill="rgb(0, 0, 0)" fill-opacity="1.000000" />
<path d="M 167.892578 97.412109 L 167.892578 96.488281 L 174.729980 96.488281 L 174.729980 97.412109 Z M 167.892578 99.259766 L 167.892578 98.335938 L 174.729980 98.335938 L 174.729980 99.259766 Z " fill="rgb(0, 0, 0)" fill-opacity="1.000000" />
<path d="M 174.892578 97.412109 L 174.892578 96.488281 L 181.729980 96.488281 L 181.729980 97.412109 Z M 174.892578 99.259766 L 174.892578 98.335938 L 181.729980 98.335938 L 181.729980 99.259766 Z " fill="rgb(0, 0, 0)" fill-opacity="1.000000" />
<path d="M 181.892578 97.412109 L 181.892578 96.488281 L 188.729980 96.488281 L 188.729980 97.412109 Z M 181.892578 99.259766 L 181.892578 98.335938 L 188.729980 98.335938 L 188.729980 99.259766 Z " fill="rgb(0, 0, 0)" fill-opacity="1.000000" />
<path d="M 188.892578 97.412109 L 188.892578 96.488281 L 195.729980 96.488281 L 195.729980 97.412109 Z M 188.892578 99.259766 L 188.892578 98.335938 L 195.729980 98.335938 L 195.729980 99.259766 Z " fill="rgb(0, 0, 0)" fill-opacity="1.000000" />
<path d="M 195.892578 97.412109 L 195.892578 96.488281 L 202.729980 96.488281 L 202.729980 97.412109 Z M 195.892578 99.259766 L 195.892578 98.335938 L 202.729980 98.335938 L 202.729980 99.259766 Z " fill="rgb(0, 0, 0)" fill-opacity="1.000000" />
<path d="M 202.892578 97.412109 L 202.892578 96.488281 L 209.729980 96.488281 L 209.729980 97.412109 Z M 202.892578 99.259766 L 202.892578 98.335938 L 209.729980 98.335938 L 209.729980 99.259766 Z " fill="rgb(0, 0, 0)" fill-opacity="1.000000" />
<path d="M 209.892578 99.259766 L 209.892578 98.335938 L 216.729980 98.335938 L 216.729980 99.259766 Z M 209.892578 97.412109 L 209.892578 96.488281 L 212.019531 96.488281 L 212.019531 90.300781 L 212.878906 90.300781 L 212.878906 97.412109 Z M 213.738281 97.412109 L 213.738281 90.300781 L 214.597656 90.300781 L 214.597656 96.488281 L 216.729980 96.488281 L 216.729980 97.412109 Z " fill="rgb(0, 0, 0)" fill-opacity="1.000000" />
<path d="M 216.892578 97.412109 L 216.892578 96.488281 L 223.729980 96.488281 L 223.729980 97.412109 Z M 216.892578 99.259766 L 216.892578 98.335938 L 223.729980 98.335938 L 223.729980 99.259766 Z " fill="rgb(0, 0, 0)" fill-opacity="1.000000" />
<path d="M 223.892578 97.412109 L 223.892578 96.488281 L 230.729980 96.488281 L 230.729980 97.412109 Z M 223.892578 99.259766 L 223.892578 98.335938 L 230.729980 98.335938 L 230.729980 99.259766 Z " fill="rgb(0, 0, 0)" fill-opacity="1.000000" />
<path d="M 230.892578 97.412109 L 230.892578 96.488281 L 237.729980 96.488281 L 237.729980 97.412109 Z M 230.892578 99.259766 L 230.892578 98.335938 L 237.729980 98.335938 L 237.729980 99.259766 Z " fill="rgb(0, 0, 0)" fill-opacity="1.000000" />
<path d="M 238.032227 101.418945 L 241.308594 94.866211 L 244.590332 101.418945 Z " fill="rgb(0, 0, 0)" fill-opacity="1.000000" />
<path d="M 244.892578 97.412109 L 244.892578 96.488281 L 251.729980 96.488281 L 251.729980 97.412109 Z M 244.892578 99.259766 L 244.892578 98.335938 L 251.729980 98.335938 L 251.729980 99.259766 Z " fill="rgb(0, 0, 0)" fill-opacity="1.000000" />
<path d="M 251.892578 97.412109 L 251.892578 96.488281 L 258.729980 96.488281 L 258.729980 97.412109 Z M 251.892578 99.259766 L 251.892578 98.335938 L 258.729980 98.335938 L 258.729980 99.259766 Z " fill="rgb(0, 0, 0)" fill-opacity="1.000000" />
<path d="M 258.892578 97.412109 L 258.892578 96.488281 L 265.729980 96.488281 L 265.729980 97.412109 Z M 258.892578 99.259766 L 258.892578 98.335938 L 265.729980 98.335938 L 265.729980 99.259766 Z " fill="rgb(0, 0, 0)" fill-opacity="1.000000" />
<path d="M 265.892578 97.412109 L 265.892578 96.488281 L 268.019531 96.488281 L 268.019531 90.300781 L 268.878906 90.300781 L 268.878906 97.412109 Z M 265.892578 99.259766 L 265.892578 98.335938 L 269.738281 98.335938 L 269.738281 90.300781 L 270.597656 90.300781 L 270.597656 99.259766 Z " fill="rgb(0, 0, 0)" fill-opacity="1.000000" />
<path d="M 276.738281 97.412109 L 276.738281 90.300781 L 277.597656 90.300781 L 277.597656 96.488281 L 279.729980 96.488281 L 279.729980 97.412109 Z M 275.019531 99.259766 L 275.019531 90.300781 L 275.878906 90.300781 L 275.878906 98.335938 L 279.729980 98.335938 L 279.729980 99.259766 Z " fill="rgb(0, 0, 0)" fill-opacity="1.000000" />
<path d="M 279.892578 97.412109 L 279.892578 96.488281 L 286.729980 96.488281 L 286.729980 97.412109 Z M 279.892578 99.259766 L 279.892578 98.335938 L 286.729980 98.335938 L 286.729980 99.259766 Z " fill="rgb(0, 0, 0)" fill-opacity="1.000000" />
<path d="M 286.892578 97.412109 L 286.892578 96.488281 L 293.729980 96.488281 L 293.729980 97.412109 Z M 286.892578 99.259766 L 286.892578 98.335938 L 293.729980 98.335938 L 293.729980 99.259766 Z " fill="rgb(0, 0, 0)" fill-opacity="1.000000" />
<path d="M 293.892578 97.412109 L 293.892578 96.488281 L 300.729980 96.488281 L 300.729980 97.412109 Z M 293.892578 99.259766 L 293.892578 98.335938 L 300.729980 98.335938 L 300.729980 99.259766 Z " fill="rgb(0, 0, 0)" fill-opacity="1.000000" />
<path d="M 300.892578 97.412109 L 300.892578 96.488281 L 307.729980 96.488281 L 307.729980 97.412109 Z M 300.892578 99.259766 L 300.892578 98.335938 L 307.729980 98.335938 L 307.729980 99.259766 Z " fill="rgb(0, 0, 0)" fill-opacity="1.000000" />
<path d="M 307.892578 97.412109 L 307.892578 96.488281 L 314.729980 96.488281 L 314.729980 97.412109 Z M 307.892578 99.259766 L 307.892578 98.335938 L 314.729980 98.335938 L 314.729980 99.259766 Z " fill="rgb(0, 0, 0)" fill-opacity="1.000000" />
<path d="M 314.892578 97.412109 L 314.892578 96.488281 L 321.729980 96.488281 L 321.729980 97.412109 Z M 314.892578 99.259766 L 314.892578 98.335938 L 321.729980 98.335938 L 321.729980 99.259766 Z " fill="rgb(0, 0, 0)" fill-opacity="1.000000" />
<path d="M 321.892578 97.412109 L 321.892578 96.488281 L 324.019531 96.488281 L 324.019531 90.300781 L 324.878906 90.300781 L 324.878906 97.412109 Z M 321.892578 99.259766 L 321.892578 98.335938 L 325.738281 98.335938 L 325.738281 90.300781 L 326.597656 90.300781 L 326.597656 99.259766 Z " fill="rgb(0, 0, 0)" fill-opacity="1.000000" />
<path d="M 16.143066 80.872559 L 16.143066 83.885742 L 17.399902 83.885742 Q 18.151855 83.885742 18.573486 83.488281 Q 18.995117 83.090820 18.995117 82.376465 Q 18.995117 81.662109 18.576172 81.267334 Q 18.157227 80.872559 17.399902 80.872559 Z M 15.058105 79.980957 L 17.399902 79.980957 Q 18.742676 79.980957 19.435547 80.590576 Q 20.128418 81.200195 20.128418 82.376465 Q 20.128418 83.563477 19.438232 84.170410 Q 18.748047 84.777344 17.399902 84.777344 L 16.143066 84.777344 L 16.143066 88.000000 L 15.058105 88.000000 Z " fill="rgb(0, 0, 0)" fill-opacity="1.000000" />
<path d="M 21.789551 84.922363 L 21.789551 79.980957 L 22.879883 79.980957 L 22.879883 85.416504 Q 22.879883 86.001953 22.912109 86.251709 Q 22.944336 86.501465 23.024902 86.635742 Q 23.196777 86.952637 23.521729 87.113770 Q 23.846680 87.274902 24.308594 87.274902 Q 24.775879 87.274902 25.098145 87.113770 Q 25.420410 86.952637 25.597656 86.635742 Q 25.678223 86.501465 25.710449 86.254395 Q 25.742676 86.007324 25.742676 85.427246 L 25.742676 79.980957 L 26.827637 79.980957 L 26.827637 84.922363 Q 26.827637 86.152344 26.674561 86.670654 Q 26.521484 87.188965 26.145508 87.527344 Q 25.791016 87.844238 25.334473 88.000000 Q 24.877930 88.155762 24.308594 88.155762 Q 23.744629 88.155762 23.288086 88.000000 Q 22.831543 87.844238 22.471680 87.527344 Q 22.101074 87.194336 21.945312 86.665283 Q 21.789551 86.136230 21.789551 84.922363 Z " fill="rgb(0, 0, 0)" fill-opacity="1.000000" />
<path d="M 33.435547 80.254883 L 33.435547 81.355957 Q 32.941406 81.039062 32.444580 80.877930 Q 31.947754 80.716797 31.442871 80.716797 Q 30.674805 80.716797 30.229004 81.073975 Q 29.783203 81.431152 29.783203 82.038086 Q 29.783203 82.569824 30.075928 82.849121 Q 30.368652 83.128418 31.168945 83.316406 L 31.738281 83.445312 Q 32.866211 83.708496 33.381836 84.272461 Q 33.897461 84.836426 33.897461 85.808594 Q 33.897461 86.952637 33.188477 87.554199 Q 32.479492 88.155762 31.125977 88.155762 Q 30.562012 88.155762 29.992676 88.034912 Q 29.423340 87.914062 28.848633 87.672363 L 28.848633 86.517578 Q 29.466309 86.909668 30.016846 87.092285 Q 30.567383 87.274902 31.125977 87.274902 Q 31.947754 87.274902 32.404297 86.906982 Q 32.860840 86.539062 32.860840 85.878418 Q 32.860840 85.276855 32.546631 84.959961 Q 32.232422 84.643066 31.453613 84.471191 L 30.873535 84.336914 Q 29.756348 84.084473 29.251465 83.574219 Q 28.746582 83.063965 28.746582 82.204590 Q 28.746582 81.130371 29.468994 80.483154 Q 30.191406 79.835938 31.389160 79.835938 Q 31.851074 79.835938 32.361328 79.940674 Q 32.871582 80.045410 33.435547 80.254883 Z " fill="rgb(0, 0, 0)" fill-opacity="1.000000" />
<path d="M 35.735840 79.980957 L 36.826172 79.980957 L 36.826172 83.053223 L 39.796387 83.053223 L 39.796387 79.980957 L 40.886719 79.980957 L 40.886719 88.000000 L 39.796387 88.000000 L 39.796387 83.966309 L 36.826172 83.966309 L 36.826172 88.000000 L 35.735840 88.000000 Z " fill="rgb(0, 0, 0)" fill-opacity="1.000000" />
<path d="M 51.878906 91.319336 L 51.878906 77.300781 L 52.738281 77.300781 L 52.738281 91.319336 Z " fill="rgb(0, 0, 0)" fill-opacity="1.000000" />
<path d="M 92.111816 79.980957 L 96.172363 79.980957 L 96.172363 80.894043 L 93.100098 80.894043 L 93.100098 82.865234 Q 93.331055 82.779297 93.564697 82.739014 Q 93.798340 82.698730 94.034668 82.698730 Q 95.280762 82.698730 96.011230 83.434570 Q 96.741699 84.170410 96.741699 85.427246 Q 96.741699 86.694824 95.976318 87.425293 Q 95.210938 88.155762 93.884277 88.155762 Q 93.245117 88.155762 92.716064 88.069824 Q 92.187012 87.983887 91.768066 87.812012 L 91.768066 86.710938 Q 92.262207 86.979492 92.761719 87.111084 Q 93.261230 87.242676 93.782227 87.242676 Q 94.679199 87.242676 95.165283 86.770020 Q 95.651367 86.297363 95.651367 85.427246 Q 95.651367 84.567871 95.149170 84.089844 Q 94.646973 83.611816 93.750000 83.611816 Q 93.314941 83.611816 92.901367 83.711182 Q 92.487793 83.810547 92.111816 84.009277 Z " fill="rgb(0, 0, 0)" fill-opacity="1.000000" />
<path d="M 101.308594 79.862793 Q 102.592285 79.862793 103.250244 80.910156 Q 103.908203 81.957520 103.908203 84.009277 Q 103.908203 86.061035 103.250244 87.108398 Q 102.592285 88.155762 101.308594 88.155762 Q 100.024902 88.155762 99.369629 87.108398 Q 98.714355 86.061035 98.714355 84.009277 Q 98.714355 81.957520 99.369629 80.910156 Q 100.024902 79.862793 101.308594 79.862793 Z M 101.308594 87.296387 Q 102.071289 87.296387 102.444580 86.485352 Q 102.817871 85.674316 102.817871 84.009277 Q 102.817871 83.123047 102.710449 82.408691 L 100.153809 86.410156 Q 100.556641 87.296387 101.308594 87.296387 Z M 101.308594 80.722168 Q 100.551270 80.722168 100.177979 81.533203 Q 99.804688 82.344238 99.804688 84.009277 Q 99.804688 84.766602 99.906738 85.427246 L 102.409668 81.436523 Q 102.001465 80.722168 101.308594 80.722168 Z " fill="rgb(0, 0, 0)" fill-opacity="1.000000" />
<path d="M 106.111816 79.980957 L 110.172363 79.980957 L 110.172363 80.894043 L 107.100098 80.894043 L 107.100098 82.865234 Q 107.331055 82.779297 107.564697 82.739014 Q 107.798340 82.698730 108.034668 82.698730 Q 109.280762 82.698730 110.011230 83.434570 Q 110.741699 84.170410 110.741699 85.427246 Q 110.741699 86.694824 109.976318 87.425293 Q 109.210938 88.155762 107.884277 88.155762 Q 107.245117 88.155762 106.716064 88.069824 Q 106.187012 87.983887 105.768066 87.812012 L 105.768066 86.710938 Q 106.262207 86.979492 106.761719 87.111084 Q 107.261230 87.242676 107.782227 87.242676 Q 108.679199 87.242676 109.165283 86.770020 Q 109.651367 86.297363 109.651367 85.427246 Q 109.651367 84.567871 109.149170 84.089844 Q 108.646973 83.611816 107.750000 83.611816 Q 107.314941 83.611816 106.901367 83.711182 Q 106.487793 83.810547 106.111816 84.009277 Z " fill="rgb(0, 0, 0)" fill-opacity="1.000000" />
<path d="M 156.019531 91.319336 L 156.019531 77.300781 L 156.878906 77.300781 L 156.878906 91.319336 Z M 157.738281 91.319336 L 157.738281 77.300781 L 158.597656 77.300781 L 158.597656 91.319336 Z " fill="rgb(0, 0, 0)" fill-opacity="1.000000" />
<path d="M 163.019531 91.319336 L 163.019531 77.300781 L 163.878906 77.300781 L 163.878906 91.319336 Z M 164.738281 91.319336 L 164.738281 77.300781 L 165.597656 77.300781 L 165.597656 91.319336 Z " fill="rgb(0, 0, 0)" fill-opacity="1.000000" />
<path d="M 177.143066 80.872559 L 177.143066 83.885742 L 178.399902 83.885742 Q 179.151855 83.885742 179.573486 83.488281 Q 179.995117 83.090820 179.995117 82.376465 Q 179.995117 81.662109 179.576172 81.267334 Q 179.157227 80.872559 178.399902 80.872559 Z M 176.058105 79.980957 L 178.399902 79.980957 Q 179.742676 79.980957 180.435547 80.590576 Q 181.128418 81.200195 181.128418 82.376465 Q 181.128418 83.563477 180.438232 84.170410 Q 179.748047 84.777344 178.399902 84.777344 L 177.143066 84.777344 L 177.143066 88.000000 L 176.058105 88.000000 Z " fill="rgb(0, 0, 0)" fill-opacity="1.000000" />
<path d="M 182.789551 84.922363 L 182.789551 79.980957 L 183.879883 79.980957 L 183.879883 85.416504 Q 183.879883 86.001953 183.912109 86.251709 Q 183.944336 86.501465 184.024902 86.635742 Q 184.196777 86.952637 184.521729 87.113770 Q 184.846680 87.274902 185.308594 87.274902 Q 185.775879 87.274902 186.098145 87.113770 Q 186.420410 86.952637 186.597656 86.635742 Q 186.678223 86.501465 186.710449 86.254395 Q 186.742676 86.007324 186.742676 85.427246 L 186.742676 79.980957 L 187.827637 79.980957 L 187.827637 84.922363 Q 187.827637 86.152344 187.674561 86.670654 Q 187.521484 87.188965 187.145508 87.527344 Q 186.791016 87.844238 186.334473 88.000000 Q 185.877930 88.155762 185.308594 88.155762 Q 184.744629 88.155762 184.288086 88.000000 Q 183.831543 87.844238 183.471680 87.527344 Q 183.101074 87.194336 182.945312 86.665283 Q 182.789551 86.136230 182.789551 84.922363 Z " fill="rgb(0, 0, 0)" fill-opacity="1.000000" />
<path d="M 194.435547 80.254883 L 194.435547 81.355957 Q 193.941406 81.039062 193.444580 80.877930 Q 192.947754 80.716797 192.442871 80.716797 Q 191.674805 80.716797 191.229004 81.073975 Q 190.783203 81.431152 190.783203 82.038086 Q 190.783203 82.569824 191.075928 82.849121 Q 191.368652 83.128418 192.168945 83.316406 L 192.738281 83.445312 Q 193.866211 83.708496 194.381836 84.272461 Q 194.897461 84.836426 194.897461 85.808594 Q 194.897461 86.952637 194.188477 87.554199 Q 193.479492 88.155762 192.125977 88.155762 Q 191.562012 88.155762 190.992676 88.034912 Q 190.423340 87.914062 189.848633 87.672363 L 189.848633 86.517578 Q 190.466309 86.909668 191.016846 87.092285 Q 191.567383 87.274902 192.125977 87.274902 Q 192.947754 87.274902 193.404297 86.906982 Q 193.860840 86.539062 193.860840 85.878418 Q 193.860840 85.276855 193.546631 84.959961 Q 193.232422 84.643066 192.453613 84.471191 L 191.873535 84.336914 Q 190.756348 84.084473 190.251465 83.574219 Q 189.746582 83.063965 189.746582 82.204590 Q 189.746582 81.130371 190.468994 80.483154 Q 191.191406 79.835938 192.389160 79.835938 Q 192.851074 79.835938 193.361328 79.940674 Q 193.871582 80.045410 194.435547 80.254883 Z " fill="rgb(0, 0, 0)" fill-opacity="1.000000" />
<path d="M 196.735840 79.980957 L 197.826172 79.980957 L 197.826172 83.053223 L 200.796387 83.053223 L 200.796387 79.980957 L 201.886719 79.980957 L 201.886719 88.000000 L 200.796387 88.000000 L 200.796387 83.966309 L 197.826172 83.966309 L 197.826172 88.000000 L 196.735840 88.000000 Z " fill="rgb(0, 0, 0)" fill-opacity="1.000000" />
<path d="M 212.878906 91.319336 L 212.878906 77.300781 L 213.738281 77.300781 L 213.738281 91.319336 Z " fill="rgb(0, 0, 0)" fill-opacity="1.000000" />
<path d="M 233.003418 87.086914 L 236.687988 87.086914 L 236.687988 88.000000 L 231.816406 88.000000 L 231.816406 87.086914 Q 232.820801 86.028809 233.572754 85.217773 Q 234.324707 84.406738 234.609375 84.073730 Q 235.146484 83.418457 235.334473 83.012939 Q 235.522461 82.607422 235.522461 82.183105 Q 235.522461 81.511719 235.127686 81.130371 Q 234.732910 80.749023 234.045410 80.749023 Q 233.556641 80.749023 233.019531 80.926270 Q 232.482422 81.103516 231.880859 81.463379 L 231.880859 80.367676 Q 232.434082 80.104492 232.968506 79.970215 Q 233.502930 79.835938 234.023926 79.835938 Q 235.200195 79.835938 235.917236 80.461670 Q 236.634277 81.087402 236.634277 82.102539 Q 236.634277 82.618164 236.395264 83.133789 Q 236.156250 83.649414 235.619141 84.272461 Q 235.318359 84.621582 234.746338 85.239258 Q 234.174316 85.856934 233.003418 87.086914 Z " fill="rgb(0, 0, 0)" fill-opacity="1.000000" />
<path d="M 241.308594 79.862793 Q 242.592285 79.862793 243.250244 80.910156 Q 243.908203 81.957520 243.908203 84.009277 Q 243.908203 86.061035 243.250244 87.108398 Q 242.592285 88.155762 241.308594 88.155762 Q 240.024902 88.155762 239.369629 87.108398 Q 238.714355 86.061035 238.714355 84.009277 Q 238.714355 81.957520 239.369629 80.910156 Q 240.024902 79.862793 241.308594 79.862793 Z M 241.308594 87.296387 Q 242.071289 87.296387 242.444580 86.485352 Q 242.817871 85.674316 242.817871 84.009277 Q 242.817871 83.123047 242.710449 82.408691 L 240.153809 86.410156 Q 240.556641 87.296387 241.308594 87.296387 Z M 241.308594 80.722168 Q 240.551270 80.722168 240.177979 81.533203 Q 239.804688 82.344238 239.804688 84.009277 Q 239.804688 84.766602 239.906738 85.427246 L 242.409668 81.436523 Q 242.001465 80.722168 241.308594 80.722168 Z " fill="rgb(0, 0, 0)" fill-opacity="1.000000" />
<path d="M 246.111816 79.980957 L 250.172363 79.980957 L 250.172363 80.894043 L 247.100098 80.894043 L 247.100098 82.865234 Q 247.331055 82.779297 247.564697 82.739014 Q 247.798340 82.698730 248.034668 82.698730 Q 249.280762 82.698730 250.011230 83.434570 Q 250.741699 84.170410 250.741699 85.427246 Q 250.741699 86.694824 249.976318 87.425293 Q 249.210938 88.155762 247.884277 88.155762 Q 247.245117 88.155762 246.716064 88.069824 Q 246.187012 87.983887 245.768066 87.812012 L 245.768066 86.710938 Q 246.262207 86.979492 246.761719 87.111084 Q 247.261230 87.242676 247.782227 87.242676 Q 248.679199 87.242676 249.165283 86.770020 Q 249.651367 86.297363 249.651367 85.427246 Q 249.651367 84.567871 249.149170 84.089844 Q 248.646973 83.611816 247.750000 83.611816 Q 247.314941 83.611816 246.901367 83.711182 Q 246.487793 83.810547 246.111816 84.009277 Z " fill="rgb(0, 0, 0)" fill-opacity="1.000000" />
<path d="M 268.019531 91.319336 L 268.019531 77.300781 L 268.878906 77.300781 L 268.878906 91.319336 Z M 269.738281 91.319336 L 269.738281 77.300781 L 270.597656 77.300781 L 270.597656 91.319336 Z " fill="rgb(0, 0, 0)" fill-opacity="1.000000" />
<path d="M 275.019531 91.319336 L 275.019531 77.300781 L 275.878906 77.300781 L 275.878906 91.319336 Z M 276.738281 91.319336 L 276.738281 77.300781 L 277.597656 77.300781 L 277.597656 91.319336 Z " fill="rgb(0, 0, 0)" fill-opacity="1.000000" />
<path d="M 290.308594 80.937012 L 289.164551 85.040527 L 291.452637 85.040527 Z M 289.653320 79.980957 L 290.969238 79.980957 L 293.423828 88.000000 L 292.301270 88.000000 L 291.710449 85.910645 L 288.901367 85.910645 L 288.321289 88.000000 L 287.198730 88.000000 Z " fill="rgb(0, 0, 0)" fill-opacity="1.000000" />
<path d="M 296.341797 87.108398 Q 297.711426 87.108398 298.253906 86.434326 Q 298.796387 85.760254 298.796387 83.998535 Q 298.796387 82.220703 298.256592 81.546631 Q 297.716797 80.872559 296.341797 80.872559 L 295.826172 80.872559 L 295.826172 87.108398 Z M 296.363281 79.980957 Q 298.200195 79.980957 299.070312 80.958496 Q 299.940430 81.936035 299.940430 83.998535 Q 299.940430 86.050293 299.070312 87.025146 Q 298.200195 88.000000 296.363281 88.000000 L 294.735840 88.000000 L 294.735840 79.980957 Z " fill="rgb(0, 0, 0)" fill-opacity="1.000000" />
<path d="M 303.341797 87.108398 Q 304.711426 87.108398 305.253906 86.434326 Q 305.796387 85.760254 305.796387 83.998535 Q 305.796387 82.220703 305.256592 81.546631 Q 304.716797 80.872559 303.341797 80.872559 L 302.826172 80.872559 L 302.826172 87.108398 Z M 303.363281 79.980957 Q 305.200195 79.980957 306.070312 80.958496 Q 306.940430 81.936035 306.940430 83.998535 Q 306.940430 86.050293 306.070312 87.025146 Q 305.200195 88.000000 303.363281 88.000000 L 301.735840 88.000000 L 301.735840 79.980957 Z " fill="rgb(0, 0, 0)" fill-opacity="1.000000" />
<path d="M 324.019531 91.319336 L 324.019531 77.300781 L 324.878906 77.300781 L 324.878906 91.319336 Z M 325.738281 91.319336 L 325.738281 77.300781 L 326.597656 77.300781 L 326.597656 91.319336 Z " fill="rgb(0, 0, 0)" fill-opacity="1.000000" />
<path d="M 6.892578 71.412109 L 6.892578 70.488281 L 13.729980 70.488281 L 13.729980 71.412109 Z M 6.892578 73.259766 L 6.892578 72.335938 L 13.729980 72.335938 L 13.729980 73.259766 Z " fill="rgb(0, 0, 0)" fill-opacity="1.000000" />
<path d="M 13.892578 71.412109 L 13.892578 70.488281 L 20.729980 70.488281 L 20.729980 71.412109 Z M 13.892578 73.259766 L 13.892578 72.335938 L 20.729980 72.335938 L 20.729980 73.259766 Z " fill="rgb(0, 0, 0)" fill-opacity="1.000000" />
<path d="M 20.892578 71.412109 L 20.892578 70.488281 L 27.729980 70.488281 L 27.729980 71.412109 Z M 20.892578 73.259766 L 20.892578 72.335938 L 27.729980 72.335938 L 27.729980 73.259766 Z " fill="rgb(0, 0, 0)" fill-opacity="1.000000" />
<path d="M 27.892578 71.412109 L 27.892578 70.488281 L 34.729980 70.488281 L 34.729980 71.412109 Z M 27.892578 73.259766 L 27.892578 72.335938 L 34.729980 72.335938 L 34.729980 73.259766 Z " fill="rgb(0, 0, 0)" fill-opacity="1.000000" />
<path d="M 34.892578 71.412109 L 34.892578 70.488281 L 41.729980 70.488281 L 41.729980 71.412109 Z M 34.892578 73.259766 L 34.892578 72.335938 L 41.729980 72.335938 L 41.729980 73.259766 Z " fill="rgb(0, 0, 0)" fill-opacity="1.000000" />
<path d="M 41.892578 71.412109 L 41.892578 70.488281 L 48.729980 70.488281 L 48.729980 71.412109 Z M 41.892578 73.259766 L 41.892578 72.335938 L 48.729980 72.335938 L 48.729980 73.259766 Z " fill="rgb(0, 0, 0)" fill-opacity="1.000000" />
<path d="M 48.892578 71.412109 L 48.892578 70.488281 L 55.729980 70.488281 L 55.729980 71.412109 Z M 51.019531 78.319336 L 51.019531 73.259766 L 48.892578 73.259766 L 48.892578 72.335938 L 51.878906 72.335938 L 51.878906 78.319336 Z M 52.738281 78.319336 L 52.738281 72.335938 L 55.729980 72.335938 L 55.729980 73.259766 L 53.597656 73.259766 L 53.597656 78.319336 Z " fill="rgb(0, 0, 0)" fill-opacity="1.000000" />
<path d="M 55.892578 71.412109 L 55.892578 70.488281 L 62.729980 70.488281 L 62.729980 71.412109 Z M 55.892578 73.259766 L 55.892578 72.335938 L 62.729980 72.335938 L 62.729980 73.259766 Z " fill="rgb(0, 0, 0)" fill-opacity="1.000000" />
<path d="M 62.892578 71.412109 L 62.892578 70.488281 L 69.729980 70.488281 L 69.729980 71.412109 Z M 62.892578 73.259766 L 62.892578 72.335938 L 69.729980 72.335938 L 69.729980 73.259766 Z " fill="rgb(0, 0, 0)" fill-opacity="1.000000" />
<path d="M 69.892578 71.412109 L 69.892578 70.488281 L 76.729980 70.488281 L 76.729980 71.412109 Z M 69.892578 73.259766 L 69.892578 72.335938 L 76.729980 72.335938 L 76.729980 73.259766 Z " fill="rgb(0, 0, 0)" fill-opacity="1.000000" />
<path d="M 76.892578 71.412109 L 76.892578 70.488281 L 83.729980 70.488281 L 83.729980 71.412109 Z M 76.892578 73.259766 L 76.892578 72.335938 L 83.729980 72.335938 L 83.729980 73.259766 Z " fill="rgb(0, 0, 0)" fill-opacity="1.000000" />
<path d="M 83.892578 71.412109 L 83.892578 70.488281 L 90.729980 70.488281 L 90.729980 71.412109 Z M 83.892578 73.259766 L 83.892578 72.335938 L 90.729980 72.335938 L 90.729980 73.259766 Z " fill="rgb(0, 0, 0)" fill-opacity="1.000000" />
<path d="M 90.892578 71.412109 L 90.892578 70.488281 L 97.729980 70.488281 L 97.729980 71.412109 Z M 90.892578 73.259766 L 90.892578 72.335938 L 97.729980 72.335938 L 97.729980 73.259766 Z " fill="rgb(0, 0, 0)" fill-opacity="1.000000" />
<path d="M 97.892578 71.412109 L 97.892578 70.488281 L 104.729980 70.488281 L 104.729980 71.412109 Z M 97.892578 73.259766 L 97.892578 72.335938 L 104.729980 72.335938 L 104.729980 73.259766 Z " fill="rgb(0, 0, 0)" fill-opacity="1.000000" />
<path d="M 104.892578 71.412109 L 104.892578 70.488281 L 111.729980 70.488281 L 111.729980 71.412109 Z M 104.892578 73.259766 L 104.892578 72.335938 L 111.729980 72.335938 L 111.729980 73.259766 Z " fill="rgb(0, 0, 0)" fill-opacity="1.000000" />
<path d="M 111.892578 71.412109 L 111.892578 70.488281 L 118.729980 70.488281 L 118.729980 71.412109 Z M 111.892578 73.259766 L 111.892578 72.335938 L 118.729980 72.335938 L 118.729980 73.259766 Z " fill="rgb(0, 0, 0)" fill-opacity="1.000000" />
<path d="M 118.892578 71.412109 L 118.892578 70.488281 L 125.729980 70.488281 L 125.729980 71.412109 Z M 118.892578 73.259766 L 118.892578 72.335938 L 125.729980 72.335938 L 125.729980 73.259766 Z " fill="rgb(0, 0, 0)" fill-opacity="1.000000" />
<path d="M 125.892578 71.412109 L 125.892578 70.488281 L 132.729980 70.488281 L 132.729980 71.412109 Z M 125.892578 73.259766 L 125.892578 72.335938 L 132.729980 72.335938 L 132.729980 73.259766 Z " fill="rgb(0, 0, 0)" fill-opacity="1.000000" />
<path d="M 132.892578 71.412109 L 132.892578 70.488281 L 139.729980 70.488281 L 139.729980 71.412109 Z M 132.892578 73.259766 L 132.892578 72.335938 L 139.729980 72.335938 L 139.729980 73.259766 Z " fill="rgb(0, 0, 0)" fill-opacity="1.000000" />
<path d="M 139.892578 71.412109 L 139.892578 70.488281 L 146.729980 70.488281 L 146.729980 71.412109 Z M 139.892578 73.259766 L 139.892578 72.335938 L 146.729980 72.335938 L 146.729980 73.259766 Z " fill="rgb(0, 0, 0)" fill-opacity="1.000000" />
<path d="M 146.892578 71.412109 L 146.892578 70.488281 L 153.729980 70.488281 L 153.729980 71.412109 Z M 146.892578 73.259766 L 146.892578 72.335938 L 153.729980 72.335938 L 153.729980 73.259766 Z " fill="rgb(0, 0, 0)" fill-opacity="1.000000" />
<path d="M 157.738281 78.319336 L 157.738281 71.412109 L 153.892578 71.412109 L 153.892578 70.488281 L 158.597656 70.488281 L 158.597656 78.319336 Z M 156.019531 78.319336 L 156.019531 73.259766 L 153.892578 73.259766 L 153.892578 72.335938 L 156.878906 72.335938 L 156.878906 78.319336 Z " fill="rgb(0, 0, 0)" fill-opacity="1.000000" />
<path d="M 163.019531 78.319336 L 163.019531 70.488281 L 167.729980 70.488281 L 167.729980 71.412109 L 163.878906 71.412109 L 163.878906 78.319336 Z M 164.738281 78.319336 L 164.738281 72.335938 L 167.729980 72.335938 L 167.729980 73.259766 L 165.597656 73.259766 L 165.597656 78.319336 Z " fill="rgb(0, 0, 0)" fill-opacity="1.000000" />
<path d="M 167.892578 71.412109 L 167.892578 70.488281 L 174.729980 70.488281 L 174.729980 71.412109 Z M 167.892578 73.259766 L 167.892578 72.335938 L 174.729980 72.335938 L 174.729980 73.259766 Z " fill="rgb(0, 0, 0)" fill-opacity="1.000000" />
<path d="M 174.892578 71.412109 L 174.892578 70.488281 L 181.729980 70.488281 L 181.729980 71.412109 Z M 174.892578 73.259766 L 174.892578 72.335938 L 181.729980 72.335938 L 181.729980 73.259766 Z " fill="rgb(0, 0, 0)" fill-opacity="1.000000" />
<path d="M 181.892578 71.412109 L 181.892578 70.488281 L 188.729980 70.488281 L 188.729980 71.412109 Z M 181.892578 73.259766 L 181.892578 72.335938 L 188.729980 72.335938 L 188.729980 73.259766 Z " fill="rgb(0, 0, 0)" fill-opacity="1.000000" />
<path d="M 188.892578 71.412109 L 188.892578 70.488281 L 195.729980 70.488281 L 195.729980 71.412109 Z M 188.892578 73.259766 L 188.892578 72.335938 L 195.729980 72.335938 L 195.729980 73.259766 Z " fill="rgb(0, 0, 0)" fill-opacity="1.000000" />
<path d="M 195.892578 71.412109 L 195.892578 70.488281 L 202.729980 70.488281 L 202.729980 71.412109 Z M 195.892578 73.259766 L 195.892578 72.335938 L 202.729980 72.335938 L 202.729980 73.259766 Z " fill="rgb(0, 0, 0)" fill-opacity="1.000000" />
<path d="M 202.892578 71.412109 L 202.892578 70.488281 L 209.729980 70.488281 L 209.729980 71.412109 Z M 202.892578 73.259766 L 202.892578 72.335938 L 209.729980 72.335938 L 209.729980 73.259766 Z " fill="rgb(0, 0, 0)" fill-opacity="1.000000" />
<path d="M 209.892578 71.412109 L 209.892578 70.488281 L 216.729980 70.488281 L 216.729980 71.412109 Z M 212.019531 78.319336 L 212.019531 73.259766 L 209.892578 73.259766 L 209.892578 72.335938 L 212.878906 72.335938 L 212.878906 78.319336 Z M 213.738281 78.319336 L 213.738281 72.335938 L 216.729980 72.335938 L 216.729980 73.259766 L 214.597656 73.259766 L 214.597656 78.319336 Z " fill="rgb(0, 0, 0)" fill-opacity="1.000000" />
<path d="M 216.892578 71.412109 L 216.892578 70.488281 L 223.729980 70.488281 L 223.729980 71.412109 Z M 216.892578 73.259766 L 216.892578 72.335938 L 223.729980 72.335938 L 223.729980 73.259766 Z " fill="rgb(0, 0, 0)" fill-opacity="1.000000" />
<path d="M 223.892578 71.412109 L 223.892578 70.488281 L 230.729980 70.488281 L 230.729980 71.412109 Z M 223.892578 73.259766 L 223.892578 72.335938 L 230.729980 72.335938 L 230.729980 73.259766 Z " fill="rgb(0, 0, 0)" fill-opacity="1.000000" />
<path d="M 230.892578 71.412109 L 230.892578 70.488281 L 237.729980 70.488281 L 237.729980 71.412109 Z M 230.892578 73.259766 L 230.892578 72.335938 L 237.729980 72.335938 L 237.729980 73.259766 Z " fill="rgb(0, 0, 0)" fill-opacity="1.000000" />
<path d="M 237.892578 71.412109 L 237.892578 70.488281 L 244.729980 70.488281 L 244.729980 71.412109 Z M 237.892578 73.259766 L 237.892578 72.335938 L 244.729980 72.335938 L 244.729980 73.259766 Z " fill="rgb(0, 0, 0)" fill-opacity="1.000000" />
<path d="M 244.892578 71.412109 L 244.892578 70.488281 L 251.729980 70.488281 L 251.729980 71.412109 Z M 244.892578 73.259766 L 244.892578 72.335938 L 251.729980 72.335938 L 251.729980 73.259766 Z " fill="rgb(0, 0, 0)" fill-opacity="1.000000" />
<path d="M 251.892578 71.412109 L 251.892578 70.488281 L 258.729980 70.488281 L 258.729980 71.412109 Z M 251.892578 73.259766 L 251.892578 72.335938 L 258.729980 72.335938 L 258.729980 73.259766 Z " fill="rgb(0, 0, 0)" fill-opacity="1.000000" />
<path d="M 258.892578 71.412109 L 258.892578 70.488281 L 265.729980 70.488281 L 265.729980 71.412109 Z M 258.892578 73.259766 L 258.892578 72.335938 L 265.729980 72.335938 L 265.729980 73.259766 Z " fill="rgb(0, 0, 0)" fill-opacity="1.000000" />
<path d="M 269.738281 78.319336 L 269.738281 71.412109 L 265.892578 71.412109 L 265.892578 70.488281 L 270.597656 70.488281 L 270.597656 78.319336 Z M 268.019531 78.319336 L 268.019531 73.259766 L 265.892578 73.259766 L 265.892578 72.335938 L 268.878906 72.335938 L 268.878906 78.319336 Z " fill="rgb(0, 0, 0)" fill-opacity="1.000000" />
<path d="M 275.019531 78.319336 L 275.019531 70.488281 L 279.729980 70.488281 L 279.729980 71.412109 L 275.878906 71.412109 L 275.878906 78.319336 Z M 276.738281 78.319336 L 276.738281 72.335938 L 279.729980 72.335938 L 279.729980 73.259766 L 277.597656 73.259766 L 277.597656 78.319336 Z " fill="rgb(0, 0, 0)" fill-opacity="1.000000" />
<path d="M 279.892578 71.412109 L 279.892578 70.488281 L 286.729980 70.488281 L 286.729980 71.412109 Z M 279.892578 73.259766 L 279.892578 72.335938 L 286.729980 72.335938 L 286.729980 73.259766 Z " fill="rgb(0, 0, 0)" fill-opacity="1.000000" />
<path d="M 286.892578 71.412109 L 286.892578 70.488281 L 293.729980 70.488281 L 293.729980 71.412109 Z M 286.892578 73.259766 L 286.892578 72.335938 L 293.729980 72.335938 L 293.729980 73.259766 Z " fill="rgb(0, 0, 0)" fill-opacity="1.000000" />
<path d="M 293.892578 71.412109 L 293.892578 70.488281 L 300.729980 70.488281 L 300.729980 71.412109 Z M 293.892578 73.259766 L 293.892578 72.335938 L 300.729980 72.335938 L 300.729980 73.259766 Z " fill="rgb(0, 0, 0)" fill-opacity="1.000000" />
<path d="M 300.892578 71.412109 L 300.892578 70.488281 L 307.729980 70.488281 L 307.729980 71.412109 Z M 300.892578 73.259766 L 300.892578 72.335938 L 307.729980 72.335938 L 307.729980 73.259766 Z " fill="rgb(0, 0, 0)" fill-opacity="1.000000" />
<path d="M 307.892578 71.412109 L 307.892578 70.488281 L 314.729980 70.488281 L 314.729980 71.412109 Z M 307.892578 73.259766 L 307.892578 72.335938 L 314.729980 72.335938 L 314.729980 73.259766 Z " fill="rgb(0, 0, 0)" fill-opacity="1.000000" />
<path d="M 314.892578 71.412109 L 314.892578 70.488281 L 321.729980 70.488281 L 321.729980 71.412109 Z M 314.892578 73.259766 L 314.892578 72.335938 L 321.729980 72.335938 L 321.729980 73.259766 Z " fill="rgb(0, 0, 0)" fill-opacity="1.000000" />
<path d="M 325.738281 78.319336 L 325.738281 71.412109 L 321.892578 71.412109 L 321.892578 70.488281 L 326.597656 70.488281 L 326.597656 78.319336 Z M 324.019531 78.319336 L 324.019531 73.259766 L 321.892578 73.259766 L 321.892578 72.335938 L 324.878906 72.335938 L 324.878906 78.319336 Z " fill="rgb(0, 0, 0)" fill-opacity="1.000000" />
<path d="M 15.079590 1.980957 L 19.532227 1.980957 L 19.532227 2.894043 L 17.851074 2.894043 L 17.851074 9.086914 L 19.532227 9.086914 L 19.532227 10.000000 L 15.079590 10.000000 L 15.079590 9.086914 L 16.760742 9.086914 L 16.760742 2.894043 L 15.079590 2.894043 Z " fill="rgb(0, 0, 0)" fill-opacity="1.000000" />
<path d="M 51.878906 39.319336 L 51.878906 25.300781 L 52.738281 25.300781 L 52.738281 39.319336 Z " fill="rgb(0, 0, 0)" fill-opacity="1.000000" />
<path d="M 51.878906 52.319336 L 51.878906 38.300781 L 52.738281 38.300781 L 52.738281 52.319336 Z " fill="rgb(0, 0, 0)" fill-opacity="1.000000" />
<path d="M 52.308594 62.418945 L 49.032227 55.866211 L 55.590332 55.866211 Z " fill="rgb(0, 0, 0)" fill-opacity="1.000000" />
<path d="M 213.308594 62.418945 L 210.032227 55.866211 L 216.590332 55.866211 Z " fill="rgb(0, 0, 0)" fill-opacity="1.000000" />
<path d="M 297.308594 62.418945 L 294.032227 55.866211 L 300.590332 55.866211 Z " fill="rgb(0, 0, 0)" fill-opacity="1.000000" />
<path d="M 212.878906 39.319336 L 212.878906 25.300781 L 213.738281 25.300781 L 213.738281 39.319336 Z " fill="rgb(0, 0, 0)" fill-opacity="1.000000" />
<path d="M 212.878906 52.319336 L 212.878906 38.300781 L 213.738281 38.300781 L 213.738281 52.319336 Z " fill="rgb(0, 0, 0)" fill-opacity="1.000000" />
<path d="M 296.878906 39.319336 L 296.878906 25.300781 L 297.738281 25.300781 L 297.738281 39.319336 Z " fill="rgb(0, 0, 0)" fill-opacity="1.000000" />
<path d="M 296.878906 52.319336 L 296.878906 38.300781 L 297.738281 38.300781 L 297.738281 52.319336 Z " fill="rgb(0, 0, 0)" fill-opacity="1.000000" />
<path d="M 26.645020 6.272461 L 26.645020 10.000000 L 25.651367 10.000000 L 25.651367 6.272461 Q 25.651367 5.461426 25.366699 5.080078 Q 25.082031 4.698730 24.475098 4.698730 Q 23.782227 4.698730 23.408936 5.190186 Q 23.035645 5.681641 23.035645 6.600098 L 23.035645 10.000000 L 22.047363 10.000000 L 22.047363 3.984375 L 23.035645 3.984375 L 23.035645 4.886719 Q 23.298828 4.371094 23.750000 4.105225 Q 24.201172 3.839355 24.818848 3.839355 Q 25.737305 3.839355 26.191162 4.443604 Q 26.645020 5.047852 26.645020 6.272461 Z " fill="rgb(0, 0, 0)" fill-opacity="1.000000" />
<path d="M 33.226074 4.193848 L 33.226074 5.160645 Q 32.801758 4.913574 32.372070 4.790039 Q 31.942383 4.666504 31.496582 4.666504 Q 30.825195 4.666504 30.494873 4.884033 Q 30.164551 5.101562 30.164551 5.547363 Q 30.164551 5.950195 30.411621 6.148926 Q 30.658691 6.347656 31.641602 6.535645 L 32.039062 6.610840 Q 32.774902 6.750488 33.153564 7.169434 Q 33.532227 7.588379 33.532227 8.259766 Q 33.532227 9.151367 32.898438 9.653564 Q 32.264648 10.155762 31.136719 10.155762 Q 30.690918 10.155762 30.202148 10.061768 Q 29.713379 9.967773 29.144043 9.779785 L 29.144043 8.759277 Q 29.697266 9.043945 30.202148 9.186279 Q 30.707031 9.328613 31.158203 9.328613 Q 31.813477 9.328613 32.173340 9.062744 Q 32.533203 8.796875 32.533203 8.318848 Q 32.533203 7.631348 31.217285 7.368164 L 31.174316 7.357422 L 30.803711 7.282227 Q 29.949707 7.115723 29.557617 6.720947 Q 29.165527 6.326172 29.165527 5.644043 Q 29.165527 4.779297 29.750977 4.309326 Q 30.336426 3.839355 31.421387 3.839355 Q 31.904785 3.839355 32.350586 3.927979 Q 32.796387 4.016602 33.226074 4.193848 Z " fill="rgb(0, 0, 0)" fill-opacity="1.000000" />
<path d="M 38.297852 2.276367 L 38.297852 3.984375 L 40.542969 3.984375 L 40.542969 4.752441 L 38.297852 4.752441 L 38.297852 8.018066 Q 38.297852 8.684082 38.550293 8.947266 Q 38.802734 9.210449 39.431152 9.210449 L 40.542969 9.210449 L 40.542969 10.000000 L 39.334473 10.000000 Q 38.222656 10.000000 37.766113 9.554199 Q 37.309570 9.108398 37.309570 8.018066 L 37.309570 4.752441 L 35.703613 4.752441 L 35.703613 3.984375 L 37.309570 3.984375 L 37.309570 2.276367 Z " fill="rgb(0, 0, 0)" fill-opacity="1.000000" />
<path d="M 48.203613 5.225098 Q 47.886719 4.978027 47.559082 4.865234 Q 47.231445 4.752441 46.839355 4.752441 Q 45.915527 4.752441 45.426758 5.332520 Q 44.937988 5.912598 44.937988 7.008301 L 44.937988 10.000000 L 43.944336 10.000000 L 43.944336 3.984375 L 44.937988 3.984375 L 44.937988 5.160645 Q 45.185059 4.521484 45.697998 4.180420 Q 46.210938 3.839355 46.914551 3.839355 Q 47.279785 3.839355 47.596680 3.930664 Q 47.913574 4.021973 48.203613 4.215332 Z " fill="rgb(0, 0, 0)" fill-opacity="1.000000" />
<path d="M 50.047363 7.722656 L 50.047363 3.995117 L 51.035645 3.995117 L 51.035645 7.722656 Q 51.035645 8.533691 51.322998 8.915039 Q 51.610352 9.296387 52.211914 9.296387 Q 52.910156 9.296387 53.280762 8.804932 Q 53.651367 8.313477 53.651367 7.395020 L 53.651367 3.995117 L 54.645020 3.995117 L 54.645020 10.000000 L 53.651367 10.000000 L 53.651367 9.097656 Q 53.388184 9.618652 52.934326 9.887207 Q 52.480469 10.155762 51.873535 10.155762 Q 50.949707 10.155762 50.498535 9.551514 Q 50.047363 8.947266 50.047363 7.722656 Z " fill="rgb(0, 0, 0)" fill-opacity="1.000000" />
<path d="M 61.698730 9.693848 Q 61.301270 9.924805 60.879639 10.040283 Q 60.458008 10.155762 60.017578 10.155762 Q 58.621094 10.155762 57.834229 9.317871 Q 57.047363 8.479980 57.047363 6.997559 Q 57.047363 5.515137 57.834229 4.677246 Q 58.621094 3.839355 60.017578 3.839355 Q 60.452637 3.839355 60.866211 3.952148 Q 61.279785 4.064941 61.698730 4.301270 L 61.698730 5.337891 Q 61.306641 4.988770 60.911865 4.833008 Q 60.517090 4.677246 60.017578 4.677246 Q 59.088379 4.677246 58.588867 5.278809 Q 58.089355 5.880371 58.089355 6.997559 Q 58.089355 8.109375 58.591553 8.713623 Q 59.093750 9.317871 60.017578 9.317871 Q 60.533203 9.317871 60.941406 9.159424 Q 61.349609 9.000977 61.698730 8.667969 Z " fill="rgb(0, 0, 0)" fill-opacity="1.000000" />
<path d="M 66.297852 2.276367 L 66.297852 3.984375 L 68.542969 3.984375 L 68.542969 4.752441 L 66.297852 4.752441 L 66.297852 8.018066 Q 66.297852 8.684082 66.550293 8.947266 Q 66.802734 9.210449 67.431152 9.210449 L 68.542969 9.210449 L 68.542969 10.000000 L 67.334473 10.000000 Q 66.222656 10.000000 65.766113 9.554199 Q 65.309570 9.108398 65.309570 8.018066 L 65.309570 4.752441 L 63.703613 4.752441 L 63.703613 3.984375 L 65.309570 3.984375 L 65.309570 2.276367 Z " fill="rgb(0, 0, 0)" fill-opacity="1.000000" />
<path d="M 71.697266 4.005859 L 74.227051 4.005859 L 74.227051 9.231934 L 76.187500 9.231934 L 76.187500 10.000000 L 71.278320 10.000000 L 71.278320 9.231934 L 73.238770 9.231934 L 73.238770 4.773926 L 71.697266 4.773926 Z M 73.238770 1.669434 L 74.227051 1.669434 L 74.227051 2.915527 L 73.238770 2.915527 Z " fill="rgb(0, 0, 0)" fill-opacity="1.000000" />
<path d="M 80.308594 4.677246 Q 79.556641 4.677246 79.169922 5.262695 Q 78.783203 5.848145 78.783203 6.997559 Q 78.783203 8.141602 79.169922 8.729736 Q 79.556641 9.317871 80.308594 9.317871 Q 81.065918 9.317871 81.452637 8.729736 Q 81.839355 8.141602 81.839355 6.997559 Q 81.839355 5.848145 81.452637 5.262695 Q 81.065918 4.677246 80.308594 4.677246 Z M 80.308594 3.839355 Q 81.560059 3.839355 82.223389 4.650391 Q 82.886719 5.461426 82.886719 6.997559 Q 82.886719 8.539062 82.226074 9.347412 Q 81.565430 10.155762 80.308594 10.155762 Q 79.057129 10.155762 78.396484 9.347412 Q 77.735840 8.539062 77.735840 6.997559 Q 77.735840 5.461426 78.396484 4.650391 Q 79.057129 3.839355 80.308594 3.839355 Z " fill="rgb(0, 0, 0)" fill-opacity="1.000000" />
<path d="M 89.645020 6.272461 L 89.645020 10.000000 L 88.651367 10.000000 L 88.651367 6.272461 Q 88.651367 5.461426 88.366699 5.080078 Q 88.082031 4.698730 87.475098 4.698730 Q 86.782227 4.698730 86.408936 5.190186 Q 86.035645 5.681641 86.035645 6.600098 L 86.035645 10.000000 L 85.047363 10.000000 L 85.047363 3.984375 L 86.035645 3.984375 L 86.035645 4.886719 Q 86.298828 4.371094 86.750000 4.105225 Q 87.201172 3.839355 87.818848 3.839355 Q 88.737305 3.839355 89.191162 4.443604 Q 89.645020 5.047852 89.645020 6.272461 Z " fill="rgb(0, 0, 0)" fill-opacity="1.000000" />
<path d="M 176.079590 1.980957 L 180.532227 1.980957 L 180.532227 2.894043 L 178.851074 2.894043 L 178.851074 9.086914 L 180.532227 9.086914 L 180.532227 10.000000 L 176.079590 10.000000 L 176.079590 9.086914 L 177.760742 9.086914 L 177.760742 2.894043 L 176.079590 2.894043 Z " fill="rgb(0, 0, 0)" fill-opacity="1.000000" />
<path d="M 187.645020 6.272461 L 187.645020 10.000000 L 186.651367 10.000000 L 186.651367 6.272461 Q 186.651367 5.461426 186.366699 5.080078 Q 186.082031 4.698730 185.475098 4.698730 Q 184.782227 4.698730 184.408936 5.190186 Q 184.035645 5.681641 184.035645 6.600098 L 184.035645 10.000000 L 183.047363 10.000000 L 183.047363 3.984375 L 184.035645 3.984375 L 184.035645 4.886719 Q 184.298828 4.371094 184.750000 4.105225 Q 185.201172 3.839355 185.818848 3.839355 Q 186.737305 3.839355 187.191162 4.443604 Q 187.645020 5.047852 187.645020 6.272461 Z " fill="rgb(0, 0, 0)" fill-opacity="1.000000" />
<path d="M 194.226074 4.193848 L 194.226074 5.160645 Q 193.801758 4.913574 193.372070 4.790039 Q 192.942383 4.666504 192.496582 4.666504 Q 191.825195 4.666504 191.494873 4.884033 Q 191.164551 5.101562 191.164551 5.547363 Q 191.164551 5.950195 191.411621 6.148926 Q 191.658691 6.347656 192.641602 6.535645 L 193.039062 6.610840 Q 193.774902 6.750488 194.153564 7.169434 Q 194.532227 7.588379 194.532227 8.259766 Q 194.532227 9.151367 193.898438 9.653564 Q 193.264648 10.155762 192.136719 10.155762 Q 191.690918 10.155762 191.202148 10.061768 Q 190.713379 9.967773 190.144043 9.779785 L 190.144043 8.759277 Q 190.697266 9.043945 191.202148 9.186279 Q 191.707031 9.328613 192.158203 9.328613 Q 192.813477 9.328613 193.173340 9.062744 Q 193.533203 8.796875 193.533203 8.318848 Q 193.533203 7.631348 192.217285 7.368164 L 192.174316 7.357422 L 191.803711 7.282227 Q 190.949707 7.115723 190.557617 6.720947 Q 190.165527 6.326172 190.165527 5.644043 Q 190.165527 4.779297 190.750977 4.309326 Q 191.336426 3.839355 192.421387 3.839355 Q 192.904785 3.839355 193.350586 3.927979 Q 193.796387 4.016602 194.226074 4.193848 Z " fill="rgb(0, 0, 0)" fill-opacity="1.000000" />
<path d="M 199.297852 2.276367 L 199.297852 3.984375 L 201.542969 3.984375 L 201.542969 4.752441 L 199.297852 4.752441 L 199.297852 8.018066 Q 199.297852 8.684082 199.550293 8.947266 Q 199.802734 9.210449 200.431152 9.210449 L 201.542969 9.210449 L 201.542969 10.000000 L 200.334473 10.000000 Q 199.222656 10.000000 198.766113 9.554199 Q 198.309570 9.108398 198.309570 8.018066 L 198.309570 4.752441 L 196.703613 4.752441 L 196.703613 3.984375 L 198.309570 3.984375 L 198.309570 2.276367 Z " fill="rgb(0, 0, 0)" fill-opacity="1.000000" />
<path d="M 209.203613 5.225098 Q 208.886719 4.978027 208.559082 4.865234 Q 208.231445 4.752441 207.839355 4.752441 Q 206.915527 4.752441 206.426758 5.332520 Q 205.937988 5.912598 205.937988 7.008301 L 205.937988 10.000000 L 204.944336 10.000000 L 204.944336 3.984375 L 205.937988 3.984375 L 205.937988 5.160645 Q 206.185059 4.521484 206.697998 4.180420 Q 207.210938 3.839355 207.914551 3.839355 Q 208.279785 3.839355 208.596680 3.930664 Q 208.913574 4.021973 209.203613 4.215332 Z " fill="rgb(0, 0, 0)" fill-opacity="1.000000" />
<path d="M 211.047363 7.722656 L 211.047363 3.995117 L 212.035645 3.995117 L 212.035645 7.722656 Q 212.035645 8.533691 212.322998 8.915039 Q 212.610352 9.296387 213.211914 9.296387 Q 213.910156 9.296387 214.280762 8.804932 Q 214.651367 8.313477 214.651367 7.395020 L 214.651367 3.995117 L 215.645020 3.995117 L 215.645020 10.000000 L 214.651367 10.000000 L 214.651367 9.097656 Q 214.388184 9.618652 213.934326 9.887207 Q 213.480469 10.155762 212.873535 10.155762 Q 211.949707 10.155762 211.498535 9.551514 Q 211.047363 8.947266 211.047363 7.722656 Z " fill="rgb(0, 0, 0)" fill-opacity="1.000000" />
<path d="M 222.698730 9.693848 Q 222.301270 9.924805 221.879639 10.040283 Q 221.458008 10.155762 221.017578 10.155762 Q 219.621094 10.155762 218.834229 9.317871 Q 218.047363 8.479980 218.047363 6.997559 Q 218.047363 5.515137 218.834229 4.677246 Q 219.621094 3.839355 221.017578 3.839355 Q 221.452637 3.839355 221.866211 3.952148 Q 222.279785 4.064941 222.698730 4.301270 L 222.698730 5.337891 Q 222.306641 4.988770 221.911865 4.833008 Q 221.517090 4.677246 221.017578 4.677246 Q 220.088379 4.677246 219.588867 5.278809 Q 219.089355 5.880371 219.089355 6.997559 Q 219.089355 8.109375 219.591553 8.713623 Q 220.093750 9.317871 221.017578 9.317871 Q 221.533203 9.317871 221.941406 9.159424 Q 222.349609 9.000977 222.698730 8.667969 Z " fill="rgb(0, 0, 0)" fill-opacity="1.000000" />
<path d="M 227.297852 2.276367 L 227.297852 3.984375 L 229.542969 3.984375 L 229.542969 4.752441 L 227.297852 4.752441 L 227.297852 8.018066 Q 227.297852 8.684082 227.550293 8.947266 Q 227.802734 9.210449 228.431152 9.210449 L 229.542969 9.210449 L 229.542969 10.000000 L 228.334473 10.000000 Q 227.222656 10.000000 226.766113 9.554199 Q 226.309570 9.108398 226.309570 8.018066 L 226.309570 4.752441 L 224.703613 4.752441 L 224.703613 3.984375 L 226.309570 3.984375 L 226.309570 2.276367 Z " fill="rgb(0, 0, 0)" fill-opacity="1.000000" />
<path d="M 232.697266 4.005859 L 235.227051 4.005859 L 235.227051 9.231934 L 237.187500 9.231934 L 237.187500 10.000000 L 232.278320 10.000000 L 232.278320 9.231934 L 234.238770 9.231934 L 234.238770 4.773926 L 232.697266 4.773926 Z M 234.238770 1.669434 L 235.227051 1.669434 L 235.227051 2.915527 L 234.238770 2.915527 Z " fill="rgb(0, 0, 0)" fill-opacity="1.000000" />
<path d="M 241.308594 4.677246 Q 240.556641 4.677246 240.169922 5.262695 Q 239.783203 5.848145 239.783203 6.997559 Q 239.783203 8.141602 240.169922 8.729736 Q 240.556641 9.317871 241.308594 9.317871 Q 242.065918 9.317871 242.452637 8.729736 Q 242.839355 8.141602 242.839355 6.997559 Q 242.839355 5.848145 242.452637 5.262695 Q 242.065918 4.677246 241.308594 4.677246 Z M 241.308594 3.839355 Q 242.560059 3.839355 243.223389 4.650391 Q 243.886719 5.461426 243.886719 6.997559 Q 243.886719 8.539062 243.226074 9.347412 Q 242.565430 10.155762 241.308594 10.155762 Q 240.057129 10.155762 239.396484 9.347412 Q 238.735840 8.539062 238.735840 6.997559 Q 238.735840 5.461426 239.396484 4.650391 Q 240.057129 3.839355 241.308594 3.839355 Z " fill="rgb(0, 0, 0)" fill-opacity="1.000000" />
<path d="M 250.645020 6.272461 L 250.645020 10.000000 L 249.651367 10.000000 L 249.651367 6.272461 Q 249.651367 5.461426 249.366699 5.080078 Q 249.082031 4.698730 248.475098 4.698730 Q 247.782227 4.698730 247.408936 5.190186 Q 247.035645 5.681641 247.035645 6.600098 L 247.035645 10.000000 L 246.047363 10.000000 L 246.047363 3.984375 L 247.035645 3.984375 L 247.035645 4.886719 Q 247.298828 4.371094 247.750000 4.105225 Q 248.201172 3.839355 248.818848 3.839355 Q 249.737305 3.839355 250.191162 4.443604 Q 250.645020 5.047852 250.645020 6.272461 Z " fill="rgb(0, 0, 0)" fill-opacity="1.000000" />
<path d="M 260.079590 1.980957 L 264.532227 1.980957 L 264.532227 2.894043 L 262.851074 2.894043 L 262.851074 9.086914 L 264.532227 9.086914 L 264.532227 10.000000 L 260.079590 10.000000 L 260.079590 9.086914 L 261.760742 9.086914 L 261.760742 2.894043 L 260.079590 2.894043 Z " fill="rgb(0, 0, 0)" fill-opacity="1.000000" />
<path d="M 271.645020 6.272461 L 271.645020 10.000000 L 270.651367 10.000000 L 270.651367 6.272461 Q 270.651367 5.461426 270.366699 5.080078 Q 270.082031 4.698730 269.475098 4.698730 Q 268.782227 4.698730 268.408936 5.190186 Q 268.035645 5.681641 268.035645 6.600098 L 268.035645 10.000000 L 267.047363 10.000000 L 267.047363 3.984375 L 268.035645 3.984375 L 268.035645 4.886719 Q 268.298828 4.371094 268.750000 4.105225 Q 269.201172 3.839355 269.818848 3.839355 Q 270.737305 3.839355 271.191162 4.443604 Q 271.645020 5.047852 271.645020 6.272461 Z " fill="rgb(0, 0, 0)" fill-opacity="1.000000" />
<path d="M 278.226074 4.193848 L 278.226074 5.160645 Q 277.801758 4.913574 277.372070 4.790039 Q 276.942383 4.666504 276.496582 4.666504 Q 275.825195 4.666504 275.494873 4.884033 Q 275.164551 5.101562 275.164551 5.547363 Q 275.164551 5.950195 275.411621 6.148926 Q 275.658691 6.347656 276.641602 6.535645 L 277.039062 6.610840 Q 277.774902 6.750488 278.153564 7.169434 Q 278.532227 7.588379 278.532227 8.259766 Q 278.532227 9.151367 277.898438 9.653564 Q 277.264648 10.155762 276.136719 10.155762 Q 275.690918 10.155762 275.202148 10.061768 Q 274.713379 9.967773 274.144043 9.779785 L 274.144043 8.759277 Q 274.697266 9.043945 275.202148 9.186279 Q 275.707031 9.328613 276.158203 9.328613 Q 276.813477 9.328613 277.173340 9.062744 Q 277.533203 8.796875 277.533203 8.318848 Q 277.533203 7.631348 276.217285 7.368164 L 276.174316 7.357422 L 275.803711 7.282227 Q 274.949707 7.115723 274.557617 6.720947 Q 274.165527 6.326172 274.165527 5.644043 Q 274.165527 4.779297 274.750977 4.309326 Q 275.336426 3.839355 276.421387 3.839355 Q 276.904785 3.839355 277.350586 3.927979 Q 277.796387 4.016602 278.226074 4.193848 Z " fill="rgb(0, 0, 0)" fill-opacity="1.000000" />
<path d="M 283.297852 2.276367 L 283.297852 3.984375 L 285.542969 3.984375 L 285.542969 4.752441 L 283.297852 4.752441 L 283.297852 8.018066 Q 283.297852 8.684082 283.550293 8.947266 Q 283.802734 9.210449 284.431152 9.210449 L 285.542969 9.210449 L 285.542969 10.000000 L 284.334473 10.000000 Q 283.222656 10.000000 282.766113 9.554199 Q 282.309570 9.108398 282.309570 8.018066 L 282.309570 4.752441 L 280.703613 4.752441 L 280.703613 3.984375 L 282.309570 3.984375 L 282.309570 2.276367 Z " fill="rgb(0, 0, 0)" fill-opacity="1.000000" />
<path d="M 293.203613 5.225098 Q 292.886719 4.978027 292.559082 4.865234 Q 292.231445 4.752441 291.839355 4.752441 Q 290.915527 4.752441 290.426758 5.332520 Q 289.937988 5.912598 289.937988 7.008301 L 289.937988 10.000000 L 288.944336 10.000000 L 288.944336 3.984375 L 289.937988 3.984375 L 289.937988 5.160645 Q 290.185059 4.521484 290.697998 4.180420 Q 291.210938 3.839355 291.914551 3.839355 Q 292.279785 3.839355 292.596680 3.930664 Q 292.913574 4.021973 293.203613 4.215332 Z " fill="rgb(0, 0, 0)" fill-opacity="1.000000" />
<path d="M 295.047363 7.722656 L 295.047363 3.995117 L 296.035645 3.995117 L 296.035645 7.722656 Q 296.035645 8.533691 296.322998 8.915039 Q 296.610352 9.296387 297.211914 9.296387 Q 297.910156 9.296387 298.280762 8.804932 Q 298.651367 8.313477 298.651367 7.395020 L 298.651367 3.995117 L 299.645020 3.995117 L 299.645020 10.000000 L 298.651367 10.000000 L 298.651367 9.097656 Q 298.388184 9.618652 297.934326 9.887207 Q 297.480469 10.155762 296.873535 10.155762 Q 295.949707 10.155762 295.498535 9.551514 Q 295.047363 8.947266 295.047363 7.722656 Z " fill="rgb(0, 0, 0)" fill-opacity="1.000000" />
<path d="M 306.698730 9.693848 Q 306.301270 9.924805 305.879639 10.040283 Q 305.458008 10.155762 305.017578 10.155762 Q 303.621094 10.155762 302.834229 9.317871 Q 302.047363 8.479980 302.047363 6.997559 Q 302.047363 5.515137 302.834229 4.677246 Q 303.621094 3.839355 305.017578 3.839355 Q 305.452637 3.839355 305.866211 3.952148 Q 306.279785 4.064941 306.698730 4.301270 L 306.698730 5.337891 Q 306.306641 4.988770 305.911865 4.833008 Q 305.517090 4.677246 305.017578 4.677246 Q 304.088379 4.677246 303.588867 5.278809 Q 303.089355 5.880371 303.089355 6.997559 Q 303.089355 8.109375 303.591553 8.713623 Q 304.093750 9.317871 305.017578 9.317871 Q 305.533203 9.317871 305.941406 9.159424 Q 306.349609 9.000977 306.698730 8.667969 Z " fill="rgb(0, 0, 0)" fill-opacity="1.000000" />
<path d="M 311.297852 2.276367 L 311.297852 3.984375 L 313.542969 3.984375 L 313.542969 4.752441 L 311.297852 4.752441 L 311.297852 8.018066 Q 311.297852 8.684082 311.550293 8.947266 Q 311.802734 9.210449 312.431152 9.210449 L 313.542969 9.210449 L 313.542969 10.000000 L 312.334473 10.000000 Q 311.222656 10.000000 310.766113 9.554199 Q 310.309570 9.108398 310.309570 8.018066 L 310.309570 4.752441 L 308.703613 4.752441 L 308.703613 3.984375 L 310.309570 3.984375 L 310.309570 2.276367 Z " fill="rgb(0, 0, 0)" fill-opacity="1.000000" />
<path d="M 316.697266 4.005859 L 319.227051 4.005859 L 319.227051 9.231934 L 321.187500 9.231934 L 321.187500 10.000000 L 316.278320 10.000000 L 316.278320 9.231934 L 318.238770 9.231934 L 318.238770 4.773926 L 316.697266 4.773926 Z M 318.238770 1.669434 L 319.227051 1.669434 L 319.227051 2.915527 L 318.238770 2.915527 Z " fill="rgb(0, 0, 0)" fill-opacity="1.000000" />
<path d="M 325.308594 4.677246 Q 324.556641 4.677246 324.169922 5.262695 Q 323.783203 5.848145 323.783203 6.997559 Q 323.783203 8.141602 324.169922 8.729736 Q 324.556641 9.317871 325.308594 9.317871 Q 326.065918 9.317871 326.452637 8.729736 Q 326.839355 8.141602 326.839355 6.997559 Q 326.839355 5.848145 326.452637 5.262695 Q 326.065918 4.677246 325.308594 4.677246 Z M 325.308594 3.839355 Q 326.560059 3.839355 327.223389 4.650391 Q 327.886719 5.461426 327.886719 6.997559 Q 327.886719 8.539062 327.226074 9.347412 Q 326.565430 10.155762 325.308594 10.155762 Q 324.057129 10.155762 323.396484 9.347412 Q 322.735840 8.539062 322.735840 6.997559 Q 322.735840 5.461426 323.396484 4.650391 Q 324.057129 3.839355 325.308594 3.839355 Z " fill="rgb(0, 0, 0)" fill-opacity="1.000000" />
<path d="M 334.645020 6.272461 L 334.645020 10.000000 L 333.651367 10.000000 L 333.651367 6.272461 Q 333.651367 5.461426 333.366699 5.080078 Q 333.082031 4.698730 332.475098 4.698730 Q 331.782227 4.698730 331.408936 5.190186 Q 331.035645 5.681641 331.035645 6.600098 L 331.035645 10.000000 L 330.047363 10.000000 L 330.047363 3.984375 L 331.035645 3.984375 L 331.035645 4.886719 Q 331.298828 4.371094 331.750000 4.105225 Q 332.201172 3.839355 332.818848 3.839355 Q 333.737305 3.839355 334.191162 4.443604 Q 334.645020 5.047852 334.645020 6.272461 Z " fill="rgb(0, 0, 0)" fill-opacity="1.000000" />
</svg>