<svg xmlns="http://www.w3.org/2000/svg" version="1.1" width="421" height="79">
<path d="M 2.878906 52.319336 L 2.878906 45.412109 L 6.729980 45.412109 L 6.729980 46.335938 L 3.738281 46.335938 L 3.738281 52.319336 Z " fill="rgb(0, 0, 0)" fill-opacity="1.000000" />
<path d="M 2.878906 65.319336 L 2.878906 51.300781 L 3.738281 51.300781 L 3.738281 65.319336 Z " fill="rgb(0, 0, 0)" fill-opacity="1.000000" />
<path d="M 2.878906 72.335938 L 2.878906 64.300781 L 3.738281 64.300781 L 3.738281 71.412109 L 6.729980 71.412109 L 6.729980 72.335938 Z " fill="rgb(0, 0, 0)" fill-opacity="1.000000" />
<path d="M 6.892578 72.335938 L 6.892578 71.412109 L 13.729980 71.412109 L 13.729980 72.335938 Z " fill="rgb(0, 0, 0)" fill-opacity="1.000000" />
<path d="M 13.892578 72.335938 L 13.892578 71.412109 L 20.729980 71.412109 L 20.729980 72.335938 Z " fill="rgb(0, 0, 0)" fill-opacity="1.000000" />
<path d="M 20.892578 72.335938 L 20.892578 71.412109 L 27.729980 71.412109 L 27.729980 72.335938 Z " fill="rgb(0, 0, 0)" fill-opacity="1.000000" />
<path d="M 27.892578 72.335938 L 27.892578 71.412109 L 34.729980 71.412109 L 34.729980 72.335938 Z " fill="rgb(0, 0, 0)" fill-opacity="1.000000" />
<path d="M 34.892578 72.335938 L 34.892578 71.412109 L 41.729980 71.412109 L 41.729980 72.335938 Z " fill="rgb(0, 0, 0)" fill-opacity="1.000000" />
<path d="M 41.892578 72.335938 L 41.892578 71.412109 L 48.729980 71.412109 L 48.729980 72.335938 Z " fill="rgb(0, 0, 0)" fill-opacity="1.000000" />
<path d="M 48.892578 72.335938 L 48.892578 71.412109 L 55.729980 71.412109 L 55.729980 72.335938 Z " fill="rgb(0, 0, 0)" fill-opacity="1.000000" />
<path d="M 55.892578 72.335938 L 55.892578 71.412109 L 62.729980 71.412109 L 62.729980 72.335938 Z " fill="rgb(0, 0, 0)" fill-opacity="1.000000" />
<path d="M 62.892578 72.335938 L 62.892578 71.412109 L 65.878906 71.412109 L 65.878906 64.300781 L 66.738281 64.300781 L 66.738281 72.335938 Z " fill="rgb(0, 0, 0)" fill-opacity="1.000000" />
<path d="M 72.878906 72.335938 L 72.878906 64.300781 L 73.738281 64.300781 L 73.738281 71.412109 L 76.729980 71.412109 L 76.729980 72.335938 Z " fill="rgb(0, 0, 0)" fill-opacity="1.000000" />
<path d="M 76.892578 72.335938 L 76.892578 71.412109 L 83.729980 71.412109 L 83.729980 72.335938 Z " fill="rgb(0, 0, 0)" fill-opacity="1.000000" />
<path d="M 83.892578 72.335938 L 83.892578 71.412109 L 90.729980 71.412109 L 90.729980 72.335938 Z " fill="rgb(0, 0, 0)" fill-opacity="1.000000" />
<path d="M 90.892578 72.335938 L 90.892578 71.412109 L 97.729980 71.412109 L 97.729980 72.335938 Z " fill="rgb(0, 0, 0)" fill-opacity="1.000000" />
<path d="M 97.892578 72.335938 L 97.892578 71.412109 L 104.729980 71.412109 L 104.729980 72.335938 Z " fill="rgb(0, 0, 0)" fill-opacity="1.000000" />
<path d="M 104.892578 72.335938 L 104.892578 71.412109 L 111.729980 71.412109 L 111.729980 72.335938 Z " fill="rgb(0, 0, 0)" fill-opacity="1.000000" />
<path d="M 111.892578 72.335938 L 111.892578 71.412109 L 118.729980 71.412109 L 118.729980 72.335938 Z " fill="rgb(0, 0, 0)" fill-opacity="1.000000" />
<path d="M 118.892578 72.335938 L 118.892578 71.412109 L 125.729980 71.412109 L 125.729980 72.335938 Z " fill="rgb(0, 0, 0)" fill-opacity="1.000000" />
<path d="M 125.892578 72.335938 L 125.892578 71.412109 L 132.729980 71.412109 L 132.729980 72.335938 Z " fill="rgb(0, 0, 0)" fill-opacity="1.000000" />
<path d="M 132.892578 72.335938 L 132.892578 71.412109 L 135.878906 71.412109 L 135.878906 64.300781 L 136.738281 64.300781 L 136.738281 72.335938 Z " fill="rgb(0, 0, 0)" fill-opacity="1.000000" />
<path d="M 142.878906 72.335938 L 142.878906 64.300781 L 143.738281 64.300781 L 143.738281 71.412109 L 146.729980 71.412109 L 146.729980 72.335938 Z " fill="rgb(0, 0, 0)" fill-opacity="1.000000" />
<path d="M 146.892578 72.335938 L 146.892578 71.412109 L 153.729980 71.412109 L 153.729980 72.335938 Z " fill="rgb(0, 0, 0)" fill-opacity="1.000000" />
<path d="M 153.892578 72.335938 L 153.892578 71.412109 L 160.729980 71.412109 L 160.729980 72.335938 Z " fill="rgb(0, 0, 0)" fill-opacity="1.000000" />
<path d="M 160.892578 72.335938 L 160.892578 71.412109 L 167.729980 71.412109 L 167.729980 72.335938 Z " fill="rgb(0, 0, 0)" fill-opacity="1.000000" />
<path d="M 167.892578 72.335938 L 167.892578 71.412109 L 174.729980 71.412109 L 174.729980 72.335938 Z " fill="rgb(0, 0, 0)" fill-opacity="1.000000" />
<path d="M 174.892578 72.335938 L 174.892578 71.412109 L 181.729980 71.412109 L 181.729980 72.335938 Z " fill="rgb(0, 0, 0)" fill-opacity="1.000000" />
<path d="M 181.892578 72.335938 L 181.892578 71.412109 L 188.729980 71.412109 L 188.729980 72.335938 Z " fill="rgb(0, 0, 0)" fill-opacity="1.000000" />
<path d="M 188.892578 72.335938 L 188.892578 71.412109 L 195.729980 71.412109 L 195.729980 72.335938 Z " fill="rgb(0, 0, 0)" fill-opacity="1.000000" />
<path d="M 195.892578 72.335938 L 195.892578 71.412109 L 202.729980 71.412109 L 202.729980 72.335938 Z " fill="rgb(0, 0, 0)" fill-opacity="1.000000" />
<path d="M 202.892578 72.335938 L 202.892578 71.412109 L 205.878906 71.412109 L 205.878906 64.300781 L 206.738281 64.300781 L 206.738281 72.335938 Z " fill="rgb(0, 0, 0)" fill-opacity="1.000000" />
<path d="M 212.878906 72.335938 L 212.878906 64.300781 L 213.738281 64.300781 L 213.738281 71.412109 L 216.729980 71.412109 L 216.729980 72.335938 Z " fill="rgb(0, 0, 0)" fill-opacity="1.000000" />
<path d="M 216.892578 72.335938 L 216.892578 71.412109 L 223.729980 71.412109 L 223.729980 72.335938 Z " fill="rgb(0, 0, 0)" fill-opacity="1.000000" />
<path d="M 223.892578 72.335938 L 223.892578 71.412109 L 230.729980 71.412109 L 230.729980 72.335938 Z " fill="rgb(0, 0, 0)" fill-opacity="1.000000" />
<path d="M 230.892578 72.335938 L 230.892578 71.412109 L 237.729980 71.412109 L 237.729980 72.335938 Z " fill="rgb(0, 0, 0)" fill-opacity="1.000000" />
<path d="M 237.892578 72.335938 L 237.892578 71.412109 L 244.729980 71.412109 L 244.729980 72.335938 Z " fill="rgb(0, 0, 0)" fill-opacity="1.000000" />
<path d="M 244.892578 72.335938 L 244.892578 71.412109 L 251.729980 71.412109 L 251.729980 72.335938 Z " fill="rgb(0, 0, 0)" fill-opacity="1.000000" />
<path d="M 251.892578 72.335938 L 251.892578 71.412109 L 258.729980 71.412109 L 258.729980 72.335938 Z " fill="rgb(0, 0, 0)" fill-opacity="1.000000" />
<path d="M 258.892578 72.335938 L 258.892578 71.412109 L 265.729980 71.412109 L 265.729980 72.335938 Z " fill="rgb(0, 0, 0)" fill-opacity="1.000000" />
<path d="M 265.892578 72.335938 L 265.892578 71.412109 L 272.729980 71.412109 L 272.729980 72.335938 Z " fill="rgb(0, 0, 0)" fill-opacity="1.000000" />
<path d="M 272.892578 72.335938 L 272.892578 71.412109 L 275.878906 71.412109 L 275.878906 64.300781 L 276.738281 64.300781 L 276.738281 72.335938 Z " fill="rgb(0, 0, 0)" fill-opacity="1.000000" />
<path d="M 282.878906 72.335938 L 282.878906 64.300781 L 283.738281 64.300781 L 283.738281 71.412109 L 286.729980 71.412109 L 286.729980 72.335938 Z " fill="rgb(0, 0, 0)" fill-opacity="1.000000" />
<path d="M 286.892578 72.335938 L 286.892578 71.412109 L 293.729980 71.412109 L 293.729980 72.335938 Z " fill="rgb(0, 0, 0)" fill-opacity="1.000000" />
<path d="M 293.892578 72.335938 L 293.892578 71.412109 L 300.729980 71.412109 L 300.729980 72.335938 Z " fill="rgb(0, 0, 0)" fill-opacity="1.000000" />
<path d="M 300.892578 72.335938 L 300.892578 71.412109 L 307.729980 71.412109 L 307.729980 72.335938 Z " fill="rgb(0, 0, 0)" fill-opacity="1.000000" />
<path d="M 307.892578 72.335938 L 307.892578 71.412109 L 314.729980 71.412109 L 314.729980 72.335938 Z " fill="rgb(0, 0, 0)" fill-opacity="1.000000" />
<path d="M 314.892578 72.335938 L 314.892578 71.412109 L 321.729980 71.412109 L 321.729980 72.335938 Z " fill="rgb(0, 0, 0)" fill-opacity="1.000000" />
<path d="M 321.892578 72.335938 L 321.892578 71.412109 L 328.729980 71.412109 L 328.729980 72.335938 Z " fill="rgb(0, 0, 0)" fill-opacity="1.000000" />
<path d="M 328.892578 72.335938 L 328.892578 71.412109 L 335.729980 71.412109 L 335.729980 72.335938 Z " fill="rgb(0, 0, 0)" fill-opacity="1.000000" />
<path d="M 335.892578 72.335938 L 335.892578 71.412109 L 342.729980 71.412109 L 342.729980 72.335938 Z " fill="rgb(0, 0, 0)" fill-opacity="1.000000" />
<path d="M 342.892578 72.335938 L 342.892578 71.412109 L 345.878906 71.412109 L 345.878906 64.300781 L 346.738281 64.300781 L 346.738281 72.335938 Z " fill="rgb(0, 0, 0)" fill-opacity="1.000000" />
<path d="M 352.878906 72.335938 L 352.878906 64.300781 L 353.738281 64.300781 L 353.738281 71.412109 L 356.729980 71.412109 L 356.729980 72.335938 Z " fill="rgb(0, 0, 0)" fill-opacity="1.000000" />
<path d="M 356.892578 72.335938 L 356.892578 71.412109 L 363.729980 71.412109 L 363.729980 72.335938 Z " fill="rgb(0, 0, 0)" fill-opacity="1.000000" />
<path d="M 363.892578 72.335938 L 363.892578 71.412109 L 370.729980 71.412109 L 370.729980 72.335938 Z " fill="rgb(0, 0, 0)" fill-opacity="1.000000" />
<path d="M 370.892578 72.335938 L 370.892578 71.412109 L 377.729980 71.412109 L 377.729980 72.335938 Z " fill="rgb(0, 0, 0)" fill-opacity="1.000000" />
<path d="M 377.892578 72.335938 L 377.892578 71.412109 L 384.729980 71.412109 L 384.729980 72.335938 Z " fill="rgb(0, 0, 0)" fill-opacity="1.000000" />
<path d="M 384.892578 72.335938 L 384.892578 71.412109 L 391.729980 71.412109 L 391.729980 72.335938 Z " fill="rgb(0, 0, 0)" fill-opacity="1.000000" />
<path d="M 391.892578 72.335938 L 391.892578 71.412109 L 398.729980 71.412109 L 398.729980 72.335938 Z " fill="rgb(0, 0, 0)" fill-opacity="1.000000" />
<path d="M 398.892578 72.335938 L 398.892578 71.412109 L 405.729980 71.412109 L 405.729980 72.335938 Z " fill="rgb(0, 0, 0)" fill-opacity="1.000000" />
<path d="M 405.892578 72.335938 L 405.892578 71.412109 L 412.729980 71.412109 L 412.729980 72.335938 Z " fill="rgb(0, 0, 0)" fill-opacity="1.000000" />
<path d="M 412.892578 72.335938 L 412.892578 71.412109 L 415.878906 71.412109 L 415.878906 64.300781 L 416.738281 64.300781 L 416.738281 72.335938 Z " fill="rgb(0, 0, 0)" fill-opacity="1.000000" />
<path d="M 10.308594 53.862793 Q 11.592285 53.862793 12.250244 54.910156 Q 12.908203 55.957520 12.908203 58.009277 Q 12.908203 60.061035 12.250244 61.108398 Q 11.592285 62.155762 10.308594 62.155762 Q 9.024902 62.155762 8.369629 61.108398 Q 7.714355 60.061035 7.714355 58.009277 Q 7.714355 55.957520 8.369629 54.910156 Q 9.024902 53.862793 10.308594 53.862793 Z M 10.308594 61.296387 Q 11.071289 61.296387 11.444580 60.485352 Q 11.817871 59.674316 11.817871 58.009277 Q 11.817871 57.123047 11.710449 56.408691 L 9.153809 60.410156 Q 9.556641 61.296387 10.308594 61.296387 Z M 10.308594 54.722168 Q 9.551270 54.722168 9.177979 55.533203 Q 8.804688 56.344238 8.804688 58.009277 Q 8.804688 58.766602 8.906738 59.427246 L 11.409668 55.436523 Q 11.001465 54.722168 10.308594 54.722168 Z " fill="rgb(0, 0, 0)" fill-opacity="1.000000" />
<path d="M 17.308594 53.862793 Q 18.592285 53.862793 19.250244 54.910156 Q 19.908203 55.957520 19.908203 58.009277 Q 19.908203 60.061035 19.250244 61.108398 Q 18.592285 62.155762 17.308594 62.155762 Q 16.024902 62.155762 15.369629 61.108398 Q 14.714355 60.061035 14.714355 58.009277 Q 14.714355 55.957520 15.369629 54.910156 Q 16.024902 53.862793 17.308594 53.862793 Z M 17.308594 61.296387 Q 18.071289 61.296387 18.444580 60.485352 Q 18.817871 59.674316 18.817871 58.009277 Q 18.817871 57.123047 18.710449 56.408691 L 16.153809 60.410156 Q 16.556641 61.296387 17.308594 61.296387 Z M 17.308594 54.722168 Q 16.551270 54.722168 16.177979 55.533203 Q 15.804688 56.344238 15.804688 58.009277 Q 15.804688 58.766602 15.906738 59.427246 L 18.409668 55.436523 Q 18.001465 54.722168 17.308594 54.722168 Z " fill="rgb(0, 0, 0)" fill-opacity="1.000000" />
<path d="M 24.308594 53.862793 Q 25.592285 53.862793 26.250244 54.910156 Q 26.908203 55.957520 26.908203 58.009277 Q 26.908203 60.061035 26.250244 61.108398 Q 25.592285 62.155762 24.308594 62.155762 Q 23.024902 62.155762 22.369629 61.108398 Q 21.714355 60.061035 21.714355 58.009277 Q 21.714355 55.957520 22.369629 54.910156 Q 23.024902 53.862793 24.308594 53.862793 Z M 24.308594 61.296387 Q 25.071289 61.296387 25.444580 60.485352 Q 25.817871 59.674316 25.817871 58.009277 Q 25.817871 57.123047 25.710449 56.408691 L 23.153809 60.410156 Q 23.556641 61.296387 24.308594 61.296387 Z M 24.308594 54.722168 Q 23.551270 54.722168 23.177979 55.533203 Q 22.804688 56.344238 22.804688 58.009277 Q 22.804688 58.766602 22.906738 59.427246 L 25.409668 55.436523 Q 25.001465 54.722168 24.308594 54.722168 Z " fill="rgb(0, 0, 0)" fill-opacity="1.000000" />
<path d="M 31.308594 53.862793 Q 32.592285 53.862793 33.250244 54.910156 Q 33.908203 55.957520 33.908203 58.009277 Q 33.908203 60.061035 33.250244 61.108398 Q 32.592285 62.155762 31.308594 62.155762 Q 30.024902 62.155762 29.369629 61.108398 Q 28.714355 60.061035 28.714355 58.009277 Q 28.714355 55.957520 29.369629 54.910156 Q 30.024902 53.862793 31.308594 53.862793 Z M 31.308594 61.296387 Q 32.071289 61.296387 32.444580 60.485352 Q 32.817871 59.674316 32.817871 58.009277 Q 32.817871 57.123047 32.710449 56.408691 L 30.153809 60.410156 Q 30.556641 61.296387 31.308594 61.296387 Z M 31.308594 54.722168 Q 30.551270 54.722168 30.177979 55.533203 Q 29.804688 56.344238 29.804688 58.009277 Q 29.804688 58.766602 29.906738 59.427246 L 32.409668 55.436523 Q 32.001465 54.722168 31.308594 54.722168 Z " fill="rgb(0, 0, 0)" fill-opacity="1.000000" />
<path d="M 38.308594 53.862793 Q 39.592285 53.862793 40.250244 54.910156 Q 40.908203 55.957520 40.908203 58.009277 Q 40.908203 60.061035 40.250244 61.108398 Q 39.592285 62.155762 38.308594 62.155762 Q 37.024902 62.155762 36.369629 61.108398 Q 35.714355 60.061035 35.714355 58.009277 Q 35.714355 55.957520 36.369629 54.910156 Q 37.024902 53.862793 38.308594 53.862793 Z M 38.308594 61.296387 Q 39.071289 61.296387 39.444580 60.485352 Q 39.817871 59.674316 39.817871 58.009277 Q 39.817871 57.123047 39.710449 56.408691 L 37.153809 60.410156 Q 37.556641 61.296387 38.308594 61.296387 Z M 38.308594 54.722168 Q 37.551270 54.722168 37.177979 55.533203 Q 36.804688 56.344238 36.804688 58.009277 Q 36.804688 58.766602 36.906738 59.427246 L 39.409668 55.436523 Q 39.001465 54.722168 38.308594 54.722168 Z " fill="rgb(0, 0, 0)" fill-opacity="1.000000" />
<path d="M 45.308594 53.862793 Q 46.592285 53.862793 47.250244 54.910156 Q 47.908203 55.957520 47.908203 58.009277 Q 47.908203 60.061035 47.250244 61.108398 Q 46.592285 62.155762 45.308594 62.155762 Q 44.024902 62.155762 43.369629 61.108398 Q 42.714355 60.061035 42.714355 58.009277 Q 42.714355 55.957520 43.369629 54.910156 Q 44.024902 53.862793 45.308594 53.862793 Z M 45.308594 61.296387 Q 46.071289 61.296387 46.444580 60.485352 Q 46.817871 59.674316 46.817871 58.009277 Q 46.817871 57.123047 46.710449 56.408691 L 44.153809 60.410156 Q 44.556641 61.296387 45.308594 61.296387 Z M 45.308594 54.722168 Q 44.551270 54.722168 44.177979 55.533203 Q 43.804688 56.344238 43.804688 58.009277 Q 43.804688 58.766602 43.906738 59.427246 L 46.409668 55.436523 Q 46.001465 54.722168 45.308594 54.722168 Z " fill="rgb(0, 0, 0)" fill-opacity="1.000000" />
<path d="M 52.308594 53.862793 Q 53.592285 53.862793 54.250244 54.910156 Q 54.908203 55.957520 54.908203 58.009277 Q 54.908203 60.061035 54.250244 61.108398 Q 53.592285 62.155762 52.308594 62.155762 Q 51.024902 62.155762 50.369629 61.108398 Q 49.714355 60.061035 49.714355 58.009277 Q 49.714355 55.957520 50.369629 54.910156 Q 51.024902 53.862793 52.308594 53.862793 Z M 52.308594 61.296387 Q 53.071289 61.296387 53.444580 60.485352 Q 53.817871 59.674316 53.817871 58.009277 Q 53.817871 57.123047 53.710449 56.408691 L 51.153809 60.410156 Q 51.556641 61.296387 52.308594 61.296387 Z M 52.308594 54.722168 Q 51.551270 54.722168 51.177979 55.533203 Q 50.804688 56.344238 50.804688 58.009277 Q 50.804688 58.766602 50.906738 59.427246 L 53.409668 55.436523 Q 53.001465 54.722168 52.308594 54.722168 Z " fill="rgb(0, 0, 0)" fill-opacity="1.000000" />
<path d="M 57.450195 61.092285 L 59.136719 61.092285 L 59.136719 55.033691 L 57.117188 56.005859 L 57.117188 54.963867 L 59.125977 54.007812 L 60.210938 54.007812 L 60.210938 61.092285 L 61.875977 61.092285 L 61.875977 62.000000 L 57.450195 62.000000 Z " fill="rgb(0, 0, 0)" fill-opacity="1.000000" />
<path d="M 65.878906 65.319336 L 65.878906 51.300781 L 66.738281 51.300781 L 66.738281 65.319336 Z " fill="rgb(0, 0, 0)" fill-opacity="1.000000" />
<path d="M 72.878906 65.319336 L 72.878906 51.300781 L 73.738281 51.300781 L 73.738281 65.319336 Z " fill="rgb(0, 0, 0)" fill-opacity="1.000000" />
<path d="M 80.308594 53.862793 Q 81.592285 53.862793 82.250244 54.910156 Q 82.908203 55.957520 82.908203 58.009277 Q 82.908203 60.061035 82.250244 61.108398 Q 81.592285 62.155762 80.308594 62.155762 Q 79.024902 62.155762 78.369629 61.108398 Q 77.714355 60.061035 77.714355 58.009277 Q 77.714355 55.957520 78.369629 54.910156 Q 79.024902 53.862793 80.308594 53.862793 Z M 80.308594 61.296387 Q 81.071289 61.296387 81.444580 60.485352 Q 81.817871 59.674316 81.817871 58.009277 Q 81.817871 57.123047 81.710449 56.408691 L 79.153809 60.410156 Q 79.556641 61.296387 80.308594 61.296387 Z M 80.308594 54.722168 Q 79.551270 54.722168 79.177979 55.533203 Q 78.804688 56.344238 78.804688 58.009277 Q 78.804688 58.766602 78.906738 59.427246 L 81.409668 55.436523 Q 81.001465 54.722168 80.308594 54.722168 Z " fill="rgb(0, 0, 0)" fill-opacity="1.000000" />
<path d="M 87.308594 53.862793 Q 88.592285 53.862793 89.250244 54.910156 Q 89.908203 55.957520 89.908203 58.009277 Q 89.908203 60.061035 89.250244 61.108398 Q 88.592285 62.155762 87.308594 62.155762 Q 86.024902 62.155762 85.369629 61.108398 Q 84.714355 60.061035 84.714355 58.009277 Q 84.714355 55.957520 85.369629 54.910156 Q 86.024902 53.862793 87.308594 53.862793 Z M 87.308594 61.296387 Q 88.071289 61.296387 88.444580 60.485352 Q 88.817871 59.674316 88.817871 58.009277 Q 88.817871 57.123047 88.710449 56.408691 L 86.153809 60.410156 Q 86.556641 61.296387 87.308594 61.296387 Z M 87.308594 54.722168 Q 86.551270 54.722168 86.177979 55.533203 Q 85.804688 56.344238 85.804688 58.009277 Q 85.804688 58.766602 85.906738 59.427246 L 88.409668 55.436523 Q 88.001465 54.722168 87.308594 54.722168 Z " fill="rgb(0, 0, 0)" fill-opacity="1.000000" />
<path d="M 94.308594 53.862793 Q 95.592285 53.862793 96.250244 54.910156 Q 96.908203 55.957520 96.908203 58.009277 Q 96.908203 60.061035 96.250244 61.108398 Q 95.592285 62.155762 94.308594 62.155762 Q 93.024902 62.155762 92.369629 61.108398 Q 91.714355 60.061035 91.714355 58.009277 Q 91.714355 55.957520 92.369629 54.910156 Q 93.024902 53.862793 94.308594 53.862793 Z M 94.308594 61.296387 Q 95.071289 61.296387 95.444580 60.485352 Q 95.817871 59.674316 95.817871 58.009277 Q 95.817871 57.123047 95.710449 56.408691 L 93.153809 60.410156 Q 93.556641 61.296387 94.308594 61.296387 Z M 94.308594 54.722168 Q 93.551270 54.722168 93.177979 55.533203 Q 92.804688 56.344238 92.804688 58.009277 Q 92.804688 58.766602 92.906738 59.427246 L 95.409668 55.436523 Q 95.001465 54.722168 94.308594 54.722168 Z " fill="rgb(0, 0, 0)" fill-opacity="1.000000" />
<path d="M 101.308594 53.862793 Q 102.592285 53.862793 103.250244 54.910156 Q 103.908203 55.957520 103.908203 58.009277 Q 103.908203 60.061035 103.250244 61.108398 Q 102.592285 62.155762 101.308594 62.155762 Q 100.024902 62.155762 99.369629 61.108398 Q 98.714355 60.061035 98.714355 58.009277 Q 98.714355 55.957520 99.369629 54.910156 Q 100.024902 53.862793 101.308594 53.862793 Z M 101.308594 61.296387 Q 102.071289 61.296387 102.444580 60.485352 Q 102.817871 59.674316 102.817871 58.009277 Q 102.817871 57.123047 102.710449 56.408691 L 100.153809 60.410156 Q 100.556641 61.296387 101.308594 61.296387 Z M 101.308594 54.722168 Q 100.551270 54.722168 100.177979 55.533203 Q 99.804688 56.344238 99.804688 58.009277 Q 99.804688 58.766602 99.906738 59.427246 L 102.409668 55.436523 Q 102.001465 54.722168 101.308594 54.722168 Z " fill="rgb(0, 0, 0)" fill-opacity="1.000000" />
<path d="M 108.308594 53.862793 Q 109.592285 53.862793 110.250244 54.910156 Q 110.908203 55.957520 110.908203 58.009277 Q 110.908203 60.061035 110.250244 61.108398 Q 109.592285 62.155762 108.308594 62.155762 Q 107.024902 62.155762 106.369629 61.108398 Q 105.714355 60.061035 105.714355 58.009277 Q 105.714355 55.957520 106.369629 54.910156 Q 107.024902 53.862793 108.308594 53.862793 Z M 108.308594 61.296387 Q 109.071289 61.296387 109.444580 60.485352 Q 109.817871 59.674316 109.817871 58.009277 Q 109.817871 57.123047 109.710449 56.408691 L 107.153809 60.410156 Q 107.556641 61.296387 108.308594 61.296387 Z M 108.308594 54.722168 Q 107.551270 54.722168 107.177979 55.533203 Q 106.804688 56.344238 106.804688 58.009277 Q 106.804688 58.766602 106.906738 59.427246 L 109.409668 55.436523 Q 109.001465 54.722168 108.308594 54.722168 Z " fill="rgb(0, 0, 0)" fill-opacity="1.000000" />
<path d="M 115.308594 53.862793 Q 116.592285 53.862793 117.250244 54.910156 Q 117.908203 55.957520 117.908203 58.009277 Q 117.908203 60.061035 117.250244 61.108398 Q 116.592285 62.155762 115.308594 62.155762 Q 114.024902 62.155762 113.369629 61.108398 Q 112.714355 60.061035 112.714355 58.009277 Q 112.714355 55.957520 113.369629 54.910156 Q 114.024902 53.862793 115.308594 53.862793 Z M 115.308594 61.296387 Q 116.071289 61.296387 116.444580 60.485352 Q 116.817871 59.674316 116.817871 58.009277 Q 116.817871 57.123047 116.710449 56.408691 L 114.153809 60.410156 Q 114.556641 61.296387 115.308594 61.296387 Z M 115.308594 54.722168 Q 114.551270 54.722168 114.177979 55.533203 Q 113.804688 56.344238 113.804688 58.009277 Q 113.804688 58.766602 113.906738 59.427246 L 116.409668 55.436523 Q 116.001465 54.722168 115.308594 54.722168 Z " fill="rgb(0, 0, 0)" fill-opacity="1.000000" />
<path d="M 122.308594 53.862793 Q 123.592285 53.862793 124.250244 54.910156 Q 124.908203 55.957520 124.908203 58.009277 Q 124.908203 60.061035 124.250244 61.108398 Q 123.592285 62.155762 122.308594 62.155762 Q 121.024902 62.155762 120.369629 61.108398 Q 119.714355 60.061035 119.714355 58.009277 Q 119.714355 55.957520 120.369629 54.910156 Q 121.024902 53.862793 122.308594 53.862793 Z M 122.308594 61.296387 Q 123.071289 61.296387 123.444580 60.485352 Q 123.817871 59.674316 123.817871 58.009277 Q 123.817871 57.123047 123.710449 56.408691 L 121.153809 60.410156 Q 121.556641 61.296387 122.308594 61.296387 Z M 122.308594 54.722168 Q 121.551270 54.722168 121.177979 55.533203 Q 120.804688 56.344238 120.804688 58.009277 Q 120.804688 58.766602 120.906738 59.427246 L 123.409668 55.436523 Q 123.001465 54.722168 122.308594 54.722168 Z " fill="rgb(0, 0, 0)" fill-opacity="1.000000" />
<path d="M 127.450195 61.092285 L 129.136719 61.092285 L 129.136719 55.033691 L 127.117188 56.005859 L 127.117188 54.963867 L 129.125977 54.007812 L 130.210938 54.007812 L 130.210938 61.092285 L 131.875977 61.092285 L 131.875977 62.000000 L 127.450195 62.000000 Z " fill="rgb(0, 0, 0)" fill-opacity="1.000000" />
<path d="M 135.878906 65.319336 L 135.878906 51.300781 L 136.738281 51.300781 L 136.738281 65.319336 Z " fill="rgb(0, 0, 0)" fill-opacity="1.000000" />
<path d="M 142.878906 65.319336 L 142.878906 51.300781 L 143.738281 51.300781 L 143.738281 65.319336 Z " fill="rgb(0, 0, 0)" fill-opacity="1.000000" />
<path d="M 148.450195 61.092285 L 150.136719 61.092285 L 150.136719 55.033691 L 148.117188 56.005859 L 148.117188 54.963867 L 150.125977 54.007812 L 151.210938 54.007812 L 151.210938 61.092285 L 152.875977 61.092285 L 152.875977 62.000000 L 148.450195 62.000000 Z " fill="rgb(0, 0, 0)" fill-opacity="1.000000" />
<path d="M 155.450195 61.092285 L 157.136719 61.092285 L 157.136719 55.033691 L 155.117188 56.005859 L 155.117188 54.963867 L 157.125977 54.007812 L 158.210938 54.007812 L 158.210938 61.092285 L 159.875977 61.092285 L 159.875977 62.000000 L 155.450195 62.000000 Z " fill="rgb(0, 0, 0)" fill-opacity="1.000000" />
<path d="M 162.450195 61.092285 L 164.136719 61.092285 L 164.136719 55.033691 L 162.117188 56.005859 L 162.117188 54.963867 L 164.125977 54.007812 L 165.210938 54.007812 L 165.210938 61.092285 L 166.875977 61.092285 L 166.875977 62.000000 L 162.450195 62.000000 Z " fill="rgb(0, 0, 0)" fill-opacity="1.000000" />
<path d="M 169.450195 61.092285 L 171.136719 61.092285 L 171.136719 55.033691 L 169.117188 56.005859 L 169.117188 54.963867 L 171.125977 54.007812 L 172.210938 54.007812 L 172.210938 61.092285 L 173.875977 61.092285 L 173.875977 62.000000 L 169.450195 62.000000 Z " fill="rgb(0, 0, 0)" fill-opacity="1.000000" />
<path d="M 176.450195 61.092285 L 178.136719 61.092285 L 178.136719 55.033691 L 176.117188 56.005859 L 176.117188 54.963867 L 178.125977 54.007812 L 179.210938 54.007812 L 179.210938 61.092285 L 180.875977 61.092285 L 180.875977 62.000000 L 176.450195 62.000000 Z " fill="rgb(0, 0, 0)" fill-opacity="1.000000" />
<path d="M 185.308594 53.862793 Q 186.592285 53.862793 187.250244 54.910156 Q 187.908203 55.957520 187.908203 58.009277 Q 187.908203 60.061035 187.250244 61.108398 Q 186.592285 62.155762 185.308594 62.155762 Q 184.024902 62.155762 183.369629 61.108398 Q 182.714355 60.061035 182.714355 58.009277 Q 182.714355 55.957520 183.369629 54.910156 Q 184.024902 53.862793 185.308594 53.862793 Z M 185.308594 61.296387 Q 186.071289 61.296387 186.444580 60.485352 Q 186.817871 59.674316 186.817871 58.009277 Q 186.817871 57.123047 186.710449 56.408691 L 184.153809 60.410156 Q 184.556641 61.296387 185.308594 61.296387 Z M 185.308594 54.722168 Q 184.551270 54.722168 184.177979 55.533203 Q 183.804688 56.344238 183.804688 58.009277 Q 183.804688 58.766602 183.906738 59.427246 L 186.409668 55.436523 Q 186.001465 54.722168 185.308594 54.722168 Z " fill="rgb(0, 0, 0)" fill-opacity="1.000000" />
<path d="M 192.308594 53.862793 Q 193.592285 53.862793 194.250244 54.910156 Q 194.908203 55.957520 194.908203 58.009277 Q 194.908203 60.061035 194.250244 61.108398 Q 193.592285 62.155762 192.308594 62.155762 Q 191.024902 62.155762 190.369629 61.108398 Q 189.714355 60.061035 189.714355 58.009277 Q 189.714355 55.957520 190.369629 54.910156 Q 191.024902 53.862793 192.308594 53.862793 Z M 192.308594 61.296387 Q 193.071289 61.296387 193.444580 60.485352 Q 193.817871 59.674316 193.817871 58.009277 Q 193.817871 57.123047 193.710449 56.408691 L 191.153809 60.410156 Q 191.556641 61.296387 192.308594 61.296387 Z M 192.308594 54.722168 Q 191.551270 54.722168 191.177979 55.533203 Q 190.804688 56.344238 190.804688 58.009277 Q 190.804688 58.766602 190.906738 59.427246 L 193.409668 55.436523 Q 193.001465 54.722168 192.308594 54.722168 Z " fill="rgb(0, 0, 0)" fill-opacity="1.000000" />
<path d="M 197.450195 61.092285 L 199.136719 61.092285 L 199.136719 55.033691 L 197.117188 56.005859 L 197.117188 54.963867 L 199.125977 54.007812 L 200.210938 54.007812 L 200.210938 61.092285 L 201.875977 61.092285 L 201.875977 62.000000 L 197.450195 62.000000 Z " fill="rgb(0, 0, 0)" fill-opacity="1.000000" />
<path d="M 205.878906 65.319336 L 205.878906 51.300781 L 206.738281 51.300781 L 206.738281 65.319336 Z " fill="rgb(0, 0, 0)" fill-opacity="1.000000" />
<path d="M 212.878906 65.319336 L 212.878906 51.300781 L 213.738281 51.300781 L 213.738281 65.319336 Z " fill="rgb(0, 0, 0)" fill-opacity="1.000000" />
<path d="M 220.308594 53.862793 Q 221.592285 53.862793 222.250244 54.910156 Q 222.908203 55.957520 222.908203 58.009277 Q 222.908203 60.061035 222.250244 61.108398 Q 221.592285 62.155762 220.308594 62.155762 Q 219.024902 62.155762 218.369629 61.108398 Q 217.714355 60.061035 217.714355 58.009277 Q 217.714355 55.957520 218.369629 54.910156 Q 219.024902 53.862793 220.308594 53.862793 Z M 220.308594 61.296387 Q 221.071289 61.296387 221.444580 60.485352 Q 221.817871 59.674316 221.817871 58.009277 Q 221.817871 57.123047 221.710449 56.408691 L 219.153809 60.410156 Q 219.556641 61.296387 220.308594 61.296387 Z M 220.308594 54.722168 Q 219.551270 54.722168 219.177979 55.533203 Q 218.804688 56.344238 218.804688 58.009277 Q 218.804688 58.766602 218.906738 59.427246 L 221.409668 55.436523 Q 221.001465 54.722168 220.308594 54.722168 Z " fill="rgb(0, 0, 0)" fill-opacity="1.000000" />
<path d="M 227.308594 53.862793 Q 228.592285 53.862793 229.250244 54.910156 Q 229.908203 55.957520 229.908203 58.009277 Q 229.908203 60.061035 229.250244 61.108398 Q 228.592285 62.155762 227.308594 62.155762 Q 226.024902 62.155762 225.369629 61.108398 Q 224.714355 60.061035 224.714355 58.009277 Q 224.714355 55.957520 225.369629 54.910156 Q 226.024902 53.862793 227.308594 53.862793 Z M 227.308594 61.296387 Q 228.071289 61.296387 228.444580 60.485352 Q 228.817871 59.674316 228.817871 58.009277 Q 228.817871 57.123047 228.710449 56.408691 L 226.153809 60.410156 Q 226.556641 61.296387 227.308594 61.296387 Z M 227.308594 54.722168 Q 226.551270 54.722168 226.177979 55.533203 Q 225.804688 56.344238 225.804688 58.009277 Q 225.804688 58.766602 225.906738 59.427246 L 228.409668 55.436523 Q 228.001465 54.722168 227.308594 54.722168 Z " fill="rgb(0, 0, 0)" fill-opacity="1.000000" />
<path d="M 234.308594 53.862793 Q 235.592285 53.862793 236.250244 54.910156 Q 236.908203 55.957520 236.908203 58.009277 Q 236.908203 60.061035 236.250244 61.108398 Q 235.592285 62.155762 234.308594 62.155762 Q 233.024902 62.155762 232.369629 61.108398 Q 231.714355 60.061035 231.714355 58.009277 Q 231.714355 55.957520 232.369629 54.910156 Q 233.024902 53.862793 234.308594 53.862793 Z M 234.308594 61.296387 Q 235.071289 61.296387 235.444580 60.485352 Q 235.817871 59.674316 235.817871 58.009277 Q 235.817871 57.123047 235.710449 56.408691 L 233.153809 60.410156 Q 233.556641 61.296387 234.308594 61.296387 Z M 234.308594 54.722168 Q 233.551270 54.722168 233.177979 55.533203 Q 232.804688 56.344238 232.804688 58.009277 Q 232.804688 58.766602 232.906738 59.427246 L 235.409668 55.436523 Q 235.001465 54.722168 234.308594 54.722168 Z " fill="rgb(0, 0, 0)" fill-opacity="1.000000" />
<path d="M 241.308594 53.862793 Q 242.592285 53.862793 243.250244 54.910156 Q 243.908203 55.957520 243.908203 58.009277 Q 243.908203 60.061035 243.250244 61.108398 Q 242.592285 62.155762 241.308594 62.155762 Q 240.024902 62.155762 239.369629 61.108398 Q 238.714355 60.061035 238.714355 58.009277 Q 238.714355 55.957520 239.369629 54.910156 Q 240.024902 53.862793 241.308594 53.862793 Z M 241.308594 61.296387 Q 242.071289 61.296387 242.444580 60.485352 Q 242.817871 59.674316 242.817871 58.009277 Q 242.817871 57.123047 242.710449 56.408691 L 240.153809 60.410156 Q 240.556641 61.296387 241.308594 61.296387 Z M 241.308594 54.722168 Q 240.551270 54.722168 240.177979 55.533203 Q 239.804688 56.344238 239.804688 58.009277 Q 239.804688 58.766602 239.906738 59.427246 L 242.409668 55.436523 Q 242.001465 54.722168 241.308594 54.722168 Z " fill="rgb(0, 0, 0)" fill-opacity="1.000000" />
<path d="M 248.308594 53.862793 Q 249.592285 53.862793 250.250244 54.910156 Q 250.908203 55.957520 250.908203 58.009277 Q 250.908203 60.061035 250.250244 61.108398 Q 249.592285 62.155762 248.308594 62.155762 Q 247.024902 62.155762 246.369629 61.108398 Q 245.714355 60.061035 245.714355 58.009277 Q 245.714355 55.957520 246.369629 54.910156 Q 247.024902 53.862793 248.308594 53.862793 Z M 248.308594 61.296387 Q 249.071289 61.296387 249.444580 60.485352 Q 249.817871 59.674316 249.817871 58.009277 Q 249.817871 57.123047 249.710449 56.408691 L 247.153809 60.410156 Q 247.556641 61.296387 248.308594 61.296387 Z M 248.308594 54.722168 Q 247.551270 54.722168 247.177979 55.533203 Q 246.804688 56.344238 246.804688 58.009277 Q 246.804688 58.766602 246.906738 59.427246 L 249.409668 55.436523 Q 249.001465 54.722168 248.308594 54.722168 Z " fill="rgb(0, 0, 0)" fill-opacity="1.000000" />
<path d="M 255.308594 53.862793 Q 256.592285 53.862793 257.250244 54.910156 Q 257.908203 55.957520 257.908203 58.009277 Q 257.908203 60.061035 257.250244 61.108398 Q 256.592285 62.155762 255.308594 62.155762 Q 254.024902 62.155762 253.369629 61.108398 Q 252.714355 60.061035 252.714355 58.009277 Q 252.714355 55.957520 253.369629 54.910156 Q 254.024902 53.862793 255.308594 53.862793 Z M 255.308594 61.296387 Q 256.071289 61.296387 256.444580 60.485352 Q 256.817871 59.674316 256.817871 58.009277 Q 256.817871 57.123047 256.710449 56.408691 L 254.153809 60.410156 Q 254.556641 61.296387 255.308594 61.296387 Z M 255.308594 54.722168 Q 254.551270 54.722168 254.177979 55.533203 Q 253.804688 56.344238 253.804688 58.009277 Q 253.804688 58.766602 253.906738 59.427246 L 256.409668 55.436523 Q 256.001465 54.722168 255.308594 54.722168 Z " fill="rgb(0, 0, 0)" fill-opacity="1.000000" />
<path d="M 262.308594 53.862793 Q 263.592285 53.862793 264.250244 54.910156 Q 264.908203 55.957520 264.908203 58.009277 Q 264.908203 60.061035 264.250244 61.108398 Q 263.592285 62.155762 262.308594 62.155762 Q 261.024902 62.155762 260.369629 61.108398 Q 259.714355 60.061035 259.714355 58.009277 Q 259.714355 55.957520 260.369629 54.910156 Q 261.024902 53.862793 262.308594 53.862793 Z M 262.308594 61.296387 Q 263.071289 61.296387 263.444580 60.485352 Q 263.817871 59.674316 263.817871 58.009277 Q 263.817871 57.123047 263.710449 56.408691 L 261.153809 60.410156 Q 261.556641 61.296387 262.308594 61.296387 Z M 262.308594 54.722168 Q 261.551270 54.722168 261.177979 55.533203 Q 260.804688 56.344238 260.804688 58.009277 Q 260.804688 58.766602 260.906738 59.427246 L 263.409668 55.436523 Q 263.001465 54.722168 262.308594 54.722168 Z " fill="rgb(0, 0, 0)" fill-opacity="1.000000" />
<path d="M 267.450195 61.092285 L 269.136719 61.092285 L 269.136719 55.033691 L 267.117188 56.005859 L 267.117188 54.963867 L 269.125977 54.007812 L 270.210938 54.007812 L 270.210938 61.092285 L 271.875977 61.092285 L 271.875977 62.000000 L 267.450195 62.000000 Z " fill="rgb(0, 0, 0)" fill-opacity="1.000000" />
<path d="M 275.878906 65.319336 L 275.878906 51.300781 L 276.738281 51.300781 L 276.738281 65.319336 Z " fill="rgb(0, 0, 0)" fill-opacity="1.000000" />
<path d="M 282.878906 65.319336 L 282.878906 51.300781 L 283.738281 51.300781 L 283.738281 65.319336 Z " fill="rgb(0, 0, 0)" fill-opacity="1.000000" />
<path d="M 288.450195 61.092285 L 290.136719 61.092285 L 290.136719 55.033691 L 288.117188 56.005859 L 288.117188 54.963867 L 290.125977 54.007812 L 291.210938 54.007812 L 291.210938 61.092285 L 292.875977 61.092285 L 292.875977 62.000000 L 288.450195 62.000000 Z " fill="rgb(0, 0, 0)" fill-opacity="1.000000" />
<path d="M 295.450195 61.092285 L 297.136719 61.092285 L 297.136719 55.033691 L 295.117188 56.005859 L 295.117188 54.963867 L 297.125977 54.007812 L 298.210938 54.007812 L 298.210938 61.092285 L 299.875977 61.092285 L 299.875977 62.000000 L 295.450195 62.000000 Z " fill="rgb(0, 0, 0)" fill-opacity="1.000000" />
<path d="M 304.308594 53.862793 Q 305.592285 53.862793 306.250244 54.910156 Q 306.908203 55.957520 306.908203 58.009277 Q 306.908203 60.061035 306.250244 61.108398 Q 305.592285 62.155762 304.308594 62.155762 Q 303.024902 62.155762 302.369629 61.108398 Q 301.714355 60.061035 301.714355 58.009277 Q 301.714355 55.957520 302.369629 54.910156 Q 303.024902 53.862793 304.308594 53.862793 Z M 304.308594 61.296387 Q 305.071289 61.296387 305.444580 60.485352 Q 305.817871 59.674316 305.817871 58.009277 Q 305.817871 57.123047 305.710449 56.408691 L 303.153809 60.410156 Q 303.556641 61.296387 304.308594 61.296387 Z M 304.308594 54.722168 Q 303.551270 54.722168 303.177979 55.533203 Q 302.804688 56.344238 302.804688 58.009277 Q 302.804688 58.766602 302.906738 59.427246 L 305.409668 55.436523 Q 305.001465 54.722168 304.308594 54.722168 Z " fill="rgb(0, 0, 0)" fill-opacity="1.000000" />
<path d="M 311.308594 53.862793 Q 312.592285 53.862793 313.250244 54.910156 Q 313.908203 55.957520 313.908203 58.009277 Q 313.908203 60.061035 313.250244 61.108398 Q 312.592285 62.155762 311.308594 62.155762 Q 310.024902 62.155762 309.369629 61.108398 Q 308.714355 60.061035 308.714355 58.009277 Q 308.714355 55.957520 309.369629 54.910156 Q 310.024902 53.862793 311.308594 53.862793 Z M 311.308594 61.296387 Q 312.071289 61.296387 312.444580 60.485352 Q 312.817871 59.674316 312.817871 58.009277 Q 312.817871 57.123047 312.710449 56.408691 L 310.153809 60.410156 Q 310.556641 61.296387 311.308594 61.296387 Z M 311.308594 54.722168 Q 310.551270 54.722168 310.177979 55.533203 Q 309.804688 56.344238 309.804688 58.009277 Q 309.804688 58.766602 309.906738 59.427246 L 312.409668 55.436523 Q 312.001465 54.722168 311.308594 54.722168 Z " fill="rgb(0, 0, 0)" fill-opacity="1.000000" />
<path d="M 316.450195 61.092285 L 318.136719 61.092285 L 318.136719 55.033691 L 316.117188 56.005859 L 316.117188 54.963867 L 318.125977 54.007812 L 319.210938 54.007812 L 319.210938 61.092285 L 320.875977 61.092285 L 320.875977 62.000000 L 316.450195 62.000000 Z " fill="rgb(0, 0, 0)" fill-opacity="1.000000" />
<path d="M 323.450195 61.092285 L 325.136719 61.092285 L 325.136719 55.033691 L 323.117188 56.005859 L 323.117188 54.963867 L 325.125977 54.007812 L 326.210938 54.007812 L 326.210938 61.092285 L 327.875977 61.092285 L 327.875977 62.000000 L 323.450195 62.000000 Z " fill="rgb(0, 0, 0)" fill-opacity="1.000000" />
<path d="M 332.308594 53.862793 Q 333.592285 53.862793 334.250244 54.910156 Q 334.908203 55.957520 334.908203 58.009277 Q 334.908203 60.061035 334.250244 61.108398 Q 333.592285 62.155762 332.308594 62.155762 Q 331.024902 62.155762 330.369629 61.108398 Q 329.714355 60.061035 329.714355 58.009277 Q 329.714355 55.957520 330.369629 54.910156 Q 331.024902 53.862793 332.308594 53.862793 Z M 332.308594 61.296387 Q 333.071289 61.296387 333.444580 60.485352 Q 333.817871 59.674316 333.817871 58.009277 Q 333.817871 57.123047 333.710449 56.408691 L 331.153809 60.410156 Q 331.556641 61.296387 332.308594 61.296387 Z M 332.308594 54.722168 Q 331.551270 54.722168 331.177979 55.533203 Q 330.804688 56.344238 330.804688 58.009277 Q 330.804688 58.766602 330.906738 59.427246 L 333.409668 55.436523 Q 333.001465 54.722168 332.308594 54.722168 Z " fill="rgb(0, 0, 0)" fill-opacity="1.000000" />
<path d="M 337.450195 61.092285 L 339.136719 61.092285 L 339.136719 55.033691 L 337.117188 56.005859 L 337.117188 54.963867 L 339.125977 54.007812 L 340.210938 54.007812 L 340.210938 61.092285 L 341.875977 61.092285 L 341.875977 62.000000 L 337.450195 62.000000 Z " fill="rgb(0, 0, 0)" fill-opacity="1.000000" />
<path d="M 345.878906 65.319336 L 345.878906 51.300781 L 346.738281 51.300781 L 346.738281 65.319336 Z " fill="rgb(0, 0, 0)" fill-opacity="1.000000" />
<path d="M 352.878906 65.319336 L 352.878906 51.300781 L 353.738281 51.300781 L 353.738281 65.319336 Z " fill="rgb(0, 0, 0)" fill-opacity="1.000000" />
<path d="M 360.308594 53.862793 Q 361.592285 53.862793 362.250244 54.910156 Q 362.908203 55.957520 362.908203 58.009277 Q 362.908203 60.061035 362.250244 61.108398 Q 361.592285 62.155762 360.308594 62.155762 Q 359.024902 62.155762 358.369629 61.108398 Q 357.714355 60.061035 357.714355 58.009277 Q 357.714355 55.957520 358.369629 54.910156 Q 359.024902 53.862793 360.308594 53.862793 Z M 360.308594 61.296387 Q 361.071289 61.296387 361.444580 60.485352 Q 361.817871 59.674316 361.817871 58.009277 Q 361.817871 57.123047 361.710449 56.408691 L 359.153809 60.410156 Q 359.556641 61.296387 360.308594 61.296387 Z M 360.308594 54.722168 Q 359.551270 54.722168 359.177979 55.533203 Q 358.804688 56.344238 358.804688 58.009277 Q 358.804688 58.766602 358.906738 59.427246 L 361.409668 55.436523 Q 361.001465 54.722168 360.308594 54.722168 Z " fill="rgb(0, 0, 0)" fill-opacity="1.000000" />
<path d="M 367.308594 53.862793 Q 368.592285 53.862793 369.250244 54.910156 Q 369.908203 55.957520 369.908203 58.009277 Q 369.908203 60.061035 369.250244 61.108398 Q 368.592285 62.155762 367.308594 62.155762 Q 366.024902 62.155762 365.369629 61.108398 Q 364.714355 60.061035 364.714355 58.009277 Q 364.714355 55.957520 365.369629 54.910156 Q 366.024902 53.862793 367.308594 53.862793 Z M 367.308594 61.296387 Q 368.071289 61.296387 368.444580 60.485352 Q 368.817871 59.674316 368.817871 58.009277 Q 368.817871 57.123047 368.710449 56.408691 L 366.153809 60.410156 Q 366.556641 61.296387 367.308594 61.296387 Z M 367.308594 54.722168 Q 366.551270 54.722168 366.177979 55.533203 Q 365.804688 56.344238 365.804688 58.009277 Q 365.804688 58.766602 365.906738 59.427246 L 368.409668 55.436523 Q 368.001465 54.722168 367.308594 54.722168 Z " fill="rgb(0, 0, 0)" fill-opacity="1.000000" />
<path d="M 374.308594 53.862793 Q 375.592285 53.862793 376.250244 54.910156 Q 376.908203 55.957520 376.908203 58.009277 Q 376.908203 60.061035 376.250244 61.108398 Q 375.592285 62.155762 374.308594 62.155762 Q 373.024902 62.155762 372.369629 61.108398 Q 371.714355 60.061035 371.714355 58.009277 Q 371.714355 55.957520 372.369629 54.910156 Q 373.024902 53.862793 374.308594 53.862793 Z M 374.308594 61.296387 Q 375.071289 61.296387 375.444580 60.485352 Q 375.817871 59.674316 375.817871 58.009277 Q 375.817871 57.123047 375.710449 56.408691 L 373.153809 60.410156 Q 373.556641 61.296387 374.308594 61.296387 Z M 374.308594 54.722168 Q 373.551270 54.722168 373.177979 55.533203 Q 372.804688 56.344238 372.804688 58.009277 Q 372.804688 58.766602 372.906738 59.427246 L 375.409668 55.436523 Q 375.001465 54.722168 374.308594 54.722168 Z " fill="rgb(0, 0, 0)" fill-opacity="1.000000" />
<path d="M 381.308594 53.862793 Q 382.592285 53.862793 383.250244 54.910156 Q 383.908203 55.957520 383.908203 58.009277 Q 383.908203 60.061035 383.250244 61.108398 Q 382.592285 62.155762 381.308594 62.155762 Q 380.024902 62.155762 379.369629 61.108398 Q 378.714355 60.061035 378.714355 58.009277 Q 378.714355 55.957520 379.369629 54.910156 Q 380.024902 53.862793 381.308594 53.862793 Z M 381.308594 61.296387 Q 382.071289 61.296387 382.444580 60.485352 Q 382.817871 59.674316 382.817871 58.009277 Q 382.817871 57.123047 382.710449 56.408691 L 380.153809 60.410156 Q 380.556641 61.296387 381.308594 61.296387 Z M 381.308594 54.722168 Q 380.551270 54.722168 380.177979 55.533203 Q 379.804688 56.344238 379.804688 58.009277 Q 379.804688 58.766602 379.906738 59.427246 L 382.409668 55.436523 Q 382.001465 54.722168 381.308594 54.722168 Z " fill="rgb(0, 0, 0)" fill-opacity="1.000000" />
<path d="M 388.308594 53.862793 Q 389.592285 53.862793 390.250244 54.910156 Q 390.908203 55.957520 390.908203 58.009277 Q 390.908203 60.061035 390.250244 61.108398 Q 389.592285 62.155762 388.308594 62.155762 Q 387.024902 62.155762 386.369629 61.108398 Q 385.714355 60.061035 385.714355 58.009277 Q 385.714355 55.957520 386.369629 54.910156 Q 387.024902 53.862793 388.308594 53.862793 Z M 388.308594 61.296387 Q 389.071289 61.296387 389.444580 60.485352 Q 389.817871 59.674316 389.817871 58.009277 Q 389.817871 57.123047 389.710449 56.408691 L 387.153809 60.410156 Q 387.556641 61.296387 388.308594 61.296387 Z M 388.308594 54.722168 Q 387.551270 54.722168 387.177979 55.533203 Q 386.804688 56.344238 386.804688 58.009277 Q 386.804688 58.766602 386.906738 59.427246 L 389.409668 55.436523 Q 389.001465 54.722168 388.308594 54.722168 Z " fill="rgb(0, 0, 0)" fill-opacity="1.000000" />
<path d="M 395.308594 53.862793 Q 396.592285 53.862793 397.250244 54.910156 Q 397.908203 55.957520 397.908203 58.009277 Q 397.908203 60.061035 397.250244 61.108398 Q 396.592285 62.155762 395.308594 62.155762 Q 394.024902 62.155762 393.369629 61.108398 Q 392.714355 60.061035 392.714355 58.009277 Q 392.714355 55.957520 393.369629 54.910156 Q 394.024902 53.862793 395.308594 53.862793 Z M 395.308594 61.296387 Q 396.071289 61.296387 396.444580 60.485352 Q 396.817871 59.674316 396.817871 58.009277 Q 396.817871 57.123047 396.710449 56.408691 L 394.153809 60.410156 Q 394.556641 61.296387 395.308594 61.296387 Z M 395.308594 54.722168 Q 394.551270 54.722168 394.177979 55.533203 Q 393.804688 56.344238 393.804688 58.009277 Q 393.804688 58.766602 393.906738 59.427246 L 396.409668 55.436523 Q 396.001465 54.722168 395.308594 54.722168 Z " fill="rgb(0, 0, 0)" fill-opacity="1.000000" />
<path d="M 400.450195 61.092285 L 402.136719 61.092285 L 402.136719 55.033691 L 400.117188 56.005859 L 400.117188 54.963867 L 402.125977 54.007812 L 403.210938 54.007812 L 403.210938 61.092285 L 404.875977 61.092285 L 404.875977 62.000000 L 400.450195 62.000000 Z " fill="rgb(0, 0, 0)" fill-opacity="1.000000" />
<path d="M 409.308594 53.862793 Q 410.592285 53.862793 411.250244 54.910156 Q 411.908203 55.957520 411.908203 58.009277 Q 411.908203 60.061035 411.250244 61.108398 Q 410.592285 62.155762 409.308594 62.155762 Q 408.024902 62.155762 407.369629 61.108398 Q 406.714355 60.061035 406.714355 58.009277 Q 406.714355 55.957520 407.369629 54.910156 Q 408.024902 53.862793 409.308594 53.862793 Z M 409.308594 61.296387 Q 410.071289 61.296387 410.444580 60.485352 Q 410.817871 59.674316 410.817871 58.009277 Q 410.817871 57.123047 410.710449 56.408691 L 408.153809 60.410156 Q 408.556641 61.296387 409.308594 61.296387 Z M 409.308594 54.722168 Q 408.551270 54.722168 408.177979 55.533203 Q 407.804688 56.344238 407.804688 58.009277 Q 407.804688 58.766602 407.906738 59.427246 L 410.409668 55.436523 Q 410.001465 54.722168 409.308594 54.722168 Z " fill="rgb(0, 0, 0)" fill-opacity="1.000000" />
<path d="M 415.878906 65.319336 L 415.878906 51.300781 L 416.738281 51.300781 L 416.738281 65.319336 Z " fill="rgb(0, 0, 0)" fill-opacity="1.000000" />
<path d="M 6.892578 46.335938 L 6.892578 45.412109 L 13.729980 45.412109 L 13.729980 46.335938 Z " fill="rgb(0, 0, 0)" fill-opacity="1.000000" />
<path d="M 13.892578 46.335938 L 13.892578 45.412109 L 20.729980 45.412109 L 20.729980 46.335938 Z " fill="rgb(0, 0, 0)" fill-opacity="1.000000" />
<path d="M 20.892578 46.335938 L 20.892578 45.412109 L 27.729980 45.412109 L 27.729980 46.335938 Z " fill="rgb(0, 0, 0)" fill-opacity="1.000000" />
<path d="M 27.892578 46.335938 L 27.892578 45.412109 L 34.729980 45.412109 L 34.729980 46.335938 Z " fill="rgb(0, 0, 0)" fill-opacity="1.000000" />
<path d="M 38.308594 49.418945 L 35.032227 42.866211 L 41.590332 42.866211 Z " fill="rgb(0, 0, 0)" fill-opacity="1.000000" />
<path d="M 41.892578 46.335938 L 41.892578 45.412109 L 48.729980 45.412109 L 48.729980 46.335938 Z " fill="rgb(0, 0, 0)" fill-opacity="1.000000" />
<path d="M 48.892578 46.335938 L 48.892578 45.412109 L 55.729980 45.412109 L 55.729980 46.335938 Z " fill="rgb(0, 0, 0)" fill-opacity="1.000000" />
<path d="M 55.892578 46.335938 L 55.892578 45.412109 L 62.729980 45.412109 L 62.729980 46.335938 Z " fill="rgb(0, 0, 0)" fill-opacity="1.000000" />
<path d="M 65.878906 52.319336 L 65.878906 46.335938 L 62.892578 46.335938 L 62.892578 45.412109 L 66.738281 45.412109 L 66.738281 52.319336 Z " fill="rgb(0, 0, 0)" fill-opacity="1.000000" />
<path d="M 72.878906 52.319336 L 72.878906 45.412109 L 76.729980 45.412109 L 76.729980 46.335938 L 73.738281 46.335938 L 73.738281 52.319336 Z " fill="rgb(0, 0, 0)" fill-opacity="1.000000" />
<path d="M 76.892578 46.335938 L 76.892578 45.412109 L 83.729980 45.412109 L 83.729980 46.335938 Z " fill="rgb(0, 0, 0)" fill-opacity="1.000000" />
<path d="M 83.892578 46.335938 L 83.892578 45.412109 L 90.729980 45.412109 L 90.729980 46.335938 Z " fill="rgb(0, 0, 0)" fill-opacity="1.000000" />
<path d="M 90.892578 46.335938 L 90.892578 45.412109 L 97.729980 45.412109 L 97.729980 46.335938 Z " fill="rgb(0, 0, 0)" fill-opacity="1.000000" />
<path d="M 101.308594 49.418945 L 98.032227 42.866211 L 104.590332 42.866211 Z " fill="rgb(0, 0, 0)" fill-opacity="1.000000" />
<path d="M 104.892578 46.335938 L 104.892578 45.412109 L 111.729980 45.412109 L 111.729980 46.335938 Z " fill="rgb(0, 0, 0)" fill-opacity="1.000000" />
<path d="M 111.892578 46.335938 L 111.892578 45.412109 L 118.729980 45.412109 L 118.729980 46.335938 Z " fill="rgb(0, 0, 0)" fill-opacity="1.000000" />
<path d="M 118.892578 46.335938 L 118.892578 45.412109 L 125.729980 45.412109 L 125.729980 46.335938 Z " fill="rgb(0, 0, 0)" fill-opacity="1.000000" />
<path d="M 125.892578 46.335938 L 125.892578 45.412109 L 132.729980 45.412109 L 132.729980 46.335938 Z " fill="rgb(0, 0, 0)" fill-opacity="1.000000" />
<path d="M 135.878906 52.319336 L 135.878906 46.335938 L 132.892578 46.335938 L 132.892578 45.412109 L 136.738281 45.412109 L 136.738281 52.319336 Z " fill="rgb(0, 0, 0)" fill-opacity="1.000000" />
<path d="M 142.878906 52.319336 L 142.878906 45.412109 L 146.729980 45.412109 L 146.729980 46.335938 L 143.738281 46.335938 L 143.738281 52.319336 Z " fill="rgb(0, 0, 0)" fill-opacity="1.000000" />
<path d="M 146.892578 46.335938 L 146.892578 45.412109 L 153.729980 45.412109 L 153.729980 46.335938 Z " fill="rgb(0, 0, 0)" fill-opacity="1.000000" />
<path d="M 153.892578 46.335938 L 153.892578 45.412109 L 160.729980 45.412109 L 160.729980 46.335938 Z " fill="rgb(0, 0, 0)" fill-opacity="1.000000" />
<path d="M 160.892578 46.335938 L 160.892578 45.412109 L 167.729980 45.412109 L 167.729980 46.335938 Z " fill="rgb(0, 0, 0)" fill-opacity="1.000000" />
<path d="M 167.892578 46.335938 L 167.892578 45.412109 L 174.729980 45.412109 L 174.729980 46.335938 Z " fill="rgb(0, 0, 0)" fill-opacity="1.000000" />
<path d="M 178.308594 49.418945 L 175.032227 42.866211 L 181.590332 42.866211 Z " fill="rgb(0, 0, 0)" fill-opacity="1.000000" />
<path d="M 181.892578 46.335938 L 181.892578 45.412109 L 188.729980 45.412109 L 188.729980 46.335938 Z " fill="rgb(0, 0, 0)" fill-opacity="1.000000" />
<path d="M 188.892578 46.335938 L 188.892578 45.412109 L 195.729980 45.412109 L 195.729980 46.335938 Z " fill="rgb(0, 0, 0)" fill-opacity="1.000000" />
<path d="M 195.892578 46.335938 L 195.892578 45.412109 L 202.729980 45.412109 L 202.729980 46.335938 Z " fill="rgb(0, 0, 0)" fill-opacity="1.000000" />
<path d="M 205.878906 52.319336 L 205.878906 46.335938 L 202.892578 46.335938 L 202.892578 45.412109 L 206.738281 45.412109 L 206.738281 52.319336 Z " fill="rgb(0, 0, 0)" fill-opacity="1.000000" />
<path d="M 212.878906 52.319336 L 212.878906 45.412109 L 216.729980 45.412109 L 216.729980 46.335938 L 213.738281 46.335938 L 213.738281 52.319336 Z " fill="rgb(0, 0, 0)" fill-opacity="1.000000" />
<path d="M 216.892578 46.335938 L 216.892578 45.412109 L 223.729980 45.412109 L 223.729980 46.335938 Z " fill="rgb(0, 0, 0)" fill-opacity="1.000000" />
<path d="M 223.892578 46.335938 L 223.892578 45.412109 L 230.729980 45.412109 L 230.729980 46.335938 Z " fill="rgb(0, 0, 0)" fill-opacity="1.000000" />
<path d="M 230.892578 46.335938 L 230.892578 45.412109 L 237.729980 45.412109 L 237.729980 46.335938 Z " fill="rgb(0, 0, 0)" fill-opacity="1.000000" />
<path d="M 241.308594 49.418945 L 238.032227 42.866211 L 244.590332 42.866211 Z " fill="rgb(0, 0, 0)" fill-opacity="1.000000" />
<path d="M 244.892578 46.335938 L 244.892578 45.412109 L 251.729980 45.412109 L 251.729980 46.335938 Z " fill="rgb(0, 0, 0)" fill-opacity="1.000000" />
<path d="M 251.892578 46.335938 L 251.892578 45.412109 L 258.729980 45.412109 L 258.729980 46.335938 Z " fill="rgb(0, 0, 0)" fill-opacity="1.000000" />
<path d="M 258.892578 46.335938 L 258.892578 45.412109 L 265.729980 45.412109 L 265.729980 46.335938 Z " fill="rgb(0, 0, 0)" fill-opacity="1.000000" />
<path d="M 265.892578 46.335938 L 265.892578 45.412109 L 272.729980 45.412109 L 272.729980 46.335938 Z " fill="rgb(0, 0, 0)" fill-opacity="1.000000" />
<path d="M 275.878906 52.319336 L 275.878906 46.335938 L 272.892578 46.335938 L 272.892578 45.412109 L 276.738281 45.412109 L 276.738281 52.319336 Z " fill="rgb(0, 0, 0)" fill-opacity="1.000000" />
<path d="M 282.878906 52.319336 L 282.878906 45.412109 L 286.729980 45.412109 L 286.729980 46.335938 L 283.738281 46.335938 L 283.738281 52.319336 Z " fill="rgb(0, 0, 0)" fill-opacity="1.000000" />
<path d="M 286.892578 46.335938 L 286.892578 45.412109 L 293.729980 45.412109 L 293.729980 46.335938 Z " fill="rgb(0, 0, 0)" fill-opacity="1.000000" />
<path d="M 293.892578 46.335938 L 293.892578 45.412109 L 300.729980 45.412109 L 300.729980 46.335938 Z " fill="rgb(0, 0, 0)" fill-opacity="1.000000" />
<path d="M 300.892578 46.335938 L 300.892578 45.412109 L 307.729980 45.412109 L 307.729980 46.335938 Z " fill="rgb(0, 0, 0)" fill-opacity="1.000000" />
<path d="M 311.308594 49.418945 L 308.032227 42.866211 L 314.590332 42.866211 Z " fill="rgb(0, 0, 0)" fill-opacity="1.000000" />
<path d="M 314.892578 46.335938 L 314.892578 45.412109 L 321.729980 45.412109 L 321.729980 46.335938 Z " fill="rgb(0, 0, 0)" fill-opacity="1.000000" />
<path d="M 321.892578 46.335938 L 321.892578 45.412109 L 328.729980 45.412109 L 328.729980 46.335938 Z " fill="rgb(0, 0, 0)" fill-opacity="1.000000" />
<path d="M 328.892578 46.335938 L 328.892578 45.412109 L 335.729980 45.412109 L 335.729980 46.335938 Z " fill="rgb(0, 0, 0)" fill-opacity="1.000000" />
<path d="M 335.892578 46.335938 L 335.892578 45.412109 L 342.729980 45.412109 L 342.729980 46.335938 Z " fill="rgb(0, 0, 0)" fill-opacity="1.000000" />
<path d="M 345.878906 52.319336 L 345.878906 46.335938 L 342.892578 46.335938 L 342.892578 45.412109 L 346.738281 45.412109 L 346.738281 52.319336 Z " fill="rgb(0, 0, 0)" fill-opacity="1.000000" />
<path d="M 352.878906 52.319336 L 352.878906 45.412109 L 356.729980 45.412109 L 356.729980 46.335938 L 353.738281 46.335938 L 353.738281 52.319336 Z " fill="rgb(0, 0, 0)" fill-opacity="1.000000" />
<path d="M 356.892578 46.335938 L 356.892578 45.412109 L 363.729980 45.412109 L 363.729980 46.335938 Z " fill="rgb(0, 0, 0)" fill-opacity="1.000000" />
<path d="M 363.892578 46.335938 L 363.892578 45.412109 L 370.729980 45.412109 L 370.729980 46.335938 Z " fill="rgb(0, 0, 0)" fill-opacity="1.000000" />
<path d="M 370.892578 46.335938 L 370.892578 45.412109 L 377.729980 45.412109 L 377.729980 46.335938 Z " fill="rgb(0, 0, 0)" fill-opacity="1.000000" />
<path d="M 377.892578 46.335938 L 377.892578 45.412109 L 384.729980 45.412109 L 384.729980 46.335938 Z " fill="rgb(0, 0, 0)" fill-opacity="1.000000" />
<path d="M 388.308594 49.418945 L 385.032227 42.866211 L 391.590332 42.866211 Z " fill="rgb(0, 0, 0)" fill-opacity="1.000000" />
<path d="M 391.892578 46.335938 L 391.892578 45.412109 L 398.729980 45.412109 L 398.729980 46.335938 Z " fill="rgb(0, 0, 0)" fill-opacity="1.000000" />
<path d="M 398.892578 46.335938 L 398.892578 45.412109 L 405.729980 45.412109 L 405.729980 46.335938 Z " fill="rgb(0, 0, 0)" fill-opacity="1.000000" />
<path d="M 405.892578 46.335938 L 405.892578 45.412109 L 412.729980 45.412109 L 412.729980 46.335938 Z " fill="rgb(0, 0, 0)" fill-opacity="1.000000" />
<path d="M 415.878906 52.319336 L 415.878906 46.335938 L 412.892578 46.335938 L 412.892578 45.412109 L 416.738281 45.412109 L 416.738281 52.319336 Z " fill="rgb(0, 0, 0)" fill-opacity="1.000000" />
<path d="M 23.143066 2.872559 L 23.143066 5.885742 L 24.399902 5.885742 Q 25.151855 5.885742 25.573486 5.488281 Q 25.995117 5.090820 25.995117 4.376465 Q 25.995117 3.662109 25.576172 3.267334 Q 25.157227 2.872559 24.399902 2.872559 Z M 22.058105 1.980957 L 24.399902 1.980957 Q 25.742676 1.980957 26.435547 2.590576 Q 27.128418 3.200195 27.128418 4.376465 Q 27.128418 5.563477 26.438232 6.170410 Q 25.748047 6.777344 24.399902 6.777344 L 23.143066 6.777344 L 23.143066 10.000000 L 22.058105 10.000000 Z " fill="rgb(0, 0, 0)" fill-opacity="1.000000" />
<path d="M 37.878906 26.319336 L 37.878906 12.300781 L 38.738281 12.300781 L 38.738281 26.319336 Z " fill="rgb(0, 0, 0)" fill-opacity="1.000000" />
<path d="M 37.878906 39.319336 L 37.878906 25.300781 L 38.738281 25.300781 L 38.738281 39.319336 Z " fill="rgb(0, 0, 0)" fill-opacity="1.000000" />
<path d="M 100.878906 26.319336 L 100.878906 19.412109 L 104.729980 19.412109 L 104.729980 20.335938 L 101.738281 20.335938 L 101.738281 26.319336 Z " fill="rgb(0, 0, 0)" fill-opacity="1.000000" />
<path d="M 100.878906 39.319336 L 100.878906 25.300781 L 101.738281 25.300781 L 101.738281 39.319336 Z " fill="rgb(0, 0, 0)" fill-opacity="1.000000" />
<path d="M 177.878906 39.319336 L 177.878906 25.300781 L 178.738281 25.300781 L 178.738281 39.319336 Z " fill="rgb(0, 0, 0)" fill-opacity="1.000000" />
<path d="M 240.878906 39.319336 L 240.878906 25.300781 L 241.738281 25.300781 L 241.738281 39.319336 Z " fill="rgb(0, 0, 0)" fill-opacity="1.000000" />
<path d="M 310.878906 39.319336 L 310.878906 25.300781 L 311.738281 25.300781 L 311.738281 39.319336 Z " fill="rgb(0, 0, 0)" fill-opacity="1.000000" />
<path d="M 387.878906 39.319336 L 387.878906 25.300781 L 388.738281 25.300781 L 388.738281 39.319336 Z " fill="rgb(0, 0, 0)" fill-opacity="1.000000" />
<path d="M 104.892578 20.335938 L 104.892578 19.412109 L 111.729980 19.412109 L 111.729980 20.335938 Z " fill="rgb(0, 0, 0)" fill-opacity="1.000000" />
<path d="M 111.892578 20.335938 L 111.892578 19.412109 L 118.729980 19.412109 L 118.729980 20.335938 Z " fill="rgb(0, 0, 0)" fill-opacity="1.000000" />
<path d="M 118.892578 20.335938 L 118.892578 19.412109 L 125.729980 19.412109 L 125.729980 20.335938 Z " fill="rgb(0, 0, 0)" fill-opacity="1.000000" />
<path d="M 125.892578 20.335938 L 125.892578 19.412109 L 132.729980 19.412109 L 132.729980 20.335938 Z " fill="rgb(0, 0, 0)" fill-opacity="1.000000" />
<path d="M 132.892578 20.335938 L 132.892578 19.412109 L 139.729980 19.412109 L 139.729980 20.335938 Z " fill="rgb(0, 0, 0)" fill-opacity="1.000000" />
<path d="M 139.892578 20.335938 L 139.892578 19.412109 L 146.729980 19.412109 L 146.729980 20.335938 Z " fill="rgb(0, 0, 0)" fill-opacity="1.000000" />
<path d="M 146.892578 20.335938 L 146.892578 19.412109 L 153.729980 19.412109 L 153.729980 20.335938 Z " fill="rgb(0, 0, 0)" fill-opacity="1.000000" />
<path d="M 153.892578 20.335938 L 153.892578 19.412109 L 160.729980 19.412109 L 160.729980 20.335938 Z " fill="rgb(0, 0, 0)" fill-opacity="1.000000" />
<path d="M 160.892578 20.335938 L 160.892578 19.412109 L 167.729980 19.412109 L 167.729980 20.335938 Z " fill="rgb(0, 0, 0)" fill-opacity="1.000000" />
<path d="M 167.892578 20.335938 L 167.892578 19.412109 L 174.729980 19.412109 L 174.729980 20.335938 Z " fill="rgb(0, 0, 0)" fill-opacity="1.000000" />
<path d="M 177.878906 26.319336 L 177.878906 20.335938 L 174.892578 20.335938 L 174.892578 19.412109 L 178.738281 19.412109 L 178.738281 26.319336 Z " fill="rgb(0, 0, 0)" fill-opacity="1.000000" />
<path d="M 240.878906 26.319336 L 240.878906 12.300781 L 241.738281 12.300781 L 241.738281 26.319336 Z " fill="rgb(0, 0, 0)" fill-opacity="1.000000" />
<path d="M 310.878906 26.319336 L 310.878906 12.300781 L 311.738281 12.300781 L 311.738281 26.319336 Z " fill="rgb(0, 0, 0)" fill-opacity="1.000000" />
<path d="M 387.878906 26.319336 L 387.878906 12.300781 L 388.738281 12.300781 L 388.738281 26.319336 Z " fill="rgb(0, 0, 0)" fill-opacity="1.000000" />
<path d="M 28.789551 6.922363 L 28.789551 1.980957 L 29.879883 1.980957 L 29.879883 7.416504 Q 29.879883 8.001953 29.912109 8.251709 Q 29.944336 8.501465 30.024902 8.635742 Q 30.196777 8.952637 30.521729 9.113770 Q 30.846680 9.274902 31.308594 9.274902 Q 31.775879 9.274902 32.098145 9.113770 Q 32.420410 8.952637 32.597656 8.635742 Q 32.678223 8.501465 32.710449 8.254395 Q 32.742676 8.007324 32.742676 7.427246 L 32.742676 1.980957 L 33.827637 1.980957 L 33.827637 6.922363 Q 33.827637 8.152344 33.674561 8.670654 Q 33.521484 9.188965 33.145508 9.527344 Q 32.791016 9.844238 32.334473 10.000000 Q 31.877930 10.155762 31.308594 10.155762 Q 30.744629 10.155762 30.288086 10.000000 Q 29.831543 9.844238 29.471680 9.527344 Q 29.101074 9.194336 28.945312 8.665283 Q 28.789551 8.136230 28.789551 6.922363 Z " fill="rgb(0, 0, 0)" fill-opacity="1.000000" />
<path d="M 40.435547 2.254883 L 40.435547 3.355957 Q 39.941406 3.039062 39.444580 2.877930 Q 38.947754 2.716797 38.442871 2.716797 Q 37.674805 2.716797 37.229004 3.073975 Q 36.783203 3.431152 36.783203 4.038086 Q 36.783203 4.569824 37.075928 4.849121 Q 37.368652 5.128418 38.168945 5.316406 L 38.738281 5.445312 Q 39.866211 5.708496 40.381836 6.272461 Q 40.897461 6.836426 40.897461 7.808594 Q 40.897461 8.952637 40.188477 9.554199 Q 39.479492 10.155762 38.125977 10.155762 Q 37.562012 10.155762 36.992676 10.034912 Q 36.423340 9.914062 35.848633 9.672363 L 35.848633 8.517578 Q 36.466309 8.909668 37.016846 9.092285 Q 37.567383 9.274902 38.125977 9.274902 Q 38.947754 9.274902 39.404297 8.906982 Q 39.860840 8.539062 39.860840 7.878418 Q 39.860840 7.276855 39.546631 6.959961 Q 39.232422 6.643066 38.453613 6.471191 L 37.873535 6.336914 Q 36.756348 6.084473 36.251465 5.574219 Q 35.746582 5.063965 35.746582 4.204590 Q 35.746582 3.130371 36.468994 2.483154 Q 37.191406 1.835938 38.389160 1.835938 Q 38.851074 1.835938 39.361328 1.940674 Q 39.871582 2.045410 40.435547 2.254883 Z " fill="rgb(0, 0, 0)" fill-opacity="1.000000" />
<path d="M 42.735840 1.980957 L 43.826172 1.980957 L 43.826172 5.053223 L 46.796387 5.053223 L 46.796387 1.980957 L 47.886719 1.980957 L 47.886719 10.000000 L 46.796387 10.000000 L 46.796387 5.966309 L 43.826172 5.966309 L 43.826172 10.000000 L 42.735840 10.000000 Z " fill="rgb(0, 0, 0)" fill-opacity="1.000000" />
<path d="M 127.111816 1.980957 L 131.172363 1.980957 L 131.172363 2.894043 L 128.100098 2.894043 L 128.100098 4.865234 Q 128.331055 4.779297 128.564697 4.739014 Q 128.798340 4.698730 129.034668 4.698730 Q 130.280762 4.698730 131.011230 5.434570 Q 131.741699 6.170410 131.741699 7.427246 Q 131.741699 8.694824 130.976318 9.425293 Q 130.210938 10.155762 128.884277 10.155762 Q 128.245117 10.155762 127.716064 10.069824 Q 127.187012 9.983887 126.768066 9.812012 L 126.768066 8.710938 Q 127.262207 8.979492 127.761719 9.111084 Q 128.261230 9.242676 128.782227 9.242676 Q 129.679199 9.242676 130.165283 8.770020 Q 130.651367 8.297363 130.651367 7.427246 Q 130.651367 6.567871 130.149170 6.089844 Q 129.646973 5.611816 128.750000 5.611816 Q 128.314941 5.611816 127.901367 5.711182 Q 127.487793 5.810547 127.111816 6.009277 Z " fill="rgb(0, 0, 0)" fill-opacity="1.000000" />
<path d="M 136.308594 1.862793 Q 137.592285 1.862793 138.250244 2.910156 Q 138.908203 3.957520 138.908203 6.009277 Q 138.908203 8.061035 138.250244 9.108398 Q 137.592285 10.155762 136.308594 10.155762 Q 135.024902 10.155762 134.369629 9.108398 Q 133.714355 8.061035 133.714355 6.009277 Q 133.714355 3.957520 134.369629 2.910156 Q 135.024902 1.862793 136.308594 1.862793 Z M 136.308594 9.296387 Q 137.071289 9.296387 137.444580 8.485352 Q 137.817871 7.674316 137.817871 6.009277 Q 137.817871 5.123047 137.710449 4.408691 L 135.153809 8.410156 Q 135.556641 9.296387 136.308594 9.296387 Z M 136.308594 2.722168 Q 135.551270 2.722168 135.177979 3.533203 Q 134.804688 4.344238 134.804688 6.009277 Q 134.804688 6.766602 134.906738 7.427246 L 137.409668 3.436523 Q 137.001465 2.722168 136.308594 2.722168 Z " fill="rgb(0, 0, 0)" fill-opacity="1.000000" />
<path d="M 141.111816 1.980957 L 145.172363 1.980957 L 145.172363 2.894043 L 142.100098 2.894043 L 142.100098 4.865234 Q 142.331055 4.779297 142.564697 4.739014 Q 142.798340 4.698730 143.034668 4.698730 Q 144.280762 4.698730 145.011230 5.434570 Q 145.741699 6.170410 145.741699 7.427246 Q 145.741699 8.694824 144.976318 9.425293 Q 144.210938 10.155762 142.884277 10.155762 Q 142.245117 10.155762 141.716064 10.069824 Q 141.187012 9.983887 140.768066 9.812012 L 140.768066 8.710938 Q 141.262207 8.979492 141.761719 9.111084 Q 142.261230 9.242676 142.782227 9.242676 Q 143.679199 9.242676 144.165283 8.770020 Q 144.651367 8.297363 144.651367 7.427246 Q 144.651367 6.567871 144.149170 6.089844 Q 143.646973 5.611816 142.750000 5.611816 Q 142.314941 5.611816 141.901367 5.711182 Q 141.487793 5.810547 141.111816 6.009277 Z " fill="rgb(0, 0, 0)" fill-opacity="1.000000" />
<path d="M 226.143066 2.872559 L 226.143066 5.885742 L 227.399902 5.885742 Q 228.151855 5.885742 228.573486 5.488281 Q 228.995117 5.090820 228.995117 4.376465 Q 228.995117 3.662109 228.576172 3.267334 Q 228.157227 2.872559 227.399902 2.872559 Z M 225.058105 1.980957 L 227.399902 1.980957 Q 228.742676 1.980957 229.435547 2.590576 Q 230.128418 3.200195 230.128418 4.376465 Q 230.128418 5.563477 229.438232 6.170410 Q 228.748047 6.777344 227.399902 6.777344 L 226.143066 6.777344 L 226.143066 10.000000 L 225.058105 10.000000 Z " fill="rgb(0, 0, 0)" fill-opacity="1.000000" />
<path d="M 231.789551 6.922363 L 231.789551 1.980957 L 232.879883 1.980957 L 232.879883 7.416504 Q 232.879883 8.001953 232.912109 8.251709 Q 232.944336 8.501465 233.024902 8.635742 Q 233.196777 8.952637 233.521729 9.113770 Q 233.846680 9.274902 234.308594 9.274902 Q 234.775879 9.274902 235.098145 9.113770 Q 235.420410 8.952637 235.597656 8.635742 Q 235.678223 8.501465 235.710449 8.254395 Q 235.742676 8.007324 235.742676 7.427246 L 235.742676 1.980957 L 236.827637 1.980957 L 236.827637 6.922363 Q 236.827637 8.152344 236.674561 8.670654 Q 236.521484 9.188965 236.145508 9.527344 Q 235.791016 9.844238 235.334473 10.000000 Q 234.877930 10.155762 234.308594 10.155762 Q 233.744629 10.155762 233.288086 10.000000 Q 232.831543 9.844238 232.471680 9.527344 Q 232.101074 9.194336 231.945312 8.665283 Q 231.789551 8.136230 231.789551 6.922363 Z " fill="rgb(0, 0, 0)" fill-opacity="1.000000" />
<path d="M 243.435547 2.254883 L 243.435547 3.355957 Q 242.941406 3.039062 242.444580 2.877930 Q 241.947754 2.716797 241.442871 2.716797 Q 240.674805 2.716797 240.229004 3.073975 Q 239.783203 3.431152 239.783203 4.038086 Q 239.783203 4.569824 240.075928 4.849121 Q 240.368652 5.128418 241.168945 5.316406 L 241.738281 5.445312 Q 242.866211 5.708496 243.381836 6.272461 Q 243.897461 6.836426 243.897461 7.808594 Q 243.897461 8.952637 243.188477 9.554199 Q 242.479492 10.155762 241.125977 10.155762 Q 240.562012 10.155762 239.992676 10.034912 Q 239.423340 9.914062 238.848633 9.672363 L 238.848633 8.517578 Q 239.466309 8.909668 240.016846 9.092285 Q 240.567383 9.274902 241.125977 9.274902 Q 241.947754 9.274902 242.404297 8.906982 Q 242.860840 8.539062 242.860840 7.878418 Q 242.860840 7.276855 242.546631 6.959961 Q 242.232422 6.643066 241.453613 6.471191 L 240.873535 6.336914 Q 239.756348 6.084473 239.251465 5.574219 Q 238.746582 5.063965 238.746582 4.204590 Q 238.746582 3.130371 239.468994 2.483154 Q 240.191406 1.835938 241.389160 1.835938 Q 241.851074 1.835938 242.361328 1.940674 Q 242.871582 2.045410 243.435547 2.254883 Z " fill="rgb(0, 0, 0)" fill-opacity="1.000000" />
<path d="M 245.735840 1.980957 L 246.826172 1.980957 L 246.826172 5.053223 L 249.796387 5.053223 L 249.796387 1.980957 L 250.886719 1.980957 L 250.886719 10.000000 L 249.796387 10.000000 L 249.796387 5.966309 L 246.826172 5.966309 L 246.826172 10.000000 L 245.735840 10.000000 Z " fill="rgb(0, 0, 0)" fill-opacity="1.000000" />
<path d="M 303.003418 9.086914 L 306.687988 9.086914 L 306.687988 10.000000 L 301.816406 10.000000 L 301.816406 9.086914 Q 302.820801 8.028809 303.572754 7.217773 Q 304.324707 6.406738 304.609375 6.073730 Q 305.146484 5.418457 305.334473 5.012939 Q 305.522461 4.607422 305.522461 4.183105 Q 305.522461 3.511719 305.127686 3.130371 Q 304.732910 2.749023 304.045410 2.749023 Q 303.556641 2.749023 303.019531 2.926270 Q 302.482422 3.103516 301.880859 3.463379 L 301.880859 2.367676 Q 302.434082 2.104492 302.968506 1.970215 Q 303.502930 1.835938 304.023926 1.835938 Q 305.200195 1.835938 305.917236 2.461670 Q 306.634277 3.087402 306.634277 4.102539 Q 306.634277 4.618164 306.395264 5.133789 Q 306.156250 5.649414 305.619141 6.272461 Q 305.318359 6.621582 304.746338 7.239258 Q 304.174316 7.856934 303.003418 9.086914 Z " fill="rgb(0, 0, 0)" fill-opacity="1.000000" />
<path d="M 311.308594 1.862793 Q 312.592285 1.862793 313.250244 2.910156 Q 313.908203 3.957520 313.908203 6.009277 Q 313.908203 8.061035 313.250244 9.108398 Q 312.592285 10.155762 311.308594 10.155762 Q 310.024902 10.155762 309.369629 9.108398 Q 308.714355 8.061035 308.714355 6.009277 Q 308.714355 3.957520 309.369629 2.910156 Q 310.024902 1.862793 311.308594 1.862793 Z M 311.308594 9.296387 Q 312.071289 9.296387 312.444580 8.485352 Q 312.817871 7.674316 312.817871 6.009277 Q 312.817871 5.123047 312.710449 4.408691 L 310.153809 8.410156 Q 310.556641 9.296387 311.308594 9.296387 Z M 311.308594 2.722168 Q 310.551270 2.722168 310.177979 3.533203 Q 309.804688 4.344238 309.804688 6.009277 Q 309.804688 6.766602 309.906738 7.427246 L 312.409668 3.436523 Q 312.001465 2.722168 311.308594 2.722168 Z " fill="rgb(0, 0, 0)" fill-opacity="1.000000" />
<path d="M 316.111816 1.980957 L 320.172363 1.980957 L 320.172363 2.894043 L 317.100098 2.894043 L 317.100098 4.865234 Q 317.331055 4.779297 317.564697 4.739014 Q 317.798340 4.698730 318.034668 4.698730 Q 319.280762 4.698730 320.011230 5.434570 Q 320.741699 6.170410 320.741699 7.427246 Q 320.741699 8.694824 319.976318 9.425293 Q 319.210938 10.155762 317.884277 10.155762 Q 317.245117 10.155762 316.716064 10.069824 Q 316.187012 9.983887 315.768066 9.812012 L 315.768066 8.710938 Q 316.262207 8.979492 316.761719 9.111084 Q 317.261230 9.242676 317.782227 9.242676 Q 318.679199 9.242676 319.165283 8.770020 Q 319.651367 8.297363 319.651367 7.427246 Q 319.651367 6.567871 319.149170 6.089844 Q 318.646973 5.611816 317.750000 5.611816 Q 317.314941 5.611816 316.901367 5.711182 Q 316.487793 5.810547 316.111816 6.009277 Z " fill="rgb(0, 0, 0)" fill-opacity="1.000000" />
<path d="M 374.308594 2.937012 L 373.164551 7.040527 L 375.452637 7.040527 Z M 373.653320 1.980957 L 374.969238 1.980957 L 377.423828 10.000000 L 376.301270 10.000000 L 375.710449 7.910645 L 372.901367 7.910645 L 372.321289 10.000000 L 371.198730 10.000000 Z " fill="rgb(0, 0, 0)" fill-opacity="1.000000" />
<path d="M 380.341797 9.108398 Q 381.711426 9.108398 382.253906 8.434326 Q 382.796387 7.760254 382.796387 5.998535 Q 382.796387 4.220703 382.256592 3.546631 Q 381.716797 2.872559 380.341797 2.872559 L 379.826172 2.872559 L 379.826172 9.108398 Z M 380.363281 1.980957 Q 382.200195 1.980957 383.070312 2.958496 Q 383.940430 3.936035 383.940430 5.998535 Q 383.940430 8.050293 383.070312 9.025146 Q 382.200195 10.000000 380.363281 10.000000 L 378.735840 10.000000 L 378.735840 1.980957 Z " fill="rgb(0, 0, 0)" fill-opacity="1.000000" />
<path d="M 387.341797 9.108398 Q 388.711426 9.108398 389.253906 8.434326 Q 389.796387 7.760254 389.796387 5.998535 Q 389.796387 4.220703 389.256592 3.546631 Q 388.716797 2.872559 387.341797 2.872559 L 386.826172 2.872559 L 386.826172 9.108398 Z M 387.363281 1.980957 Q 389.200195 1.980957 390.070312 2.958496 Q 390.940430 3.936035 390.940430 5.998535 Q 390.940430 8.050293 390.070312 9.025146 Q 389.200195 10.000000 387.363281 10.000000 L 385.735840 10.000000 L 385.735840 1.980957 Z " fill="rgb(0, 0, 0)" fill-opacity="1.000000" />
</svg>