<svg xmlns="http://www.w3.org/2000/svg" version="1.1" width="372" height="92">
<path d="M 2.019531 26.319336 L 2.019531 18.488281 L 6.729980 18.488281 L 6.729980 19.412109 L 2.878906 19.412109 L 2.878906 26.319336 Z M 3.738281 26.319336 L 3.738281 20.335938 L 6.729980 20.335938 L 6.729980 21.259766 L 4.597656 21.259766 L 4.597656 26.319336 Z " fill="rgb(0, 0, 0)" fill-opacity="1.000000" />
<path d="M 2.019531 39.319336 L 2.019531 25.300781 L 2.878906 25.300781 L 2.878906 39.319336 Z M 3.738281 39.319336 L 3.738281 25.300781 L 4.597656 25.300781 L 4.597656 39.319336 Z " fill="rgb(0, 0, 0)" fill-opacity="1.000000" />
<path d="M 2.019531 52.319336 L 2.019531 38.300781 L 2.878906 38.300781 L 2.878906 52.319336 Z M 3.738281 52.319336 L 3.738281 38.300781 L 4.597656 38.300781 L 4.597656 52.319336 Z " fill="rgb(0, 0, 0)" fill-opacity="1.000000" />
<path d="M 2.019531 65.319336 L 2.019531 51.300781 L 2.878906 51.300781 L 2.878906 65.319336 Z M 3.738281 65.319336 L 3.738281 51.300781 L 4.597656 51.300781 L 4.597656 65.319336 Z " fill="rgb(0, 0, 0)" fill-opacity="1.000000" />
<path d="M 3.738281 71.412109 L 3.738281 64.300781 L 4.597656 64.300781 L 4.597656 70.488281 L 6.729980 70.488281 L 6.729980 71.412109 Z M 2.019531 73.259766 L 2.019531 64.300781 L 2.878906 64.300781 L 2.878906 72.335938 L 6.729980 72.335938 L 6.729980 73.259766 Z " fill="rgb(0, 0, 0)" fill-opacity="1.000000" />
<path d="M 17.308594 79.862793 Q 18.592285 79.862793 19.250244 80.910156 Q 19.908203 81.957520 19.908203 84.009277 Q 19.908203 86.061035 19.250244 87.108398 Q 18.592285 88.155762 17.308594 88.155762 Q 16.024902 88.155762 15.369629 87.108398 Q 14.714355 86.061035 14.714355 84.009277 Q 14.714355 81.957520 15.369629 80.910156 Q 16.024902 79.862793 17.308594 79.862793 Z M 17.308594 87.296387 Q 18.071289 87.296387 18.444580 86.485352 Q 18.817871 85.674316 18.817871 84.009277 Q 18.817871 83.123047 18.710449 82.408691 L 16.153809 86.410156 Q 16.556641 87.296387 17.308594 87.296387 Z M 17.308594 80.722168 Q 16.551270 80.722168 16.177979 81.533203 Q 15.804688 82.344238 15.804688 84.009277 Q 15.804688 84.766602 15.906738 85.427246 L 18.409668 81.436523 Q 18.001465 80.722168 17.308594 80.722168 Z " fill="rgb(0, 0, 0)" fill-opacity="1.000000" />
<path d="M 43.450195 87.092285 L 45.136719 87.092285 L 45.136719 81.033691 L 43.117188 82.005859 L 43.117188 80.963867 L 45.125977 80.007812 L 46.210938 80.007812 L 46.210938 87.092285 L 47.875977 87.092285 L 47.875977 88.000000 L 43.450195 88.000000 Z " fill="rgb(0, 0, 0)" fill-opacity="1.000000" />
<path d="M 72.003418 87.086914 L 75.687988 87.086914 L 75.687988 88.000000 L 70.816406 88.000000 L 70.816406 87.086914 Q 71.820801 86.028809 72.572754 85.217773 Q 73.324707 84.406738 73.609375 84.073730 Q 74.146484 83.418457 74.334473 83.012939 Q 74.522461 82.607422 74.522461 82.183105 Q 74.522461 81.511719 74.127686 81.130371 Q 73.732910 80.749023 73.045410 80.749023 Q 72.556641 80.749023 72.019531 80.926270 Q 71.482422 81.103516 70.880859 81.463379 L 70.880859 80.367676 Q 71.434082 80.104492 71.968506 79.970215 Q 72.502930 79.835938 73.023926 79.835938 Q 74.200195 79.835938 74.917236 80.461670 Q 75.634277 81.087402 75.634277 82.102539 Q 75.634277 82.618164 75.395264 83.133789 Q 75.156250 83.649414 74.619141 84.272461 Q 74.318359 84.621582 73.746338 85.239258 Q 73.174316 85.856934 72.003418 87.086914 Z " fill="rgb(0, 0, 0)" fill-opacity="1.000000" />
<path d="M 102.167969 83.708496 Q 102.957520 83.917969 103.376465 84.452393 Q 103.795410 84.986816 103.795410 85.787109 Q 103.795410 86.893555 103.051514 87.524658 Q 102.307617 88.155762 100.991699 88.155762 Q 100.438477 88.155762 99.863770 88.053711 Q 99.289062 87.951660 98.735840 87.758301 L 98.735840 86.678711 Q 99.283691 86.963379 99.815430 87.103027 Q 100.347168 87.242676 100.873535 87.242676 Q 101.765137 87.242676 102.243164 86.839844 Q 102.721191 86.437012 102.721191 85.679688 Q 102.721191 84.981445 102.243164 84.570557 Q 101.765137 84.159668 100.948730 84.159668 L 100.121582 84.159668 L 100.121582 83.268066 L 100.948730 83.268066 Q 101.695312 83.268066 102.114258 82.940430 Q 102.533203 82.612793 102.533203 82.027344 Q 102.533203 81.409668 102.143799 81.079346 Q 101.754395 80.749023 101.034668 80.749023 Q 100.556641 80.749023 100.046387 80.856445 Q 99.536133 80.963867 98.977539 81.178711 L 98.977539 80.179688 Q 99.627441 80.007812 100.135010 79.921875 Q 100.642578 79.835938 101.034668 79.835938 Q 102.205566 79.835938 102.906494 80.424072 Q 103.607422 81.012207 103.607422 81.984375 Q 103.607422 82.645020 103.239502 83.085449 Q 102.871582 83.525879 102.167969 83.708496 Z " fill="rgb(0, 0, 0)" fill-opacity="1.000000" />
<path d="M 129.947754 80.969238 L 127.417969 85.207031 L 129.947754 85.207031 Z M 129.770508 79.980957 L 131.027344 79.980957 L 131.027344 85.207031 L 132.096191 85.207031 L 132.096191 86.087891 L 131.027344 86.087891 L 131.027344 88.000000 L 129.947754 88.000000 L 129.947754 86.087891 L 126.547852 86.087891 L 126.547852 85.062012 Z " fill="rgb(0, 0, 0)" fill-opacity="1.000000" />
<path d="M 155.111816 79.980957 L 159.172363 79.980957 L 159.172363 80.894043 L 156.100098 80.894043 L 156.100098 82.865234 Q 156.331055 82.779297 156.564697 82.739014 Q 156.798340 82.698730 157.034668 82.698730 Q 158.280762 82.698730 159.011230 83.434570 Q 159.741699 84.170410 159.741699 85.427246 Q 159.741699 86.694824 158.976318 87.425293 Q 158.210938 88.155762 156.884277 88.155762 Q 156.245117 88.155762 155.716064 88.069824 Q 155.187012 87.983887 154.768066 87.812012 L 154.768066 86.710938 Q 155.262207 86.979492 155.761719 87.111084 Q 156.261230 87.242676 156.782227 87.242676 Q 157.679199 87.242676 158.165283 86.770020 Q 158.651367 86.297363 158.651367 85.427246 Q 158.651367 84.567871 158.149170 84.089844 Q 157.646973 83.611816 156.750000 83.611816 Q 156.314941 83.611816 155.901367 83.711182 Q 155.487793 83.810547 155.111816 84.009277 Z " fill="rgb(0, 0, 0)" fill-opacity="1.000000" />
<path d="M 187.322754 80.158203 L 187.322754 81.157227 Q 186.984375 80.958496 186.603027 80.853760 Q 186.221680 80.749023 185.808105 80.749023 Q 184.776855 80.749023 184.245117 81.525146 Q 183.713379 82.301270 183.713379 83.810547 Q 183.971191 83.273438 184.427734 82.986084 Q 184.884277 82.698730 185.475098 82.698730 Q 186.635254 82.698730 187.271729 83.410400 Q 187.908203 84.122070 187.908203 85.427246 Q 187.908203 86.727051 187.252930 87.441406 Q 186.597656 88.155762 185.410645 88.155762 Q 184.014160 88.155762 183.364258 87.154053 Q 182.714355 86.152344 182.714355 83.998535 Q 182.714355 81.968262 183.495850 80.902100 Q 184.277344 79.835938 185.759766 79.835938 Q 186.157227 79.835938 186.554688 79.919189 Q 186.952148 80.002441 187.322754 80.158203 Z M 185.389160 83.547363 Q 184.696289 83.547363 184.298828 84.046875 Q 183.901367 84.546387 183.901367 85.427246 Q 183.901367 86.308105 184.298828 86.807617 Q 184.696289 87.307129 185.389160 87.307129 Q 186.108887 87.307129 186.474121 86.831787 Q 186.839355 86.356445 186.839355 85.427246 Q 186.839355 84.492676 186.474121 84.020020 Q 186.108887 83.547363 185.389160 83.547363 Z " fill="rgb(0, 0, 0)" fill-opacity="1.000000" />
<path d="M 210.746582 79.980957 L 215.795410 79.980957 L 215.795410 80.442871 L 212.927246 88.000000 L 211.793945 88.000000 L 214.586914 80.894043 L 210.746582 80.894043 Z " fill="rgb(0, 0, 0)" fill-opacity="1.000000" />
<path d="M 241.308594 84.191895 Q 240.583496 84.191895 240.188721 84.597412 Q 239.793945 85.002930 239.793945 85.744141 Q 239.793945 86.485352 240.194092 86.896240 Q 240.594238 87.307129 241.308594 87.307129 Q 242.039062 87.307129 242.433838 86.901611 Q 242.828613 86.496094 242.828613 85.744141 Q 242.828613 85.008301 242.428467 84.600098 Q 242.028320 84.191895 241.308594 84.191895 Z M 240.363281 83.740723 Q 239.670410 83.563477 239.281006 83.080078 Q 238.891602 82.596680 238.891602 81.914551 Q 238.891602 80.958496 239.541504 80.397217 Q 240.191406 79.835938 241.308594 79.835938 Q 242.431152 79.835938 243.081055 80.397217 Q 243.730957 80.958496 243.730957 81.914551 Q 243.730957 82.596680 243.341553 83.080078 Q 242.952148 83.563477 242.259277 83.740723 Q 243.064941 83.917969 243.491943 84.455078 Q 243.918945 84.992188 243.918945 85.846191 Q 243.918945 86.931152 243.226074 87.543457 Q 242.533203 88.155762 241.308594 88.155762 Q 240.083984 88.155762 239.393799 87.546143 Q 238.703613 86.936523 238.703613 85.856934 Q 238.703613 84.997559 239.130615 84.457764 Q 239.557617 83.917969 240.363281 83.740723 Z M 239.971191 82.016602 Q 239.971191 82.661133 240.314941 82.999512 Q 240.658691 83.337891 241.308594 83.337891 Q 241.963867 83.337891 242.307617 82.999512 Q 242.651367 82.661133 242.651367 82.016602 Q 242.651367 81.361328 242.310303 81.017578 Q 241.969238 80.673828 241.308594 80.673828 Q 240.658691 80.673828 240.314941 81.020264 Q 239.971191 81.366699 239.971191 82.016602 Z " fill="rgb(0, 0, 0)" fill-opacity="1.000000" />
<path d="M 269.201172 84.444336 Q 269.894043 84.444336 270.288818 83.944824 Q 270.683594 83.445312 270.683594 82.564453 Q 270.683594 81.683594 270.288818 81.184082 Q 269.894043 80.684570 269.201172 80.684570 Q 268.481445 80.684570 268.116211 81.159912 Q 267.750977 81.635254 267.750977 82.564453 Q 267.750977 83.499023 268.113525 83.971680 Q 268.476074 84.444336 269.201172 84.444336 Z M 267.267578 87.833496 L 267.267578 86.834473 Q 267.605957 87.033203 267.987305 87.137939 Q 268.368652 87.242676 268.782227 87.242676 Q 269.813477 87.242676 270.342529 86.466553 Q 270.871582 85.690430 270.871582 84.181152 Q 270.619141 84.718262 270.162598 85.005615 Q 269.706055 85.292969 269.115234 85.292969 Q 267.955078 85.292969 267.318604 84.578613 Q 266.682129 83.864258 266.682129 82.553711 Q 266.682129 81.259277 267.334717 80.547607 Q 267.987305 79.835938 269.179688 79.835938 Q 270.576172 79.835938 271.226074 80.840332 Q 271.875977 81.844727 271.875977 83.998535 Q 271.875977 86.023438 271.094482 87.089600 Q 270.312988 88.155762 268.825195 88.155762 Q 268.433105 88.155762 268.035645 88.072510 Q 267.638184 87.989258 267.267578 87.833496 Z " fill="rgb(0, 0, 0)" fill-opacity="1.000000" />
<path d="M 295.450195 87.092285 L 297.136719 87.092285 L 297.136719 81.033691 L 295.117188 82.005859 L 295.117188 80.963867 L 297.125977 80.007812 L 298.210938 80.007812 L 298.210938 87.092285 L 299.875977 87.092285 L 299.875977 88.000000 L 295.450195 88.000000 Z " fill="rgb(0, 0, 0)" fill-opacity="1.000000" />
<path d="M 304.308594 79.862793 Q 305.592285 79.862793 306.250244 80.910156 Q 306.908203 81.957520 306.908203 84.009277 Q 306.908203 86.061035 306.250244 87.108398 Q 305.592285 88.155762 304.308594 88.155762 Q 303.024902 88.155762 302.369629 87.108398 Q 301.714355 86.061035 301.714355 84.009277 Q 301.714355 81.957520 302.369629 80.910156 Q 303.024902 79.862793 304.308594 79.862793 Z M 304.308594 87.296387 Q 305.071289 87.296387 305.444580 86.485352 Q 305.817871 85.674316 305.817871 84.009277 Q 305.817871 83.123047 305.710449 82.408691 L 303.153809 86.410156 Q 303.556641 87.296387 304.308594 87.296387 Z M 304.308594 80.722168 Q 303.551270 80.722168 303.177979 81.533203 Q 302.804688 82.344238 302.804688 84.009277 Q 302.804688 84.766602 302.906738 85.427246 L 305.409668 81.436523 Q 305.001465 80.722168 304.308594 80.722168 Z " fill="rgb(0, 0, 0)" fill-opacity="1.000000" />
<path d="M 323.450195 87.092285 L 325.136719 87.092285 L 325.136719 81.033691 L 323.117188 82.005859 L 323.117188 80.963867 L 325.125977 80.007812 L 326.210938 80.007812 L 326.210938 87.092285 L 327.875977 87.092285 L 327.875977 88.000000 L 323.450195 88.000000 Z " fill="rgb(0, 0, 0)" fill-opacity="1.000000" />
<path d="M 330.450195 87.092285 L 332.136719 87.092285 L 332.136719 81.033691 L 330.117188 82.005859 L 330.117188 80.963867 L 332.125977 80.007812 L 333.210938 80.007812 L 333.210938 87.092285 L 334.875977 87.092285 L 334.875977 88.000000 L 330.450195 88.000000 Z " fill="rgb(0, 0, 0)" fill-opacity="1.000000" />
<path d="M 351.450195 87.092285 L 353.136719 87.092285 L 353.136719 81.033691 L 351.117188 82.005859 L 351.117188 80.963867 L 353.125977 80.007812 L 354.210938 80.007812 L 354.210938 87.092285 L 355.875977 87.092285 L 355.875977 88.000000 L 351.450195 88.000000 Z " fill="rgb(0, 0, 0)" fill-opacity="1.000000" />
<path d="M 359.003418 87.086914 L 362.687988 87.086914 L 362.687988 88.000000 L 357.816406 88.000000 L 357.816406 87.086914 Q 358.820801 86.028809 359.572754 85.217773 Q 360.324707 84.406738 360.609375 84.073730 Q 361.146484 83.418457 361.334473 83.012939 Q 361.522461 82.607422 361.522461 82.183105 Q 361.522461 81.511719 361.127686 81.130371 Q 360.732910 80.749023 360.045410 80.749023 Q 359.556641 80.749023 359.019531 80.926270 Q 358.482422 81.103516 357.880859 81.463379 L 357.880859 80.367676 Q 358.434082 80.104492 358.968506 79.970215 Q 359.502930 79.835938 360.023926 79.835938 Q 361.200195 79.835938 361.917236 80.461670 Q 362.634277 81.087402 362.634277 82.102539 Q 362.634277 82.618164 362.395264 83.133789 Q 362.156250 83.649414 361.619141 84.272461 Q 361.318359 84.621582 360.746338 85.239258 Q 360.174316 85.856934 359.003418 87.086914 Z " fill="rgb(0, 0, 0)" fill-opacity="1.000000" />
<path d="M 6.892578 71.412109 L 6.892578 70.488281 L 13.729980 70.488281 L 13.729980 71.412109 Z M 6.892578 73.259766 L 6.892578 72.335938 L 13.729980 72.335938 L 13.729980 73.259766 Z " fill="rgb(0, 0, 0)" fill-opacity="1.000000" />
<path d="M 13.892578 71.412109 L 13.892578 70.488281 L 20.729980 70.488281 L 20.729980 71.412109 Z M 13.892578 73.259766 L 13.892578 72.335938 L 20.729980 72.335938 L 20.729980 73.259766 Z " fill="rgb(0, 0, 0)" fill-opacity="1.000000" />
<path d="M 20.892578 71.412109 L 20.892578 70.488281 L 27.729980 70.488281 L 27.729980 71.412109 Z M 20.892578 73.259766 L 20.892578 72.335938 L 27.729980 72.335938 L 27.729980 73.259766 Z " fill="rgb(0, 0, 0)" fill-opacity="1.000000" />
<path d="M 27.892578 73.259766 L 27.892578 72.335938 L 34.729980 72.335938 L 34.729980 73.259766 Z M 27.892578 71.412109 L 27.892578 70.488281 L 30.019531 70.488281 L 30.019531 64.300781 L 30.878906 64.300781 L 30.878906 71.412109 Z M 31.738281 71.412109 L 31.738281 64.300781 L 32.597656 64.300781 L 32.597656 70.488281 L 34.729980 70.488281 L 34.729980 71.412109 Z " fill="rgb(0, 0, 0)" fill-opacity="1.000000" />
<path d="M 34.892578 71.412109 L 34.892578 70.488281 L 41.729980 70.488281 L 41.729980 71.412109 Z M 34.892578 73.259766 L 34.892578 72.335938 L 41.729980 72.335938 L 41.729980 73.259766 Z " fill="rgb(0, 0, 0)" fill-opacity="1.000000" />
<path d="M 41.892578 71.412109 L 41.892578 70.488281 L 48.729980 70.488281 L 48.729980 71.412109 Z M 41.892578 73.259766 L 41.892578 72.335938 L 48.729980 72.335938 L 48.729980 73.259766 Z " fill="rgb(0, 0, 0)" fill-opacity="1.000000" />
<path d="M 48.892578 71.412109 L 48.892578 70.488281 L 55.729980 70.488281 L 55.729980 71.412109 Z M 48.892578 73.259766 L 48.892578 72.335938 L 55.729980 72.335938 L 55.729980 73.259766 Z " fill="rgb(0, 0, 0)" fill-opacity="1.000000" />
<path d="M 55.892578 73.259766 L 55.892578 72.335938 L 62.729980 72.335938 L 62.729980 73.259766 Z M 55.892578 71.412109 L 55.892578 70.488281 L 58.019531 70.488281 L 58.019531 64.300781 L 58.878906 64.300781 L 58.878906 71.412109 Z M 59.738281 71.412109 L 59.738281 64.300781 L 60.597656 64.300781 L 60.597656 70.488281 L 62.729980 70.488281 L 62.729980 71.412109 Z " fill="rgb(0, 0, 0)" fill-opacity="1.000000" />
<path d="M 62.892578 71.412109 L 62.892578 70.488281 L 69.729980 70.488281 L 69.729980 71.412109 Z M 62.892578 73.259766 L 62.892578 72.335938 L 69.729980 72.335938 L 69.729980 73.259766 Z " fill="rgb(0, 0, 0)" fill-opacity="1.000000" />
<path d="M 69.892578 71.412109 L 69.892578 70.488281 L 76.729980 70.488281 L 76.729980 71.412109 Z M 69.892578 73.259766 L 69.892578 72.335938 L 76.729980 72.335938 L 76.729980 73.259766 Z " fill="rgb(0, 0, 0)" fill-opacity="1.000000" />
<path d="M 76.892578 71.412109 L 76.892578 70.488281 L 83.729980 70.488281 L 83.729980 71.412109 Z M 76.892578 73.259766 L 76.892578 72.335938 L 83.729980 72.335938 L 83.729980 73.259766 Z " fill="rgb(0, 0, 0)" fill-opacity="1.000000" />
<path d="M 83.892578 73.259766 L 83.892578 72.335938 L 90.729980 72.335938 L 90.729980 73.259766 Z M 83.892578 71.412109 L 83.892578 70.488281 L 86.019531 70.488281 L 86.019531 64.300781 L 86.878906 64.300781 L 86.878906 71.412109 Z M 87.738281 71.412109 L 87.738281 64.300781 L 88.597656 64.300781 L 88.597656 70.488281 L 90.729980 70.488281 L 90.729980 71.412109 Z " fill="rgb(0, 0, 0)" fill-opacity="1.000000" />
<path d="M 90.892578 71.412109 L 90.892578 70.488281 L 97.729980 70.488281 L 97.729980 71.412109 Z M 90.892578 73.259766 L 90.892578 72.335938 L 97.729980 72.335938 L 97.729980 73.259766 Z " fill="rgb(0, 0, 0)" fill-opacity="1.000000" />
<path d="M 97.892578 71.412109 L 97.892578 70.488281 L 104.729980 70.488281 L 104.729980 71.412109 Z M 97.892578 73.259766 L 97.892578 72.335938 L 104.729980 72.335938 L 104.729980 73.259766 Z " fill="rgb(0, 0, 0)" fill-opacity="1.000000" />
<path d="M 104.892578 71.412109 L 104.892578 70.488281 L 111.729980 70.488281 L 111.729980 71.412109 Z M 104.892578 73.259766 L 104.892578 72.335938 L 111.729980 72.335938 L 111.729980 73.259766 Z " fill="rgb(0, 0, 0)" fill-opacity="1.000000" />
<path d="M 111.892578 73.259766 L 111.892578 72.335938 L 118.729980 72.335938 L 118.729980 73.259766 Z M 111.892578 71.412109 L 111.892578 70.488281 L 114.019531 70.488281 L 114.019531 64.300781 L 114.878906 64.300781 L 114.878906 71.412109 Z M 115.738281 71.412109 L 115.738281 64.300781 L 116.597656 64.300781 L 116.597656 70.488281 L 118.729980 70.488281 L 118.729980 71.412109 Z " fill="rgb(0, 0, 0)" fill-opacity="1.000000" />
<path d="M 118.892578 71.412109 L 118.892578 70.488281 L 125.729980 70.488281 L 125.729980 71.412109 Z M 118.892578 73.259766 L 118.892578 72.335938 L 125.729980 72.335938 L 125.729980 73.259766 Z " fill="rgb(0, 0, 0)" fill-opacity="1.000000" />
<path d="M 125.892578 71.412109 L 125.892578 70.488281 L 132.729980 70.488281 L 132.729980 71.412109 Z M 125.892578 73.259766 L 125.892578 72.335938 L 132.729980 72.335938 L 132.729980 73.259766 Z " fill="rgb(0, 0, 0)" fill-opacity="1.000000" />
<path d="M 132.892578 71.412109 L 132.892578 70.488281 L 139.729980 70.488281 L 139.729980 71.412109 Z M 132.892578 73.259766 L 132.892578 72.335938 L 139.729980 72.335938 L 139.729980 73.259766 Z " fill="rgb(0, 0, 0)" fill-opacity="1.000000" />
<path d="M 139.892578 73.259766 L 139.892578 72.335938 L 146.729980 72.335938 L 146.729980 73.259766 Z M 139.892578 71.412109 L 139.892578 70.488281 L 142.019531 70.488281 L 142.019531 64.300781 L 142.878906 64.300781 L 142.878906 71.412109 Z M 143.738281 71.412109 L 143.738281 64.300781 L 144.597656 64.300781 L 144.597656 70.488281 L 146.729980 70.488281 L 146.729980 71.412109 Z " fill="rgb(0, 0, 0)" fill-opacity="1.000000" />
<path d="M 146.892578 71.412109 L 146.892578 70.488281 L 153.729980 70.488281 L 153.729980 71.412109 Z M 146.892578 73.259766 L 146.892578 72.335938 L 153.729980 72.335938 L 153.729980 73.259766 Z " fill="rgb(0, 0, 0)" fill-opacity="1.000000" />
<path d="M 153.892578 71.412109 L 153.892578 70.488281 L 160.729980 70.488281 L 160.729980 71.412109 Z M 153.892578 73.259766 L 153.892578 72.335938 L 160.729980 72.335938 L 160.729980 73.259766 Z " fill="rgb(0, 0, 0)" fill-opacity="1.000000" />
<path d="M 160.892578 71.412109 L 160.892578 70.488281 L 167.729980 70.488281 L 167.729980 71.412109 Z M 160.892578 73.259766 L 160.892578 72.335938 L 167.729980 72.335938 L 167.729980 73.259766 Z " fill="rgb(0, 0, 0)" fill-opacity="1.000000" />
<path d="M 167.892578 73.259766 L 167.892578 72.335938 L 174.729980 72.335938 L 174.729980 73.259766 Z M 167.892578 71.412109 L 167.892578 70.488281 L 170.019531 70.488281 L 170.019531 64.300781 L 170.878906 64.300781 L 170.878906 71.412109 Z M 171.738281 71.412109 L 171.738281 64.300781 L 172.597656 64.300781 L 172.597656 70.488281 L 174.729980 70.488281 L 174.729980 71.412109 Z " fill="rgb(0, 0, 0)" fill-opacity="1.000000" />
<path d="M 174.892578 71.412109 L 174.892578 70.488281 L 181.729980 70.488281 L 181.729980 71.412109 Z M 174.892578 73.259766 L 174.892578 72.335938 L 181.729980 72.335938 L 181.729980 73.259766 Z " fill="rgb(0, 0, 0)" fill-opacity="1.000000" />
<path d="M 181.892578 71.412109 L 181.892578 70.488281 L 188.729980 70.488281 L 188.729980 71.412109 Z M 181.892578 73.259766 L 181.892578 72.335938 L 188.729980 72.335938 L 188.729980 73.259766 Z " fill="rgb(0, 0, 0)" fill-opacity="1.000000" />
<path d="M 188.892578 71.412109 L 188.892578 70.488281 L 195.729980 70.488281 L 195.729980 71.412109 Z M 188.892578 73.259766 L 188.892578 72.335938 L 195.729980 72.335938 L 195.729980 73.259766 Z " fill="rgb(0, 0, 0)" fill-opacity="1.000000" />
<path d="M 195.892578 73.259766 L 195.892578 72.335938 L 202.729980 72.335938 L 202.729980 73.259766 Z M 195.892578 71.412109 L 195.892578 70.488281 L 198.019531 70.488281 L 198.019531 64.300781 L 198.878906 64.300781 L 198.878906 71.412109 Z M 199.738281 71.412109 L 199.738281 64.300781 L 200.597656 64.300781 L 200.597656 70.488281 L 202.729980 70.488281 L 202.729980 71.412109 Z " fill="rgb(0, 0, 0)" fill-opacity="1.000000" />
<path d="M 202.892578 71.412109 L 202.892578 70.488281 L 209.729980 70.488281 L 209.729980 71.412109 Z M 202.892578 73.259766 L 202.892578 72.335938 L 209.729980 72.335938 L 209.729980 73.259766 Z " fill="rgb(0, 0, 0)" fill-opacity="1.000000" />
<path d="M 209.892578 71.412109 L 209.892578 70.488281 L 216.729980 70.488281 L 216.729980 71.412109 Z M 209.892578 73.259766 L 209.892578 72.335938 L 216.729980 72.335938 L 216.729980 73.259766 Z " fill="rgb(0, 0, 0)" fill-opacity="1.000000" />
<path d="M 216.892578 71.412109 L 216.892578 70.488281 L 223.729980 70.488281 L 223.729980 71.412109 Z M 216.892578 73.259766 L 216.892578 72.335938 L 223.729980 72.335938 L 223.729980 73.259766 Z " fill="rgb(0, 0, 0)" fill-opacity="1.000000" />
<path d="M 223.892578 73.259766 L 223.892578 72.335938 L 230.729980 72.335938 L 230.729980 73.259766 Z M 223.892578 71.412109 L 223.892578 70.488281 L 226.019531 70.488281 L 226.019531 64.300781 L 226.878906 64.300781 L 226.878906 71.412109 Z M 227.738281 71.412109 L 227.738281 64.300781 L 228.597656 64.300781 L 228.597656 70.488281 L 230.729980 70.488281 L 230.729980 71.412109 Z " fill="rgb(0, 0, 0)" fill-opacity="1.000000" />
<path d="M 230.892578 71.412109 L 230.892578 70.488281 L 237.729980 70.488281 L 237.729980 71.412109 Z M 230.892578 73.259766 L 230.892578 72.335938 L 237.729980 72.335938 L 237.729980 73.259766 Z " fill="rgb(0, 0, 0)" fill-opacity="1.000000" />
<path d="M 237.892578 71.412109 L 237.892578 70.488281 L 244.729980 70.488281 L 244.729980 71.412109 Z M 237.892578 73.259766 L 237.892578 72.335938 L 244.729980 72.335938 L 244.729980 73.259766 Z " fill="rgb(0, 0, 0)" fill-opacity="1.000000" />
<path d="M 244.892578 71.412109 L 244.892578 70.488281 L 251.729980 70.488281 L 251.729980 71.412109 Z M 244.892578 73.259766 L 244.892578 72.335938 L 251.729980 72.335938 L 251.729980 73.259766 Z " fill="rgb(0, 0, 0)" fill-opacity="1.000000" />
<path d="M 251.892578 73.259766 L 251.892578 72.335938 L 258.729980 72.335938 L 258.729980 73.259766 Z M 251.892578 71.412109 L 251.892578 70.488281 L 254.019531 70.488281 L 254.019531 64.300781 L 254.878906 64.300781 L 254.878906 71.412109 Z M 255.738281 71.412109 L 255.738281 64.300781 L 256.597656 64.300781 L 256.597656 70.488281 L 258.729980 70.488281 L 258.729980 71.412109 Z " fill="rgb(0, 0, 0)" fill-opacity="1.000000" />
<path d="M 258.892578 71.412109 L 258.892578 70.488281 L 265.729980 70.488281 L 265.729980 71.412109 Z M 258.892578 73.259766 L 258.892578 72.335938 L 265.729980 72.335938 L 265.729980 73.259766 Z " fill="rgb(0, 0, 0)" fill-opacity="1.000000" />
<path d="M 265.892578 71.412109 L 265.892578 70.488281 L 272.729980 70.488281 L 272.729980 71.412109 Z M 265.892578 73.259766 L 265.892578 72.335938 L 272.729980 72.335938 L 272.729980 73.259766 Z " fill="rgb(0, 0, 0)" fill-opacity="1.000000" />
<path d="M 272.892578 71.412109 L 272.892578 70.488281 L 279.729980 70.488281 L 279.729980 71.412109 Z M 272.892578 73.259766 L 272.892578 72.335938 L 279.729980 72.335938 L 279.729980 73.259766 Z " fill="rgb(0, 0, 0)" fill-opacity="1.000000" />
<path d="M 279.892578 73.259766 L 279.892578 72.335938 L 286.729980 72.335938 L 286.729980 73.259766 Z M 279.892578 71.412109 L 279.892578 70.488281 L 282.019531 70.488281 L 282.019531 64.300781 L 282.878906 64.300781 L 282.878906 71.412109 Z M 283.738281 71.412109 L 283.738281 64.300781 L 284.597656 64.300781 L 284.597656 70.488281 L 286.729980 70.488281 L 286.729980 71.412109 Z " fill="rgb(0, 0, 0)" fill-opacity="1.000000" />
<path d="M 286.892578 71.412109 L 286.892578 70.488281 L 293.729980 70.488281 L 293.729980 71.412109 Z M 286.892578 73.259766 L 286.892578 72.335938 L 293.729980 72.335938 L 293.729980 73.259766 Z " fill="rgb(0, 0, 0)" fill-opacity="1.000000" />
<path d="M 293.892578 71.412109 L 293.892578 70.488281 L 300.729980 70.488281 L 300.729980 71.412109 Z M 293.892578 73.259766 L 293.892578 72.335938 L 300.729980 72.335938 L 300.729980 73.259766 Z " fill="rgb(0, 0, 0)" fill-opacity="1.000000" />
<path d="M 300.892578 71.412109 L 300.892578 70.488281 L 307.729980 70.488281 L 307.729980 71.412109 Z M 300.892578 73.259766 L 300.892578 72.335938 L 307.729980 72.335938 L 307.729980 73.259766 Z " fill="rgb(0, 0, 0)" fill-opacity="1.000000" />
<path d="M 307.892578 73.259766 L 307.892578 72.335938 L 314.729980 72.335938 L 314.729980 73.259766 Z M 307.892578 71.412109 L 307.892578 70.488281 L 310.019531 70.488281 L 310.019531 64.300781 L 310.878906 64.300781 L 310.878906 71.412109 Z M 311.738281 71.412109 L 311.738281 64.300781 L 312.597656 64.300781 L 312.597656 70.488281 L 314.729980 70.488281 L 314.729980 71.412109 Z " fill="rgb(0, 0, 0)" fill-opacity="1.000000" />
<path d="M 314.892578 71.412109 L 314.892578 70.488281 L 321.729980 70.488281 L 321.729980 71.412109 Z M 314.892578 73.259766 L 314.892578 72.335938 L 321.729980 72.335938 L 321.729980 73.259766 Z " fill="rgb(0, 0, 0)" fill-opacity="1.000000" />
<path d="M 321.892578 71.412109 L 321.892578 70.488281 L 328.729980 70.488281 L 328.729980 71.412109 Z M 321.892578 73.259766 L 321.892578 72.335938 L 328.729980 72.335938 L 328.729980 73.259766 Z " fill="rgb(0, 0, 0)" fill-opacity="1.000000" />
<path d="M 328.892578 71.412109 L 328.892578 70.488281 L 335.729980 70.488281 L 335.729980 71.412109 Z M 328.892578 73.259766 L 328.892578 72.335938 L 335.729980 72.335938 L 335.729980 73.259766 Z " fill="rgb(0, 0, 0)" fill-opacity="1.000000" />
<path d="M 335.892578 73.259766 L 335.892578 72.335938 L 342.729980 72.335938 L 342.729980 73.259766 Z M 335.892578 71.412109 L 335.892578 70.488281 L 338.019531 70.488281 L 338.019531 64.300781 L 338.878906 64.300781 L 338.878906 71.412109 Z M 339.738281 71.412109 L 339.738281 64.300781 L 340.597656 64.300781 L 340.597656 70.488281 L 342.729980 70.488281 L 342.729980 71.412109 Z " fill="rgb(0, 0, 0)" fill-opacity="1.000000" />
<path d="M 342.892578 71.412109 L 342.892578 70.488281 L 349.729980 70.488281 L 349.729980 71.412109 Z M 342.892578 73.259766 L 342.892578 72.335938 L 349.729980 72.335938 L 349.729980 73.259766 Z " fill="rgb(0, 0, 0)" fill-opacity="1.000000" />
<path d="M 349.892578 71.412109 L 349.892578 70.488281 L 356.729980 70.488281 L 356.729980 71.412109 Z M 349.892578 73.259766 L 349.892578 72.335938 L 356.729980 72.335938 L 356.729980 73.259766 Z " fill="rgb(0, 0, 0)" fill-opacity="1.000000" />
<path d="M 356.892578 71.412109 L 356.892578 70.488281 L 363.729980 70.488281 L 363.729980 71.412109 Z M 356.892578 73.259766 L 356.892578 72.335938 L 363.729980 72.335938 L 363.729980 73.259766 Z " fill="rgb(0, 0, 0)" fill-opacity="1.000000" />
<path d="M 363.892578 71.412109 L 363.892578 70.488281 L 366.019531 70.488281 L 366.019531 64.300781 L 366.878906 64.300781 L 366.878906 71.412109 Z M 363.892578 73.259766 L 363.892578 72.335938 L 367.738281 72.335938 L 367.738281 64.300781 L 368.597656 64.300781 L 368.597656 73.259766 Z " fill="rgb(0, 0, 0)" fill-opacity="1.000000" />
<path d="M 14.735840 40.980957 L 15.826172 40.980957 L 15.826172 44.053223 L 18.796387 44.053223 L 18.796387 40.980957 L 19.886719 40.980957 L 19.886719 49.000000 L 18.796387 49.000000 L 18.796387 44.966309 L 15.826172 44.966309 L 15.826172 49.000000 L 14.735840 49.000000 Z " fill="rgb(0, 0, 0)" fill-opacity="1.000000" />
<path d="M 30.019531 65.319336 L 30.019531 51.300781 L 30.878906 51.300781 L 30.878906 65.319336 Z M 31.738281 65.319336 L 31.738281 51.300781 L 32.597656 51.300781 L 32.597656 65.319336 Z " fill="rgb(0, 0, 0)" fill-opacity="1.000000" />
<path d="M 58.019531 65.319336 L 58.019531 51.300781 L 58.878906 51.300781 L 58.878906 65.319336 Z M 59.738281 65.319336 L 59.738281 51.300781 L 60.597656 51.300781 L 60.597656 65.319336 Z " fill="rgb(0, 0, 0)" fill-opacity="1.000000" />
<path d="M 86.019531 65.319336 L 86.019531 51.300781 L 86.878906 51.300781 L 86.878906 65.319336 Z M 87.738281 65.319336 L 87.738281 51.300781 L 88.597656 51.300781 L 88.597656 65.319336 Z " fill="rgb(0, 0, 0)" fill-opacity="1.000000" />
<path d="M 114.019531 65.319336 L 114.019531 51.300781 L 114.878906 51.300781 L 114.878906 65.319336 Z M 115.738281 65.319336 L 115.738281 51.300781 L 116.597656 51.300781 L 116.597656 65.319336 Z " fill="rgb(0, 0, 0)" fill-opacity="1.000000" />
<path d="M 142.019531 65.319336 L 142.019531 51.300781 L 142.878906 51.300781 L 142.878906 65.319336 Z M 143.738281 65.319336 L 143.738281 51.300781 L 144.597656 51.300781 L 144.597656 65.319336 Z " fill="rgb(0, 0, 0)" fill-opacity="1.000000" />
<path d="M 170.019531 65.319336 L 170.019531 51.300781 L 170.878906 51.300781 L 170.878906 65.319336 Z M 171.738281 65.319336 L 171.738281 51.300781 L 172.597656 51.300781 L 172.597656 65.319336 Z " fill="rgb(0, 0, 0)" fill-opacity="1.000000" />
<path d="M 198.019531 65.319336 L 198.019531 51.300781 L 198.878906 51.300781 L 198.878906 65.319336 Z M 199.738281 65.319336 L 199.738281 51.300781 L 200.597656 51.300781 L 200.597656 65.319336 Z " fill="rgb(0, 0, 0)" fill-opacity="1.000000" />
<path d="M 226.019531 65.319336 L 226.019531 51.300781 L 226.878906 51.300781 L 226.878906 65.319336 Z M 227.738281 65.319336 L 227.738281 51.300781 L 228.597656 51.300781 L 228.597656 65.319336 Z " fill="rgb(0, 0, 0)" fill-opacity="1.000000" />
<path d="M 254.019531 65.319336 L 254.019531 51.300781 L 254.878906 51.300781 L 254.878906 65.319336 Z M 255.738281 65.319336 L 255.738281 51.300781 L 256.597656 51.300781 L 256.597656 65.319336 Z " fill="rgb(0, 0, 0)" fill-opacity="1.000000" />
<path d="M 282.019531 65.319336 L 282.019531 51.300781 L 282.878906 51.300781 L 282.878906 65.319336 Z M 283.738281 65.319336 L 283.738281 51.300781 L 284.597656 51.300781 L 284.597656 65.319336 Z " fill="rgb(0, 0, 0)" fill-opacity="1.000000" />
<path d="M 310.019531 65.319336 L 310.019531 51.300781 L 310.878906 51.300781 L 310.878906 65.319336 Z M 311.738281 65.319336 L 311.738281 51.300781 L 312.597656 51.300781 L 312.597656 65.319336 Z " fill="rgb(0, 0, 0)" fill-opacity="1.000000" />
<path d="M 338.019531 65.319336 L 338.019531 51.300781 L 338.878906 51.300781 L 338.878906 65.319336 Z M 339.738281 65.319336 L 339.738281 51.300781 L 340.597656 51.300781 L 340.597656 65.319336 Z " fill="rgb(0, 0, 0)" fill-opacity="1.000000" />
<path d="M 366.019531 65.319336 L 366.019531 51.300781 L 366.878906 51.300781 L 366.878906 65.319336 Z M 367.738281 65.319336 L 367.738281 51.300781 L 368.597656 51.300781 L 368.597656 65.319336 Z " fill="rgb(0, 0, 0)" fill-opacity="1.000000" />
<path d="M 30.019531 52.319336 L 30.019531 38.300781 L 30.878906 38.300781 L 30.878906 52.319336 Z M 31.738281 52.319336 L 31.738281 38.300781 L 32.597656 38.300781 L 32.597656 52.319336 Z " fill="rgb(0, 0, 0)" fill-opacity="1.000000" />
<path d="M 48.015625 45.498047 L 48.015625 45.981445 L 43.734863 45.981445 L 43.734863 46.013672 Q 43.691895 47.243652 44.204834 47.780762 Q 44.717773 48.317871 45.652344 48.317871 Q 46.125000 48.317871 46.640625 48.167480 Q 47.156250 48.017090 47.741699 47.710938 L 47.741699 48.693848 Q 47.177734 48.924805 46.654053 49.040283 Q 46.130371 49.155762 45.641602 49.155762 Q 44.239746 49.155762 43.450195 48.315186 Q 42.660645 47.474609 42.660645 45.997559 Q 42.660645 44.558105 43.434082 43.698730 Q 44.207520 42.839355 45.496582 42.839355 Q 46.645996 42.839355 47.309326 43.618164 Q 47.972656 44.396973 48.015625 45.498047 Z M 47.027344 45.208008 Q 46.962891 44.584961 46.573486 44.131104 Q 46.184082 43.677246 45.453613 43.677246 Q 44.739258 43.677246 44.277344 44.149902 Q 43.815430 44.622559 43.772461 45.213379 Z " fill="rgb(0, 0, 0)" fill-opacity="1.000000" />
<path d="M 58.019531 52.319336 L 58.019531 38.300781 L 58.878906 38.300781 L 58.878906 52.319336 Z M 59.738281 52.319336 L 59.738281 38.300781 L 60.597656 38.300781 L 60.597656 52.319336 Z " fill="rgb(0, 0, 0)" fill-opacity="1.000000" />
<path d="M 73.861816 46.824707 Q 73.861816 47.490723 74.106201 47.829102 Q 74.350586 48.167480 74.828613 48.167480 L 75.983398 48.167480 L 75.983398 49.000000 L 74.731934 49.000000 Q 73.845703 49.000000 73.359619 48.433350 Q 72.873535 47.866699 72.873535 46.824707 L 72.873535 41.383789 L 71.289062 41.383789 L 71.289062 40.610352 L 73.861816 40.610352 Z " fill="rgb(0, 0, 0)" fill-opacity="1.000000" />
<path d="M 86.019531 52.319336 L 86.019531 38.300781 L 86.878906 38.300781 L 86.878906 52.319336 Z M 87.738281 52.319336 L 87.738281 38.300781 L 88.597656 38.300781 L 88.597656 52.319336 Z " fill="rgb(0, 0, 0)" fill-opacity="1.000000" />
<path d="M 101.861816 46.824707 Q 101.861816 47.490723 102.106201 47.829102 Q 102.350586 48.167480 102.828613 48.167480 L 103.983398 48.167480 L 103.983398 49.000000 L 102.731934 49.000000 Q 101.845703 49.000000 101.359619 48.433350 Q 100.873535 47.866699 100.873535 46.824707 L 100.873535 41.383789 L 99.289062 41.383789 L 99.289062 40.610352 L 101.861816 40.610352 Z " fill="rgb(0, 0, 0)" fill-opacity="1.000000" />
<path d="M 114.019531 52.319336 L 114.019531 38.300781 L 114.878906 38.300781 L 114.878906 52.319336 Z M 115.738281 52.319336 L 115.738281 38.300781 L 116.597656 38.300781 L 116.597656 52.319336 Z " fill="rgb(0, 0, 0)" fill-opacity="1.000000" />
<path d="M 129.308594 43.677246 Q 128.556641 43.677246 128.169922 44.262695 Q 127.783203 44.848145 127.783203 45.997559 Q 127.783203 47.141602 128.169922 47.729736 Q 128.556641 48.317871 129.308594 48.317871 Q 130.065918 48.317871 130.452637 47.729736 Q 130.839355 47.141602 130.839355 45.997559 Q 130.839355 44.848145 130.452637 44.262695 Q 130.065918 43.677246 129.308594 43.677246 Z M 129.308594 42.839355 Q 130.560059 42.839355 131.223389 43.650391 Q 131.886719 44.461426 131.886719 45.997559 Q 131.886719 47.539062 131.226074 48.347412 Q 130.565430 49.155762 129.308594 49.155762 Q 128.057129 49.155762 127.396484 48.347412 Q 126.735840 47.539062 126.735840 45.997559 Q 126.735840 44.461426 127.396484 43.650391 Q 128.057129 42.839355 129.308594 42.839355 Z " fill="rgb(0, 0, 0)" fill-opacity="1.000000" />
<path d="M 142.019531 52.319336 L 142.019531 38.300781 L 142.878906 38.300781 L 142.878906 52.319336 Z M 143.738281 52.319336 L 143.738281 38.300781 L 144.597656 38.300781 L 144.597656 52.319336 Z " fill="rgb(0, 0, 0)" fill-opacity="1.000000" />
<path d="M 156.374023 47.061035 L 158.049805 47.061035 L 158.049805 48.484375 L 156.857422 50.799316 L 155.783203 50.804688 L 156.374023 48.484375 Z " fill="rgb(0, 0, 0)" fill-opacity="1.000000" />
<path d="M 170.019531 52.319336 L 170.019531 38.300781 L 170.878906 38.300781 L 170.878906 52.319336 Z M 171.738281 52.319336 L 171.738281 38.300781 L 172.597656 38.300781 L 172.597656 52.319336 Z " fill="rgb(0, 0, 0)" fill-opacity="1.000000" />
<path d="M 198.019531 52.319336 L 198.019531 38.300781 L 198.878906 38.300781 L 198.878906 52.319336 Z M 199.738281 52.319336 L 199.738281 38.300781 L 200.597656 38.300781 L 200.597656 52.319336 Z " fill="rgb(0, 0, 0)" fill-opacity="1.000000" />
<path d="M 210.000000 40.980957 L 211.058105 40.980957 L 211.826172 47.490723 L 212.739258 43.183105 L 213.872559 43.183105 L 214.796387 47.501465 L 215.564453 40.980957 L 216.622559 40.980957 L 215.424805 49.000000 L 214.398926 49.000000 L 213.308594 44.235840 L 212.223633 49.000000 L 211.197754 49.000000 Z " fill="rgb(0, 0, 0)" fill-opacity="1.000000" />
<path d="M 226.019531 52.319336 L 226.019531 38.300781 L 226.878906 38.300781 L 226.878906 52.319336 Z M 227.738281 52.319336 L 227.738281 38.300781 L 228.597656 38.300781 L 228.597656 52.319336 Z " fill="rgb(0, 0, 0)" fill-opacity="1.000000" />
<path d="M 241.308594 43.677246 Q 240.556641 43.677246 240.169922 44.262695 Q 239.783203 44.848145 239.783203 45.997559 Q 239.783203 47.141602 240.169922 47.729736 Q 240.556641 48.317871 241.308594 48.317871 Q 242.065918 48.317871 242.452637 47.729736 Q 242.839355 47.141602 242.839355 45.997559 Q 242.839355 44.848145 242.452637 44.262695 Q 242.065918 43.677246 241.308594 43.677246 Z M 241.308594 42.839355 Q 242.560059 42.839355 243.223389 43.650391 Q 243.886719 44.461426 243.886719 45.997559 Q 243.886719 47.539062 243.226074 48.347412 Q 242.565430 49.155762 241.308594 49.155762 Q 240.057129 49.155762 239.396484 48.347412 Q 238.735840 47.539062 238.735840 45.997559 Q 238.735840 44.461426 239.396484 43.650391 Q 240.057129 42.839355 241.308594 42.839355 Z " fill="rgb(0, 0, 0)" fill-opacity="1.000000" />
<path d="M 254.019531 52.319336 L 254.019531 38.300781 L 254.878906 38.300781 L 254.878906 52.319336 Z M 255.738281 52.319336 L 255.738281 38.300781 L 256.597656 38.300781 L 256.597656 52.319336 Z " fill="rgb(0, 0, 0)" fill-opacity="1.000000" />
<path d="M 272.203613 44.225098 Q 271.886719 43.978027 271.559082 43.865234 Q 271.231445 43.752441 270.839355 43.752441 Q 269.915527 43.752441 269.426758 44.332520 Q 268.937988 44.912598 268.937988 46.008301 L 268.937988 49.000000 L 267.944336 49.000000 L 267.944336 42.984375 L 268.937988 42.984375 L 268.937988 44.160645 Q 269.185059 43.521484 269.697998 43.180420 Q 270.210938 42.839355 270.914551 42.839355 Q 271.279785 42.839355 271.596680 42.930664 Q 271.913574 43.021973 272.203613 43.215332 Z " fill="rgb(0, 0, 0)" fill-opacity="1.000000" />
<path d="M 282.019531 52.319336 L 282.019531 38.300781 L 282.878906 38.300781 L 282.878906 52.319336 Z M 283.738281 52.319336 L 283.738281 38.300781 L 284.597656 38.300781 L 284.597656 52.319336 Z " fill="rgb(0, 0, 0)" fill-opacity="1.000000" />
<path d="M 297.861816 46.824707 Q 297.861816 47.490723 298.106201 47.829102 Q 298.350586 48.167480 298.828613 48.167480 L 299.983398 48.167480 L 299.983398 49.000000 L 298.731934 49.000000 Q 297.845703 49.000000 297.359619 48.433350 Q 296.873535 47.866699 296.873535 46.824707 L 296.873535 41.383789 L 295.289062 41.383789 L 295.289062 40.610352 L 297.861816 40.610352 Z " fill="rgb(0, 0, 0)" fill-opacity="1.000000" />
<path d="M 310.019531 52.319336 L 310.019531 38.300781 L 310.878906 38.300781 L 310.878906 52.319336 Z M 311.738281 52.319336 L 311.738281 38.300781 L 312.597656 38.300781 L 312.597656 52.319336 Z " fill="rgb(0, 0, 0)" fill-opacity="1.000000" />
<path d="M 326.608398 43.752441 L 326.608398 40.642578 L 327.596680 40.642578 L 327.596680 49.000000 L 326.608398 49.000000 L 326.608398 48.242676 Q 326.361328 48.688477 325.950439 48.922119 Q 325.539551 49.155762 325.002441 49.155762 Q 323.912109 49.155762 323.286377 48.309814 Q 322.660645 47.463867 322.660645 45.976074 Q 322.660645 44.509766 323.289062 43.674561 Q 323.917480 42.839355 325.002441 42.839355 Q 325.544922 42.839355 325.958496 43.072998 Q 326.372070 43.306641 326.608398 43.752441 Z M 323.702637 45.997559 Q 323.702637 47.146973 324.067871 47.732422 Q 324.433105 48.317871 325.147461 48.317871 Q 325.861816 48.317871 326.235107 47.727051 Q 326.608398 47.136230 326.608398 45.997559 Q 326.608398 44.853516 326.235107 44.265381 Q 325.861816 43.677246 325.147461 43.677246 Q 324.433105 43.677246 324.067871 44.262695 Q 323.702637 44.848145 323.702637 45.997559 Z " fill="rgb(0, 0, 0)" fill-opacity="1.000000" />
<path d="M 338.019531 52.319336 L 338.019531 38.300781 L 338.878906 38.300781 L 338.878906 52.319336 Z M 339.738281 52.319336 L 339.738281 38.300781 L 340.597656 38.300781 L 340.597656 52.319336 Z " fill="rgb(0, 0, 0)" fill-opacity="1.000000" />
<path d="M 352.932617 40.980957 L 354.022949 40.980957 L 354.022949 44.499023 L 353.910156 46.147949 L 353.045410 46.147949 L 352.932617 44.499023 Z M 352.771484 47.635742 L 354.184082 47.635742 L 354.184082 49.000000 L 352.771484 49.000000 Z " fill="rgb(0, 0, 0)" fill-opacity="1.000000" />
<path d="M 366.019531 52.319336 L 366.019531 38.300781 L 366.878906 38.300781 L 366.878906 52.319336 Z M 367.738281 52.319336 L 367.738281 38.300781 L 368.597656 38.300781 L 368.597656 52.319336 Z " fill="rgb(0, 0, 0)" fill-opacity="1.000000" />
<path d="M 30.019531 39.319336 L 30.019531 25.300781 L 30.878906 25.300781 L 30.878906 39.319336 Z M 31.738281 39.319336 L 31.738281 25.300781 L 32.597656 25.300781 L 32.597656 39.319336 Z " fill="rgb(0, 0, 0)" fill-opacity="1.000000" />
<path d="M 58.019531 39.319336 L 58.019531 25.300781 L 58.878906 25.300781 L 58.878906 39.319336 Z M 59.738281 39.319336 L 59.738281 25.300781 L 60.597656 25.300781 L 60.597656 39.319336 Z " fill="rgb(0, 0, 0)" fill-opacity="1.000000" />
<path d="M 86.019531 39.319336 L 86.019531 25.300781 L 86.878906 25.300781 L 86.878906 39.319336 Z M 87.738281 39.319336 L 87.738281 25.300781 L 88.597656 25.300781 L 88.597656 39.319336 Z " fill="rgb(0, 0, 0)" fill-opacity="1.000000" />
<path d="M 114.019531 39.319336 L 114.019531 25.300781 L 114.878906 25.300781 L 114.878906 39.319336 Z M 115.738281 39.319336 L 115.738281 25.300781 L 116.597656 25.300781 L 116.597656 39.319336 Z " fill="rgb(0, 0, 0)" fill-opacity="1.000000" />
<path d="M 121.878906 33.335938 L 121.878906 25.300781 L 122.738281 25.300781 L 122.738281 32.412109 L 125.729980 32.412109 L 125.729980 33.335938 Z " fill="rgb(0, 0, 0)" fill-opacity="1.000000" />
<path d="M 125.892578 33.335938 L 125.892578 32.412109 L 132.729980 32.412109 L 132.729980 33.335938 Z " fill="rgb(0, 0, 0)" fill-opacity="1.000000" />
<path d="M 132.892578 33.335938 L 132.892578 32.412109 L 139.729980 32.412109 L 139.729980 33.335938 Z " fill="rgb(0, 0, 0)" fill-opacity="1.000000" />
<path d="M 139.892578 32.412109 L 139.892578 31.488281 L 146.729980 31.488281 L 146.729980 32.412109 Z M 142.019531 39.319336 L 142.019531 34.259766 L 139.892578 34.259766 L 139.892578 33.335938 L 142.878906 33.335938 L 142.878906 39.319336 Z M 143.738281 39.319336 L 143.738281 33.335938 L 146.729980 33.335938 L 146.729980 34.259766 L 144.597656 34.259766 L 144.597656 39.319336 Z " fill="rgb(0, 0, 0)" fill-opacity="1.000000" />
<path d="M 146.892578 33.335938 L 146.892578 32.412109 L 153.729980 32.412109 L 153.729980 33.335938 Z " fill="rgb(0, 0, 0)" fill-opacity="1.000000" />
<path d="M 153.892578 33.335938 L 153.892578 32.412109 L 160.729980 32.412109 L 160.729980 33.335938 Z " fill="rgb(0, 0, 0)" fill-opacity="1.000000" />
<path d="M 160.892578 33.335938 L 160.892578 32.412109 L 167.729980 32.412109 L 167.729980 33.335938 Z " fill="rgb(0, 0, 0)" fill-opacity="1.000000" />
<path d="M 167.892578 32.412109 L 167.892578 31.488281 L 174.729980 31.488281 L 174.729980 32.412109 Z M 170.019531 39.319336 L 170.019531 34.259766 L 167.892578 34.259766 L 167.892578 33.335938 L 170.878906 33.335938 L 170.878906 39.319336 Z M 171.738281 39.319336 L 171.738281 33.335938 L 174.729980 33.335938 L 174.729980 34.259766 L 172.597656 34.259766 L 172.597656 39.319336 Z " fill="rgb(0, 0, 0)" fill-opacity="1.000000" />
<path d="M 174.892578 33.335938 L 174.892578 32.412109 L 181.729980 32.412109 L 181.729980 33.335938 Z " fill="rgb(0, 0, 0)" fill-opacity="1.000000" />
<path d="M 181.892578 33.335938 L 181.892578 32.412109 L 188.729980 32.412109 L 188.729980 33.335938 Z " fill="rgb(0, 0, 0)" fill-opacity="1.000000" />
<path d="M 188.892578 33.335938 L 188.892578 32.412109 L 195.729980 32.412109 L 195.729980 33.335938 Z " fill="rgb(0, 0, 0)" fill-opacity="1.000000" />
<path d="M 195.892578 32.412109 L 195.892578 31.488281 L 202.729980 31.488281 L 202.729980 32.412109 Z M 198.019531 39.319336 L 198.019531 34.259766 L 195.892578 34.259766 L 195.892578 33.335938 L 198.878906 33.335938 L 198.878906 39.319336 Z M 199.738281 39.319336 L 199.738281 33.335938 L 202.729980 33.335938 L 202.729980 34.259766 L 200.597656 34.259766 L 200.597656 39.319336 Z " fill="rgb(0, 0, 0)" fill-opacity="1.000000" />
<path d="M 202.892578 33.335938 L 202.892578 32.412109 L 209.729980 32.412109 L 209.729980 33.335938 Z " fill="rgb(0, 0, 0)" fill-opacity="1.000000" />
<path d="M 209.892578 33.335938 L 209.892578 32.412109 L 216.729980 32.412109 L 216.729980 33.335938 Z " fill="rgb(0, 0, 0)" fill-opacity="1.000000" />
<path d="M 216.892578 33.335938 L 216.892578 32.412109 L 223.729980 32.412109 L 223.729980 33.335938 Z " fill="rgb(0, 0, 0)" fill-opacity="1.000000" />
<path d="M 223.892578 32.412109 L 223.892578 31.488281 L 230.729980 31.488281 L 230.729980 32.412109 Z M 226.019531 39.319336 L 226.019531 34.259766 L 223.892578 34.259766 L 223.892578 33.335938 L 226.878906 33.335938 L 226.878906 39.319336 Z M 227.738281 39.319336 L 227.738281 33.335938 L 230.729980 33.335938 L 230.729980 34.259766 L 228.597656 34.259766 L 228.597656 39.319336 Z " fill="rgb(0, 0, 0)" fill-opacity="1.000000" />
<path d="M 230.892578 33.335938 L 230.892578 32.412109 L 237.729980 32.412109 L 237.729980 33.335938 Z " fill="rgb(0, 0, 0)" fill-opacity="1.000000" />
<path d="M 237.892578 33.335938 L 237.892578 32.412109 L 240.878906 32.412109 L 240.878906 25.300781 L 241.738281 25.300781 L 241.738281 33.335938 Z " fill="rgb(0, 0, 0)" fill-opacity="1.000000" />
<path d="M 254.019531 39.319336 L 254.019531 25.300781 L 254.878906 25.300781 L 254.878906 39.319336 Z M 255.738281 39.319336 L 255.738281 25.300781 L 256.597656 25.300781 L 256.597656 39.319336 Z " fill="rgb(0, 0, 0)" fill-opacity="1.000000" />
<path d="M 282.019531 39.319336 L 282.019531 25.300781 L 282.878906 25.300781 L 282.878906 39.319336 Z M 283.738281 39.319336 L 283.738281 25.300781 L 284.597656 25.300781 L 284.597656 39.319336 Z " fill="rgb(0, 0, 0)" fill-opacity="1.000000" />
<path d="M 310.019531 39.319336 L 310.019531 25.300781 L 310.878906 25.300781 L 310.878906 39.319336 Z M 311.738281 39.319336 L 311.738281 25.300781 L 312.597656 25.300781 L 312.597656 39.319336 Z " fill="rgb(0, 0, 0)" fill-opacity="1.000000" />
<path d="M 338.019531 39.319336 L 338.019531 25.300781 L 338.878906 25.300781 L 338.878906 39.319336 Z M 339.738281 39.319336 L 339.738281 25.300781 L 340.597656 25.300781 L 340.597656 39.319336 Z " fill="rgb(0, 0, 0)" fill-opacity="1.000000" />
<path d="M 366.019531 39.319336 L 366.019531 25.300781 L 366.878906 25.300781 L 366.878906 39.319336 Z M 367.738281 39.319336 L 367.738281 25.300781 L 368.597656 25.300781 L 368.597656 39.319336 Z " fill="rgb(0, 0, 0)" fill-opacity="1.000000" />
<path d="M 6.892578 19.412109 L 6.892578 18.488281 L 13.729980 18.488281 L 13.729980 19.412109 Z M 6.892578 21.259766 L 6.892578 20.335938 L 13.729980 20.335938 L 13.729980 21.259766 Z " fill="rgb(0, 0, 0)" fill-opacity="1.000000" />
<path d="M 13.892578 19.412109 L 13.892578 18.488281 L 20.729980 18.488281 L 20.729980 19.412109 Z M 13.892578 21.259766 L 13.892578 20.335938 L 20.729980 20.335938 L 20.729980 21.259766 Z " fill="rgb(0, 0, 0)" fill-opacity="1.000000" />
<path d="M 20.892578 19.412109 L 20.892578 18.488281 L 27.729980 18.488281 L 27.729980 19.412109 Z M 20.892578 21.259766 L 20.892578 20.335938 L 27.729980 20.335938 L 27.729980 21.259766 Z " fill="rgb(0, 0, 0)" fill-opacity="1.000000" />
<path d="M 27.892578 19.412109 L 27.892578 18.488281 L 34.729980 18.488281 L 34.729980 19.412109 Z M 30.019531 26.319336 L 30.019531 21.259766 L 27.892578 21.259766 L 27.892578 20.335938 L 30.878906 20.335938 L 30.878906 26.319336 Z M 31.738281 26.319336 L 31.738281 20.335938 L 34.729980 20.335938 L 34.729980 21.259766 L 32.597656 21.259766 L 32.597656 26.319336 Z " fill="rgb(0, 0, 0)" fill-opacity="1.000000" />
<path d="M 34.892578 19.412109 L 34.892578 18.488281 L 41.729980 18.488281 L 41.729980 19.412109 Z M 34.892578 21.259766 L 34.892578 20.335938 L 41.729980 20.335938 L 41.729980 21.259766 Z " fill="rgb(0, 0, 0)" fill-opacity="1.000000" />
<path d="M 41.892578 19.412109 L 41.892578 18.488281 L 48.729980 18.488281 L 48.729980 19.412109 Z M 41.892578 21.259766 L 41.892578 20.335938 L 48.729980 20.335938 L 48.729980 21.259766 Z " fill="rgb(0, 0, 0)" fill-opacity="1.000000" />
<path d="M 48.892578 19.412109 L 48.892578 18.488281 L 55.729980 18.488281 L 55.729980 19.412109 Z M 48.892578 21.259766 L 48.892578 20.335938 L 55.729980 20.335938 L 55.729980 21.259766 Z " fill="rgb(0, 0, 0)" fill-opacity="1.000000" />
<path d="M 55.892578 19.412109 L 55.892578 18.488281 L 62.729980 18.488281 L 62.729980 19.412109 Z M 58.019531 26.319336 L 58.019531 21.259766 L 55.892578 21.259766 L 55.892578 20.335938 L 58.878906 20.335938 L 58.878906 26.319336 Z M 59.738281 26.319336 L 59.738281 20.335938 L 62.729980 20.335938 L 62.729980 21.259766 L 60.597656 21.259766 L 60.597656 26.319336 Z " fill="rgb(0, 0, 0)" fill-opacity="1.000000" />
<path d="M 62.892578 19.412109 L 62.892578 18.488281 L 69.729980 18.488281 L 69.729980 19.412109 Z M 62.892578 21.259766 L 62.892578 20.335938 L 69.729980 20.335938 L 69.729980 21.259766 Z " fill="rgb(0, 0, 0)" fill-opacity="1.000000" />
<path d="M 69.892578 19.412109 L 69.892578 18.488281 L 76.729980 18.488281 L 76.729980 19.412109 Z M 69.892578 21.259766 L 69.892578 20.335938 L 76.729980 20.335938 L 76.729980 21.259766 Z " fill="rgb(0, 0, 0)" fill-opacity="1.000000" />
<path d="M 76.892578 19.412109 L 76.892578 18.488281 L 83.729980 18.488281 L 83.729980 19.412109 Z M 76.892578 21.259766 L 76.892578 20.335938 L 83.729980 20.335938 L 83.729980 21.259766 Z " fill="rgb(0, 0, 0)" fill-opacity="1.000000" />
<path d="M 83.892578 19.412109 L 83.892578 18.488281 L 90.729980 18.488281 L 90.729980 19.412109 Z M 86.019531 26.319336 L 86.019531 21.259766 L 83.892578 21.259766 L 83.892578 20.335938 L 86.878906 20.335938 L 86.878906 26.319336 Z M 87.738281 26.319336 L 87.738281 20.335938 L 90.729980 20.335938 L 90.729980 21.259766 L 88.597656 21.259766 L 88.597656 26.319336 Z " fill="rgb(0, 0, 0)" fill-opacity="1.000000" />
<path d="M 90.892578 19.412109 L 90.892578 18.488281 L 97.729980 18.488281 L 97.729980 19.412109 Z M 90.892578 21.259766 L 90.892578 20.335938 L 97.729980 20.335938 L 97.729980 21.259766 Z " fill="rgb(0, 0, 0)" fill-opacity="1.000000" />
<path d="M 97.892578 19.412109 L 97.892578 18.488281 L 104.729980 18.488281 L 104.729980 19.412109 Z M 97.892578 21.259766 L 97.892578 20.335938 L 104.729980 20.335938 L 104.729980 21.259766 Z " fill="rgb(0, 0, 0)" fill-opacity="1.000000" />
<path d="M 104.892578 19.412109 L 104.892578 18.488281 L 111.729980 18.488281 L 111.729980 19.412109 Z M 104.892578 21.259766 L 104.892578 20.335938 L 111.729980 20.335938 L 111.729980 21.259766 Z " fill="rgb(0, 0, 0)" fill-opacity="1.000000" />
<path d="M 111.892578 19.412109 L 111.892578 18.488281 L 118.729980 18.488281 L 118.729980 19.412109 Z M 114.019531 26.319336 L 114.019531 21.259766 L 111.892578 21.259766 L 111.892578 20.335938 L 114.878906 20.335938 L 114.878906 26.319336 Z M 115.738281 26.319336 L 115.738281 20.335938 L 118.729980 20.335938 L 118.729980 21.259766 L 116.597656 21.259766 L 116.597656 26.319336 Z " fill="rgb(0, 0, 0)" fill-opacity="1.000000" />
<path d="M 118.892578 19.412109 L 118.892578 18.488281 L 121.019531 18.488281 L 121.019531 12.300781 L 121.878906 12.300781 L 121.878906 19.412109 Z M 121.019531 26.319336 L 121.019531 21.259766 L 118.892578 21.259766 L 118.892578 20.335938 L 121.878906 20.335938 L 121.878906 26.319336 Z M 122.738281 26.319336 L 122.738281 12.300781 L 123.597656 12.300781 L 123.597656 26.319336 Z " fill="rgb(0, 0, 0)" fill-opacity="1.000000" />
<path d="M 161.193359 15.007812 L 162.643555 15.007812 L 164.029297 19.079102 L 165.425781 15.007812 L 166.881348 15.007812 L 166.881348 23.000000 L 165.876953 23.000000 L 165.876953 15.937012 L 164.448242 20.147949 L 163.626465 20.147949 L 162.192383 15.937012 L 162.192383 23.000000 L 161.193359 23.000000 Z " fill="rgb(0, 0, 0)" fill-opacity="1.000000" />
<path d="M 174.015625 19.498047 L 174.015625 19.981445 L 169.734863 19.981445 L 169.734863 20.013672 Q 169.691895 21.243652 170.204834 21.780762 Q 170.717773 22.317871 171.652344 22.317871 Q 172.125000 22.317871 172.640625 22.167480 Q 173.156250 22.017090 173.741699 21.710938 L 173.741699 22.693848 Q 173.177734 22.924805 172.654053 23.040283 Q 172.130371 23.155762 171.641602 23.155762 Q 170.239746 23.155762 169.450195 22.315186 Q 168.660645 21.474609 168.660645 19.997559 Q 168.660645 18.558105 169.434082 17.698730 Q 170.207520 16.839355 171.496582 16.839355 Q 172.645996 16.839355 173.309326 17.618164 Q 173.972656 18.396973 174.015625 19.498047 Z M 173.027344 19.208008 Q 172.962891 18.584961 172.573486 18.131104 Q 172.184082 17.677246 171.453613 17.677246 Q 170.739258 17.677246 170.277344 18.149902 Q 169.815430 18.622559 169.772461 19.213379 Z " fill="rgb(0, 0, 0)" fill-opacity="1.000000" />
<path d="M 178.630859 17.596680 Q 178.813477 17.209961 179.095459 17.024658 Q 179.377441 16.839355 179.774902 16.839355 Q 180.500000 16.839355 180.798096 17.400635 Q 181.096191 17.961914 181.096191 19.514160 L 181.096191 23.000000 L 180.193848 23.000000 L 180.193848 19.557129 Q 180.193848 18.284180 180.051514 17.975342 Q 179.909180 17.666504 179.533203 17.666504 Q 179.103516 17.666504 178.945068 17.996826 Q 178.786621 18.327148 178.786621 19.557129 L 178.786621 23.000000 L 177.884277 23.000000 L 177.884277 19.557129 Q 177.884277 18.268066 177.731201 17.967285 Q 177.578125 17.666504 177.180664 17.666504 Q 176.788574 17.666504 176.635498 17.996826 Q 176.482422 18.327148 176.482422 19.557129 L 176.482422 23.000000 L 175.585449 23.000000 L 175.585449 16.984375 L 176.482422 16.984375 L 176.482422 17.500000 Q 176.659668 17.177734 176.925537 17.008545 Q 177.191406 16.839355 177.529785 16.839355 Q 177.937988 16.839355 178.209229 17.027344 Q 178.480469 17.215332 178.630859 17.596680 Z " fill="rgb(0, 0, 0)" fill-opacity="1.000000" />
<path d="M 185.308594 17.677246 Q 184.556641 17.677246 184.169922 18.262695 Q 183.783203 18.848145 183.783203 19.997559 Q 183.783203 21.141602 184.169922 21.729736 Q 184.556641 22.317871 185.308594 22.317871 Q 186.065918 22.317871 186.452637 21.729736 Q 186.839355 21.141602 186.839355 19.997559 Q 186.839355 18.848145 186.452637 18.262695 Q 186.065918 17.677246 185.308594 17.677246 Z M 185.308594 16.839355 Q 186.560059 16.839355 187.223389 17.650391 Q 187.886719 18.461426 187.886719 19.997559 Q 187.886719 21.539062 187.226074 22.347412 Q 186.565430 23.155762 185.308594 23.155762 Q 184.057129 23.155762 183.396484 22.347412 Q 182.735840 21.539062 182.735840 19.997559 Q 182.735840 18.461426 183.396484 17.650391 Q 184.057129 16.839355 185.308594 16.839355 Z " fill="rgb(0, 0, 0)" fill-opacity="1.000000" />
<path d="M 195.203613 18.225098 Q 194.886719 17.978027 194.559082 17.865234 Q 194.231445 17.752441 193.839355 17.752441 Q 192.915527 17.752441 192.426758 18.332520 Q 191.937988 18.912598 191.937988 20.008301 L 191.937988 23.000000 L 190.944336 23.000000 L 190.944336 16.984375 L 191.937988 16.984375 L 191.937988 18.160645 Q 192.185059 17.521484 192.697998 17.180420 Q 193.210938 16.839355 193.914551 16.839355 Q 194.279785 16.839355 194.596680 16.930664 Q 194.913574 17.021973 195.203613 17.215332 Z " fill="rgb(0, 0, 0)" fill-opacity="1.000000" />
<path d="M 200.608398 21.066406 Q 200.361328 21.694824 199.979980 22.720703 Q 199.448242 24.138672 199.265625 24.450195 Q 199.018555 24.869141 198.647949 25.078613 Q 198.277344 25.288086 197.783203 25.288086 L 196.988281 25.288086 L 196.988281 24.460938 L 197.573730 24.460938 Q 198.008789 24.460938 198.255859 24.208496 Q 198.502930 23.956055 198.884277 22.903320 L 196.558594 16.984375 L 197.605957 16.984375 L 199.389160 21.689453 L 201.145508 16.984375 L 202.192871 16.984375 Z " fill="rgb(0, 0, 0)" fill-opacity="1.000000" />
<path d="M 241.738281 19.412109 L 241.738281 12.300781 L 242.597656 12.300781 L 242.597656 18.488281 L 244.729980 18.488281 L 244.729980 19.412109 Z M 240.019531 26.319336 L 240.019531 12.300781 L 240.878906 12.300781 L 240.878906 26.319336 Z M 241.738281 26.319336 L 241.738281 20.335938 L 244.729980 20.335938 L 244.729980 21.259766 L 242.597656 21.259766 L 242.597656 26.319336 Z " fill="rgb(0, 0, 0)" fill-opacity="1.000000" />
<path d="M 244.892578 19.412109 L 244.892578 18.488281 L 251.729980 18.488281 L 251.729980 19.412109 Z M 244.892578 21.259766 L 244.892578 20.335938 L 251.729980 20.335938 L 251.729980 21.259766 Z " fill="rgb(0, 0, 0)" fill-opacity="1.000000" />
<path d="M 251.892578 19.412109 L 251.892578 18.488281 L 258.729980 18.488281 L 258.729980 19.412109 Z M 254.019531 26.319336 L 254.019531 21.259766 L 251.892578 21.259766 L 251.892578 20.335938 L 254.878906 20.335938 L 254.878906 26.319336 Z M 255.738281 26.319336 L 255.738281 20.335938 L 258.729980 20.335938 L 258.729980 21.259766 L 256.597656 21.259766 L 256.597656 26.319336 Z " fill="rgb(0, 0, 0)" fill-opacity="1.000000" />
<path d="M 258.892578 19.412109 L 258.892578 18.488281 L 265.729980 18.488281 L 265.729980 19.412109 Z M 258.892578 21.259766 L 258.892578 20.335938 L 265.729980 20.335938 L 265.729980 21.259766 Z " fill="rgb(0, 0, 0)" fill-opacity="1.000000" />
<path d="M 265.892578 19.412109 L 265.892578 18.488281 L 272.729980 18.488281 L 272.729980 19.412109 Z M 265.892578 21.259766 L 265.892578 20.335938 L 272.729980 20.335938 L 272.729980 21.259766 Z " fill="rgb(0, 0, 0)" fill-opacity="1.000000" />
<path d="M 272.892578 19.412109 L 272.892578 18.488281 L 279.729980 18.488281 L 279.729980 19.412109 Z M 272.892578 21.259766 L 272.892578 20.335938 L 279.729980 20.335938 L 279.729980 21.259766 Z " fill="rgb(0, 0, 0)" fill-opacity="1.000000" />
<path d="M 279.892578 19.412109 L 279.892578 18.488281 L 286.729980 18.488281 L 286.729980 19.412109 Z M 282.019531 26.319336 L 282.019531 21.259766 L 279.892578 21.259766 L 279.892578 20.335938 L 282.878906 20.335938 L 282.878906 26.319336 Z M 283.738281 26.319336 L 283.738281 20.335938 L 286.729980 20.335938 L 286.729980 21.259766 L 284.597656 21.259766 L 284.597656 26.319336 Z " fill="rgb(0, 0, 0)" fill-opacity="1.000000" />
<path d="M 286.892578 19.412109 L 286.892578 18.488281 L 293.729980 18.488281 L 293.729980 19.412109 Z M 286.892578 21.259766 L 286.892578 20.335938 L 293.729980 20.335938 L 293.729980 21.259766 Z " fill="rgb(0, 0, 0)" fill-opacity="1.000000" />
<path d="M 293.892578 19.412109 L 293.892578 18.488281 L 300.729980 18.488281 L 300.729980 19.412109 Z M 293.892578 21.259766 L 293.892578 20.335938 L 300.729980 20.335938 L 300.729980 21.259766 Z " fill="rgb(0, 0, 0)" fill-opacity="1.000000" />
<path d="M 300.892578 19.412109 L 300.892578 18.488281 L 307.729980 18.488281 L 307.729980 19.412109 Z M 300.892578 21.259766 L 300.892578 20.335938 L 307.729980 20.335938 L 307.729980 21.259766 Z " fill="rgb(0, 0, 0)" fill-opacity="1.000000" />
<path d="M 307.892578 19.412109 L 307.892578 18.488281 L 314.729980 18.488281 L 314.729980 19.412109 Z M 310.019531 26.319336 L 310.019531 21.259766 L 307.892578 21.259766 L 307.892578 20.335938 L 310.878906 20.335938 L 310.878906 26.319336 Z M 311.738281 26.319336 L 311.738281 20.335938 L 314.729980 20.335938 L 314.729980 21.259766 L 312.597656 21.259766 L 312.597656 26.319336 Z " fill="rgb(0, 0, 0)" fill-opacity="1.000000" />
<path d="M 314.892578 19.412109 L 314.892578 18.488281 L 321.729980 18.488281 L 321.729980 19.412109 Z M 314.892578 21.259766 L 314.892578 20.335938 L 321.729980 20.335938 L 321.729980 21.259766 Z " fill="rgb(0, 0, 0)" fill-opacity="1.000000" />
<path d="M 321.892578 19.412109 L 321.892578 18.488281 L 328.729980 18.488281 L 328.729980 19.412109 Z M 321.892578 21.259766 L 321.892578 20.335938 L 328.729980 20.335938 L 328.729980 21.259766 Z " fill="rgb(0, 0, 0)" fill-opacity="1.000000" />
<path d="M 328.892578 19.412109 L 328.892578 18.488281 L 335.729980 18.488281 L 335.729980 19.412109 Z M 328.892578 21.259766 L 328.892578 20.335938 L 335.729980 20.335938 L 335.729980 21.259766 Z " fill="rgb(0, 0, 0)" fill-opacity="1.000000" />
<path d="M 335.892578 19.412109 L 335.892578 18.488281 L 342.729980 18.488281 L 342.729980 19.412109 Z M 338.019531 26.319336 L 338.019531 21.259766 L 335.892578 21.259766 L 335.892578 20.335938 L 338.878906 20.335938 L 338.878906 26.319336 Z M 339.738281 26.319336 L 339.738281 20.335938 L 342.729980 20.335938 L 342.729980 21.259766 L 340.597656 21.259766 L 340.597656 26.319336 Z " fill="rgb(0, 0, 0)" fill-opacity="1.000000" />
<path d="M 342.892578 19.412109 L 342.892578 18.488281 L 349.729980 18.488281 L 349.729980 19.412109 Z M 342.892578 21.259766 L 342.892578 20.335938 L 349.729980 20.335938 L 349.729980 21.259766 Z " fill="rgb(0, 0, 0)" fill-opacity="1.000000" />
<path d="M 349.892578 19.412109 L 349.892578 18.488281 L 356.729980 18.488281 L 356.729980 19.412109 Z M 349.892578 21.259766 L 349.892578 20.335938 L 356.729980 20.335938 L 356.729980 21.259766 Z " fill="rgb(0, 0, 0)" fill-opacity="1.000000" />
<path d="M 356.892578 19.412109 L 356.892578 18.488281 L 363.729980 18.488281 L 363.729980 19.412109 Z M 356.892578 21.259766 L 356.892578 20.335938 L 363.729980 20.335938 L 363.729980 21.259766 Z " fill="rgb(0, 0, 0)" fill-opacity="1.000000" />
<path d="M 367.738281 26.319336 L 367.738281 19.412109 L 363.892578 19.412109 L 363.892578 18.488281 L 368.597656 18.488281 L 368.597656 26.319336 Z M 366.019531 26.319336 L 366.019531 21.259766 L 363.892578 21.259766 L 363.892578 20.335938 L 366.878906 20.335938 L 366.878906 26.319336 Z " fill="rgb(0, 0, 0)" fill-opacity="1.000000" />
<path d="M 121.878906 13.319336 L 121.878906 6.412109 L 125.729980 6.412109 L 125.729980 7.335938 L 122.738281 7.335938 L 122.738281 13.319336 Z " fill="rgb(0, 0, 0)" fill-opacity="1.000000" />
<path d="M 125.892578 7.335938 L 125.892578 6.412109 L 132.729980 6.412109 L 132.729980 7.335938 Z " fill="rgb(0, 0, 0)" fill-opacity="1.000000" />
<path d="M 132.892578 7.335938 L 132.892578 6.412109 L 139.729980 6.412109 L 139.729980 7.335938 Z " fill="rgb(0, 0, 0)" fill-opacity="1.000000" />
<path d="M 139.892578 7.335938 L 139.892578 6.412109 L 146.729980 6.412109 L 146.729980 7.335938 Z " fill="rgb(0, 0, 0)" fill-opacity="1.000000" />
<path d="M 146.892578 7.335938 L 146.892578 6.412109 L 153.729980 6.412109 L 153.729980 7.335938 Z " fill="rgb(0, 0, 0)" fill-opacity="1.000000" />
<path d="M 153.892578 7.335938 L 153.892578 6.412109 L 160.729980 6.412109 L 160.729980 7.335938 Z " fill="rgb(0, 0, 0)" fill-opacity="1.000000" />
<path d="M 160.892578 7.335938 L 160.892578 6.412109 L 167.729980 6.412109 L 167.729980 7.335938 Z " fill="rgb(0, 0, 0)" fill-opacity="1.000000" />
<path d="M 167.892578 7.335938 L 167.892578 6.412109 L 174.729980 6.412109 L 174.729980 7.335938 Z " fill="rgb(0, 0, 0)" fill-opacity="1.000000" />
<path d="M 174.892578 7.335938 L 174.892578 6.412109 L 181.729980 6.412109 L 181.729980 7.335938 Z " fill="rgb(0, 0, 0)" fill-opacity="1.000000" />
<path d="M 181.892578 7.335938 L 181.892578 6.412109 L 188.729980 6.412109 L 188.729980 7.335938 Z " fill="rgb(0, 0, 0)" fill-opacity="1.000000" />
<path d="M 188.892578 7.335938 L 188.892578 6.412109 L 195.729980 6.412109 L 195.729980 7.335938 Z " fill="rgb(0, 0, 0)" fill-opacity="1.000000" />
<path d="M 195.892578 7.335938 L 195.892578 6.412109 L 202.729980 6.412109 L 202.729980 7.335938 Z " fill="rgb(0, 0, 0)" fill-opacity="1.000000" />
<path d="M 202.892578 7.335938 L 202.892578 6.412109 L 209.729980 6.412109 L 209.729980 7.335938 Z " fill="rgb(0, 0, 0)" fill-opacity="1.000000" />
<path d="M 209.892578 7.335938 L 209.892578 6.412109 L 216.729980 6.412109 L 216.729980 7.335938 Z " fill="rgb(0, 0, 0)" fill-opacity="1.000000" />
<path d="M 216.892578 7.335938 L 216.892578 6.412109 L 223.729980 6.412109 L 223.729980 7.335938 Z " fill="rgb(0, 0, 0)" fill-opacity="1.000000" />
<path d="M 223.892578 7.335938 L 223.892578 6.412109 L 230.729980 6.412109 L 230.729980 7.335938 Z " fill="rgb(0, 0, 0)" fill-opacity="1.000000" />
<path d="M 230.892578 7.335938 L 230.892578 6.412109 L 237.729980 6.412109 L 237.729980 7.335938 Z " fill="rgb(0, 0, 0)" fill-opacity="1.000000" />
<path d="M 240.878906 13.319336 L 240.878906 7.335938 L 237.892578 7.335938 L 237.892578 6.412109 L 241.738281 6.412109 L 241.738281 13.319336 Z " fill="rgb(0, 0, 0)" fill-opacity="1.000000" />
</svg>