<svg xmlns="http://www.w3.org/2000/svg" version="1.1" width="344" height="183">
<path d="M 0.537109 81.984375 L 1.562988 81.984375 L 3.308594 87.033203 L 5.059570 81.984375 L 6.085449 81.984375 L 3.947754 88.000000 L 2.674805 88.000000 Z " fill="rgb(0, 0, 0)" fill-opacity="1.000000" />
<path d="M 87.738281 97.412109 L 87.738281 90.300781 L 88.597656 90.300781 L 88.597656 96.488281 L 90.729980 96.488281 L 90.729980 97.412109 Z M 86.019531 104.319336 L 86.019531 90.300781 L 86.878906 90.300781 L 86.878906 104.319336 Z M 87.738281 104.319336 L 87.738281 98.335938 L 90.729980 98.335938 L 90.729980 99.259766 L 88.597656 99.259766 L 88.597656 104.319336 Z " fill="rgb(0, 0, 0)" fill-opacity="1.000000" />
<path d="M 86.019531 117.319336 L 86.019531 103.300781 L 86.878906 103.300781 L 86.878906 117.319336 Z M 87.738281 117.319336 L 87.738281 103.300781 L 88.597656 103.300781 L 88.597656 117.319336 Z " fill="rgb(0, 0, 0)" fill-opacity="1.000000" />
<path d="M 87.738281 123.412109 L 87.738281 116.300781 L 88.597656 116.300781 L 88.597656 122.488281 L 90.729980 122.488281 L 90.729980 123.412109 Z M 86.019531 130.319336 L 86.019531 116.300781 L 86.878906 116.300781 L 86.878906 130.319336 Z M 87.738281 130.319336 L 87.738281 124.335938 L 90.729980 124.335938 L 90.729980 125.259766 L 88.597656 125.259766 L 88.597656 130.319336 Z " fill="rgb(0, 0, 0)" fill-opacity="1.000000" />
<path d="M 86.019531 143.319336 L 86.019531 129.300781 L 86.878906 129.300781 L 86.878906 143.319336 Z M 87.738281 143.319336 L 87.738281 129.300781 L 88.597656 129.300781 L 88.597656 143.319336 Z " fill="rgb(0, 0, 0)" fill-opacity="1.000000" />
<path d="M 87.738281 149.412109 L 87.738281 142.300781 L 88.597656 142.300781 L 88.597656 148.488281 L 90.729980 148.488281 L 90.729980 149.412109 Z M 86.019531 156.319336 L 86.019531 142.300781 L 86.878906 142.300781 L 86.878906 156.319336 Z M 87.738281 156.319336 L 87.738281 150.335938 L 90.729980 150.335938 L 90.729980 151.259766 L 88.597656 151.259766 L 88.597656 156.319336 Z " fill="rgb(0, 0, 0)" fill-opacity="1.000000" />
<path d="M 86.019531 169.319336 L 86.019531 155.300781 L 86.878906 155.300781 L 86.878906 169.319336 Z M 87.738281 169.319336 L 87.738281 155.300781 L 88.597656 155.300781 L 88.597656 169.319336 Z " fill="rgb(0, 0, 0)" fill-opacity="1.000000" />
<path d="M 87.738281 175.412109 L 87.738281 168.300781 L 88.597656 168.300781 L 88.597656 174.488281 L 90.729980 174.488281 L 90.729980 175.412109 Z M 86.019531 177.259766 L 86.019531 168.300781 L 86.878906 168.300781 L 86.878906 176.335938 L 90.729980 176.335938 L 90.729980 177.259766 Z " fill="rgb(0, 0, 0)" fill-opacity="1.000000" />
<path d="M 90.892578 175.412109 L 90.892578 174.488281 L 97.729980 174.488281 L 97.729980 175.412109 Z M 90.892578 177.259766 L 90.892578 176.335938 L 97.729980 176.335938 L 97.729980 177.259766 Z " fill="rgb(0, 0, 0)" fill-opacity="1.000000" />
<path d="M 97.892578 175.412109 L 97.892578 174.488281 L 104.729980 174.488281 L 104.729980 175.412109 Z M 97.892578 177.259766 L 97.892578 176.335938 L 104.729980 176.335938 L 104.729980 177.259766 Z " fill="rgb(0, 0, 0)" fill-opacity="1.000000" />
<path d="M 104.892578 175.412109 L 104.892578 174.488281 L 111.729980 174.488281 L 111.729980 175.412109 Z M 104.892578 177.259766 L 104.892578 176.335938 L 111.729980 176.335938 L 111.729980 177.259766 Z " fill="rgb(0, 0, 0)" fill-opacity="1.000000" />
<path d="M 111.892578 175.412109 L 111.892578 174.488281 L 118.729980 174.488281 L 118.729980 175.412109 Z M 111.892578 177.259766 L 111.892578 176.335938 L 118.729980 176.335938 L 118.729980 177.259766 Z " fill="rgb(0, 0, 0)" fill-opacity="1.000000" />
<path d="M 118.892578 175.412109 L 118.892578 174.488281 L 125.729980 174.488281 L 125.729980 175.412109 Z M 118.892578 177.259766 L 118.892578 176.335938 L 125.729980 176.335938 L 125.729980 177.259766 Z " fill="rgb(0, 0, 0)" fill-opacity="1.000000" />
<path d="M 125.892578 175.412109 L 125.892578 174.488281 L 132.729980 174.488281 L 132.729980 175.412109 Z M 125.892578 177.259766 L 125.892578 176.335938 L 132.729980 176.335938 L 132.729980 177.259766 Z " fill="rgb(0, 0, 0)" fill-opacity="1.000000" />
<path d="M 132.892578 175.412109 L 132.892578 174.488281 L 139.729980 174.488281 L 139.729980 175.412109 Z M 132.892578 177.259766 L 132.892578 176.335938 L 139.729980 176.335938 L 139.729980 177.259766 Z " fill="rgb(0, 0, 0)" fill-opacity="1.000000" />
<path d="M 139.892578 175.412109 L 139.892578 174.488281 L 146.729980 174.488281 L 146.729980 175.412109 Z M 139.892578 177.259766 L 139.892578 176.335938 L 146.729980 176.335938 L 146.729980 177.259766 Z " fill="rgb(0, 0, 0)" fill-opacity="1.000000" />
<path d="M 146.892578 175.412109 L 146.892578 174.488281 L 153.729980 174.488281 L 153.729980 175.412109 Z M 146.892578 177.259766 L 146.892578 176.335938 L 153.729980 176.335938 L 153.729980 177.259766 Z " fill="rgb(0, 0, 0)" fill-opacity="1.000000" />
<path d="M 153.892578 175.412109 L 153.892578 174.488281 L 160.729980 174.488281 L 160.729980 175.412109 Z M 153.892578 177.259766 L 153.892578 176.335938 L 160.729980 176.335938 L 160.729980 177.259766 Z " fill="rgb(0, 0, 0)" fill-opacity="1.000000" />
<path d="M 160.892578 175.412109 L 160.892578 174.488281 L 167.729980 174.488281 L 167.729980 175.412109 Z M 160.892578 177.259766 L 160.892578 176.335938 L 167.729980 176.335938 L 167.729980 177.259766 Z " fill="rgb(0, 0, 0)" fill-opacity="1.000000" />
<path d="M 167.892578 175.412109 L 167.892578 174.488281 L 174.729980 174.488281 L 174.729980 175.412109 Z M 167.892578 177.259766 L 167.892578 176.335938 L 174.729980 176.335938 L 174.729980 177.259766 Z " fill="rgb(0, 0, 0)" fill-opacity="1.000000" />
<path d="M 174.892578 175.412109 L 174.892578 174.488281 L 181.729980 174.488281 L 181.729980 175.412109 Z M 174.892578 177.259766 L 174.892578 176.335938 L 181.729980 176.335938 L 181.729980 177.259766 Z " fill="rgb(0, 0, 0)" fill-opacity="1.000000" />
<path d="M 181.892578 175.412109 L 181.892578 174.488281 L 188.729980 174.488281 L 188.729980 175.412109 Z M 181.892578 177.259766 L 181.892578 176.335938 L 188.729980 176.335938 L 188.729980 177.259766 Z " fill="rgb(0, 0, 0)" fill-opacity="1.000000" />
<path d="M 188.892578 175.412109 L 188.892578 174.488281 L 191.019531 174.488281 L 191.019531 168.300781 L 191.878906 168.300781 L 191.878906 175.412109 Z M 188.892578 177.259766 L 188.892578 176.335938 L 192.738281 176.335938 L 192.738281 168.300781 L 193.597656 168.300781 L 193.597656 177.259766 Z " fill="rgb(0, 0, 0)" fill-opacity="1.000000" />
<path d="M 113.251465 157.980957 L 117.972656 157.980957 L 117.972656 158.894043 L 114.341797 158.894043 L 114.341797 161.042480 L 117.634277 161.042480 L 117.634277 161.955566 L 114.341797 161.955566 L 114.341797 166.000000 L 113.251465 166.000000 Z " fill="rgb(0, 0, 0)" fill-opacity="1.000000" />
<path d="M 120.047363 163.722656 L 120.047363 159.995117 L 121.035645 159.995117 L 121.035645 163.722656 Q 121.035645 164.533691 121.322998 164.915039 Q 121.610352 165.296387 122.211914 165.296387 Q 122.910156 165.296387 123.280762 164.804932 Q 123.651367 164.313477 123.651367 163.395020 L 123.651367 159.995117 L 124.645020 159.995117 L 124.645020 166.000000 L 123.651367 166.000000 L 123.651367 165.097656 Q 123.388184 165.618652 122.934326 165.887207 Q 122.480469 166.155762 121.873535 166.155762 Q 120.949707 166.155762 120.498535 165.551514 Q 120.047363 164.947266 120.047363 163.722656 Z " fill="rgb(0, 0, 0)" fill-opacity="1.000000" />
<path d="M 131.645020 162.272461 L 131.645020 166.000000 L 130.651367 166.000000 L 130.651367 162.272461 Q 130.651367 161.461426 130.366699 161.080078 Q 130.082031 160.698730 129.475098 160.698730 Q 128.782227 160.698730 128.408936 161.190186 Q 128.035645 161.681641 128.035645 162.600098 L 128.035645 166.000000 L 127.047363 166.000000 L 127.047363 159.984375 L 128.035645 159.984375 L 128.035645 160.886719 Q 128.298828 160.371094 128.750000 160.105225 Q 129.201172 159.839355 129.818848 159.839355 Q 130.737305 159.839355 131.191162 160.443604 Q 131.645020 161.047852 131.645020 162.272461 Z " fill="rgb(0, 0, 0)" fill-opacity="1.000000" />
<path d="M 138.698730 165.693848 Q 138.301270 165.924805 137.879639 166.040283 Q 137.458008 166.155762 137.017578 166.155762 Q 135.621094 166.155762 134.834229 165.317871 Q 134.047363 164.479980 134.047363 162.997559 Q 134.047363 161.515137 134.834229 160.677246 Q 135.621094 159.839355 137.017578 159.839355 Q 137.452637 159.839355 137.866211 159.952148 Q 138.279785 160.064941 138.698730 160.301270 L 138.698730 161.337891 Q 138.306641 160.988770 137.911865 160.833008 Q 137.517090 160.677246 137.017578 160.677246 Q 136.088379 160.677246 135.588867 161.278809 Q 135.089355 161.880371 135.089355 162.997559 Q 135.089355 164.109375 135.591553 164.713623 Q 136.093750 165.317871 137.017578 165.317871 Q 137.533203 165.317871 137.941406 165.159424 Q 138.349609 165.000977 138.698730 164.667969 Z " fill="rgb(0, 0, 0)" fill-opacity="1.000000" />
<path d="M 143.297852 158.276367 L 143.297852 159.984375 L 145.542969 159.984375 L 145.542969 160.752441 L 143.297852 160.752441 L 143.297852 164.018066 Q 143.297852 164.684082 143.550293 164.947266 Q 143.802734 165.210449 144.431152 165.210449 L 145.542969 165.210449 L 145.542969 166.000000 L 144.334473 166.000000 Q 143.222656 166.000000 142.766113 165.554199 Q 142.309570 165.108398 142.309570 164.018066 L 142.309570 160.752441 L 140.703613 160.752441 L 140.703613 159.984375 L 142.309570 159.984375 L 142.309570 158.276367 Z " fill="rgb(0, 0, 0)" fill-opacity="1.000000" />
<path d="M 148.697266 160.005859 L 151.227051 160.005859 L 151.227051 165.231934 L 153.187500 165.231934 L 153.187500 166.000000 L 148.278320 166.000000 L 148.278320 165.231934 L 150.238770 165.231934 L 150.238770 160.773926 L 148.697266 160.773926 Z M 150.238770 157.669434 L 151.227051 157.669434 L 151.227051 158.915527 L 150.238770 158.915527 Z " fill="rgb(0, 0, 0)" fill-opacity="1.000000" />
<path d="M 157.308594 160.677246 Q 156.556641 160.677246 156.169922 161.262695 Q 155.783203 161.848145 155.783203 162.997559 Q 155.783203 164.141602 156.169922 164.729736 Q 156.556641 165.317871 157.308594 165.317871 Q 158.065918 165.317871 158.452637 164.729736 Q 158.839355 164.141602 158.839355 162.997559 Q 158.839355 161.848145 158.452637 161.262695 Q 158.065918 160.677246 157.308594 160.677246 Z M 157.308594 159.839355 Q 158.560059 159.839355 159.223389 160.650391 Q 159.886719 161.461426 159.886719 162.997559 Q 159.886719 164.539062 159.226074 165.347412 Q 158.565430 166.155762 157.308594 166.155762 Q 156.057129 166.155762 155.396484 165.347412 Q 154.735840 164.539062 154.735840 162.997559 Q 154.735840 161.461426 155.396484 160.650391 Q 156.057129 159.839355 157.308594 159.839355 Z " fill="rgb(0, 0, 0)" fill-opacity="1.000000" />
<path d="M 166.645020 162.272461 L 166.645020 166.000000 L 165.651367 166.000000 L 165.651367 162.272461 Q 165.651367 161.461426 165.366699 161.080078 Q 165.082031 160.698730 164.475098 160.698730 Q 163.782227 160.698730 163.408936 161.190186 Q 163.035645 161.681641 163.035645 162.600098 L 163.035645 166.000000 L 162.047363 166.000000 L 162.047363 159.984375 L 163.035645 159.984375 L 163.035645 160.886719 Q 163.298828 160.371094 163.750000 160.105225 Q 164.201172 159.839355 164.818848 159.839355 Q 165.737305 159.839355 166.191162 160.443604 Q 166.645020 161.047852 166.645020 162.272461 Z " fill="rgb(0, 0, 0)" fill-opacity="1.000000" />
<path d="M 191.019531 169.319336 L 191.019531 155.300781 L 191.878906 155.300781 L 191.878906 169.319336 Z M 192.738281 169.319336 L 192.738281 155.300781 L 193.597656 155.300781 L 193.597656 169.319336 Z " fill="rgb(0, 0, 0)" fill-opacity="1.000000" />
<path d="M 90.892578 149.412109 L 90.892578 148.488281 L 97.729980 148.488281 L 97.729980 149.412109 Z M 90.892578 151.259766 L 90.892578 150.335938 L 97.729980 150.335938 L 97.729980 151.259766 Z " fill="rgb(0, 0, 0)" fill-opacity="1.000000" />
<path d="M 97.892578 149.412109 L 97.892578 148.488281 L 104.729980 148.488281 L 104.729980 149.412109 Z M 97.892578 151.259766 L 97.892578 150.335938 L 104.729980 150.335938 L 104.729980 151.259766 Z " fill="rgb(0, 0, 0)" fill-opacity="1.000000" />
<path d="M 104.892578 149.412109 L 104.892578 148.488281 L 111.729980 148.488281 L 111.729980 149.412109 Z M 104.892578 151.259766 L 104.892578 150.335938 L 111.729980 150.335938 L 111.729980 151.259766 Z " fill="rgb(0, 0, 0)" fill-opacity="1.000000" />
<path d="M 111.892578 149.412109 L 111.892578 148.488281 L 118.729980 148.488281 L 118.729980 149.412109 Z M 111.892578 151.259766 L 111.892578 150.335938 L 118.729980 150.335938 L 118.729980 151.259766 Z " fill="rgb(0, 0, 0)" fill-opacity="1.000000" />
<path d="M 118.892578 149.412109 L 118.892578 148.488281 L 125.729980 148.488281 L 125.729980 149.412109 Z M 118.892578 151.259766 L 118.892578 150.335938 L 125.729980 150.335938 L 125.729980 151.259766 Z " fill="rgb(0, 0, 0)" fill-opacity="1.000000" />
<path d="M 125.892578 149.412109 L 125.892578 148.488281 L 132.729980 148.488281 L 132.729980 149.412109 Z M 125.892578 151.259766 L 125.892578 150.335938 L 132.729980 150.335938 L 132.729980 151.259766 Z " fill="rgb(0, 0, 0)" fill-opacity="1.000000" />
<path d="M 132.892578 149.412109 L 132.892578 148.488281 L 139.729980 148.488281 L 139.729980 149.412109 Z M 132.892578 151.259766 L 132.892578 150.335938 L 139.729980 150.335938 L 139.729980 151.259766 Z " fill="rgb(0, 0, 0)" fill-opacity="1.000000" />
<path d="M 139.892578 149.412109 L 139.892578 148.488281 L 146.729980 148.488281 L 146.729980 149.412109 Z M 139.892578 151.259766 L 139.892578 150.335938 L 146.729980 150.335938 L 146.729980 151.259766 Z " fill="rgb(0, 0, 0)" fill-opacity="1.000000" />
<path d="M 146.892578 149.412109 L 146.892578 148.488281 L 153.729980 148.488281 L 153.729980 149.412109 Z M 146.892578 151.259766 L 146.892578 150.335938 L 153.729980 150.335938 L 153.729980 151.259766 Z " fill="rgb(0, 0, 0)" fill-opacity="1.000000" />
<path d="M 153.892578 149.412109 L 153.892578 148.488281 L 160.729980 148.488281 L 160.729980 149.412109 Z M 153.892578 151.259766 L 153.892578 150.335938 L 160.729980 150.335938 L 160.729980 151.259766 Z " fill="rgb(0, 0, 0)" fill-opacity="1.000000" />
<path d="M 160.892578 149.412109 L 160.892578 148.488281 L 167.729980 148.488281 L 167.729980 149.412109 Z M 160.892578 151.259766 L 160.892578 150.335938 L 167.729980 150.335938 L 167.729980 151.259766 Z " fill="rgb(0, 0, 0)" fill-opacity="1.000000" />
<path d="M 167.892578 149.412109 L 167.892578 148.488281 L 174.729980 148.488281 L 174.729980 149.412109 Z M 167.892578 151.259766 L 167.892578 150.335938 L 174.729980 150.335938 L 174.729980 151.259766 Z " fill="rgb(0, 0, 0)" fill-opacity="1.000000" />
<path d="M 174.892578 149.412109 L 174.892578 148.488281 L 181.729980 148.488281 L 181.729980 149.412109 Z M 174.892578 151.259766 L 174.892578 150.335938 L 181.729980 150.335938 L 181.729980 151.259766 Z " fill="rgb(0, 0, 0)" fill-opacity="1.000000" />
<path d="M 181.892578 149.412109 L 181.892578 148.488281 L 188.729980 148.488281 L 188.729980 149.412109 Z M 181.892578 151.259766 L 181.892578 150.335938 L 188.729980 150.335938 L 188.729980 151.259766 Z " fill="rgb(0, 0, 0)" fill-opacity="1.000000" />
<path d="M 188.892578 149.412109 L 188.892578 148.488281 L 191.019531 148.488281 L 191.019531 142.300781 L 191.878906 142.300781 L 191.878906 149.412109 Z M 191.019531 156.319336 L 191.019531 151.259766 L 188.892578 151.259766 L 188.892578 150.335938 L 191.878906 150.335938 L 191.878906 156.319336 Z M 192.738281 156.319336 L 192.738281 142.300781 L 193.597656 142.300781 L 193.597656 156.319336 Z " fill="rgb(0, 0, 0)" fill-opacity="1.000000" />
<path d="M 122.308594 132.937012 L 121.164551 137.040527 L 123.452637 137.040527 Z M 121.653320 131.980957 L 122.969238 131.980957 L 125.423828 140.000000 L 124.301270 140.000000 L 123.710449 137.910645 L 120.901367 137.910645 L 120.321289 140.000000 L 119.198730 140.000000 Z " fill="rgb(0, 0, 0)" fill-opacity="1.000000" />
<path d="M 132.203613 135.225098 Q 131.886719 134.978027 131.559082 134.865234 Q 131.231445 134.752441 130.839355 134.752441 Q 129.915527 134.752441 129.426758 135.332520 Q 128.937988 135.912598 128.937988 137.008301 L 128.937988 140.000000 L 127.944336 140.000000 L 127.944336 133.984375 L 128.937988 133.984375 L 128.937988 135.160645 Q 129.185059 134.521484 129.697998 134.180420 Q 130.210938 133.839355 130.914551 133.839355 Q 131.279785 133.839355 131.596680 133.930664 Q 131.913574 134.021973 132.203613 134.215332 Z " fill="rgb(0, 0, 0)" fill-opacity="1.000000" />
<path d="M 137.608398 136.943848 Q 137.608398 135.832031 137.245850 135.254639 Q 136.883301 134.677246 136.190430 134.677246 Q 135.465332 134.677246 135.083984 135.254639 Q 134.702637 135.832031 134.702637 136.943848 Q 134.702637 138.055664 135.086670 138.638428 Q 135.470703 139.221191 136.201172 139.221191 Q 136.883301 139.221191 137.245850 138.635742 Q 137.608398 138.050293 137.608398 136.943848 Z M 138.596680 139.613281 Q 138.596680 140.966797 137.957520 141.665039 Q 137.318359 142.363281 136.077637 142.363281 Q 135.669434 142.363281 135.223633 142.288086 Q 134.777832 142.212891 134.332031 142.067871 L 134.332031 141.090332 Q 134.858398 141.337402 135.288086 141.455566 Q 135.717773 141.573730 136.077637 141.573730 Q 136.877930 141.573730 137.243164 141.138672 Q 137.608398 140.703613 137.608398 139.758301 L 137.608398 139.715332 L 137.608398 139.043945 Q 137.372070 139.548828 136.963867 139.795898 Q 136.555664 140.042969 135.970215 140.042969 Q 134.917480 140.042969 134.289062 139.199707 Q 133.660645 138.356445 133.660645 136.943848 Q 133.660645 135.525879 134.289062 134.682617 Q 134.917480 133.839355 135.970215 133.839355 Q 136.550293 133.839355 136.953125 134.070312 Q 137.355957 134.301270 137.608398 134.784668 L 137.608398 134.005859 L 138.596680 134.005859 Z " fill="rgb(0, 0, 0)" fill-opacity="1.000000" />
<path d="M 148.450195 139.092285 L 150.136719 139.092285 L 150.136719 133.033691 L 148.117188 134.005859 L 148.117188 132.963867 L 150.125977 132.007812 L 151.210938 132.007812 L 151.210938 139.092285 L 152.875977 139.092285 L 152.875977 140.000000 L 148.450195 140.000000 Z " fill="rgb(0, 0, 0)" fill-opacity="1.000000" />
<path d="M 191.019531 143.319336 L 191.019531 129.300781 L 191.878906 129.300781 L 191.878906 143.319336 Z M 192.738281 143.319336 L 192.738281 129.300781 L 193.597656 129.300781 L 193.597656 143.319336 Z " fill="rgb(0, 0, 0)" fill-opacity="1.000000" />
<path d="M 90.892578 123.412109 L 90.892578 122.488281 L 97.729980 122.488281 L 97.729980 123.412109 Z M 90.892578 125.259766 L 90.892578 124.335938 L 97.729980 124.335938 L 97.729980 125.259766 Z " fill="rgb(0, 0, 0)" fill-opacity="1.000000" />
<path d="M 97.892578 123.412109 L 97.892578 122.488281 L 104.729980 122.488281 L 104.729980 123.412109 Z M 97.892578 125.259766 L 97.892578 124.335938 L 104.729980 124.335938 L 104.729980 125.259766 Z " fill="rgb(0, 0, 0)" fill-opacity="1.000000" />
<path d="M 104.892578 123.412109 L 104.892578 122.488281 L 111.729980 122.488281 L 111.729980 123.412109 Z M 104.892578 125.259766 L 104.892578 124.335938 L 111.729980 124.335938 L 111.729980 125.259766 Z " fill="rgb(0, 0, 0)" fill-opacity="1.000000" />
<path d="M 111.892578 123.412109 L 111.892578 122.488281 L 118.729980 122.488281 L 118.729980 123.412109 Z M 111.892578 125.259766 L 111.892578 124.335938 L 118.729980 124.335938 L 118.729980 125.259766 Z " fill="rgb(0, 0, 0)" fill-opacity="1.000000" />
<path d="M 118.892578 123.412109 L 118.892578 122.488281 L 125.729980 122.488281 L 125.729980 123.412109 Z M 118.892578 125.259766 L 118.892578 124.335938 L 125.729980 124.335938 L 125.729980 125.259766 Z " fill="rgb(0, 0, 0)" fill-opacity="1.000000" />
<path d="M 125.892578 123.412109 L 125.892578 122.488281 L 132.729980 122.488281 L 132.729980 123.412109 Z M 125.892578 125.259766 L 125.892578 124.335938 L 132.729980 124.335938 L 132.729980 125.259766 Z " fill="rgb(0, 0, 0)" fill-opacity="1.000000" />
<path d="M 132.892578 123.412109 L 132.892578 122.488281 L 139.729980 122.488281 L 139.729980 123.412109 Z M 132.892578 125.259766 L 132.892578 124.335938 L 139.729980 124.335938 L 139.729980 125.259766 Z " fill="rgb(0, 0, 0)" fill-opacity="1.000000" />
<path d="M 139.892578 123.412109 L 139.892578 122.488281 L 146.729980 122.488281 L 146.729980 123.412109 Z M 139.892578 125.259766 L 139.892578 124.335938 L 146.729980 124.335938 L 146.729980 125.259766 Z " fill="rgb(0, 0, 0)" fill-opacity="1.000000" />
<path d="M 146.892578 123.412109 L 146.892578 122.488281 L 153.729980 122.488281 L 153.729980 123.412109 Z M 146.892578 125.259766 L 146.892578 124.335938 L 153.729980 124.335938 L 153.729980 125.259766 Z " fill="rgb(0, 0, 0)" fill-opacity="1.000000" />
<path d="M 153.892578 123.412109 L 153.892578 122.488281 L 160.729980 122.488281 L 160.729980 123.412109 Z M 153.892578 125.259766 L 153.892578 124.335938 L 160.729980 124.335938 L 160.729980 125.259766 Z " fill="rgb(0, 0, 0)" fill-opacity="1.000000" />
<path d="M 160.892578 123.412109 L 160.892578 122.488281 L 167.729980 122.488281 L 167.729980 123.412109 Z M 160.892578 125.259766 L 160.892578 124.335938 L 167.729980 124.335938 L 167.729980 125.259766 Z " fill="rgb(0, 0, 0)" fill-opacity="1.000000" />
<path d="M 167.892578 123.412109 L 167.892578 122.488281 L 174.729980 122.488281 L 174.729980 123.412109 Z M 167.892578 125.259766 L 167.892578 124.335938 L 174.729980 124.335938 L 174.729980 125.259766 Z " fill="rgb(0, 0, 0)" fill-opacity="1.000000" />
<path d="M 174.892578 123.412109 L 174.892578 122.488281 L 181.729980 122.488281 L 181.729980 123.412109 Z M 174.892578 125.259766 L 174.892578 124.335938 L 181.729980 124.335938 L 181.729980 125.259766 Z " fill="rgb(0, 0, 0)" fill-opacity="1.000000" />
<path d="M 181.892578 123.412109 L 181.892578 122.488281 L 188.729980 122.488281 L 188.729980 123.412109 Z M 181.892578 125.259766 L 181.892578 124.335938 L 188.729980 124.335938 L 188.729980 125.259766 Z " fill="rgb(0, 0, 0)" fill-opacity="1.000000" />
<path d="M 188.892578 123.412109 L 188.892578 122.488281 L 191.019531 122.488281 L 191.019531 116.300781 L 191.878906 116.300781 L 191.878906 123.412109 Z M 191.019531 130.319336 L 191.019531 125.259766 L 188.892578 125.259766 L 188.892578 124.335938 L 191.878906 124.335938 L 191.878906 130.319336 Z M 192.738281 130.319336 L 192.738281 116.300781 L 193.597656 116.300781 L 193.597656 130.319336 Z " fill="rgb(0, 0, 0)" fill-opacity="1.000000" />
<path d="M 122.308594 106.937012 L 121.164551 111.040527 L 123.452637 111.040527 Z M 121.653320 105.980957 L 122.969238 105.980957 L 125.423828 114.000000 L 124.301270 114.000000 L 123.710449 111.910645 L 120.901367 111.910645 L 120.321289 114.000000 L 119.198730 114.000000 Z " fill="rgb(0, 0, 0)" fill-opacity="1.000000" />
<path d="M 132.203613 109.225098 Q 131.886719 108.978027 131.559082 108.865234 Q 131.231445 108.752441 130.839355 108.752441 Q 129.915527 108.752441 129.426758 109.332520 Q 128.937988 109.912598 128.937988 111.008301 L 128.937988 114.000000 L 127.944336 114.000000 L 127.944336 107.984375 L 128.937988 107.984375 L 128.937988 109.160645 Q 129.185059 108.521484 129.697998 108.180420 Q 130.210938 107.839355 130.914551 107.839355 Q 131.279785 107.839355 131.596680 107.930664 Q 131.913574 108.021973 132.203613 108.215332 Z " fill="rgb(0, 0, 0)" fill-opacity="1.000000" />
<path d="M 137.608398 110.943848 Q 137.608398 109.832031 137.245850 109.254639 Q 136.883301 108.677246 136.190430 108.677246 Q 135.465332 108.677246 135.083984 109.254639 Q 134.702637 109.832031 134.702637 110.943848 Q 134.702637 112.055664 135.086670 112.638428 Q 135.470703 113.221191 136.201172 113.221191 Q 136.883301 113.221191 137.245850 112.635742 Q 137.608398 112.050293 137.608398 110.943848 Z M 138.596680 113.613281 Q 138.596680 114.966797 137.957520 115.665039 Q 137.318359 116.363281 136.077637 116.363281 Q 135.669434 116.363281 135.223633 116.288086 Q 134.777832 116.212891 134.332031 116.067871 L 134.332031 115.090332 Q 134.858398 115.337402 135.288086 115.455566 Q 135.717773 115.573730 136.077637 115.573730 Q 136.877930 115.573730 137.243164 115.138672 Q 137.608398 114.703613 137.608398 113.758301 L 137.608398 113.715332 L 137.608398 113.043945 Q 137.372070 113.548828 136.963867 113.795898 Q 136.555664 114.042969 135.970215 114.042969 Q 134.917480 114.042969 134.289062 113.199707 Q 133.660645 112.356445 133.660645 110.943848 Q 133.660645 109.525879 134.289062 108.682617 Q 134.917480 107.839355 135.970215 107.839355 Q 136.550293 107.839355 136.953125 108.070312 Q 137.355957 108.301270 137.608398 108.784668 L 137.608398 108.005859 L 138.596680 108.005859 Z " fill="rgb(0, 0, 0)" fill-opacity="1.000000" />
<path d="M 149.003418 113.086914 L 152.687988 113.086914 L 152.687988 114.000000 L 147.816406 114.000000 L 147.816406 113.086914 Q 148.820801 112.028809 149.572754 111.217773 Q 150.324707 110.406738 150.609375 110.073730 Q 151.146484 109.418457 151.334473 109.012939 Q 151.522461 108.607422 151.522461 108.183105 Q 151.522461 107.511719 151.127686 107.130371 Q 150.732910 106.749023 150.045410 106.749023 Q 149.556641 106.749023 149.019531 106.926270 Q 148.482422 107.103516 147.880859 107.463379 L 147.880859 106.367676 Q 148.434082 106.104492 148.968506 105.970215 Q 149.502930 105.835938 150.023926 105.835938 Q 151.200195 105.835938 151.917236 106.461670 Q 152.634277 107.087402 152.634277 108.102539 Q 152.634277 108.618164 152.395264 109.133789 Q 152.156250 109.649414 151.619141 110.272461 Q 151.318359 110.621582 150.746338 111.239258 Q 150.174316 111.856934 149.003418 113.086914 Z " fill="rgb(0, 0, 0)" fill-opacity="1.000000" />
<path d="M 191.019531 117.319336 L 191.019531 103.300781 L 191.878906 103.300781 L 191.878906 117.319336 Z M 192.738281 117.319336 L 192.738281 103.300781 L 193.597656 103.300781 L 193.597656 117.319336 Z " fill="rgb(0, 0, 0)" fill-opacity="1.000000" />
<path d="M 90.892578 97.412109 L 90.892578 96.488281 L 97.729980 96.488281 L 97.729980 97.412109 Z M 90.892578 99.259766 L 90.892578 98.335938 L 97.729980 98.335938 L 97.729980 99.259766 Z " fill="rgb(0, 0, 0)" fill-opacity="1.000000" />
<path d="M 97.892578 97.412109 L 97.892578 96.488281 L 104.729980 96.488281 L 104.729980 97.412109 Z M 97.892578 99.259766 L 97.892578 98.335938 L 104.729980 98.335938 L 104.729980 99.259766 Z " fill="rgb(0, 0, 0)" fill-opacity="1.000000" />
<path d="M 104.892578 97.412109 L 104.892578 96.488281 L 111.729980 96.488281 L 111.729980 97.412109 Z M 104.892578 99.259766 L 104.892578 98.335938 L 111.729980 98.335938 L 111.729980 99.259766 Z " fill="rgb(0, 0, 0)" fill-opacity="1.000000" />
<path d="M 111.892578 97.412109 L 111.892578 96.488281 L 118.729980 96.488281 L 118.729980 97.412109 Z M 111.892578 99.259766 L 111.892578 98.335938 L 118.729980 98.335938 L 118.729980 99.259766 Z " fill="rgb(0, 0, 0)" fill-opacity="1.000000" />
<path d="M 118.892578 97.412109 L 118.892578 96.488281 L 125.729980 96.488281 L 125.729980 97.412109 Z M 118.892578 99.259766 L 118.892578 98.335938 L 125.729980 98.335938 L 125.729980 99.259766 Z " fill="rgb(0, 0, 0)" fill-opacity="1.000000" />
<path d="M 125.892578 97.412109 L 125.892578 96.488281 L 132.729980 96.488281 L 132.729980 97.412109 Z M 125.892578 99.259766 L 125.892578 98.335938 L 132.729980 98.335938 L 132.729980 99.259766 Z " fill="rgb(0, 0, 0)" fill-opacity="1.000000" />
<path d="M 132.892578 97.412109 L 132.892578 96.488281 L 139.729980 96.488281 L 139.729980 97.412109 Z M 132.892578 99.259766 L 132.892578 98.335938 L 139.729980 98.335938 L 139.729980 99.259766 Z " fill="rgb(0, 0, 0)" fill-opacity="1.000000" />
<path d="M 139.892578 97.412109 L 139.892578 96.488281 L 146.729980 96.488281 L 146.729980 97.412109 Z M 139.892578 99.259766 L 139.892578 98.335938 L 146.729980 98.335938 L 146.729980 99.259766 Z " fill="rgb(0, 0, 0)" fill-opacity="1.000000" />
<path d="M 146.892578 97.412109 L 146.892578 96.488281 L 153.729980 96.488281 L 153.729980 97.412109 Z M 146.892578 99.259766 L 146.892578 98.335938 L 153.729980 98.335938 L 153.729980 99.259766 Z " fill="rgb(0, 0, 0)" fill-opacity="1.000000" />
<path d="M 153.892578 97.412109 L 153.892578 96.488281 L 160.729980 96.488281 L 160.729980 97.412109 Z M 153.892578 99.259766 L 153.892578 98.335938 L 160.729980 98.335938 L 160.729980 99.259766 Z " fill="rgb(0, 0, 0)" fill-opacity="1.000000" />
<path d="M 160.892578 97.412109 L 160.892578 96.488281 L 167.729980 96.488281 L 167.729980 97.412109 Z M 160.892578 99.259766 L 160.892578 98.335938 L 167.729980 98.335938 L 167.729980 99.259766 Z " fill="rgb(0, 0, 0)" fill-opacity="1.000000" />
<path d="M 167.892578 97.412109 L 167.892578 96.488281 L 174.729980 96.488281 L 174.729980 97.412109 Z M 167.892578 99.259766 L 167.892578 98.335938 L 174.729980 98.335938 L 174.729980 99.259766 Z " fill="rgb(0, 0, 0)" fill-opacity="1.000000" />
<path d="M 174.892578 97.412109 L 174.892578 96.488281 L 181.729980 96.488281 L 181.729980 97.412109 Z M 174.892578 99.259766 L 174.892578 98.335938 L 181.729980 98.335938 L 181.729980 99.259766 Z " fill="rgb(0, 0, 0)" fill-opacity="1.000000" />
<path d="M 181.892578 97.412109 L 181.892578 96.488281 L 188.729980 96.488281 L 188.729980 97.412109 Z M 181.892578 99.259766 L 181.892578 98.335938 L 188.729980 98.335938 L 188.729980 99.259766 Z " fill="rgb(0, 0, 0)" fill-opacity="1.000000" />
<path d="M 188.892578 97.412109 L 188.892578 96.488281 L 191.019531 96.488281 L 191.019531 90.300781 L 191.878906 90.300781 L 191.878906 97.412109 Z M 191.019531 104.319336 L 191.019531 99.259766 L 188.892578 99.259766 L 188.892578 98.335938 L 191.878906 98.335938 L 191.878906 104.319336 Z M 192.738281 104.319336 L 192.738281 90.300781 L 193.597656 90.300781 L 193.597656 104.319336 Z " fill="rgb(0, 0, 0)" fill-opacity="1.000000" />
<path d="M 10.630859 82.596680 Q 10.813477 82.209961 11.095459 82.024658 Q 11.377441 81.839355 11.774902 81.839355 Q 12.500000 81.839355 12.798096 82.400635 Q 13.096191 82.961914 13.096191 84.514160 L 13.096191 88.000000 L 12.193848 88.000000 L 12.193848 84.557129 Q 12.193848 83.284180 12.051514 82.975342 Q 11.909180 82.666504 11.533203 82.666504 Q 11.103516 82.666504 10.945068 82.996826 Q 10.786621 83.327148 10.786621 84.557129 L 10.786621 88.000000 L 9.884277 88.000000 L 9.884277 84.557129 Q 9.884277 83.268066 9.731201 82.967285 Q 9.578125 82.666504 9.180664 82.666504 Q 8.788574 82.666504 8.635498 82.996826 Q 8.482422 83.327148 8.482422 84.557129 L 8.482422 88.000000 L 7.585449 88.000000 L 7.585449 81.984375 L 8.482422 81.984375 L 8.482422 82.500000 Q 8.659668 82.177734 8.925537 82.008545 Q 9.191406 81.839355 9.529785 81.839355 Q 9.937988 81.839355 10.209229 82.027344 Q 10.480469 82.215332 10.630859 82.596680 Z " fill="rgb(0, 0, 0)" fill-opacity="1.000000" />
<path d="M 16.089355 85.830078 L 17.979980 85.830078 L 17.979980 88.000000 L 16.089355 88.000000 Z " fill="rgb(0, 0, 0)" fill-opacity="1.000000" />
<path d="M 26.226074 82.193848 L 26.226074 83.160645 Q 25.801758 82.913574 25.372070 82.790039 Q 24.942383 82.666504 24.496582 82.666504 Q 23.825195 82.666504 23.494873 82.884033 Q 23.164551 83.101562 23.164551 83.547363 Q 23.164551 83.950195 23.411621 84.148926 Q 23.658691 84.347656 24.641602 84.535645 L 25.039062 84.610840 Q 25.774902 84.750488 26.153564 85.169434 Q 26.532227 85.588379 26.532227 86.259766 Q 26.532227 87.151367 25.898438 87.653564 Q 25.264648 88.155762 24.136719 88.155762 Q 23.690918 88.155762 23.202148 88.061768 Q 22.713379 87.967773 22.144043 87.779785 L 22.144043 86.759277 Q 22.697266 87.043945 23.202148 87.186279 Q 23.707031 87.328613 24.158203 87.328613 Q 24.813477 87.328613 25.173340 87.062744 Q 25.533203 86.796875 25.533203 86.318848 Q 25.533203 85.631348 24.217285 85.368164 L 24.174316 85.357422 L 23.803711 85.282227 Q 22.949707 85.115723 22.557617 84.720947 Q 22.165527 84.326172 22.165527 83.644043 Q 22.165527 82.779297 22.750977 82.309326 Q 23.336426 81.839355 24.421387 81.839355 Q 24.904785 81.839355 25.350586 81.927979 Q 25.796387 82.016602 26.226074 82.193848 Z " fill="rgb(0, 0, 0)" fill-opacity="1.000000" />
<path d="M 30.014160 87.242676 L 30.014160 90.288086 L 29.020508 90.288086 L 29.020508 81.984375 L 30.014160 81.984375 L 30.014160 82.752441 Q 30.261230 82.306641 30.672119 82.072998 Q 31.083008 81.839355 31.620117 81.839355 Q 32.710449 81.839355 33.330811 82.682617 Q 33.951172 83.525879 33.951172 85.019043 Q 33.951172 86.485352 33.328125 87.320557 Q 32.705078 88.155762 31.620117 88.155762 Q 31.072266 88.155762 30.661377 87.922119 Q 30.250488 87.688477 30.014160 87.242676 Z M 32.914551 84.997559 Q 32.914551 83.848145 32.552002 83.262695 Q 32.189453 82.677246 31.475098 82.677246 Q 30.755371 82.677246 30.384766 83.265381 Q 30.014160 83.853516 30.014160 84.997559 Q 30.014160 86.136230 30.384766 86.727051 Q 30.755371 87.317871 31.475098 87.317871 Q 32.189453 87.317871 32.552002 86.732422 Q 32.914551 86.146973 32.914551 84.997559 Z " fill="rgb(0, 0, 0)" fill-opacity="1.000000" />
<path d="M 41.892578 85.335938 L 41.892578 84.412109 L 48.729980 84.412109 L 48.729980 85.335938 Z " fill="rgb(0, 0, 0)" fill-opacity="1.000000" />
<path d="M 48.892578 85.335938 L 48.892578 84.412109 L 55.729980 84.412109 L 55.729980 85.335938 Z " fill="rgb(0, 0, 0)" fill-opacity="1.000000" />
<path d="M 55.892578 85.335938 L 55.892578 84.412109 L 62.729980 84.412109 L 62.729980 85.335938 Z " fill="rgb(0, 0, 0)" fill-opacity="1.000000" />
<path d="M 62.892578 85.335938 L 62.892578 84.412109 L 69.729980 84.412109 L 69.729980 85.335938 Z " fill="rgb(0, 0, 0)" fill-opacity="1.000000" />
<path d="M 70.032227 88.418945 L 70.032227 81.866211 L 76.590332 85.142578 Z " fill="rgb(0, 0, 0)" fill-opacity="1.000000" />
<path d="M 86.019531 91.319336 L 86.019531 77.300781 L 86.878906 77.300781 L 86.878906 91.319336 Z M 87.738281 91.319336 L 87.738281 77.300781 L 88.597656 77.300781 L 88.597656 91.319336 Z " fill="rgb(0, 0, 0)" fill-opacity="1.000000" />
<path d="M 191.019531 91.319336 L 191.019531 77.300781 L 191.878906 77.300781 L 191.878906 91.319336 Z M 192.738281 91.319336 L 192.738281 77.300781 L 193.597656 77.300781 L 193.597656 91.319336 Z " fill="rgb(0, 0, 0)" fill-opacity="1.000000" />
<path d="M 210.032227 85.142578 L 216.590332 81.866211 L 216.590332 88.418945 Z " fill="rgb(0, 0, 0)" fill-opacity="1.000000" />
<path d="M 216.892578 85.335938 L 216.892578 84.412109 L 223.729980 84.412109 L 223.729980 85.335938 Z " fill="rgb(0, 0, 0)" fill-opacity="1.000000" />
<path d="M 223.892578 85.335938 L 223.892578 84.412109 L 230.729980 84.412109 L 230.729980 85.335938 Z " fill="rgb(0, 0, 0)" fill-opacity="1.000000" />
<path d="M 230.892578 85.335938 L 230.892578 84.412109 L 237.729980 84.412109 L 237.729980 85.335938 Z " fill="rgb(0, 0, 0)" fill-opacity="1.000000" />
<path d="M 237.892578 85.335938 L 237.892578 84.412109 L 244.729980 84.412109 L 244.729980 85.335938 Z " fill="rgb(0, 0, 0)" fill-opacity="1.000000" />
<path d="M 256.930664 84.997559 Q 256.930664 83.848145 256.565430 83.262695 Q 256.200195 82.677246 255.485840 82.677246 Q 254.766113 82.677246 254.395508 83.265381 Q 254.024902 83.853516 254.024902 84.997559 Q 254.024902 86.136230 254.395508 86.727051 Q 254.766113 87.317871 255.485840 87.317871 Q 256.200195 87.317871 256.565430 86.732422 Q 256.930664 86.146973 256.930664 84.997559 Z M 254.024902 82.752441 Q 254.261230 82.312012 254.677490 82.075684 Q 255.093750 81.839355 255.641602 81.839355 Q 256.726562 81.839355 257.349609 82.674561 Q 257.972656 83.509766 257.972656 84.976074 Q 257.972656 86.463867 257.346924 87.309814 Q 256.721191 88.155762 255.630859 88.155762 Q 255.093750 88.155762 254.682861 87.922119 Q 254.271973 87.688477 254.024902 87.242676 L 254.024902 88.000000 L 253.036621 88.000000 L 253.036621 79.642578 L 254.024902 79.642578 Z " fill="rgb(0, 0, 0)" fill-opacity="1.000000" />
<path d="M 262.770508 84.976074 L 262.442871 84.976074 Q 261.578125 84.976074 261.140381 85.279541 Q 260.702637 85.583008 260.702637 86.184570 Q 260.702637 86.727051 261.030273 87.027832 Q 261.357910 87.328613 261.937988 87.328613 Q 262.754395 87.328613 263.221680 86.761963 Q 263.688965 86.195312 263.694336 85.196289 L 263.694336 84.976074 Z M 264.687988 84.567871 L 264.687988 88.000000 L 263.694336 88.000000 L 263.694336 87.108398 Q 263.377441 87.645508 262.896729 87.900635 Q 262.416016 88.155762 261.728516 88.155762 Q 260.810059 88.155762 260.262207 87.637451 Q 259.714355 87.119141 259.714355 86.249023 Q 259.714355 85.244629 260.388428 84.723633 Q 261.062500 84.202637 262.367676 84.202637 L 263.694336 84.202637 L 263.694336 84.046875 Q 263.688965 83.327148 263.329102 83.002197 Q 262.969238 82.677246 262.179688 82.677246 Q 261.674805 82.677246 261.159180 82.822266 Q 260.643555 82.967285 260.154785 83.246582 L 260.154785 82.258301 Q 260.702637 82.048828 261.204834 81.944092 Q 261.707031 81.839355 262.179688 81.839355 Q 262.926270 81.839355 263.455322 82.059570 Q 263.984375 82.279785 264.312012 82.720215 Q 264.516113 82.988770 264.602051 83.383545 Q 264.687988 83.778320 264.687988 84.567871 Z " fill="rgb(0, 0, 0)" fill-opacity="1.000000" />
<path d="M 271.226074 82.193848 L 271.226074 83.160645 Q 270.801758 82.913574 270.372070 82.790039 Q 269.942383 82.666504 269.496582 82.666504 Q 268.825195 82.666504 268.494873 82.884033 Q 268.164551 83.101562 268.164551 83.547363 Q 268.164551 83.950195 268.411621 84.148926 Q 268.658691 84.347656 269.641602 84.535645 L 270.039062 84.610840 Q 270.774902 84.750488 271.153564 85.169434 Q 271.532227 85.588379 271.532227 86.259766 Q 271.532227 87.151367 270.898438 87.653564 Q 270.264648 88.155762 269.136719 88.155762 Q 268.690918 88.155762 268.202148 88.061768 Q 267.713379 87.967773 267.144043 87.779785 L 267.144043 86.759277 Q 267.697266 87.043945 268.202148 87.186279 Q 268.707031 87.328613 269.158203 87.328613 Q 269.813477 87.328613 270.173340 87.062744 Q 270.533203 86.796875 270.533203 86.318848 Q 270.533203 85.631348 269.217285 85.368164 L 269.174316 85.357422 L 268.803711 85.282227 Q 267.949707 85.115723 267.557617 84.720947 Q 267.165527 84.326172 267.165527 83.644043 Q 267.165527 82.779297 267.750977 82.309326 Q 268.336426 81.839355 269.421387 81.839355 Q 269.904785 81.839355 270.350586 81.927979 Q 270.796387 82.016602 271.226074 82.193848 Z " fill="rgb(0, 0, 0)" fill-opacity="1.000000" />
<path d="M 279.015625 84.498047 L 279.015625 84.981445 L 274.734863 84.981445 L 274.734863 85.013672 Q 274.691895 86.243652 275.204834 86.780762 Q 275.717773 87.317871 276.652344 87.317871 Q 277.125000 87.317871 277.640625 87.167480 Q 278.156250 87.017090 278.741699 86.710938 L 278.741699 87.693848 Q 278.177734 87.924805 277.654053 88.040283 Q 277.130371 88.155762 276.641602 88.155762 Q 275.239746 88.155762 274.450195 87.315186 Q 273.660645 86.474609 273.660645 84.997559 Q 273.660645 83.558105 274.434082 82.698730 Q 275.207520 81.839355 276.496582 81.839355 Q 277.645996 81.839355 278.309326 82.618164 Q 278.972656 83.396973 279.015625 84.498047 Z M 278.027344 84.208008 Q 277.962891 83.584961 277.573486 83.131104 Q 277.184082 82.677246 276.453613 82.677246 Q 275.739258 82.677246 275.277344 83.149902 Q 274.815430 83.622559 274.772461 84.213379 Z " fill="rgb(0, 0, 0)" fill-opacity="1.000000" />
<path d="M 282.143066 80.872559 L 282.143066 83.885742 L 283.399902 83.885742 Q 284.151855 83.885742 284.573486 83.488281 Q 284.995117 83.090820 284.995117 82.376465 Q 284.995117 81.662109 284.576172 81.267334 Q 284.157227 80.872559 283.399902 80.872559 Z M 281.058105 79.980957 L 283.399902 79.980957 Q 284.742676 79.980957 285.435547 80.590576 Q 286.128418 81.200195 286.128418 82.376465 Q 286.128418 83.563477 285.438232 84.170410 Q 284.748047 84.777344 283.399902 84.777344 L 282.143066 84.777344 L 282.143066 88.000000 L 281.058105 88.000000 Z " fill="rgb(0, 0, 0)" fill-opacity="1.000000" />
<path d="M 290.308594 82.677246 Q 289.556641 82.677246 289.169922 83.262695 Q 288.783203 83.848145 288.783203 84.997559 Q 288.783203 86.141602 289.169922 86.729736 Q 289.556641 87.317871 290.308594 87.317871 Q 291.065918 87.317871 291.452637 86.729736 Q 291.839355 86.141602 291.839355 84.997559 Q 291.839355 83.848145 291.452637 83.262695 Q 291.065918 82.677246 290.308594 82.677246 Z M 290.308594 81.839355 Q 291.560059 81.839355 292.223389 82.650391 Q 292.886719 83.461426 292.886719 84.997559 Q 292.886719 86.539062 292.226074 87.347412 Q 291.565430 88.155762 290.308594 88.155762 Q 289.057129 88.155762 288.396484 87.347412 Q 287.735840 86.539062 287.735840 84.997559 Q 287.735840 83.461426 288.396484 82.650391 Q 289.057129 81.839355 290.308594 81.839355 Z " fill="rgb(0, 0, 0)" fill-opacity="1.000000" />
<path d="M 295.697266 82.005859 L 298.227051 82.005859 L 298.227051 87.231934 L 300.187500 87.231934 L 300.187500 88.000000 L 295.278320 88.000000 L 295.278320 87.231934 L 297.238770 87.231934 L 297.238770 82.773926 L 295.697266 82.773926 Z M 297.238770 79.669434 L 298.227051 79.669434 L 298.227051 80.915527 L 297.238770 80.915527 Z " fill="rgb(0, 0, 0)" fill-opacity="1.000000" />
<path d="M 306.645020 84.272461 L 306.645020 88.000000 L 305.651367 88.000000 L 305.651367 84.272461 Q 305.651367 83.461426 305.366699 83.080078 Q 305.082031 82.698730 304.475098 82.698730 Q 303.782227 82.698730 303.408936 83.190186 Q 303.035645 83.681641 303.035645 84.600098 L 303.035645 88.000000 L 302.047363 88.000000 L 302.047363 81.984375 L 303.035645 81.984375 L 303.035645 82.886719 Q 303.298828 82.371094 303.750000 82.105225 Q 304.201172 81.839355 304.818848 81.839355 Q 305.737305 81.839355 306.191162 82.443604 Q 306.645020 83.047852 306.645020 84.272461 Z " fill="rgb(0, 0, 0)" fill-opacity="1.000000" />
<path d="M 311.297852 80.276367 L 311.297852 81.984375 L 313.542969 81.984375 L 313.542969 82.752441 L 311.297852 82.752441 L 311.297852 86.018066 Q 311.297852 86.684082 311.550293 86.947266 Q 311.802734 87.210449 312.431152 87.210449 L 313.542969 87.210449 L 313.542969 88.000000 L 312.334473 88.000000 Q 311.222656 88.000000 310.766113 87.554199 Q 310.309570 87.108398 310.309570 86.018066 L 310.309570 82.752441 L 308.703613 82.752441 L 308.703613 81.984375 L 310.309570 81.984375 L 310.309570 80.276367 Z " fill="rgb(0, 0, 0)" fill-opacity="1.000000" />
<path d="M 321.015625 84.498047 L 321.015625 84.981445 L 316.734863 84.981445 L 316.734863 85.013672 Q 316.691895 86.243652 317.204834 86.780762 Q 317.717773 87.317871 318.652344 87.317871 Q 319.125000 87.317871 319.640625 87.167480 Q 320.156250 87.017090 320.741699 86.710938 L 320.741699 87.693848 Q 320.177734 87.924805 319.654053 88.040283 Q 319.130371 88.155762 318.641602 88.155762 Q 317.239746 88.155762 316.450195 87.315186 Q 315.660645 86.474609 315.660645 84.997559 Q 315.660645 83.558105 316.434082 82.698730 Q 317.207520 81.839355 318.496582 81.839355 Q 319.645996 81.839355 320.309326 82.618164 Q 320.972656 83.396973 321.015625 84.498047 Z M 320.027344 84.208008 Q 319.962891 83.584961 319.573486 83.131104 Q 319.184082 82.677246 318.453613 82.677246 Q 317.739258 82.677246 317.277344 83.149902 Q 316.815430 83.622559 316.772461 84.213379 Z " fill="rgb(0, 0, 0)" fill-opacity="1.000000" />
<path d="M 328.203613 83.225098 Q 327.886719 82.978027 327.559082 82.865234 Q 327.231445 82.752441 326.839355 82.752441 Q 325.915527 82.752441 325.426758 83.332520 Q 324.937988 83.912598 324.937988 85.008301 L 324.937988 88.000000 L 323.944336 88.000000 L 323.944336 81.984375 L 324.937988 81.984375 L 324.937988 83.160645 Q 325.185059 82.521484 325.697998 82.180420 Q 326.210938 81.839355 326.914551 81.839355 Q 327.279785 81.839355 327.596680 81.930664 Q 327.913574 82.021973 328.203613 82.215332 Z " fill="rgb(0, 0, 0)" fill-opacity="1.000000" />
<path d="M 86.019531 39.319336 L 86.019531 25.300781 L 86.878906 25.300781 L 86.878906 39.319336 Z M 87.738281 39.319336 L 87.738281 25.300781 L 88.597656 25.300781 L 88.597656 39.319336 Z " fill="rgb(0, 0, 0)" fill-opacity="1.000000" />
<path d="M 87.738281 45.412109 L 87.738281 38.300781 L 88.597656 38.300781 L 88.597656 44.488281 L 90.729980 44.488281 L 90.729980 45.412109 Z M 86.019531 52.319336 L 86.019531 38.300781 L 86.878906 38.300781 L 86.878906 52.319336 Z M 87.738281 52.319336 L 87.738281 46.335938 L 90.729980 46.335938 L 90.729980 47.259766 L 88.597656 47.259766 L 88.597656 52.319336 Z " fill="rgb(0, 0, 0)" fill-opacity="1.000000" />
<path d="M 86.019531 65.319336 L 86.019531 51.300781 L 86.878906 51.300781 L 86.878906 65.319336 Z M 87.738281 65.319336 L 87.738281 51.300781 L 88.597656 51.300781 L 88.597656 65.319336 Z " fill="rgb(0, 0, 0)" fill-opacity="1.000000" />
<path d="M 87.738281 71.412109 L 87.738281 64.300781 L 88.597656 64.300781 L 88.597656 70.488281 L 90.729980 70.488281 L 90.729980 71.412109 Z M 86.019531 78.319336 L 86.019531 64.300781 L 86.878906 64.300781 L 86.878906 78.319336 Z M 87.738281 78.319336 L 87.738281 72.335938 L 90.729980 72.335938 L 90.729980 73.259766 L 88.597656 73.259766 L 88.597656 78.319336 Z " fill="rgb(0, 0, 0)" fill-opacity="1.000000" />
<path d="M 90.892578 71.412109 L 90.892578 70.488281 L 97.729980 70.488281 L 97.729980 71.412109 Z M 90.892578 73.259766 L 90.892578 72.335938 L 97.729980 72.335938 L 97.729980 73.259766 Z " fill="rgb(0, 0, 0)" fill-opacity="1.000000" />
<path d="M 97.892578 71.412109 L 97.892578 70.488281 L 104.729980 70.488281 L 104.729980 71.412109 Z M 97.892578 73.259766 L 97.892578 72.335938 L 104.729980 72.335938 L 104.729980 73.259766 Z " fill="rgb(0, 0, 0)" fill-opacity="1.000000" />
<path d="M 104.892578 71.412109 L 104.892578 70.488281 L 111.729980 70.488281 L 111.729980 71.412109 Z M 104.892578 73.259766 L 104.892578 72.335938 L 111.729980 72.335938 L 111.729980 73.259766 Z " fill="rgb(0, 0, 0)" fill-opacity="1.000000" />
<path d="M 111.892578 71.412109 L 111.892578 70.488281 L 118.729980 70.488281 L 118.729980 71.412109 Z M 111.892578 73.259766 L 111.892578 72.335938 L 118.729980 72.335938 L 118.729980 73.259766 Z " fill="rgb(0, 0, 0)" fill-opacity="1.000000" />
<path d="M 118.892578 71.412109 L 118.892578 70.488281 L 125.729980 70.488281 L 125.729980 71.412109 Z M 118.892578 73.259766 L 118.892578 72.335938 L 125.729980 72.335938 L 125.729980 73.259766 Z " fill="rgb(0, 0, 0)" fill-opacity="1.000000" />
<path d="M 125.892578 71.412109 L 125.892578 70.488281 L 132.729980 70.488281 L 132.729980 71.412109 Z M 125.892578 73.259766 L 125.892578 72.335938 L 132.729980 72.335938 L 132.729980 73.259766 Z " fill="rgb(0, 0, 0)" fill-opacity="1.000000" />
<path d="M 132.892578 71.412109 L 132.892578 70.488281 L 139.729980 70.488281 L 139.729980 71.412109 Z M 132.892578 73.259766 L 132.892578 72.335938 L 139.729980 72.335938 L 139.729980 73.259766 Z " fill="rgb(0, 0, 0)" fill-opacity="1.000000" />
<path d="M 139.892578 71.412109 L 139.892578 70.488281 L 146.729980 70.488281 L 146.729980 71.412109 Z M 139.892578 73.259766 L 139.892578 72.335938 L 146.729980 72.335938 L 146.729980 73.259766 Z " fill="rgb(0, 0, 0)" fill-opacity="1.000000" />
<path d="M 146.892578 71.412109 L 146.892578 70.488281 L 153.729980 70.488281 L 153.729980 71.412109 Z M 146.892578 73.259766 L 146.892578 72.335938 L 153.729980 72.335938 L 153.729980 73.259766 Z " fill="rgb(0, 0, 0)" fill-opacity="1.000000" />
<path d="M 153.892578 71.412109 L 153.892578 70.488281 L 160.729980 70.488281 L 160.729980 71.412109 Z M 153.892578 73.259766 L 153.892578 72.335938 L 160.729980 72.335938 L 160.729980 73.259766 Z " fill="rgb(0, 0, 0)" fill-opacity="1.000000" />
<path d="M 160.892578 71.412109 L 160.892578 70.488281 L 167.729980 70.488281 L 167.729980 71.412109 Z M 160.892578 73.259766 L 160.892578 72.335938 L 167.729980 72.335938 L 167.729980 73.259766 Z " fill="rgb(0, 0, 0)" fill-opacity="1.000000" />
<path d="M 167.892578 71.412109 L 167.892578 70.488281 L 174.729980 70.488281 L 174.729980 71.412109 Z M 167.892578 73.259766 L 167.892578 72.335938 L 174.729980 72.335938 L 174.729980 73.259766 Z " fill="rgb(0, 0, 0)" fill-opacity="1.000000" />
<path d="M 174.892578 71.412109 L 174.892578 70.488281 L 181.729980 70.488281 L 181.729980 71.412109 Z M 174.892578 73.259766 L 174.892578 72.335938 L 181.729980 72.335938 L 181.729980 73.259766 Z " fill="rgb(0, 0, 0)" fill-opacity="1.000000" />
<path d="M 181.892578 71.412109 L 181.892578 70.488281 L 188.729980 70.488281 L 188.729980 71.412109 Z M 181.892578 73.259766 L 181.892578 72.335938 L 188.729980 72.335938 L 188.729980 73.259766 Z " fill="rgb(0, 0, 0)" fill-opacity="1.000000" />
<path d="M 188.892578 71.412109 L 188.892578 70.488281 L 191.019531 70.488281 L 191.019531 64.300781 L 191.878906 64.300781 L 191.878906 71.412109 Z M 191.019531 78.319336 L 191.019531 73.259766 L 188.892578 73.259766 L 188.892578 72.335938 L 191.878906 72.335938 L 191.878906 78.319336 Z M 192.738281 78.319336 L 192.738281 64.300781 L 193.597656 64.300781 L 193.597656 78.319336 Z " fill="rgb(0, 0, 0)" fill-opacity="1.000000" />
<path d="M 191.019531 65.319336 L 191.019531 51.300781 L 191.878906 51.300781 L 191.878906 65.319336 Z M 192.738281 65.319336 L 192.738281 51.300781 L 193.597656 51.300781 L 193.597656 65.319336 Z " fill="rgb(0, 0, 0)" fill-opacity="1.000000" />
<path d="M 210.032227 59.142578 L 216.590332 55.866211 L 216.590332 62.418945 Z " fill="rgb(0, 0, 0)" fill-opacity="1.000000" />
<path d="M 216.892578 59.335938 L 216.892578 58.412109 L 223.729980 58.412109 L 223.729980 59.335938 Z " fill="rgb(0, 0, 0)" fill-opacity="1.000000" />
<path d="M 223.892578 59.335938 L 223.892578 58.412109 L 230.729980 58.412109 L 230.729980 59.335938 Z " fill="rgb(0, 0, 0)" fill-opacity="1.000000" />
<path d="M 230.892578 59.335938 L 230.892578 58.412109 L 237.729980 58.412109 L 237.729980 59.335938 Z " fill="rgb(0, 0, 0)" fill-opacity="1.000000" />
<path d="M 237.892578 59.335938 L 237.892578 58.412109 L 244.729980 58.412109 L 244.729980 59.335938 Z " fill="rgb(0, 0, 0)" fill-opacity="1.000000" />
<path d="M 256.930664 58.997559 Q 256.930664 57.848145 256.565430 57.262695 Q 256.200195 56.677246 255.485840 56.677246 Q 254.766113 56.677246 254.395508 57.265381 Q 254.024902 57.853516 254.024902 58.997559 Q 254.024902 60.136230 254.395508 60.727051 Q 254.766113 61.317871 255.485840 61.317871 Q 256.200195 61.317871 256.565430 60.732422 Q 256.930664 60.146973 256.930664 58.997559 Z M 254.024902 56.752441 Q 254.261230 56.312012 254.677490 56.075684 Q 255.093750 55.839355 255.641602 55.839355 Q 256.726562 55.839355 257.349609 56.674561 Q 257.972656 57.509766 257.972656 58.976074 Q 257.972656 60.463867 257.346924 61.309814 Q 256.721191 62.155762 255.630859 62.155762 Q 255.093750 62.155762 254.682861 61.922119 Q 254.271973 61.688477 254.024902 61.242676 L 254.024902 62.000000 L 253.036621 62.000000 L 253.036621 53.642578 L 254.024902 53.642578 Z " fill="rgb(0, 0, 0)" fill-opacity="1.000000" />
<path d="M 262.770508 58.976074 L 262.442871 58.976074 Q 261.578125 58.976074 261.140381 59.279541 Q 260.702637 59.583008 260.702637 60.184570 Q 260.702637 60.727051 261.030273 61.027832 Q 261.357910 61.328613 261.937988 61.328613 Q 262.754395 61.328613 263.221680 60.761963 Q 263.688965 60.195312 263.694336 59.196289 L 263.694336 58.976074 Z M 264.687988 58.567871 L 264.687988 62.000000 L 263.694336 62.000000 L 263.694336 61.108398 Q 263.377441 61.645508 262.896729 61.900635 Q 262.416016 62.155762 261.728516 62.155762 Q 260.810059 62.155762 260.262207 61.637451 Q 259.714355 61.119141 259.714355 60.249023 Q 259.714355 59.244629 260.388428 58.723633 Q 261.062500 58.202637 262.367676 58.202637 L 263.694336 58.202637 L 263.694336 58.046875 Q 263.688965 57.327148 263.329102 57.002197 Q 262.969238 56.677246 262.179688 56.677246 Q 261.674805 56.677246 261.159180 56.822266 Q 260.643555 56.967285 260.154785 57.246582 L 260.154785 56.258301 Q 260.702637 56.048828 261.204834 55.944092 Q 261.707031 55.839355 262.179688 55.839355 Q 262.926270 55.839355 263.455322 56.059570 Q 263.984375 56.279785 264.312012 56.720215 Q 264.516113 56.988770 264.602051 57.383545 Q 264.687988 57.778320 264.687988 58.567871 Z " fill="rgb(0, 0, 0)" fill-opacity="1.000000" />
<path d="M 271.226074 56.193848 L 271.226074 57.160645 Q 270.801758 56.913574 270.372070 56.790039 Q 269.942383 56.666504 269.496582 56.666504 Q 268.825195 56.666504 268.494873 56.884033 Q 268.164551 57.101562 268.164551 57.547363 Q 268.164551 57.950195 268.411621 58.148926 Q 268.658691 58.347656 269.641602 58.535645 L 270.039062 58.610840 Q 270.774902 58.750488 271.153564 59.169434 Q 271.532227 59.588379 271.532227 60.259766 Q 271.532227 61.151367 270.898438 61.653564 Q 270.264648 62.155762 269.136719 62.155762 Q 268.690918 62.155762 268.202148 62.061768 Q 267.713379 61.967773 267.144043 61.779785 L 267.144043 60.759277 Q 267.697266 61.043945 268.202148 61.186279 Q 268.707031 61.328613 269.158203 61.328613 Q 269.813477 61.328613 270.173340 61.062744 Q 270.533203 60.796875 270.533203 60.318848 Q 270.533203 59.631348 269.217285 59.368164 L 269.174316 59.357422 L 268.803711 59.282227 Q 267.949707 59.115723 267.557617 58.720947 Q 267.165527 58.326172 267.165527 57.644043 Q 267.165527 56.779297 267.750977 56.309326 Q 268.336426 55.839355 269.421387 55.839355 Q 269.904785 55.839355 270.350586 55.927979 Q 270.796387 56.016602 271.226074 56.193848 Z " fill="rgb(0, 0, 0)" fill-opacity="1.000000" />
<path d="M 279.015625 58.498047 L 279.015625 58.981445 L 274.734863 58.981445 L 274.734863 59.013672 Q 274.691895 60.243652 275.204834 60.780762 Q 275.717773 61.317871 276.652344 61.317871 Q 277.125000 61.317871 277.640625 61.167480 Q 278.156250 61.017090 278.741699 60.710938 L 278.741699 61.693848 Q 278.177734 61.924805 277.654053 62.040283 Q 277.130371 62.155762 276.641602 62.155762 Q 275.239746 62.155762 274.450195 61.315186 Q 273.660645 60.474609 273.660645 58.997559 Q 273.660645 57.558105 274.434082 56.698730 Q 275.207520 55.839355 276.496582 55.839355 Q 277.645996 55.839355 278.309326 56.618164 Q 278.972656 57.396973 279.015625 58.498047 Z M 278.027344 58.208008 Q 277.962891 57.584961 277.573486 57.131104 Q 277.184082 56.677246 276.453613 56.677246 Q 275.739258 56.677246 275.277344 57.149902 Q 274.815430 57.622559 274.772461 58.213379 Z " fill="rgb(0, 0, 0)" fill-opacity="1.000000" />
<path d="M 282.143066 54.872559 L 282.143066 57.885742 L 283.399902 57.885742 Q 284.151855 57.885742 284.573486 57.488281 Q 284.995117 57.090820 284.995117 56.376465 Q 284.995117 55.662109 284.576172 55.267334 Q 284.157227 54.872559 283.399902 54.872559 Z M 281.058105 53.980957 L 283.399902 53.980957 Q 284.742676 53.980957 285.435547 54.590576 Q 286.128418 55.200195 286.128418 56.376465 Q 286.128418 57.563477 285.438232 58.170410 Q 284.748047 58.777344 283.399902 58.777344 L 282.143066 58.777344 L 282.143066 62.000000 L 281.058105 62.000000 Z " fill="rgb(0, 0, 0)" fill-opacity="1.000000" />
<path d="M 290.308594 56.677246 Q 289.556641 56.677246 289.169922 57.262695 Q 288.783203 57.848145 288.783203 58.997559 Q 288.783203 60.141602 289.169922 60.729736 Q 289.556641 61.317871 290.308594 61.317871 Q 291.065918 61.317871 291.452637 60.729736 Q 291.839355 60.141602 291.839355 58.997559 Q 291.839355 57.848145 291.452637 57.262695 Q 291.065918 56.677246 290.308594 56.677246 Z M 290.308594 55.839355 Q 291.560059 55.839355 292.223389 56.650391 Q 292.886719 57.461426 292.886719 58.997559 Q 292.886719 60.539062 292.226074 61.347412 Q 291.565430 62.155762 290.308594 62.155762 Q 289.057129 62.155762 288.396484 61.347412 Q 287.735840 60.539062 287.735840 58.997559 Q 287.735840 57.461426 288.396484 56.650391 Q 289.057129 55.839355 290.308594 55.839355 Z " fill="rgb(0, 0, 0)" fill-opacity="1.000000" />
<path d="M 295.697266 56.005859 L 298.227051 56.005859 L 298.227051 61.231934 L 300.187500 61.231934 L 300.187500 62.000000 L 295.278320 62.000000 L 295.278320 61.231934 L 297.238770 61.231934 L 297.238770 56.773926 L 295.697266 56.773926 Z M 297.238770 53.669434 L 298.227051 53.669434 L 298.227051 54.915527 L 297.238770 54.915527 Z " fill="rgb(0, 0, 0)" fill-opacity="1.000000" />
<path d="M 306.645020 58.272461 L 306.645020 62.000000 L 305.651367 62.000000 L 305.651367 58.272461 Q 305.651367 57.461426 305.366699 57.080078 Q 305.082031 56.698730 304.475098 56.698730 Q 303.782227 56.698730 303.408936 57.190186 Q 303.035645 57.681641 303.035645 58.600098 L 303.035645 62.000000 L 302.047363 62.000000 L 302.047363 55.984375 L 303.035645 55.984375 L 303.035645 56.886719 Q 303.298828 56.371094 303.750000 56.105225 Q 304.201172 55.839355 304.818848 55.839355 Q 305.737305 55.839355 306.191162 56.443604 Q 306.645020 57.047852 306.645020 58.272461 Z " fill="rgb(0, 0, 0)" fill-opacity="1.000000" />
<path d="M 311.297852 54.276367 L 311.297852 55.984375 L 313.542969 55.984375 L 313.542969 56.752441 L 311.297852 56.752441 L 311.297852 60.018066 Q 311.297852 60.684082 311.550293 60.947266 Q 311.802734 61.210449 312.431152 61.210449 L 313.542969 61.210449 L 313.542969 62.000000 L 312.334473 62.000000 Q 311.222656 62.000000 310.766113 61.554199 Q 310.309570 61.108398 310.309570 60.018066 L 310.309570 56.752441 L 308.703613 56.752441 L 308.703613 55.984375 L 310.309570 55.984375 L 310.309570 54.276367 Z " fill="rgb(0, 0, 0)" fill-opacity="1.000000" />
<path d="M 321.015625 58.498047 L 321.015625 58.981445 L 316.734863 58.981445 L 316.734863 59.013672 Q 316.691895 60.243652 317.204834 60.780762 Q 317.717773 61.317871 318.652344 61.317871 Q 319.125000 61.317871 319.640625 61.167480 Q 320.156250 61.017090 320.741699 60.710938 L 320.741699 61.693848 Q 320.177734 61.924805 319.654053 62.040283 Q 319.130371 62.155762 318.641602 62.155762 Q 317.239746 62.155762 316.450195 61.315186 Q 315.660645 60.474609 315.660645 58.997559 Q 315.660645 57.558105 316.434082 56.698730 Q 317.207520 55.839355 318.496582 55.839355 Q 319.645996 55.839355 320.309326 56.618164 Q 320.972656 57.396973 321.015625 58.498047 Z M 320.027344 58.208008 Q 319.962891 57.584961 319.573486 57.131104 Q 319.184082 56.677246 318.453613 56.677246 Q 317.739258 56.677246 317.277344 57.149902 Q 316.815430 57.622559 316.772461 58.213379 Z " fill="rgb(0, 0, 0)" fill-opacity="1.000000" />
<path d="M 328.203613 57.225098 Q 327.886719 56.978027 327.559082 56.865234 Q 327.231445 56.752441 326.839355 56.752441 Q 325.915527 56.752441 325.426758 57.332520 Q 324.937988 57.912598 324.937988 59.008301 L 324.937988 62.000000 L 323.944336 62.000000 L 323.944336 55.984375 L 324.937988 55.984375 L 324.937988 57.160645 Q 325.185059 56.521484 325.697998 56.180420 Q 326.210938 55.839355 326.914551 55.839355 Q 327.279785 55.839355 327.596680 55.930664 Q 327.913574 56.021973 328.203613 56.215332 Z " fill="rgb(0, 0, 0)" fill-opacity="1.000000" />
<path d="M 332.867188 55.672852 L 332.867188 58.052246 L 335.257324 58.052246 L 335.257324 58.959961 L 332.867188 58.959961 L 332.867188 61.339355 L 331.964844 61.339355 L 331.964844 58.959961 L 329.580078 58.959961 L 329.580078 58.052246 L 331.964844 58.052246 L 331.964844 55.672852 Z " fill="rgb(0, 0, 0)" fill-opacity="1.000000" />
<path d="M 337.450195 61.092285 L 339.136719 61.092285 L 339.136719 55.033691 L 337.117188 56.005859 L 337.117188 54.963867 L 339.125977 54.007812 L 340.210938 54.007812 L 340.210938 61.092285 L 341.875977 61.092285 L 341.875977 62.000000 L 337.450195 62.000000 Z " fill="rgb(0, 0, 0)" fill-opacity="1.000000" />
<path d="M 90.892578 45.412109 L 90.892578 44.488281 L 97.729980 44.488281 L 97.729980 45.412109 Z M 90.892578 47.259766 L 90.892578 46.335938 L 97.729980 46.335938 L 97.729980 47.259766 Z " fill="rgb(0, 0, 0)" fill-opacity="1.000000" />
<path d="M 97.892578 45.412109 L 97.892578 44.488281 L 104.729980 44.488281 L 104.729980 45.412109 Z M 97.892578 47.259766 L 97.892578 46.335938 L 104.729980 46.335938 L 104.729980 47.259766 Z " fill="rgb(0, 0, 0)" fill-opacity="1.000000" />
<path d="M 104.892578 45.412109 L 104.892578 44.488281 L 111.729980 44.488281 L 111.729980 45.412109 Z M 104.892578 47.259766 L 104.892578 46.335938 L 111.729980 46.335938 L 111.729980 47.259766 Z " fill="rgb(0, 0, 0)" fill-opacity="1.000000" />
<path d="M 111.892578 45.412109 L 111.892578 44.488281 L 118.729980 44.488281 L 118.729980 45.412109 Z M 111.892578 47.259766 L 111.892578 46.335938 L 118.729980 46.335938 L 118.729980 47.259766 Z " fill="rgb(0, 0, 0)" fill-opacity="1.000000" />
<path d="M 118.892578 45.412109 L 118.892578 44.488281 L 125.729980 44.488281 L 125.729980 45.412109 Z M 118.892578 47.259766 L 118.892578 46.335938 L 125.729980 46.335938 L 125.729980 47.259766 Z " fill="rgb(0, 0, 0)" fill-opacity="1.000000" />
<path d="M 125.892578 45.412109 L 125.892578 44.488281 L 132.729980 44.488281 L 132.729980 45.412109 Z M 125.892578 47.259766 L 125.892578 46.335938 L 132.729980 46.335938 L 132.729980 47.259766 Z " fill="rgb(0, 0, 0)" fill-opacity="1.000000" />
<path d="M 132.892578 45.412109 L 132.892578 44.488281 L 139.729980 44.488281 L 139.729980 45.412109 Z M 132.892578 47.259766 L 132.892578 46.335938 L 139.729980 46.335938 L 139.729980 47.259766 Z " fill="rgb(0, 0, 0)" fill-opacity="1.000000" />
<path d="M 139.892578 45.412109 L 139.892578 44.488281 L 146.729980 44.488281 L 146.729980 45.412109 Z M 139.892578 47.259766 L 139.892578 46.335938 L 146.729980 46.335938 L 146.729980 47.259766 Z " fill="rgb(0, 0, 0)" fill-opacity="1.000000" />
<path d="M 146.892578 45.412109 L 146.892578 44.488281 L 153.729980 44.488281 L 153.729980 45.412109 Z M 146.892578 47.259766 L 146.892578 46.335938 L 153.729980 46.335938 L 153.729980 47.259766 Z " fill="rgb(0, 0, 0)" fill-opacity="1.000000" />
<path d="M 153.892578 45.412109 L 153.892578 44.488281 L 160.729980 44.488281 L 160.729980 45.412109 Z M 153.892578 47.259766 L 153.892578 46.335938 L 160.729980 46.335938 L 160.729980 47.259766 Z " fill="rgb(0, 0, 0)" fill-opacity="1.000000" />
<path d="M 160.892578 45.412109 L 160.892578 44.488281 L 167.729980 44.488281 L 167.729980 45.412109 Z M 160.892578 47.259766 L 160.892578 46.335938 L 167.729980 46.335938 L 167.729980 47.259766 Z " fill="rgb(0, 0, 0)" fill-opacity="1.000000" />
<path d="M 167.892578 45.412109 L 167.892578 44.488281 L 174.729980 44.488281 L 174.729980 45.412109 Z M 167.892578 47.259766 L 167.892578 46.335938 L 174.729980 46.335938 L 174.729980 47.259766 Z " fill="rgb(0, 0, 0)" fill-opacity="1.000000" />
<path d="M 174.892578 45.412109 L 174.892578 44.488281 L 181.729980 44.488281 L 181.729980 45.412109 Z M 174.892578 47.259766 L 174.892578 46.335938 L 181.729980 46.335938 L 181.729980 47.259766 Z " fill="rgb(0, 0, 0)" fill-opacity="1.000000" />
<path d="M 181.892578 45.412109 L 181.892578 44.488281 L 188.729980 44.488281 L 188.729980 45.412109 Z M 181.892578 47.259766 L 181.892578 46.335938 L 188.729980 46.335938 L 188.729980 47.259766 Z " fill="rgb(0, 0, 0)" fill-opacity="1.000000" />
<path d="M 188.892578 45.412109 L 188.892578 44.488281 L 191.019531 44.488281 L 191.019531 38.300781 L 191.878906 38.300781 L 191.878906 45.412109 Z M 191.019531 52.319336 L 191.019531 47.259766 L 188.892578 47.259766 L 188.892578 46.335938 L 191.878906 46.335938 L 191.878906 52.319336 Z M 192.738281 52.319336 L 192.738281 38.300781 L 193.597656 38.300781 L 193.597656 52.319336 Z " fill="rgb(0, 0, 0)" fill-opacity="1.000000" />
<path d="M 191.019531 39.319336 L 191.019531 25.300781 L 191.878906 25.300781 L 191.878906 39.319336 Z M 192.738281 39.319336 L 192.738281 25.300781 L 193.597656 25.300781 L 193.597656 39.319336 Z " fill="rgb(0, 0, 0)" fill-opacity="1.000000" />
<path d="M 210.032227 33.142578 L 216.590332 29.866211 L 216.590332 36.418945 Z " fill="rgb(0, 0, 0)" fill-opacity="1.000000" />
<path d="M 216.892578 33.335938 L 216.892578 32.412109 L 223.729980 32.412109 L 223.729980 33.335938 Z " fill="rgb(0, 0, 0)" fill-opacity="1.000000" />
<path d="M 223.892578 33.335938 L 223.892578 32.412109 L 230.729980 32.412109 L 230.729980 33.335938 Z " fill="rgb(0, 0, 0)" fill-opacity="1.000000" />
<path d="M 230.892578 33.335938 L 230.892578 32.412109 L 237.729980 32.412109 L 237.729980 33.335938 Z " fill="rgb(0, 0, 0)" fill-opacity="1.000000" />
<path d="M 237.892578 33.335938 L 237.892578 32.412109 L 244.729980 32.412109 L 244.729980 33.335938 Z " fill="rgb(0, 0, 0)" fill-opacity="1.000000" />
<path d="M 256.930664 32.997559 Q 256.930664 31.848145 256.565430 31.262695 Q 256.200195 30.677246 255.485840 30.677246 Q 254.766113 30.677246 254.395508 31.265381 Q 254.024902 31.853516 254.024902 32.997559 Q 254.024902 34.136230 254.395508 34.727051 Q 254.766113 35.317871 255.485840 35.317871 Q 256.200195 35.317871 256.565430 34.732422 Q 256.930664 34.146973 256.930664 32.997559 Z M 254.024902 30.752441 Q 254.261230 30.312012 254.677490 30.075684 Q 255.093750 29.839355 255.641602 29.839355 Q 256.726562 29.839355 257.349609 30.674561 Q 257.972656 31.509766 257.972656 32.976074 Q 257.972656 34.463867 257.346924 35.309814 Q 256.721191 36.155762 255.630859 36.155762 Q 255.093750 36.155762 254.682861 35.922119 Q 254.271973 35.688477 254.024902 35.242676 L 254.024902 36.000000 L 253.036621 36.000000 L 253.036621 27.642578 L 254.024902 27.642578 Z " fill="rgb(0, 0, 0)" fill-opacity="1.000000" />
<path d="M 262.770508 32.976074 L 262.442871 32.976074 Q 261.578125 32.976074 261.140381 33.279541 Q 260.702637 33.583008 260.702637 34.184570 Q 260.702637 34.727051 261.030273 35.027832 Q 261.357910 35.328613 261.937988 35.328613 Q 262.754395 35.328613 263.221680 34.761963 Q 263.688965 34.195312 263.694336 33.196289 L 263.694336 32.976074 Z M 264.687988 32.567871 L 264.687988 36.000000 L 263.694336 36.000000 L 263.694336 35.108398 Q 263.377441 35.645508 262.896729 35.900635 Q 262.416016 36.155762 261.728516 36.155762 Q 260.810059 36.155762 260.262207 35.637451 Q 259.714355 35.119141 259.714355 34.249023 Q 259.714355 33.244629 260.388428 32.723633 Q 261.062500 32.202637 262.367676 32.202637 L 263.694336 32.202637 L 263.694336 32.046875 Q 263.688965 31.327148 263.329102 31.002197 Q 262.969238 30.677246 262.179688 30.677246 Q 261.674805 30.677246 261.159180 30.822266 Q 260.643555 30.967285 260.154785 31.246582 L 260.154785 30.258301 Q 260.702637 30.048828 261.204834 29.944092 Q 261.707031 29.839355 262.179688 29.839355 Q 262.926270 29.839355 263.455322 30.059570 Q 263.984375 30.279785 264.312012 30.720215 Q 264.516113 30.988770 264.602051 31.383545 Q 264.687988 31.778320 264.687988 32.567871 Z " fill="rgb(0, 0, 0)" fill-opacity="1.000000" />
<path d="M 271.226074 30.193848 L 271.226074 31.160645 Q 270.801758 30.913574 270.372070 30.790039 Q 269.942383 30.666504 269.496582 30.666504 Q 268.825195 30.666504 268.494873 30.884033 Q 268.164551 31.101562 268.164551 31.547363 Q 268.164551 31.950195 268.411621 32.148926 Q 268.658691 32.347656 269.641602 32.535645 L 270.039062 32.610840 Q 270.774902 32.750488 271.153564 33.169434 Q 271.532227 33.588379 271.532227 34.259766 Q 271.532227 35.151367 270.898438 35.653564 Q 270.264648 36.155762 269.136719 36.155762 Q 268.690918 36.155762 268.202148 36.061768 Q 267.713379 35.967773 267.144043 35.779785 L 267.144043 34.759277 Q 267.697266 35.043945 268.202148 35.186279 Q 268.707031 35.328613 269.158203 35.328613 Q 269.813477 35.328613 270.173340 35.062744 Q 270.533203 34.796875 270.533203 34.318848 Q 270.533203 33.631348 269.217285 33.368164 L 269.174316 33.357422 L 268.803711 33.282227 Q 267.949707 33.115723 267.557617 32.720947 Q 267.165527 32.326172 267.165527 31.644043 Q 267.165527 30.779297 267.750977 30.309326 Q 268.336426 29.839355 269.421387 29.839355 Q 269.904785 29.839355 270.350586 29.927979 Q 270.796387 30.016602 271.226074 30.193848 Z " fill="rgb(0, 0, 0)" fill-opacity="1.000000" />
<path d="M 279.015625 32.498047 L 279.015625 32.981445 L 274.734863 32.981445 L 274.734863 33.013672 Q 274.691895 34.243652 275.204834 34.780762 Q 275.717773 35.317871 276.652344 35.317871 Q 277.125000 35.317871 277.640625 35.167480 Q 278.156250 35.017090 278.741699 34.710938 L 278.741699 35.693848 Q 278.177734 35.924805 277.654053 36.040283 Q 277.130371 36.155762 276.641602 36.155762 Q 275.239746 36.155762 274.450195 35.315186 Q 273.660645 34.474609 273.660645 32.997559 Q 273.660645 31.558105 274.434082 30.698730 Q 275.207520 29.839355 276.496582 29.839355 Q 277.645996 29.839355 278.309326 30.618164 Q 278.972656 31.396973 279.015625 32.498047 Z M 278.027344 32.208008 Q 277.962891 31.584961 277.573486 31.131104 Q 277.184082 30.677246 276.453613 30.677246 Q 275.739258 30.677246 275.277344 31.149902 Q 274.815430 31.622559 274.772461 32.213379 Z " fill="rgb(0, 0, 0)" fill-opacity="1.000000" />
<path d="M 282.143066 28.872559 L 282.143066 31.885742 L 283.399902 31.885742 Q 284.151855 31.885742 284.573486 31.488281 Q 284.995117 31.090820 284.995117 30.376465 Q 284.995117 29.662109 284.576172 29.267334 Q 284.157227 28.872559 283.399902 28.872559 Z M 281.058105 27.980957 L 283.399902 27.980957 Q 284.742676 27.980957 285.435547 28.590576 Q 286.128418 29.200195 286.128418 30.376465 Q 286.128418 31.563477 285.438232 32.170410 Q 284.748047 32.777344 283.399902 32.777344 L 282.143066 32.777344 L 282.143066 36.000000 L 281.058105 36.000000 Z " fill="rgb(0, 0, 0)" fill-opacity="1.000000" />
<path d="M 290.308594 30.677246 Q 289.556641 30.677246 289.169922 31.262695 Q 288.783203 31.848145 288.783203 32.997559 Q 288.783203 34.141602 289.169922 34.729736 Q 289.556641 35.317871 290.308594 35.317871 Q 291.065918 35.317871 291.452637 34.729736 Q 291.839355 34.141602 291.839355 32.997559 Q 291.839355 31.848145 291.452637 31.262695 Q 291.065918 30.677246 290.308594 30.677246 Z M 290.308594 29.839355 Q 291.560059 29.839355 292.223389 30.650391 Q 292.886719 31.461426 292.886719 32.997559 Q 292.886719 34.539062 292.226074 35.347412 Q 291.565430 36.155762 290.308594 36.155762 Q 289.057129 36.155762 288.396484 35.347412 Q 287.735840 34.539062 287.735840 32.997559 Q 287.735840 31.461426 288.396484 30.650391 Q 289.057129 29.839355 290.308594 29.839355 Z " fill="rgb(0, 0, 0)" fill-opacity="1.000000" />
<path d="M 295.697266 30.005859 L 298.227051 30.005859 L 298.227051 35.231934 L 300.187500 35.231934 L 300.187500 36.000000 L 295.278320 36.000000 L 295.278320 35.231934 L 297.238770 35.231934 L 297.238770 30.773926 L 295.697266 30.773926 Z M 297.238770 27.669434 L 298.227051 27.669434 L 298.227051 28.915527 L 297.238770 28.915527 Z " fill="rgb(0, 0, 0)" fill-opacity="1.000000" />
<path d="M 306.645020 32.272461 L 306.645020 36.000000 L 305.651367 36.000000 L 305.651367 32.272461 Q 305.651367 31.461426 305.366699 31.080078 Q 305.082031 30.698730 304.475098 30.698730 Q 303.782227 30.698730 303.408936 31.190186 Q 303.035645 31.681641 303.035645 32.600098 L 303.035645 36.000000 L 302.047363 36.000000 L 302.047363 29.984375 L 303.035645 29.984375 L 303.035645 30.886719 Q 303.298828 30.371094 303.750000 30.105225 Q 304.201172 29.839355 304.818848 29.839355 Q 305.737305 29.839355 306.191162 30.443604 Q 306.645020 31.047852 306.645020 32.272461 Z " fill="rgb(0, 0, 0)" fill-opacity="1.000000" />
<path d="M 311.297852 28.276367 L 311.297852 29.984375 L 313.542969 29.984375 L 313.542969 30.752441 L 311.297852 30.752441 L 311.297852 34.018066 Q 311.297852 34.684082 311.550293 34.947266 Q 311.802734 35.210449 312.431152 35.210449 L 313.542969 35.210449 L 313.542969 36.000000 L 312.334473 36.000000 Q 311.222656 36.000000 310.766113 35.554199 Q 310.309570 35.108398 310.309570 34.018066 L 310.309570 30.752441 L 308.703613 30.752441 L 308.703613 29.984375 L 310.309570 29.984375 L 310.309570 28.276367 Z " fill="rgb(0, 0, 0)" fill-opacity="1.000000" />
<path d="M 321.015625 32.498047 L 321.015625 32.981445 L 316.734863 32.981445 L 316.734863 33.013672 Q 316.691895 34.243652 317.204834 34.780762 Q 317.717773 35.317871 318.652344 35.317871 Q 319.125000 35.317871 319.640625 35.167480 Q 320.156250 35.017090 320.741699 34.710938 L 320.741699 35.693848 Q 320.177734 35.924805 319.654053 36.040283 Q 319.130371 36.155762 318.641602 36.155762 Q 317.239746 36.155762 316.450195 35.315186 Q 315.660645 34.474609 315.660645 32.997559 Q 315.660645 31.558105 316.434082 30.698730 Q 317.207520 29.839355 318.496582 29.839355 Q 319.645996 29.839355 320.309326 30.618164 Q 320.972656 31.396973 321.015625 32.498047 Z M 320.027344 32.208008 Q 319.962891 31.584961 319.573486 31.131104 Q 319.184082 30.677246 318.453613 30.677246 Q 317.739258 30.677246 317.277344 31.149902 Q 316.815430 31.622559 316.772461 32.213379 Z " fill="rgb(0, 0, 0)" fill-opacity="1.000000" />
<path d="M 328.203613 31.225098 Q 327.886719 30.978027 327.559082 30.865234 Q 327.231445 30.752441 326.839355 30.752441 Q 325.915527 30.752441 325.426758 31.332520 Q 324.937988 31.912598 324.937988 33.008301 L 324.937988 36.000000 L 323.944336 36.000000 L 323.944336 29.984375 L 324.937988 29.984375 L 324.937988 31.160645 Q 325.185059 30.521484 325.697998 30.180420 Q 326.210938 29.839355 326.914551 29.839355 Q 327.279785 29.839355 327.596680 29.930664 Q 327.913574 30.021973 328.203613 30.215332 Z " fill="rgb(0, 0, 0)" fill-opacity="1.000000" />
<path d="M 332.867188 29.672852 L 332.867188 32.052246 L 335.257324 32.052246 L 335.257324 32.959961 L 332.867188 32.959961 L 332.867188 35.339355 L 331.964844 35.339355 L 331.964844 32.959961 L 329.580078 32.959961 L 329.580078 32.052246 L 331.964844 32.052246 L 331.964844 29.672852 Z " fill="rgb(0, 0, 0)" fill-opacity="1.000000" />
<path d="M 338.003418 35.086914 L 341.687988 35.086914 L 341.687988 36.000000 L 336.816406 36.000000 L 336.816406 35.086914 Q 337.820801 34.028809 338.572754 33.217773 Q 339.324707 32.406738 339.609375 32.073730 Q 340.146484 31.418457 340.334473 31.012939 Q 340.522461 30.607422 340.522461 30.183105 Q 340.522461 29.511719 340.127686 29.130371 Q 339.732910 28.749023 339.045410 28.749023 Q 338.556641 28.749023 338.019531 28.926270 Q 337.482422 29.103516 336.880859 29.463379 L 336.880859 28.367676 Q 337.434082 28.104492 337.968506 27.970215 Q 338.502930 27.835938 339.023926 27.835938 Q 340.200195 27.835938 340.917236 28.461670 Q 341.634277 29.087402 341.634277 30.102539 Q 341.634277 30.618164 341.395264 31.133789 Q 341.156250 31.649414 340.619141 32.272461 Q 340.318359 32.621582 339.746338 33.239258 Q 339.174316 33.856934 338.003418 35.086914 Z " fill="rgb(0, 0, 0)" fill-opacity="1.000000" />
<path d="M 191.019531 13.319336 L 191.019531 -0.699219 L 191.878906 -0.699219 L 191.878906 13.319336 Z M 192.738281 13.319336 L 192.738281 -0.699219 L 193.597656 -0.699219 L 193.597656 13.319336 Z " fill="rgb(0, 0, 0)" fill-opacity="1.000000" />
<path d="M 191.019531 26.319336 L 191.019531 12.300781 L 191.878906 12.300781 L 191.878906 26.319336 Z M 192.738281 26.319336 L 192.738281 12.300781 L 193.597656 12.300781 L 193.597656 26.319336 Z " fill="rgb(0, 0, 0)" fill-opacity="1.000000" />
</svg>