<svg xmlns="http://www.w3.org/2000/svg" version="1.1" width="197" height="183">
<path d="M 0.537109 81.984375 L 1.562988 81.984375 L 3.308594 87.033203 L 5.059570 81.984375 L 6.085449 81.984375 L 3.947754 88.000000 L 2.674805 88.000000 Z " fill="rgb(0, 0, 0)" fill-opacity="1.000000" />
<path d="M 87.738281 97.412109 L 87.738281 90.300781 L 88.597656 90.300781 L 88.597656 96.488281 L 90.729980 96.488281 L 90.729980 97.412109 Z M 86.019531 104.319336 L 86.019531 90.300781 L 86.878906 90.300781 L 86.878906 104.319336 Z M 87.738281 104.319336 L 87.738281 98.335938 L 90.729980 98.335938 L 90.729980 99.259766 L 88.597656 99.259766 L 88.597656 104.319336 Z " fill="rgb(0, 0, 0)" fill-opacity="1.000000" />
<path d="M 86.019531 117.319336 L 86.019531 103.300781 L 86.878906 103.300781 L 86.878906 117.319336 Z M 87.738281 117.319336 L 87.738281 103.300781 L 88.597656 103.300781 L 88.597656 117.319336 Z " fill="rgb(0, 0, 0)" fill-opacity="1.000000" />
<path d="M 87.738281 123.412109 L 87.738281 116.300781 L 88.597656 116.300781 L 88.597656 122.488281 L 90.729980 122.488281 L 90.729980 123.412109 Z M 86.019531 130.319336 L 86.019531 116.300781 L 86.878906 116.300781 L 86.878906 130.319336 Z M 87.738281 130.319336 L 87.738281 124.335938 L 90.729980 124.335938 L 90.729980 125.259766 L 88.597656 125.259766 L 88.597656 130.319336 Z " fill="rgb(0, 0, 0)" fill-opacity="1.000000" />
<path d="M 86.019531 143.319336 L 86.019531 129.300781 L 86.878906 129.300781 L 86.878906 143.319336 Z M 87.738281 143.319336 L 87.738281 129.300781 L 88.597656 129.300781 L 88.597656 143.319336 Z " fill="rgb(0, 0, 0)" fill-opacity="1.000000" />
<path d="M 87.738281 149.412109 L 87.738281 142.300781 L 88.597656 142.300781 L 88.597656 148.488281 L 90.729980 148.488281 L 90.729980 149.412109 Z M 86.019531 156.319336 L 86.019531 142.300781 L 86.878906 142.300781 L 86.878906 156.319336 Z M 87.738281 156.319336 L 87.738281 150.335938 L 90.729980 150.335938 L 90.729980 151.259766 L 88.597656 151.259766 L 88.597656 156.319336 Z " fill="rgb(0, 0, 0)" fill-opacity="1.000000" />
<path d="M 86.019531 169.319336 L 86.019531 155.300781 L 86.878906 155.300781 L 86.878906 169.319336 Z M 87.738281 169.319336 L 87.738281 155.300781 L 88.597656 155.300781 L 88.597656 169.319336 Z " fill="rgb(0, 0, 0)" fill-opacity="1.000000" />
<path d="M 87.738281 175.412109 L 87.738281 168.300781 L 88.597656 168.300781 L 88.597656 174.488281 L 90.729980 174.488281 L 90.729980 175.412109 Z M 86.019531 177.259766 L 86.019531 168.300781 L 86.878906 168.300781 L 86.878906 176.335938 L 90.729980 176.335938 L 90.729980 177.259766 Z " fill="rgb(0, 0, 0)" fill-opacity="1.000000" />
<path d="M 90.892578 175.412109 L 90.892578 174.488281 L 97.729980 174.488281 L 97.729980 175.412109 Z M 90.892578 177.259766 L 90.892578 176.335938 L 97.729980 176.335938 L 97.729980 177.259766 Z " fill="rgb(0, 0, 0)" fill-opacity="1.000000" />
<path d="M 97.892578 175.412109 L 97.892578 174.488281 L 104.729980 174.488281 L 104.729980 175.412109 Z M 97.892578 177.259766 L 97.892578 176.335938 L 104.729980 176.335938 L 104.729980 177.259766 Z " fill="rgb(0, 0, 0)" fill-opacity="1.000000" />
<path d="M 104.892578 175.412109 L 104.892578 174.488281 L 111.729980 174.488281 L 111.729980 175.412109 Z M 104.892578 177.259766 L 104.892578 176.335938 L 111.729980 176.335938 L 111.729980 177.259766 Z " fill="rgb(0, 0, 0)" fill-opacity="1.000000" />
<path d="M 111.892578 175.412109 L 111.892578 174.488281 L 118.729980 174.488281 L 118.729980 175.412109 Z M 111.892578 177.259766 L 111.892578 176.335938 L 118.729980 176.335938 L 118.729980 177.259766 Z " fill="rgb(0, 0, 0)" fill-opacity="1.000000" />
<path d="M 118.892578 175.412109 L 118.892578 174.488281 L 125.729980 174.488281 L 125.729980 175.412109 Z M 118.892578 177.259766 L 118.892578 176.335938 L 125.729980 176.335938 L 125.729980 177.259766 Z " fill="rgb(0, 0, 0)" fill-opacity="1.000000" />
<path d="M 125.892578 175.412109 L 125.892578 174.488281 L 132.729980 174.488281 L 132.729980 175.412109 Z M 125.892578 177.259766 L 125.892578 176.335938 L 132.729980 176.335938 L 132.729980 177.259766 Z " fill="rgb(0, 0, 0)" fill-opacity="1.000000" />
<path d="M 132.892578 175.412109 L 132.892578 174.488281 L 139.729980 174.488281 L 139.729980 175.412109 Z M 132.892578 177.259766 L 132.892578 176.335938 L 139.729980 176.335938 L 139.729980 177.259766 Z " fill="rgb(0, 0, 0)" fill-opacity="1.000000" />
<path d="M 139.892578 175.412109 L 139.892578 174.488281 L 146.729980 174.488281 L 146.729980 175.412109 Z M 139.892578 177.259766 L 139.892578 176.335938 L 146.729980 176.335938 L 146.729980 177.259766 Z " fill="rgb(0, 0, 0)" fill-opacity="1.000000" />
<path d="M 146.892578 175.412109 L 146.892578 174.488281 L 153.729980 174.488281 L 153.729980 175.412109 Z M 146.892578 177.259766 L 146.892578 176.335938 L 153.729980 176.335938 L 153.729980 177.259766 Z " fill="rgb(0, 0, 0)" fill-opacity="1.000000" />
<path d="M 153.892578 175.412109 L 153.892578 174.488281 L 160.729980 174.488281 L 160.729980 175.412109 Z M 153.892578 177.259766 L 153.892578 176.335938 L 160.729980 176.335938 L 160.729980 177.259766 Z " fill="rgb(0, 0, 0)" fill-opacity="1.000000" />
<path d="M 160.892578 175.412109 L 160.892578 174.488281 L 167.729980 174.488281 L 167.729980 175.412109 Z M 160.892578 177.259766 L 160.892578 176.335938 L 167.729980 176.335938 L 167.729980 177.259766 Z " fill="rgb(0, 0, 0)" fill-opacity="1.000000" />
<path d="M 167.892578 175.412109 L 167.892578 174.488281 L 174.729980 174.488281 L 174.729980 175.412109 Z M 167.892578 177.259766 L 167.892578 176.335938 L 174.729980 176.335938 L 174.729980 177.259766 Z " fill="rgb(0, 0, 0)" fill-opacity="1.000000" />
<path d="M 174.892578 175.412109 L 174.892578 174.488281 L 181.729980 174.488281 L 181.729980 175.412109 Z M 174.892578 177.259766 L 174.892578 176.335938 L 181.729980 176.335938 L 181.729980 177.259766 Z " fill="rgb(0, 0, 0)" fill-opacity="1.000000" />
<path d="M 181.892578 175.412109 L 181.892578 174.488281 L 188.729980 174.488281 L 188.729980 175.412109 Z M 181.892578 177.259766 L 181.892578 176.335938 L 188.729980 176.335938 L 188.729980 177.259766 Z " fill="rgb(0, 0, 0)" fill-opacity="1.000000" />
<path d="M 188.892578 175.412109 L 188.892578 174.488281 L 191.019531 174.488281 L 191.019531 168.300781 L 191.878906 168.300781 L 191.878906 175.412109 Z M 188.892578 177.259766 L 188.892578 176.335938 L 192.738281 176.335938 L 192.738281 168.300781 L 193.597656 168.300781 L 193.597656 177.259766 Z " fill="rgb(0, 0, 0)" fill-opacity="1.000000" />
<path d="M 113.251465 157.980957 L 117.972656 157.980957 L 117.972656 158.894043 L 114.341797 158.894043 L 114.341797 161.042480 L 117.634277 161.042480 L 117.634277 161.955566 L 114.341797 161.955566 L 114.341797 166.000000 L 113.251465 166.000000 Z " fill="rgb(0, 0, 0)" fill-opacity="1.000000" />
<path d="M 120.047363 163.722656 L 120.047363 159.995117 L 121.035645 159.995117 L 121.035645 163.722656 Q 121.035645 164.533691 121.322998 164.915039 Q 121.610352 165.296387 122.211914 165.296387 Q 122.910156 165.296387 123.280762 164.804932 Q 123.651367 164.313477 123.651367 163.395020 L 123.651367 159.995117 L 124.645020 159.995117 L 124.645020 166.000000 L 123.651367 166.000000 L 123.651367 165.097656 Q 123.388184 165.618652 122.934326 165.887207 Q 122.480469 166.155762 121.873535 166.155762 Q 120.949707 166.155762 120.498535 165.551514 Q 120.047363 164.947266 120.047363 163.722656 Z " fill="rgb(0, 0, 0)" fill-opacity="1.000000" />
<path d="M 131.645020 162.272461 L 131.645020 166.000000 L 130.651367 166.000000 L 130.651367 162.272461 Q 130.651367 161.461426 130.366699 161.080078 Q 130.082031 160.698730 129.475098 160.698730 Q 128.782227 160.698730 128.408936 161.190186 Q 128.035645 161.681641 128.035645 162.600098 L 128.035645 166.000000 L 127.047363 166.000000 L 127.047363 159.984375 L 128.035645 159.984375 L 128.035645 160.886719 Q 128.298828 160.371094 128.750000 160.105225 Q 129.201172 159.839355 129.818848 159.839355 Q 130.737305 159.839355 131.191162 160.443604 Q 131.645020 161.047852 131.645020 162.272461 Z " fill="rgb(0, 0, 0)" fill-opacity="1.000000" />
<path d="M 138.698730 165.693848 Q 138.301270 165.924805 137.879639 166.040283 Q 137.458008 166.155762 137.017578 166.155762 Q 135.621094 166.155762 134.834229 165.317871 Q 134.047363 164.479980 134.047363 162.997559 Q 134.047363 161.515137 134.834229 160.677246 Q 135.621094 159.839355 137.017578 159.839355 Q 137.452637 159.839355 137.866211 159.952148 Q 138.279785 160.064941 138.698730 160.301270 L 138.698730 161.337891 Q 138.306641 160.988770 137.911865 160.833008 Q 137.517090 160.677246 137.017578 160.677246 Q 136.088379 160.677246 135.588867 161.278809 Q 135.089355 161.880371 135.089355 162.997559 Q 135.089355 164.109375 135.591553 164.713623 Q 136.093750 165.317871 137.017578 165.317871 Q 137.533203 165.317871 137.941406 165.159424 Q 138.349609 165.000977 138.698730 164.667969 Z " fill="rgb(0, 0, 0)" fill-opacity="1.000000" />
<path d="M 143.297852 158.276367 L 143.297852 159.984375 L 145.542969 159.984375 L 145.542969 160.752441 L 143.297852 160.752441 L 143.297852 164.018066 Q 143.297852 164.684082 143.550293 164.947266 Q 143.802734 165.210449 144.431152 165.210449 L 145.542969 165.210449 L 145.542969 166.000000 L 144.334473 166.000000 Q 143.222656 166.000000 142.766113 165.554199 Q 142.309570 165.108398 142.309570 164.018066 L 142.309570 160.752441 L 140.703613 160.752441 L 140.703613 159.984375 L 142.309570 159.984375 L 142.309570 158.276367 Z " fill="rgb(0, 0, 0)" fill-opacity="1.000000" />
<path d="M 148.697266 160.005859 L 151.227051 160.005859 L 151.227051 165.231934 L 153.187500 165.231934 L 153.187500 166.000000 L 148.278320 166.000000 L 148.278320 165.231934 L 150.238770 165.231934 L 150.238770 160.773926 L 148.697266 160.773926 Z M 150.238770 157.669434 L 151.227051 157.669434 L 151.227051 158.915527 L 150.238770 158.915527 Z " fill="rgb(0, 0, 0)" fill-opacity="1.000000" />
<path d="M 157.308594 160.677246 Q 156.556641 160.677246 156.169922 161.262695 Q 155.783203 161.848145 155.783203 162.997559 Q 155.783203 164.141602 156.169922 164.729736 Q 156.556641 165.317871 157.308594 165.317871 Q 158.065918 165.317871 158.452637 164.729736 Q 158.839355 164.141602 158.839355 162.997559 Q 158.839355 161.848145 158.452637 161.262695 Q 158.065918 160.677246 157.308594 160.677246 Z M 157.308594 159.839355 Q 158.560059 159.839355 159.223389 160.650391 Q 159.886719 161.461426 159.886719 162.997559 Q 159.886719 164.539062 159.226074 165.347412 Q 158.565430 166.155762 157.308594 166.155762 Q 156.057129 166.155762 155.396484 165.347412 Q 154.735840 164.539062 154.735840 162.997559 Q 154.735840 161.461426 155.396484 160.650391 Q 156.057129 159.839355 157.308594 159.839355 Z " fill="rgb(0, 0, 0)" fill-opacity="1.000000" />
<path d="M 166.645020 162.272461 L 166.645020 166.000000 L 165.651367 166.000000 L 165.651367 162.272461 Q 165.651367 161.461426 165.366699 161.080078 Q 165.082031 160.698730 164.475098 160.698730 Q 163.782227 160.698730 163.408936 161.190186 Q 163.035645 161.681641 163.035645 162.600098 L 163.035645 166.000000 L 162.047363 166.000000 L 162.047363 159.984375 L 163.035645 159.984375 L 163.035645 160.886719 Q 163.298828 160.371094 163.750000 160.105225 Q 164.201172 159.839355 164.818848 159.839355 Q 165.737305 159.839355 166.191162 160.443604 Q 166.645020 161.047852 166.645020 162.272461 Z " fill="rgb(0, 0, 0)" fill-opacity="1.000000" />
<path d="M 191.019531 169.319336 L 191.019531 155.300781 L 191.878906 155.300781 L 191.878906 169.319336 Z M 192.738281 169.319336 L 192.738281 155.300781 L 193.597656 155.300781 L 193.597656 169.319336 Z " fill="rgb(0, 0, 0)" fill-opacity="1.000000" />
<path d="M 90.892578 149.412109 L 90.892578 148.488281 L 97.729980 148.488281 L 97.729980 149.412109 Z M 90.892578 151.259766 L 90.892578 150.335938 L 97.729980 150.335938 L 97.729980 151.259766 Z " fill="rgb(0, 0, 0)" fill-opacity="1.000000" />
<path d="M 97.892578 149.412109 L 97.892578 148.488281 L 104.729980 148.488281 L 104.729980 149.412109 Z M 97.892578 151.259766 L 97.892578 150.335938 L 104.729980 150.335938 L 104.729980 151.259766 Z " fill="rgb(0, 0, 0)" fill-opacity="1.000000" />
<path d="M 104.892578 149.412109 L 104.892578 148.488281 L 111.729980 148.488281 L 111.729980 149.412109 Z M 104.892578 151.259766 L 104.892578 150.335938 L 111.729980 150.335938 L 111.729980 151.259766 Z " fill="rgb(0, 0, 0)" fill-opacity="1.000000" />
<path d="M 111.892578 149.412109 L 111.892578 148.488281 L 118.729980 148.488281 L 118.729980 149.412109 Z M 111.892578 151.259766 L 111.892578 150.335938 L 118.729980 150.335938 L 118.729980 151.259766 Z " fill="rgb(0, 0, 0)" fill-opacity="1.000000" />
<path d="M 118.892578 149.412109 L 118.892578 148.488281 L 125.729980 148.488281 L 125.729980 149.412109 Z M 118.892578 151.259766 L 118.892578 150.335938 L 125.729980 150.335938 L 125.729980 151.259766 Z " fill="rgb(0, 0, 0)" fill-opacity="1.000000" />
<path d="M 125.892578 149.412109 L 125.892578 148.488281 L 132.729980 148.488281 L 132.729980 149.412109 Z M 125.892578 151.259766 L 125.892578 150.335938 L 132.729980 150.335938 L 132.729980 151.259766 Z " fill="rgb(0, 0, 0)" fill-opacity="1.000000" />
<path d="M 132.892578 149.412109 L 132.892578 148.488281 L 139.729980 148.488281 L 139.729980 149.412109 Z M 132.892578 151.259766 L 132.892578 150.335938 L 139.729980 150.335938 L 139.729980 151.259766 Z " fill="rgb(0, 0, 0)" fill-opacity="1.000000" />
<path d="M 139.892578 149.412109 L 139.892578 148.488281 L 146.729980 148.488281 L 146.729980 149.412109 Z M 139.892578 151.259766 L 139.892578 150.335938 L 146.729980 150.335938 L 146.729980 151.259766 Z " fill="rgb(0, 0, 0)" fill-opacity="1.000000" />
<path d="M 146.892578 149.412109 L 146.892578 148.488281 L 153.729980 148.488281 L 153.729980 149.412109 Z M 146.892578 151.259766 L 146.892578 150.335938 L 153.729980 150.335938 L 153.729980 151.259766 Z " fill="rgb(0, 0, 0)" fill-opacity="1.000000" />
<path d="M 153.892578 149.412109 L 153.892578 148.488281 L 160.729980 148.488281 L 160.729980 149.412109 Z M 153.892578 151.259766 L 153.892578 150.335938 L 160.729980 150.335938 L 160.729980 151.259766 Z " fill="rgb(0, 0, 0)" fill-opacity="1.000000" />
<path d="M 160.892578 149.412109 L 160.892578 148.488281 L 167.729980 148.488281 L 167.729980 149.412109 Z M 160.892578 151.259766 L 160.892578 150.335938 L 167.729980 150.335938 L 167.729980 151.259766 Z " fill="rgb(0, 0, 0)" fill-opacity="1.000000" />
<path d="M 167.892578 149.412109 L 167.892578 148.488281 L 174.729980 148.488281 L 174.729980 149.412109 Z M 167.892578 151.259766 L 167.892578 150.335938 L 174.729980 150.335938 L 174.729980 151.259766 Z " fill="rgb(0, 0, 0)" fill-opacity="1.000000" />
<path d="M 174.892578 149.412109 L 174.892578 148.488281 L 181.729980 148.488281 L 181.729980 149.412109 Z M 174.892578 151.259766 L 174.892578 150.335938 L 181.729980 150.335938 L 181.729980 151.259766 Z " fill="rgb(0, 0, 0)" fill-opacity="1.000000" />
<path d="M 181.892578 149.412109 L 181.892578 148.488281 L 188.729980 148.488281 L 188.729980 149.412109 Z M 181.892578 151.259766 L 181.892578 150.335938 L 188.729980 150.335938 L 188.729980 151.259766 Z " fill="rgb(0, 0, 0)" fill-opacity="1.000000" />
<path d="M 188.892578 149.412109 L 188.892578 148.488281 L 191.019531 148.488281 L 191.019531 142.300781 L 191.878906 142.300781 L 191.878906 149.412109 Z M 191.019531 156.319336 L 191.019531 151.259766 L 188.892578 151.259766 L 188.892578 150.335938 L 191.878906 150.335938 L 191.878906 156.319336 Z M 192.738281 156.319336 L 192.738281 142.300781 L 193.597656 142.300781 L 193.597656 156.319336 Z " fill="rgb(0, 0, 0)" fill-opacity="1.000000" />
<path d="M 122.308594 132.937012 L 121.164551 137.040527 L 123.452637 137.040527 Z M 121.653320 131.980957 L 122.969238 131.980957 L 125.423828 140.000000 L 124.301270 140.000000 L 123.710449 137.910645 L 120.901367 137.910645 L 120.321289 140.000000 L 119.198730 140.000000 Z " fill="rgb(0, 0, 0)" fill-opacity="1.000000" />
<path d="M 132.203613 135.225098 Q 131.886719 134.978027 131.559082 134.865234 Q 131.231445 134.752441 130.839355 134.752441 Q 129.915527 134.752441 129.426758 135.332520 Q 128.937988 135.912598 128.937988 137.008301 L 128.937988 140.000000 L 127.944336 140.000000 L 127.944336 133.984375 L 128.937988 133.984375 L 128.937988 135.160645 Q 129.185059 134.521484 129.697998 134.180420 Q 130.210938 133.839355 130.914551 133.839355 Q 131.279785 133.839355 131.596680 133.930664 Q 131.913574 134.021973 132.203613 134.215332 Z " fill="rgb(0, 0, 0)" fill-opacity="1.000000" />
<path d="M 137.608398 136.943848 Q 137.608398 135.832031 137.245850 135.254639 Q 136.883301 134.677246 136.190430 134.677246 Q 135.465332 134.677246 135.083984 135.254639 Q 134.702637 135.832031 134.702637 136.943848 Q 134.702637 138.055664 135.086670 138.638428 Q 135.470703 139.221191 136.201172 139.221191 Q 136.883301 139.221191 137.245850 138.635742 Q 137.608398 138.050293 137.608398 136.943848 Z M 138.596680 139.613281 Q 138.596680 140.966797 137.957520 141.665039 Q 137.318359 142.363281 136.077637 142.363281 Q 135.669434 142.363281 135.223633 142.288086 Q 134.777832 142.212891 134.332031 142.067871 L 134.332031 141.090332 Q 134.858398 141.337402 135.288086 141.455566 Q 135.717773 141.573730 136.077637 141.573730 Q 136.877930 141.573730 137.243164 141.138672 Q 137.608398 140.703613 137.608398 139.758301 L 137.608398 139.715332 L 137.608398 139.043945 Q 137.372070 139.548828 136.963867 139.795898 Q 136.555664 140.042969 135.970215 140.042969 Q 134.917480 140.042969 134.289062 139.199707 Q 133.660645 138.356445 133.660645 136.943848 Q 133.660645 135.525879 134.289062 134.682617 Q 134.917480 133.839355 135.970215 133.839355 Q 136.550293 133.839355 136.953125 134.070312 Q 137.355957 134.301270 137.608398 134.784668 L 137.608398 134.005859 L 138.596680 134.005859 Z " fill="rgb(0, 0, 0)" fill-opacity="1.000000" />
<path d="M 148.450195 139.092285 L 150.136719 139.092285 L 150.136719 133.033691 L 148.117188 134.005859 L 148.117188 132.963867 L 150.125977 132.007812 L 151.210938 132.007812 L 151.210938 139.092285 L 152.875977 139.092285 L 152.875977 140.000000 L 148.450195 140.000000 Z " fill="rgb(0, 0, 0)" fill-opacity="1.000000" />
<path d="M 191.019531 143.319336 L 191.019531 129.300781 L 191.878906 129.300781 L 191.878906 143.319336 Z M 192.738281 143.319336 L 192.738281 129.300781 L 193.597656 129.300781 L 193.597656 143.319336 Z " fill="rgb(0, 0, 0)" fill-opacity="1.000000" />
<path d="M 90.892578 123.412109 L 90.892578 122.488281 L 97.729980 122.488281 L 97.729980 123.412109 Z M 90.892578 125.259766 L 90.892578 124.335938 L 97.729980 124.335938 L 97.729980 125.259766 Z " fill="rgb(0, 0, 0)" fill-opacity="1.000000" />
<path d="M 97.892578 123.412109 L 97.892578 122.488281 L 104.729980 122.488281 L 104.729980 123.412109 Z M 97.892578 125.259766 L 97.892578 124.335938 L 104.729980 124.335938 L 104.729980 125.259766 Z " fill="rgb(0, 0, 0)" fill-opacity="1.000000" />
<path d="M 104.892578 123.412109 L 104.892578 122.488281 L 111.729980 122.488281 L 111.729980 123.412109 Z M 104.892578 125.259766 L 104.892578 124.335938 L 111.729980 124.335938 L 111.729980 125.259766 Z " fill="rgb(0, 0, 0)" fill-opacity="1.000000" />
<path d="M 111.892578 123.412109 L 111.892578 122.488281 L 118.729980 122.488281 L 118.729980 123.412109 Z M 111.892578 125.259766 L 111.892578 124.335938 L 118.729980 124.335938 L 118.729980 125.259766 Z " fill="rgb(0, 0, 0)" fill-opacity="1.000000" />
<path d="M 118.892578 123.412109 L 118.892578 122.488281 L 125.729980 122.488281 L 125.729980 123.412109 Z M 118.892578 125.259766 L 118.892578 124.335938 L 125.729980 124.335938 L 125.729980 125.259766 Z " fill="rgb(0, 0, 0)" fill-opacity="1.000000" />
<path d="M 125.892578 123.412109 L 125.892578 122.488281 L 132.729980 122.488281 L 132.729980 123.412109 Z M 125.892578 125.259766 L 125.892578 124.335938 L 132.729980 124.335938 L 132.729980 125.259766 Z " fill="rgb(0, 0, 0)" fill-opacity="1.000000" />
<path d="M 132.892578 123.412109 L 132.892578 122.488281 L 139.729980 122.488281 L 139.729980 123.412109 Z M 132.892578 125.259766 L 132.892578 124.335938 L 139.729980 124.335938 L 139.729980 125.259766 Z " fill="rgb(0, 0, 0)" fill-opacity="1.000000" />
<path d="M 139.892578 123.412109 L 139.892578 122.488281 L 146.729980 122.488281 L 146.729980 123.412109 Z M 139.892578 125.259766 L 139.892578 124.335938 L 146.729980 124.335938 L 146.729980 125.259766 Z " fill="rgb(0, 0, 0)" fill-opacity="1.000000" />
<path d="M 146.892578 123.412109 L 146.892578 122.488281 L 153.729980 122.488281 L 153.729980 123.412109 Z M 146.892578 125.259766 L 146.892578 124.335938 L 153.729980 124.335938 L 153.729980 125.259766 Z " fill="rgb(0, 0, 0)" fill-opacity="1.000000" />
<path d="M 153.892578 123.412109 L 153.892578 122.488281 L 160.729980 122.488281 L 160.729980 123.412109 Z M 153.892578 125.259766 L 153.892578 124.335938 L 160.729980 124.335938 L 160.729980 125.259766 Z " fill="rgb(0, 0, 0)" fill-opacity="1.000000" />
<path d="M 160.892578 123.412109 L 160.892578 122.488281 L 167.729980 122.488281 L 167.729980 123.412109 Z M 160.892578 125.259766 L 160.892578 124.335938 L 167.729980 124.335938 L 167.729980 125.259766 Z " fill="rgb(0, 0, 0)" fill-opacity="1.000000" />
<path d="M 167.892578 123.412109 L 167.892578 122.488281 L 174.729980 122.488281 L 174.729980 123.412109 Z M 167.892578 125.259766 L 167.892578 124.335938 L 174.729980 124.335938 L 174.729980 125.259766 Z " fill="rgb(0, 0, 0)" fill-opacity="1.000000" />
<path d="M 174.892578 123.412109 L 174.892578 122.488281 L 181.729980 122.488281 L 181.729980 123.412109 Z M 174.892578 125.259766 L 174.892578 124.335938 L 181.729980 124.335938 L 181.729980 125.259766 Z " fill="rgb(0, 0, 0)" fill-opacity="1.000000" />
<path d="M 181.892578 123.412109 L 181.892578 122.488281 L 188.729980 122.488281 L 188.729980 123.412109 Z M 181.892578 125.259766 L 181.892578 124.335938 L 188.729980 124.335938 L 188.729980 125.259766 Z " fill="rgb(0, 0, 0)" fill-opacity="1.000000" />
<path d="M 188.892578 123.412109 L 188.892578 122.488281 L 191.019531 122.488281 L 191.019531 116.300781 L 191.878906 116.300781 L 191.878906 123.412109 Z M 191.019531 130.319336 L 191.019531 125.259766 L 188.892578 125.259766 L 188.892578 124.335938 L 191.878906 124.335938 L 191.878906 130.319336 Z M 192.738281 130.319336 L 192.738281 116.300781 L 193.597656 116.300781 L 193.597656 130.319336 Z " fill="rgb(0, 0, 0)" fill-opacity="1.000000" />
<path d="M 122.308594 106.937012 L 121.164551 111.040527 L 123.452637 111.040527 Z M 121.653320 105.980957 L 122.969238 105.980957 L 125.423828 114.000000 L 124.301270 114.000000 L 123.710449 111.910645 L 120.901367 111.910645 L 120.321289 114.000000 L 119.198730 114.000000 Z " fill="rgb(0, 0, 0)" fill-opacity="1.000000" />
<path d="M 132.203613 109.225098 Q 131.886719 108.978027 131.559082 108.865234 Q 131.231445 108.752441 130.839355 108.752441 Q 129.915527 108.752441 129.426758 109.332520 Q 128.937988 109.912598 128.937988 111.008301 L 128.937988 114.000000 L 127.944336 114.000000 L 127.944336 107.984375 L 128.937988 107.984375 L 128.937988 109.160645 Q 129.185059 108.521484 129.697998 108.180420 Q 130.210938 107.839355 130.914551 107.839355 Q 131.279785 107.839355 131.596680 107.930664 Q 131.913574 108.021973 132.203613 108.215332 Z " fill="rgb(0, 0, 0)" fill-opacity="1.000000" />
<path d="M 137.608398 110.943848 Q 137.608398 109.832031 137.245850 109.254639 Q 136.883301 108.677246 136.190430 108.677246 Q 135.465332 108.677246 135.083984 109.254639 Q 134.702637 109.832031 134.702637 110.943848 Q 134.702637 112.055664 135.086670 112.638428 Q 135.470703 113.221191 136.201172 113.221191 Q 136.883301 113.221191 137.245850 112.635742 Q 137.608398 112.050293 137.608398 110.943848 Z M 138.596680 113.613281 Q 138.596680 114.966797 137.957520 115.665039 Q 137.318359 116.363281 136.077637 116.363281 Q 135.669434 116.363281 135.223633 116.288086 Q 134.777832 116.212891 134.332031 116.067871 L 134.332031 115.090332 Q 134.858398 115.337402 135.288086 115.455566 Q 135.717773 115.573730 136.077637 115.573730 Q 136.877930 115.573730 137.243164 115.138672 Q 137.608398 114.703613 137.608398 113.758301 L 137.608398 113.715332 L 137.608398 113.043945 Q 137.372070 113.548828 136.963867 113.795898 Q 136.555664 114.042969 135.970215 114.042969 Q 134.917480 114.042969 134.289062 113.199707 Q 133.660645 112.356445 133.660645 110.943848 Q 133.660645 109.525879 134.289062 108.682617 Q 134.917480 107.839355 135.970215 107.839355 Q 136.550293 107.839355 136.953125 108.070312 Q 137.355957 108.301270 137.608398 108.784668 L 137.608398 108.005859 L 138.596680 108.005859 Z " fill="rgb(0, 0, 0)" fill-opacity="1.000000" />
<path d="M 149.003418 113.086914 L 152.687988 113.086914 L 152.687988 114.000000 L 147.816406 114.000000 L 147.816406 113.086914 Q 148.820801 112.028809 149.572754 111.217773 Q 150.324707 110.406738 150.609375 110.073730 Q 151.146484 109.418457 151.334473 109.012939 Q 151.522461 108.607422 151.522461 108.183105 Q 151.522461 107.511719 151.127686 107.130371 Q 150.732910 106.749023 150.045410 106.749023 Q 149.556641 106.749023 149.019531 106.926270 Q 148.482422 107.103516 147.880859 107.463379 L 147.880859 106.367676 Q 148.434082 106.104492 148.968506 105.970215 Q 149.502930 105.835938 150.023926 105.835938 Q 151.200195 105.835938 151.917236 106.461670 Q 152.634277 107.087402 152.634277 108.102539 Q 152.634277 108.618164 152.395264 109.133789 Q 152.156250 109.649414 151.619141 110.272461 Q 151.318359 110.621582 150.746338 111.239258 Q 150.174316 111.856934 149.003418 113.086914 Z " fill="rgb(0, 0, 0)" fill-opacity="1.000000" />
<path d="M 191.019531 117.319336 L 191.019531 103.300781 L 191.878906 103.300781 L 191.878906 117.319336 Z M 192.738281 117.319336 L 192.738281 103.300781 L 193.597656 103.300781 L 193.597656 117.319336 Z " fill="rgb(0, 0, 0)" fill-opacity="1.000000" />
<path d="M 90.892578 97.412109 L 90.892578 96.488281 L 97.729980 96.488281 L 97.729980 97.412109 Z M 90.892578 99.259766 L 90.892578 98.335938 L 97.729980 98.335938 L 97.729980 99.259766 Z " fill="rgb(0, 0, 0)" fill-opacity="1.000000" />
<path d="M 97.892578 97.412109 L 97.892578 96.488281 L 104.729980 96.488281 L 104.729980 97.412109 Z M 97.892578 99.259766 L 97.892578 98.335938 L 104.729980 98.335938 L 104.729980 99.259766 Z " fill="rgb(0, 0, 0)" fill-opacity="1.000000" />
<path d="M 104.892578 97.412109 L 104.892578 96.488281 L 111.729980 96.488281 L 111.729980 97.412109 Z M 104.892578 99.259766 L 104.892578 98.335938 L 111.729980 98.335938 L 111.729980 99.259766 Z " fill="rgb(0, 0, 0)" fill-opacity="1.000000" />
<path d="M 111.892578 97.412109 L 111.892578 96.488281 L 118.729980 96.488281 L 118.729980 97.412109 Z M 111.892578 99.259766 L 111.892578 98.335938 L 118.729980 98.335938 L 118.729980 99.259766 Z " fill="rgb(0, 0, 0)" fill-opacity="1.000000" />
<path d="M 118.892578 97.412109 L 118.892578 96.488281 L 125.729980 96.488281 L 125.729980 97.412109 Z M 118.892578 99.259766 L 118.892578 98.335938 L 125.729980 98.335938 L 125.729980 99.259766 Z " fill="rgb(0, 0, 0)" fill-opacity="1.000000" />
<path d="M 125.892578 97.412109 L 125.892578 96.488281 L 132.729980 96.488281 L 132.729980 97.412109 Z M 125.892578 99.259766 L 125.892578 98.335938 L 132.729980 98.335938 L 132.729980 99.259766 Z " fill="rgb(0, 0, 0)" fill-opacity="1.000000" />
<path d="M 132.892578 97.412109 L 132.892578 96.488281 L 139.729980 96.488281 L 139.729980 97.412109 Z M 132.892578 99.259766 L 132.892578 98.335938 L 139.729980 98.335938 L 139.729980 99.259766 Z " fill="rgb(0, 0, 0)" fill-opacity="1.000000" />
<path d="M 139.892578 97.412109 L 139.892578 96.488281 L 146.729980 96.488281 L 146.729980 97.412109 Z M 139.892578 99.259766 L 139.892578 98.335938 L 146.729980 98.335938 L 146.729980 99.259766 Z " fill="rgb(0, 0, 0)" fill-opacity="1.000000" />
<path d="M 146.892578 97.412109 L 146.892578 96.488281 L 153.729980 96.488281 L 153.729980 97.412109 Z M 146.892578 99.259766 L 146.892578 98.335938 L 153.729980 98.335938 L 153.729980 99.259766 Z " fill="rgb(0, 0, 0)" fill-opacity="1.000000" />
<path d="M 153.892578 97.412109 L 153.892578 96.488281 L 160.729980 96.488281 L 160.729980 97.412109 Z M 153.892578 99.259766 L 153.892578 98.335938 L 160.729980 98.335938 L 160.729980 99.259766 Z " fill="rgb(0, 0, 0)" fill-opacity="1.000000" />
<path d="M 160.892578 97.412109 L 160.892578 96.488281 L 167.729980 96.488281 L 167.729980 97.412109 Z M 160.892578 99.259766 L 160.892578 98.335938 L 167.729980 98.335938 L 167.729980 99.259766 Z " fill="rgb(0, 0, 0)" fill-opacity="1.000000" />
<path d="M 167.892578 97.412109 L 167.892578 96.488281 L 174.729980 96.488281 L 174.729980 97.412109 Z M 167.892578 99.259766 L 167.892578 98.335938 L 174.729980 98.335938 L 174.729980 99.259766 Z " fill="rgb(0, 0, 0)" fill-opacity="1.000000" />
<path d="M 174.892578 97.412109 L 174.892578 96.488281 L 181.729980 96.488281 L 181.729980 97.412109 Z M 174.892578 99.259766 L 174.892578 98.335938 L 181.729980 98.335938 L 181.729980 99.259766 Z " fill="rgb(0, 0, 0)" fill-opacity="1.000000" />
<path d="M 181.892578 97.412109 L 181.892578 96.488281 L 188.729980 96.488281 L 188.729980 97.412109 Z M 181.892578 99.259766 L 181.892578 98.335938 L 188.729980 98.335938 L 188.729980 99.259766 Z " fill="rgb(0, 0, 0)" fill-opacity="1.000000" />
<path d="M 188.892578 97.412109 L 188.892578 96.488281 L 191.019531 96.488281 L 191.019531 90.300781 L 191.878906 90.300781 L 191.878906 97.412109 Z M 191.019531 104.319336 L 191.019531 99.259766 L 188.892578 99.259766 L 188.892578 98.335938 L 191.878906 98.335938 L 191.878906 104.319336 Z M 192.738281 104.319336 L 192.738281 90.300781 L 193.597656 90.300781 L 193.597656 104.319336 Z " fill="rgb(0, 0, 0)" fill-opacity="1.000000" />
<path d="M 10.630859 82.596680 Q 10.813477 82.209961 11.095459 82.024658 Q 11.377441 81.839355 11.774902 81.839355 Q 12.500000 81.839355 12.798096 82.400635 Q 13.096191 82.961914 13.096191 84.514160 L 13.096191 88.000000 L 12.193848 88.000000 L 12.193848 84.557129 Q 12.193848 83.284180 12.051514 82.975342 Q 11.909180 82.666504 11.533203 82.666504 Q 11.103516 82.666504 10.945068 82.996826 Q 10.786621 83.327148 10.786621 84.557129 L 10.786621 88.000000 L 9.884277 88.000000 L 9.884277 84.557129 Q 9.884277 83.268066 9.731201 82.967285 Q 9.578125 82.666504 9.180664 82.666504 Q 8.788574 82.666504 8.635498 82.996826 Q 8.482422 83.327148 8.482422 84.557129 L 8.482422 88.000000 L 7.585449 88.000000 L 7.585449 81.984375 L 8.482422 81.984375 L 8.482422 82.500000 Q 8.659668 82.177734 8.925537 82.008545 Q 9.191406 81.839355 9.529785 81.839355 Q 9.937988 81.839355 10.209229 82.027344 Q 10.480469 82.215332 10.630859 82.596680 Z " fill="rgb(0, 0, 0)" fill-opacity="1.000000" />
<path d="M 16.089355 85.830078 L 17.979980 85.830078 L 17.979980 88.000000 L 16.089355 88.000000 Z " fill="rgb(0, 0, 0)" fill-opacity="1.000000" />
<path d="M 26.226074 82.193848 L 26.226074 83.160645 Q 25.801758 82.913574 25.372070 82.790039 Q 24.942383 82.666504 24.496582 82.666504 Q 23.825195 82.666504 23.494873 82.884033 Q 23.164551 83.101562 23.164551 83.547363 Q 23.164551 83.950195 23.411621 84.148926 Q 23.658691 84.347656 24.641602 84.535645 L 25.039062 84.610840 Q 25.774902 84.750488 26.153564 85.169434 Q 26.532227 85.588379 26.532227 86.259766 Q 26.532227 87.151367 25.898438 87.653564 Q 25.264648 88.155762 24.136719 88.155762 Q 23.690918 88.155762 23.202148 88.061768 Q 22.713379 87.967773 22.144043 87.779785 L 22.144043 86.759277 Q 22.697266 87.043945 23.202148 87.186279 Q 23.707031 87.328613 24.158203 87.328613 Q 24.813477 87.328613 25.173340 87.062744 Q 25.533203 86.796875 25.533203 86.318848 Q 25.533203 85.631348 24.217285 85.368164 L 24.174316 85.357422 L 23.803711 85.282227 Q 22.949707 85.115723 22.557617 84.720947 Q 22.165527 84.326172 22.165527 83.644043 Q 22.165527 82.779297 22.750977 82.309326 Q 23.336426 81.839355 24.421387 81.839355 Q 24.904785 81.839355 25.350586 81.927979 Q 25.796387 82.016602 26.226074 82.193848 Z " fill="rgb(0, 0, 0)" fill-opacity="1.000000" />
<path d="M 30.014160 87.242676 L 30.014160 90.288086 L 29.020508 90.288086 L 29.020508 81.984375 L 30.014160 81.984375 L 30.014160 82.752441 Q 30.261230 82.306641 30.672119 82.072998 Q 31.083008 81.839355 31.620117 81.839355 Q 32.710449 81.839355 33.330811 82.682617 Q 33.951172 83.525879 33.951172 85.019043 Q 33.951172 86.485352 33.328125 87.320557 Q 32.705078 88.155762 31.620117 88.155762 Q 31.072266 88.155762 30.661377 87.922119 Q 30.250488 87.688477 30.014160 87.242676 Z M 32.914551 84.997559 Q 32.914551 83.848145 32.552002 83.262695 Q 32.189453 82.677246 31.475098 82.677246 Q 30.755371 82.677246 30.384766 83.265381 Q 30.014160 83.853516 30.014160 84.997559 Q 30.014160 86.136230 30.384766 86.727051 Q 30.755371 87.317871 31.475098 87.317871 Q 32.189453 87.317871 32.552002 86.732422 Q 32.914551 86.146973 32.914551 84.997559 Z " fill="rgb(0, 0, 0)" fill-opacity="1.000000" />
<path d="M 41.892578 85.335938 L 41.892578 84.412109 L 48.729980 84.412109 L 48.729980 85.335938 Z " fill="rgb(0, 0, 0)" fill-opacity="1.000000" />
<path d="M 48.892578 85.335938 L 48.892578 84.412109 L 55.729980 84.412109 L 55.729980 85.335938 Z " fill="rgb(0, 0, 0)" fill-opacity="1.000000" />
<path d="M 55.892578 85.335938 L 55.892578 84.412109 L 62.729980 84.412109 L 62.729980 85.335938 Z " fill="rgb(0, 0, 0)" fill-opacity="1.000000" />
<path d="M 62.892578 85.335938 L 62.892578 84.412109 L 69.729980 84.412109 L 69.729980 85.335938 Z " fill="rgb(0, 0, 0)" fill-opacity="1.000000" />
<path d="M 70.032227 88.418945 L 70.032227 81.866211 L 76.590332 85.142578 Z " fill="rgb(0, 0, 0)" fill-opacity="1.000000" />
<path d="M 86.019531 91.319336 L 86.019531 77.300781 L 86.878906 77.300781 L 86.878906 91.319336 Z M 87.738281 91.319336 L 87.738281 77.300781 L 88.597656 77.300781 L 88.597656 91.319336 Z " fill="rgb(0, 0, 0)" fill-opacity="1.000000" />
<path d="M 191.019531 91.319336 L 191.019531 77.300781 L 191.878906 77.300781 L 191.878906 91.319336 Z M 192.738281 91.319336 L 192.738281 77.300781 L 193.597656 77.300781 L 193.597656 91.319336 Z " fill="rgb(0, 0, 0)" fill-opacity="1.000000" />
<path d="M 86.019531 39.319336 L 86.019531 25.300781 L 86.878906 25.300781 L 86.878906 39.319336 Z M 87.738281 39.319336 L 87.738281 25.300781 L 88.597656 25.300781 L 88.597656 39.319336 Z " fill="rgb(0, 0, 0)" fill-opacity="1.000000" />
<path d="M 87.738281 45.412109 L 87.738281 38.300781 L 88.597656 38.300781 L 88.597656 44.488281 L 90.729980 44.488281 L 90.729980 45.412109 Z M 86.019531 52.319336 L 86.019531 38.300781 L 86.878906 38.300781 L 86.878906 52.319336 Z M 87.738281 52.319336 L 87.738281 46.335938 L 90.729980 46.335938 L 90.729980 47.259766 L 88.597656 47.259766 L 88.597656 52.319336 Z " fill="rgb(0, 0, 0)" fill-opacity="1.000000" />
<path d="M 86.019531 65.319336 L 86.019531 51.300781 L 86.878906 51.300781 L 86.878906 65.319336 Z M 87.738281 65.319336 L 87.738281 51.300781 L 88.597656 51.300781 L 88.597656 65.319336 Z " fill="rgb(0, 0, 0)" fill-opacity="1.000000" />
<path d="M 87.738281 71.412109 L 87.738281 64.300781 L 88.597656 64.300781 L 88.597656 70.488281 L 90.729980 70.488281 L 90.729980 71.412109 Z M 86.019531 78.319336 L 86.019531 64.300781 L 86.878906 64.300781 L 86.878906 78.319336 Z M 87.738281 78.319336 L 87.738281 72.335938 L 90.729980 72.335938 L 90.729980 73.259766 L 88.597656 73.259766 L 88.597656 78.319336 Z " fill="rgb(0, 0, 0)" fill-opacity="1.000000" />
<path d="M 90.892578 71.412109 L 90.892578 70.488281 L 97.729980 70.488281 L 97.729980 71.412109 Z M 90.892578 73.259766 L 90.892578 72.335938 L 97.729980 72.335938 L 97.729980 73.259766 Z " fill="rgb(0, 0, 0)" fill-opacity="1.000000" />
<path d="M 97.892578 71.412109 L 97.892578 70.488281 L 104.729980 70.488281 L 104.729980 71.412109 Z M 97.892578 73.259766 L 97.892578 72.335938 L 104.729980 72.335938 L 104.729980 73.259766 Z " fill="rgb(0, 0, 0)" fill-opacity="1.000000" />
<path d="M 104.892578 71.412109 L 104.892578 70.488281 L 111.729980 70.488281 L 111.729980 71.412109 Z M 104.892578 73.259766 L 104.892578 72.335938 L 111.729980 72.335938 L 111.729980 73.259766 Z " fill="rgb(0, 0, 0)" fill-opacity="1.000000" />
<path d="M 111.892578 71.412109 L 111.892578 70.488281 L 118.729980 70.488281 L 118.729980 71.412109 Z M 111.892578 73.259766 L 111.892578 72.335938 L 118.729980 72.335938 L 118.729980 73.259766 Z " fill="rgb(0, 0, 0)" fill-opacity="1.000000" />
<path d="M 118.892578 71.412109 L 118.892578 70.488281 L 125.729980 70.488281 L 125.729980 71.412109 Z M 118.892578 73.259766 L 118.892578 72.335938 L 125.729980 72.335938 L 125.729980 73.259766 Z " fill="rgb(0, 0, 0)" fill-opacity="1.000000" />
<path d="M 125.892578 71.412109 L 125.892578 70.488281 L 132.729980 70.488281 L 132.729980 71.412109 Z M 125.892578 73.259766 L 125.892578 72.335938 L 132.729980 72.335938 L 132.729980 73.259766 Z " fill="rgb(0, 0, 0)" fill-opacity="1.000000" />
<path d="M 132.892578 71.412109 L 132.892578 70.488281 L 139.729980 70.488281 L 139.729980 71.412109 Z M 132.892578 73.259766 L 132.892578 72.335938 L 139.729980 72.335938 L 139.729980 73.259766 Z " fill="rgb(0, 0, 0)" fill-opacity="1.000000" />
<path d="M 139.892578 71.412109 L 139.892578 70.488281 L 146.729980 70.488281 L 146.729980 71.412109 Z M 139.892578 73.259766 L 139.892578 72.335938 L 146.729980 72.335938 L 146.729980 73.259766 Z " fill="rgb(0, 0, 0)" fill-opacity="1.000000" />
<path d="M 146.892578 71.412109 L 146.892578 70.488281 L 153.729980 70.488281 L 153.729980 71.412109 Z M 146.892578 73.259766 L 146.892578 72.335938 L 153.729980 72.335938 L 153.729980 73.259766 Z " fill="rgb(0, 0, 0)" fill-opacity="1.000000" />
<path d="M 153.892578 71.412109 L 153.892578 70.488281 L 160.729980 70.488281 L 160.729980 71.412109 Z M 153.892578 73.259766 L 153.892578 72.335938 L 160.729980 72.335938 L 160.729980 73.259766 Z " fill="rgb(0, 0, 0)" fill-opacity="1.000000" />
<path d="M 160.892578 71.412109 L 160.892578 70.488281 L 167.729980 70.488281 L 167.729980 71.412109 Z M 160.892578 73.259766 L 160.892578 72.335938 L 167.729980 72.335938 L 167.729980 73.259766 Z " fill="rgb(0, 0, 0)" fill-opacity="1.000000" />
<path d="M 167.892578 71.412109 L 167.892578 70.488281 L 174.729980 70.488281 L 174.729980 71.412109 Z M 167.892578 73.259766 L 167.892578 72.335938 L 174.729980 72.335938 L 174.729980 73.259766 Z " fill="rgb(0, 0, 0)" fill-opacity="1.000000" />
<path d="M 174.892578 71.412109 L 174.892578 70.488281 L 181.729980 70.488281 L 181.729980 71.412109 Z M 174.892578 73.259766 L 174.892578 72.335938 L 181.729980 72.335938 L 181.729980 73.259766 Z " fill="rgb(0, 0, 0)" fill-opacity="1.000000" />
<path d="M 181.892578 71.412109 L 181.892578 70.488281 L 188.729980 70.488281 L 188.729980 71.412109 Z M 181.892578 73.259766 L 181.892578 72.335938 L 188.729980 72.335938 L 188.729980 73.259766 Z " fill="rgb(0, 0, 0)" fill-opacity="1.000000" />
<path d="M 188.892578 71.412109 L 188.892578 70.488281 L 191.019531 70.488281 L 191.019531 64.300781 L 191.878906 64.300781 L 191.878906 71.412109 Z M 191.019531 78.319336 L 191.019531 73.259766 L 188.892578 73.259766 L 188.892578 72.335938 L 191.878906 72.335938 L 191.878906 78.319336 Z M 192.738281 78.319336 L 192.738281 64.300781 L 193.597656 64.300781 L 193.597656 78.319336 Z " fill="rgb(0, 0, 0)" fill-opacity="1.000000" />
<path d="M 191.019531 65.319336 L 191.019531 51.300781 L 191.878906 51.300781 L 191.878906 65.319336 Z M 192.738281 65.319336 L 192.738281 51.300781 L 193.597656 51.300781 L 193.597656 65.319336 Z " fill="rgb(0, 0, 0)" fill-opacity="1.000000" />
<path d="M 90.892578 45.412109 L 90.892578 44.488281 L 97.729980 44.488281 L 97.729980 45.412109 Z M 90.892578 47.259766 L 90.892578 46.335938 L 97.729980 46.335938 L 97.729980 47.259766 Z " fill="rgb(0, 0, 0)" fill-opacity="1.000000" />
<path d="M 97.892578 45.412109 L 97.892578 44.488281 L 104.729980 44.488281 L 104.729980 45.412109 Z M 97.892578 47.259766 L 97.892578 46.335938 L 104.729980 46.335938 L 104.729980 47.259766 Z " fill="rgb(0, 0, 0)" fill-opacity="1.000000" />
<path d="M 104.892578 45.412109 L 104.892578 44.488281 L 111.729980 44.488281 L 111.729980 45.412109 Z M 104.892578 47.259766 L 104.892578 46.335938 L 111.729980 46.335938 L 111.729980 47.259766 Z " fill="rgb(0, 0, 0)" fill-opacity="1.000000" />
<path d="M 111.892578 45.412109 L 111.892578 44.488281 L 118.729980 44.488281 L 118.729980 45.412109 Z M 111.892578 47.259766 L 111.892578 46.335938 L 118.729980 46.335938 L 118.729980 47.259766 Z " fill="rgb(0, 0, 0)" fill-opacity="1.000000" />
<path d="M 118.892578 45.412109 L 118.892578 44.488281 L 125.729980 44.488281 L 125.729980 45.412109 Z M 118.892578 47.259766 L 118.892578 46.335938 L 125.729980 46.335938 L 125.729980 47.259766 Z " fill="rgb(0, 0, 0)" fill-opacity="1.000000" />
<path d="M 125.892578 45.412109 L 125.892578 44.488281 L 132.729980 44.488281 L 132.729980 45.412109 Z M 125.892578 47.259766 L 125.892578 46.335938 L 132.729980 46.335938 L 132.729980 47.259766 Z " fill="rgb(0, 0, 0)" fill-opacity="1.000000" />
<path d="M 132.892578 45.412109 L 132.892578 44.488281 L 139.729980 44.488281 L 139.729980 45.412109 Z M 132.892578 47.259766 L 132.892578 46.335938 L 139.729980 46.335938 L 139.729980 47.259766 Z " fill="rgb(0, 0, 0)" fill-opacity="1.000000" />
<path d="M 139.892578 45.412109 L 139.892578 44.488281 L 146.729980 44.488281 L 146.729980 45.412109 Z M 139.892578 47.259766 L 139.892578 46.335938 L 146.729980 46.335938 L 146.729980 47.259766 Z " fill="rgb(0, 0, 0)" fill-opacity="1.000000" />
<path d="M 146.892578 45.412109 L 146.892578 44.488281 L 153.729980 44.488281 L 153.729980 45.412109 Z M 146.892578 47.259766 L 146.892578 46.335938 L 153.729980 46.335938 L 153.729980 47.259766 Z " fill="rgb(0, 0, 0)" fill-opacity="1.000000" />
<path d="M 153.892578 45.412109 L 153.892578 44.488281 L 160.729980 44.488281 L 160.729980 45.412109 Z M 153.892578 47.259766 L 153.892578 46.335938 L 160.729980 46.335938 L 160.729980 47.259766 Z " fill="rgb(0, 0, 0)" fill-opacity="1.000000" />
<path d="M 160.892578 45.412109 L 160.892578 44.488281 L 167.729980 44.488281 L 167.729980 45.412109 Z M 160.892578 47.259766 L 160.892578 46.335938 L 167.729980 46.335938 L 167.729980 47.259766 Z " fill="rgb(0, 0, 0)" fill-opacity="1.000000" />
<path d="M 167.892578 45.412109 L 167.892578 44.488281 L 174.729980 44.488281 L 174.729980 45.412109 Z M 167.892578 47.259766 L 167.892578 46.335938 L 174.729980 46.335938 L 174.729980 47.259766 Z " fill="rgb(0, 0, 0)" fill-opacity="1.000000" />
<path d="M 174.892578 45.412109 L 174.892578 44.488281 L 181.729980 44.488281 L 181.729980 45.412109 Z M 174.892578 47.259766 L 174.892578 46.335938 L 181.729980 46.335938 L 181.729980 47.259766 Z " fill="rgb(0, 0, 0)" fill-opacity="1.000000" />
<path d="M 181.892578 45.412109 L 181.892578 44.488281 L 188.729980 44.488281 L 188.729980 45.412109 Z M 181.892578 47.259766 L 181.892578 46.335938 L 188.729980 46.335938 L 188.729980 47.259766 Z " fill="rgb(0, 0, 0)" fill-opacity="1.000000" />
<path d="M 188.892578 45.412109 L 188.892578 44.488281 L 191.019531 44.488281 L 191.019531 38.300781 L 191.878906 38.300781 L 191.878906 45.412109 Z M 191.019531 52.319336 L 191.019531 47.259766 L 188.892578 47.259766 L 188.892578 46.335938 L 191.878906 46.335938 L 191.878906 52.319336 Z M 192.738281 52.319336 L 192.738281 38.300781 L 193.597656 38.300781 L 193.597656 52.319336 Z " fill="rgb(0, 0, 0)" fill-opacity="1.000000" />
<path d="M 191.019531 39.319336 L 191.019531 25.300781 L 191.878906 25.300781 L 191.878906 39.319336 Z M 192.738281 39.319336 L 192.738281 25.300781 L 193.597656 25.300781 L 193.597656 39.319336 Z " fill="rgb(0, 0, 0)" fill-opacity="1.000000" />
<path d="M 191.019531 13.319336 L 191.019531 -0.699219 L 191.878906 -0.699219 L 191.878906 13.319336 Z M 192.738281 13.319336 L 192.738281 -0.699219 L 193.597656 -0.699219 L 193.597656 13.319336 Z " fill="rgb(0, 0, 0)" fill-opacity="1.000000" />
<path d="M 191.019531 26.319336 L 191.019531 12.300781 L 191.878906 12.300781 L 191.878906 26.319336 Z M 192.738281 26.319336 L 192.738281 12.300781 L 193.597656 12.300781 L 193.597656 26.319336 Z " fill="rgb(0, 0, 0)" fill-opacity="1.000000" />
</svg>