<svg xmlns="http://www.w3.org/2000/svg" version="1.1" width="267" height="92">
<path d="M 2.878906 13.319336 L 2.878906 6.412109 L 6.729980 6.412109 L 6.729980 7.335938 L 3.738281 7.335938 L 3.738281 13.319336 Z " fill="rgb(0, 0, 0)" fill-opacity="1.000000" />
<path d="M 2.878906 26.319336 L 2.878906 12.300781 L 3.738281 12.300781 L 3.738281 26.319336 Z " fill="rgb(0, 0, 0)" fill-opacity="1.000000" />
<path d="M 2.878906 39.319336 L 2.878906 25.300781 L 3.738281 25.300781 L 3.738281 32.412109 L 6.729980 32.412109 L 6.729980 33.335938 L 3.738281 33.335938 L 3.738281 39.319336 Z " fill="rgb(0, 0, 0)" fill-opacity="1.000000" />
<path d="M 2.878906 52.319336 L 2.878906 38.300781 L 3.738281 38.300781 L 3.738281 52.319336 Z " fill="rgb(0, 0, 0)" fill-opacity="1.000000" />
<path d="M 2.878906 65.319336 L 2.878906 51.300781 L 3.738281 51.300781 L 3.738281 58.412109 L 6.729980 58.412109 L 6.729980 59.335938 L 3.738281 59.335938 L 3.738281 65.319336 Z " fill="rgb(0, 0, 0)" fill-opacity="1.000000" />
<path d="M 2.878906 78.319336 L 2.878906 64.300781 L 3.738281 64.300781 L 3.738281 78.319336 Z " fill="rgb(0, 0, 0)" fill-opacity="1.000000" />
<path d="M 2.878906 85.335938 L 2.878906 77.300781 L 3.738281 77.300781 L 3.738281 84.412109 L 6.729980 84.412109 L 6.729980 85.335938 Z " fill="rgb(0, 0, 0)" fill-opacity="1.000000" />
<path d="M 6.892578 85.335938 L 6.892578 84.412109 L 13.729980 84.412109 L 13.729980 85.335938 Z " fill="rgb(0, 0, 0)" fill-opacity="1.000000" />
<path d="M 13.892578 85.335938 L 13.892578 84.412109 L 20.729980 84.412109 L 20.729980 85.335938 Z " fill="rgb(0, 0, 0)" fill-opacity="1.000000" />
<path d="M 20.892578 85.335938 L 20.892578 84.412109 L 27.729980 84.412109 L 27.729980 85.335938 Z " fill="rgb(0, 0, 0)" fill-opacity="1.000000" />
<path d="M 27.892578 85.335938 L 27.892578 84.412109 L 34.729980 84.412109 L 34.729980 85.335938 Z " fill="rgb(0, 0, 0)" fill-opacity="1.000000" />
<path d="M 34.892578 85.335938 L 34.892578 84.412109 L 41.729980 84.412109 L 41.729980 85.335938 Z " fill="rgb(0, 0, 0)" fill-opacity="1.000000" />
<path d="M 41.892578 85.335938 L 41.892578 84.412109 L 48.729980 84.412109 L 48.729980 85.335938 Z " fill="rgb(0, 0, 0)" fill-opacity="1.000000" />
<path d="M 48.892578 85.335938 L 48.892578 84.412109 L 55.729980 84.412109 L 55.729980 85.335938 Z " fill="rgb(0, 0, 0)" fill-opacity="1.000000" />
<path d="M 55.892578 85.335938 L 55.892578 84.412109 L 62.729980 84.412109 L 62.729980 85.335938 Z " fill="rgb(0, 0, 0)" fill-opacity="1.000000" />
<path d="M 62.892578 85.335938 L 62.892578 84.412109 L 69.729980 84.412109 L 69.729980 85.335938 Z " fill="rgb(0, 0, 0)" fill-opacity="1.000000" />
<path d="M 69.892578 85.335938 L 69.892578 84.412109 L 76.729980 84.412109 L 76.729980 85.335938 Z " fill="rgb(0, 0, 0)" fill-opacity="1.000000" />
<path d="M 76.892578 85.335938 L 76.892578 84.412109 L 83.729980 84.412109 L 83.729980 85.335938 Z " fill="rgb(0, 0, 0)" fill-opacity="1.000000" />
<path d="M 83.892578 85.335938 L 83.892578 84.412109 L 90.729980 84.412109 L 90.729980 85.335938 Z " fill="rgb(0, 0, 0)" fill-opacity="1.000000" />
<path d="M 90.892578 85.335938 L 90.892578 84.412109 L 97.729980 84.412109 L 97.729980 85.335938 Z " fill="rgb(0, 0, 0)" fill-opacity="1.000000" />
<path d="M 97.892578 85.335938 L 97.892578 84.412109 L 104.729980 84.412109 L 104.729980 85.335938 Z " fill="rgb(0, 0, 0)" fill-opacity="1.000000" />
<path d="M 104.892578 85.335938 L 104.892578 84.412109 L 111.729980 84.412109 L 111.729980 85.335938 Z " fill="rgb(0, 0, 0)" fill-opacity="1.000000" />
<path d="M 111.892578 85.335938 L 111.892578 84.412109 L 118.729980 84.412109 L 118.729980 85.335938 Z " fill="rgb(0, 0, 0)" fill-opacity="1.000000" />
<path d="M 118.892578 85.335938 L 118.892578 84.412109 L 125.729980 84.412109 L 125.729980 85.335938 Z " fill="rgb(0, 0, 0)" fill-opacity="1.000000" />
<path d="M 125.892578 85.335938 L 125.892578 84.412109 L 132.729980 84.412109 L 132.729980 85.335938 Z " fill="rgb(0, 0, 0)" fill-opacity="1.000000" />
<path d="M 132.892578 85.335938 L 132.892578 84.412109 L 135.878906 84.412109 L 135.878906 77.300781 L 136.738281 77.300781 L 136.738281 85.335938 Z " fill="rgb(0, 0, 0)" fill-opacity="1.000000" />
<path d="M 25.860840 70.998535 Q 25.860840 69.231445 25.498291 68.474121 Q 25.135742 67.716797 24.308594 67.716797 Q 23.486816 67.716797 23.124268 68.474121 Q 22.761719 69.231445 22.761719 70.998535 Q 22.761719 72.760254 23.124268 73.517578 Q 23.486816 74.274902 24.308594 74.274902 Q 25.135742 74.274902 25.498291 73.520264 Q 25.860840 72.765625 25.860840 70.998535 Z M 26.994141 70.998535 Q 26.994141 73.093262 26.330811 74.124512 Q 25.667480 75.155762 24.308594 75.155762 Q 22.949707 75.155762 22.289062 74.129883 Q 21.628418 73.104004 21.628418 70.998535 Q 21.628418 68.898438 22.291748 67.867188 Q 22.955078 66.835938 24.308594 66.835938 Q 25.667480 66.835938 26.330811 67.867188 Q 26.994141 68.898438 26.994141 70.998535 Z " fill="rgb(0, 0, 0)" fill-opacity="1.000000" />
<path d="M 30.014160 74.242676 L 30.014160 77.288086 L 29.020508 77.288086 L 29.020508 68.984375 L 30.014160 68.984375 L 30.014160 69.752441 Q 30.261230 69.306641 30.672119 69.072998 Q 31.083008 68.839355 31.620117 68.839355 Q 32.710449 68.839355 33.330811 69.682617 Q 33.951172 70.525879 33.951172 72.019043 Q 33.951172 73.485352 33.328125 74.320557 Q 32.705078 75.155762 31.620117 75.155762 Q 31.072266 75.155762 30.661377 74.922119 Q 30.250488 74.688477 30.014160 74.242676 Z M 32.914551 71.997559 Q 32.914551 70.848145 32.552002 70.262695 Q 32.189453 69.677246 31.475098 69.677246 Q 30.755371 69.677246 30.384766 70.265381 Q 30.014160 70.853516 30.014160 71.997559 Q 30.014160 73.136230 30.384766 73.727051 Q 30.755371 74.317871 31.475098 74.317871 Q 32.189453 74.317871 32.552002 73.732422 Q 32.914551 73.146973 32.914551 71.997559 Z " fill="rgb(0, 0, 0)" fill-opacity="1.000000" />
<path d="M 40.929688 74.339355 Q 40.494629 74.742188 39.949463 74.948975 Q 39.404297 75.155762 38.770508 75.155762 Q 37.245117 75.155762 36.396484 74.062744 Q 35.547852 72.969727 35.547852 70.998535 Q 35.547852 69.032715 36.407227 67.934326 Q 37.266602 66.835938 38.797363 66.835938 Q 39.302246 66.835938 39.764160 66.978271 Q 40.226074 67.120605 40.655762 67.410645 L 40.655762 68.522461 Q 40.220703 68.108887 39.764160 67.912842 Q 39.307617 67.716797 38.797363 67.716797 Q 37.739258 67.716797 37.210205 68.535889 Q 36.681152 69.354980 36.681152 70.998535 Q 36.681152 72.668945 37.194092 73.471924 Q 37.707031 74.274902 38.770508 74.274902 Q 39.130371 74.274902 39.401611 74.191650 Q 39.672852 74.108398 39.893066 73.931152 L 39.893066 71.777344 L 38.727539 71.777344 L 38.727539 70.885742 L 40.929688 70.885742 Z " fill="rgb(0, 0, 0)" fill-opacity="1.000000" />
<path d="M 48.203613 70.225098 Q 47.886719 69.978027 47.559082 69.865234 Q 47.231445 69.752441 46.839355 69.752441 Q 45.915527 69.752441 45.426758 70.332520 Q 44.937988 70.912598 44.937988 72.008301 L 44.937988 75.000000 L 43.944336 75.000000 L 43.944336 68.984375 L 44.937988 68.984375 L 44.937988 70.160645 Q 45.185059 69.521484 45.697998 69.180420 Q 46.210938 68.839355 46.914551 68.839355 Q 47.279785 68.839355 47.596680 68.930664 Q 47.913574 69.021973 48.203613 69.215332 Z " fill="rgb(0, 0, 0)" fill-opacity="1.000000" />
<path d="M 55.015625 71.498047 L 55.015625 71.981445 L 50.734863 71.981445 L 50.734863 72.013672 Q 50.691895 73.243652 51.204834 73.780762 Q 51.717773 74.317871 52.652344 74.317871 Q 53.125000 74.317871 53.640625 74.167480 Q 54.156250 74.017090 54.741699 73.710938 L 54.741699 74.693848 Q 54.177734 74.924805 53.654053 75.040283 Q 53.130371 75.155762 52.641602 75.155762 Q 51.239746 75.155762 50.450195 74.315186 Q 49.660645 73.474609 49.660645 71.997559 Q 49.660645 70.558105 50.434082 69.698730 Q 51.207520 68.839355 52.496582 68.839355 Q 53.645996 68.839355 54.309326 69.618164 Q 54.972656 70.396973 55.015625 71.498047 Z M 54.027344 71.208008 Q 53.962891 70.584961 53.573486 70.131104 Q 53.184082 69.677246 52.453613 69.677246 Q 51.739258 69.677246 51.277344 70.149902 Q 50.815430 70.622559 50.772461 71.213379 Z " fill="rgb(0, 0, 0)" fill-opacity="1.000000" />
<path d="M 59.770508 71.976074 L 59.442871 71.976074 Q 58.578125 71.976074 58.140381 72.279541 Q 57.702637 72.583008 57.702637 73.184570 Q 57.702637 73.727051 58.030273 74.027832 Q 58.357910 74.328613 58.937988 74.328613 Q 59.754395 74.328613 60.221680 73.761963 Q 60.688965 73.195312 60.694336 72.196289 L 60.694336 71.976074 Z M 61.687988 71.567871 L 61.687988 75.000000 L 60.694336 75.000000 L 60.694336 74.108398 Q 60.377441 74.645508 59.896729 74.900635 Q 59.416016 75.155762 58.728516 75.155762 Q 57.810059 75.155762 57.262207 74.637451 Q 56.714355 74.119141 56.714355 73.249023 Q 56.714355 72.244629 57.388428 71.723633 Q 58.062500 71.202637 59.367676 71.202637 L 60.694336 71.202637 L 60.694336 71.046875 Q 60.688965 70.327148 60.329102 70.002197 Q 59.969238 69.677246 59.179688 69.677246 Q 58.674805 69.677246 58.159180 69.822266 Q 57.643555 69.967285 57.154785 70.246582 L 57.154785 69.258301 Q 57.702637 69.048828 58.204834 68.944092 Q 58.707031 68.839355 59.179688 68.839355 Q 59.926270 68.839355 60.455322 69.059570 Q 60.984375 69.279785 61.312012 69.720215 Q 61.516113 69.988770 61.602051 70.383545 Q 61.687988 70.778320 61.687988 71.567871 Z " fill="rgb(0, 0, 0)" fill-opacity="1.000000" />
<path d="M 66.297852 67.276367 L 66.297852 68.984375 L 68.542969 68.984375 L 68.542969 69.752441 L 66.297852 69.752441 L 66.297852 73.018066 Q 66.297852 73.684082 66.550293 73.947266 Q 66.802734 74.210449 67.431152 74.210449 L 68.542969 74.210449 L 68.542969 75.000000 L 67.334473 75.000000 Q 66.222656 75.000000 65.766113 74.554199 Q 65.309570 74.108398 65.309570 73.018066 L 65.309570 69.752441 L 63.703613 69.752441 L 63.703613 68.984375 L 65.309570 68.984375 L 65.309570 67.276367 Z " fill="rgb(0, 0, 0)" fill-opacity="1.000000" />
<path d="M 76.015625 71.498047 L 76.015625 71.981445 L 71.734863 71.981445 L 71.734863 72.013672 Q 71.691895 73.243652 72.204834 73.780762 Q 72.717773 74.317871 73.652344 74.317871 Q 74.125000 74.317871 74.640625 74.167480 Q 75.156250 74.017090 75.741699 73.710938 L 75.741699 74.693848 Q 75.177734 74.924805 74.654053 75.040283 Q 74.130371 75.155762 73.641602 75.155762 Q 72.239746 75.155762 71.450195 74.315186 Q 70.660645 73.474609 70.660645 71.997559 Q 70.660645 70.558105 71.434082 69.698730 Q 72.207520 68.839355 73.496582 68.839355 Q 74.645996 68.839355 75.309326 69.618164 Q 75.972656 70.396973 76.015625 71.498047 Z M 75.027344 71.208008 Q 74.962891 70.584961 74.573486 70.131104 Q 74.184082 69.677246 73.453613 69.677246 Q 72.739258 69.677246 72.277344 70.149902 Q 71.815430 70.622559 71.772461 71.213379 Z " fill="rgb(0, 0, 0)" fill-opacity="1.000000" />
<path d="M 83.203613 70.225098 Q 82.886719 69.978027 82.559082 69.865234 Q 82.231445 69.752441 81.839355 69.752441 Q 80.915527 69.752441 80.426758 70.332520 Q 79.937988 70.912598 79.937988 72.008301 L 79.937988 75.000000 L 78.944336 75.000000 L 78.944336 68.984375 L 79.937988 68.984375 L 79.937988 70.160645 Q 80.185059 69.521484 80.697998 69.180420 Q 81.210938 68.839355 81.914551 68.839355 Q 82.279785 68.839355 82.596680 68.930664 Q 82.913574 69.021973 83.203613 69.215332 Z " fill="rgb(0, 0, 0)" fill-opacity="1.000000" />
<path d="M 84.252441 66.980957 L 90.370117 66.980957 L 90.370117 67.894043 L 87.861816 67.894043 L 87.861816 75.000000 L 86.771484 75.000000 L 86.771484 67.894043 L 84.252441 67.894043 Z " fill="rgb(0, 0, 0)" fill-opacity="1.000000" />
<path d="M 96.645020 71.272461 L 96.645020 75.000000 L 95.651367 75.000000 L 95.651367 71.272461 Q 95.651367 70.461426 95.366699 70.080078 Q 95.082031 69.698730 94.475098 69.698730 Q 93.782227 69.698730 93.408936 70.190186 Q 93.035645 70.681641 93.035645 71.600098 L 93.035645 75.000000 L 92.047363 75.000000 L 92.047363 66.642578 L 93.035645 66.642578 L 93.035645 69.886719 Q 93.298828 69.371094 93.750000 69.105225 Q 94.201172 68.839355 94.818848 68.839355 Q 95.737305 68.839355 96.191162 69.443604 Q 96.645020 70.047852 96.645020 71.272461 Z " fill="rgb(0, 0, 0)" fill-opacity="1.000000" />
<path d="M 101.770508 71.976074 L 101.442871 71.976074 Q 100.578125 71.976074 100.140381 72.279541 Q 99.702637 72.583008 99.702637 73.184570 Q 99.702637 73.727051 100.030273 74.027832 Q 100.357910 74.328613 100.937988 74.328613 Q 101.754395 74.328613 102.221680 73.761963 Q 102.688965 73.195312 102.694336 72.196289 L 102.694336 71.976074 Z M 103.687988 71.567871 L 103.687988 75.000000 L 102.694336 75.000000 L 102.694336 74.108398 Q 102.377441 74.645508 101.896729 74.900635 Q 101.416016 75.155762 100.728516 75.155762 Q 99.810059 75.155762 99.262207 74.637451 Q 98.714355 74.119141 98.714355 73.249023 Q 98.714355 72.244629 99.388428 71.723633 Q 100.062500 71.202637 101.367676 71.202637 L 102.694336 71.202637 L 102.694336 71.046875 Q 102.688965 70.327148 102.329102 70.002197 Q 101.969238 69.677246 101.179688 69.677246 Q 100.674805 69.677246 100.159180 69.822266 Q 99.643555 69.967285 99.154785 70.246582 L 99.154785 69.258301 Q 99.702637 69.048828 100.204834 68.944092 Q 100.707031 68.839355 101.179688 68.839355 Q 101.926270 68.839355 102.455322 69.059570 Q 102.984375 69.279785 103.312012 69.720215 Q 103.516113 69.988770 103.602051 70.383545 Q 103.687988 70.778320 103.687988 71.567871 Z " fill="rgb(0, 0, 0)" fill-opacity="1.000000" />
<path d="M 110.645020 71.272461 L 110.645020 75.000000 L 109.651367 75.000000 L 109.651367 71.272461 Q 109.651367 70.461426 109.366699 70.080078 Q 109.082031 69.698730 108.475098 69.698730 Q 107.782227 69.698730 107.408936 70.190186 Q 107.035645 70.681641 107.035645 71.600098 L 107.035645 75.000000 L 106.047363 75.000000 L 106.047363 68.984375 L 107.035645 68.984375 L 107.035645 69.886719 Q 107.298828 69.371094 107.750000 69.105225 Q 108.201172 68.839355 108.818848 68.839355 Q 109.737305 68.839355 110.191162 69.443604 Q 110.645020 70.047852 110.645020 71.272461 Z " fill="rgb(0, 0, 0)" fill-opacity="1.000000" />
<path d="M 135.878906 78.319336 L 135.878906 64.300781 L 136.738281 64.300781 L 136.738281 78.319336 Z " fill="rgb(0, 0, 0)" fill-opacity="1.000000" />
<path d="M 6.892578 59.335938 L 6.892578 58.412109 L 13.729980 58.412109 L 13.729980 59.335938 Z " fill="rgb(0, 0, 0)" fill-opacity="1.000000" />
<path d="M 13.892578 59.335938 L 13.892578 58.412109 L 20.729980 58.412109 L 20.729980 59.335938 Z " fill="rgb(0, 0, 0)" fill-opacity="1.000000" />
<path d="M 20.892578 59.335938 L 20.892578 58.412109 L 27.729980 58.412109 L 27.729980 59.335938 Z " fill="rgb(0, 0, 0)" fill-opacity="1.000000" />
<path d="M 27.892578 59.335938 L 27.892578 58.412109 L 34.729980 58.412109 L 34.729980 59.335938 Z " fill="rgb(0, 0, 0)" fill-opacity="1.000000" />
<path d="M 34.892578 59.335938 L 34.892578 58.412109 L 41.729980 58.412109 L 41.729980 59.335938 Z " fill="rgb(0, 0, 0)" fill-opacity="1.000000" />
<path d="M 41.892578 59.335938 L 41.892578 58.412109 L 48.729980 58.412109 L 48.729980 59.335938 Z " fill="rgb(0, 0, 0)" fill-opacity="1.000000" />
<path d="M 48.892578 59.335938 L 48.892578 58.412109 L 55.729980 58.412109 L 55.729980 59.335938 Z " fill="rgb(0, 0, 0)" fill-opacity="1.000000" />
<path d="M 55.892578 59.335938 L 55.892578 58.412109 L 62.729980 58.412109 L 62.729980 59.335938 Z " fill="rgb(0, 0, 0)" fill-opacity="1.000000" />
<path d="M 62.892578 59.335938 L 62.892578 58.412109 L 69.729980 58.412109 L 69.729980 59.335938 Z " fill="rgb(0, 0, 0)" fill-opacity="1.000000" />
<path d="M 69.892578 59.335938 L 69.892578 58.412109 L 76.729980 58.412109 L 76.729980 59.335938 Z " fill="rgb(0, 0, 0)" fill-opacity="1.000000" />
<path d="M 76.892578 59.335938 L 76.892578 58.412109 L 83.729980 58.412109 L 83.729980 59.335938 Z " fill="rgb(0, 0, 0)" fill-opacity="1.000000" />
<path d="M 83.892578 59.335938 L 83.892578 58.412109 L 90.729980 58.412109 L 90.729980 59.335938 Z " fill="rgb(0, 0, 0)" fill-opacity="1.000000" />
<path d="M 90.892578 59.335938 L 90.892578 58.412109 L 97.729980 58.412109 L 97.729980 59.335938 Z " fill="rgb(0, 0, 0)" fill-opacity="1.000000" />
<path d="M 97.892578 59.335938 L 97.892578 58.412109 L 104.729980 58.412109 L 104.729980 59.335938 Z " fill="rgb(0, 0, 0)" fill-opacity="1.000000" />
<path d="M 104.892578 59.335938 L 104.892578 58.412109 L 111.729980 58.412109 L 111.729980 59.335938 Z " fill="rgb(0, 0, 0)" fill-opacity="1.000000" />
<path d="M 111.892578 59.335938 L 111.892578 58.412109 L 118.729980 58.412109 L 118.729980 59.335938 Z " fill="rgb(0, 0, 0)" fill-opacity="1.000000" />
<path d="M 118.892578 59.335938 L 118.892578 58.412109 L 125.729980 58.412109 L 125.729980 59.335938 Z " fill="rgb(0, 0, 0)" fill-opacity="1.000000" />
<path d="M 125.892578 59.335938 L 125.892578 58.412109 L 132.729980 58.412109 L 132.729980 59.335938 Z " fill="rgb(0, 0, 0)" fill-opacity="1.000000" />
<path d="M 135.878906 65.319336 L 135.878906 59.335938 L 132.892578 59.335938 L 132.892578 58.412109 L 135.878906 58.412109 L 135.878906 51.300781 L 136.738281 51.300781 L 136.738281 65.319336 Z " fill="rgb(0, 0, 0)" fill-opacity="1.000000" />
<path d="M 32.860840 44.998535 Q 32.860840 43.231445 32.498291 42.474121 Q 32.135742 41.716797 31.308594 41.716797 Q 30.486816 41.716797 30.124268 42.474121 Q 29.761719 43.231445 29.761719 44.998535 Q 29.761719 46.760254 30.124268 47.517578 Q 30.486816 48.274902 31.308594 48.274902 Q 32.135742 48.274902 32.498291 47.520264 Q 32.860840 46.765625 32.860840 44.998535 Z M 33.994141 44.998535 Q 33.994141 47.093262 33.330811 48.124512 Q 32.667480 49.155762 31.308594 49.155762 Q 29.949707 49.155762 29.289062 48.129883 Q 28.628418 47.104004 28.628418 44.998535 Q 28.628418 42.898438 29.291748 41.867188 Q 29.955078 40.835938 31.308594 40.835938 Q 32.667480 40.835938 33.330811 41.867188 Q 33.994141 42.898438 33.994141 44.998535 Z " fill="rgb(0, 0, 0)" fill-opacity="1.000000" />
<path d="M 37.014160 48.242676 L 37.014160 51.288086 L 36.020508 51.288086 L 36.020508 42.984375 L 37.014160 42.984375 L 37.014160 43.752441 Q 37.261230 43.306641 37.672119 43.072998 Q 38.083008 42.839355 38.620117 42.839355 Q 39.710449 42.839355 40.330811 43.682617 Q 40.951172 44.525879 40.951172 46.019043 Q 40.951172 47.485352 40.328125 48.320557 Q 39.705078 49.155762 38.620117 49.155762 Q 38.072266 49.155762 37.661377 48.922119 Q 37.250488 48.688477 37.014160 48.242676 Z M 39.914551 45.997559 Q 39.914551 44.848145 39.552002 44.262695 Q 39.189453 43.677246 38.475098 43.677246 Q 37.755371 43.677246 37.384766 44.265381 Q 37.014160 44.853516 37.014160 45.997559 Q 37.014160 47.136230 37.384766 47.727051 Q 37.755371 48.317871 38.475098 48.317871 Q 39.189453 48.317871 39.552002 47.732422 Q 39.914551 47.146973 39.914551 45.997559 Z " fill="rgb(0, 0, 0)" fill-opacity="1.000000" />
<path d="M 47.763184 48.715332 Q 47.349609 48.935547 46.914551 49.045654 Q 46.479492 49.155762 45.990723 49.155762 Q 44.449219 49.155762 43.597900 48.065430 Q 42.746582 46.975098 42.746582 44.998535 Q 42.746582 43.032715 43.603271 41.934326 Q 44.459961 40.835938 45.990723 40.835938 Q 46.479492 40.835938 46.914551 40.946045 Q 47.349609 41.056152 47.763184 41.276367 L 47.763184 42.388184 Q 47.365723 42.060547 46.909180 41.888672 Q 46.452637 41.716797 45.990723 41.716797 Q 44.932617 41.716797 44.406250 42.533203 Q 43.879883 43.349609 43.879883 44.998535 Q 43.879883 46.642090 44.406250 47.458496 Q 44.932617 48.274902 45.990723 48.274902 Q 46.463379 48.274902 46.917236 48.103027 Q 47.371094 47.931152 47.763184 47.603516 Z " fill="rgb(0, 0, 0)" fill-opacity="1.000000" />
<path d="M 52.308594 43.677246 Q 51.556641 43.677246 51.169922 44.262695 Q 50.783203 44.848145 50.783203 45.997559 Q 50.783203 47.141602 51.169922 47.729736 Q 51.556641 48.317871 52.308594 48.317871 Q 53.065918 48.317871 53.452637 47.729736 Q 53.839355 47.141602 53.839355 45.997559 Q 53.839355 44.848145 53.452637 44.262695 Q 53.065918 43.677246 52.308594 43.677246 Z M 52.308594 42.839355 Q 53.560059 42.839355 54.223389 43.650391 Q 54.886719 44.461426 54.886719 45.997559 Q 54.886719 47.539062 54.226074 48.347412 Q 53.565430 49.155762 52.308594 49.155762 Q 51.057129 49.155762 50.396484 48.347412 Q 49.735840 47.539062 49.735840 45.997559 Q 49.735840 44.461426 50.396484 43.650391 Q 51.057129 42.839355 52.308594 42.839355 Z " fill="rgb(0, 0, 0)" fill-opacity="1.000000" />
<path d="M 61.645020 45.272461 L 61.645020 49.000000 L 60.651367 49.000000 L 60.651367 45.272461 Q 60.651367 44.461426 60.366699 44.080078 Q 60.082031 43.698730 59.475098 43.698730 Q 58.782227 43.698730 58.408936 44.190186 Q 58.035645 44.681641 58.035645 45.600098 L 58.035645 49.000000 L 57.047363 49.000000 L 57.047363 42.984375 L 58.035645 42.984375 L 58.035645 43.886719 Q 58.298828 43.371094 58.750000 43.105225 Q 59.201172 42.839355 59.818848 42.839355 Q 60.737305 42.839355 61.191162 43.443604 Q 61.645020 44.047852 61.645020 45.272461 Z " fill="rgb(0, 0, 0)" fill-opacity="1.000000" />
<path d="M 68.226074 43.193848 L 68.226074 44.160645 Q 67.801758 43.913574 67.372070 43.790039 Q 66.942383 43.666504 66.496582 43.666504 Q 65.825195 43.666504 65.494873 43.884033 Q 65.164551 44.101562 65.164551 44.547363 Q 65.164551 44.950195 65.411621 45.148926 Q 65.658691 45.347656 66.641602 45.535645 L 67.039062 45.610840 Q 67.774902 45.750488 68.153564 46.169434 Q 68.532227 46.588379 68.532227 47.259766 Q 68.532227 48.151367 67.898438 48.653564 Q 67.264648 49.155762 66.136719 49.155762 Q 65.690918 49.155762 65.202148 49.061768 Q 64.713379 48.967773 64.144043 48.779785 L 64.144043 47.759277 Q 64.697266 48.043945 65.202148 48.186279 Q 65.707031 48.328613 66.158203 48.328613 Q 66.813477 48.328613 67.173340 48.062744 Q 67.533203 47.796875 67.533203 47.318848 Q 67.533203 46.631348 66.217285 46.368164 L 66.174316 46.357422 L 65.803711 46.282227 Q 64.949707 46.115723 64.557617 45.720947 Q 64.165527 45.326172 64.165527 44.644043 Q 64.165527 43.779297 64.750977 43.309326 Q 65.336426 42.839355 66.421387 42.839355 Q 66.904785 42.839355 67.350586 42.927979 Q 67.796387 43.016602 68.226074 43.193848 Z " fill="rgb(0, 0, 0)" fill-opacity="1.000000" />
<path d="M 73.297852 41.276367 L 73.297852 42.984375 L 75.542969 42.984375 L 75.542969 43.752441 L 73.297852 43.752441 L 73.297852 47.018066 Q 73.297852 47.684082 73.550293 47.947266 Q 73.802734 48.210449 74.431152 48.210449 L 75.542969 48.210449 L 75.542969 49.000000 L 74.334473 49.000000 Q 73.222656 49.000000 72.766113 48.554199 Q 72.309570 48.108398 72.309570 47.018066 L 72.309570 43.752441 L 70.703613 43.752441 L 70.703613 42.984375 L 72.309570 42.984375 L 72.309570 41.276367 Z " fill="rgb(0, 0, 0)" fill-opacity="1.000000" />
<path d="M 80.770508 45.976074 L 80.442871 45.976074 Q 79.578125 45.976074 79.140381 46.279541 Q 78.702637 46.583008 78.702637 47.184570 Q 78.702637 47.727051 79.030273 48.027832 Q 79.357910 48.328613 79.937988 48.328613 Q 80.754395 48.328613 81.221680 47.761963 Q 81.688965 47.195312 81.694336 46.196289 L 81.694336 45.976074 Z M 82.687988 45.567871 L 82.687988 49.000000 L 81.694336 49.000000 L 81.694336 48.108398 Q 81.377441 48.645508 80.896729 48.900635 Q 80.416016 49.155762 79.728516 49.155762 Q 78.810059 49.155762 78.262207 48.637451 Q 77.714355 48.119141 77.714355 47.249023 Q 77.714355 46.244629 78.388428 45.723633 Q 79.062500 45.202637 80.367676 45.202637 L 81.694336 45.202637 L 81.694336 45.046875 Q 81.688965 44.327148 81.329102 44.002197 Q 80.969238 43.677246 80.179688 43.677246 Q 79.674805 43.677246 79.159180 43.822266 Q 78.643555 43.967285 78.154785 44.246582 L 78.154785 43.258301 Q 78.702637 43.048828 79.204834 42.944092 Q 79.707031 42.839355 80.179688 42.839355 Q 80.926270 42.839355 81.455322 43.059570 Q 81.984375 43.279785 82.312012 43.720215 Q 82.516113 43.988770 82.602051 44.383545 Q 82.687988 44.778320 82.687988 45.567871 Z " fill="rgb(0, 0, 0)" fill-opacity="1.000000" />
<path d="M 89.645020 45.272461 L 89.645020 49.000000 L 88.651367 49.000000 L 88.651367 45.272461 Q 88.651367 44.461426 88.366699 44.080078 Q 88.082031 43.698730 87.475098 43.698730 Q 86.782227 43.698730 86.408936 44.190186 Q 86.035645 44.681641 86.035645 45.600098 L 86.035645 49.000000 L 85.047363 49.000000 L 85.047363 42.984375 L 86.035645 42.984375 L 86.035645 43.886719 Q 86.298828 43.371094 86.750000 43.105225 Q 87.201172 42.839355 87.818848 42.839355 Q 88.737305 42.839355 89.191162 43.443604 Q 89.645020 44.047852 89.645020 45.272461 Z " fill="rgb(0, 0, 0)" fill-opacity="1.000000" />
<path d="M 94.297852 41.276367 L 94.297852 42.984375 L 96.542969 42.984375 L 96.542969 43.752441 L 94.297852 43.752441 L 94.297852 47.018066 Q 94.297852 47.684082 94.550293 47.947266 Q 94.802734 48.210449 95.431152 48.210449 L 96.542969 48.210449 L 96.542969 49.000000 L 95.334473 49.000000 Q 94.222656 49.000000 93.766113 48.554199 Q 93.309570 48.108398 93.309570 47.018066 L 93.309570 43.752441 L 91.703613 43.752441 L 91.703613 42.984375 L 93.309570 42.984375 L 93.309570 41.276367 Z " fill="rgb(0, 0, 0)" fill-opacity="1.000000" />
<path d="M 106.450195 48.092285 L 108.136719 48.092285 L 108.136719 42.033691 L 106.117188 43.005859 L 106.117188 41.963867 L 108.125977 41.007812 L 109.210938 41.007812 L 109.210938 48.092285 L 110.875977 48.092285 L 110.875977 49.000000 L 106.450195 49.000000 Z " fill="rgb(0, 0, 0)" fill-opacity="1.000000" />
<path d="M 135.878906 52.319336 L 135.878906 38.300781 L 136.738281 38.300781 L 136.738281 52.319336 Z " fill="rgb(0, 0, 0)" fill-opacity="1.000000" />
<path d="M 141.256836 46.142578 L 145.978027 48.505859 L 145.978027 43.779297 Z M 140.032227 46.142578 L 146.590332 42.866211 L 146.590332 49.418945 Z " fill="rgb(0, 0, 0)" fill-opacity="1.000000" />
<path d="M 146.892578 46.335938 L 146.892578 45.412109 L 153.729980 45.412109 L 153.729980 46.335938 Z " fill="rgb(0, 0, 0)" fill-opacity="1.000000" />
<path d="M 153.892578 46.335938 L 153.892578 45.412109 L 160.729980 45.412109 L 160.729980 46.335938 Z " fill="rgb(0, 0, 0)" fill-opacity="1.000000" />
<path d="M 160.892578 46.335938 L 160.892578 45.412109 L 167.729980 45.412109 L 167.729980 46.335938 Z " fill="rgb(0, 0, 0)" fill-opacity="1.000000" />
<path d="M 167.892578 46.335938 L 167.892578 45.412109 L 174.729980 45.412109 L 174.729980 46.335938 Z " fill="rgb(0, 0, 0)" fill-opacity="1.000000" />
<path d="M 174.892578 46.335938 L 174.892578 45.412109 L 181.729980 45.412109 L 181.729980 46.335938 Z " fill="rgb(0, 0, 0)" fill-opacity="1.000000" />
<path d="M 181.892578 46.335938 L 181.892578 45.412109 L 188.729980 45.412109 L 188.729980 46.335938 Z " fill="rgb(0, 0, 0)" fill-opacity="1.000000" />
<path d="M 197.154785 40.980957 L 198.245117 40.980957 L 198.245117 48.086914 L 202.117676 48.086914 L 202.117676 49.000000 L 197.154785 49.000000 Z " fill="rgb(0, 0, 0)" fill-opacity="1.000000" />
<path d="M 206.308594 43.677246 Q 205.556641 43.677246 205.169922 44.262695 Q 204.783203 44.848145 204.783203 45.997559 Q 204.783203 47.141602 205.169922 47.729736 Q 205.556641 48.317871 206.308594 48.317871 Q 207.065918 48.317871 207.452637 47.729736 Q 207.839355 47.141602 207.839355 45.997559 Q 207.839355 44.848145 207.452637 44.262695 Q 207.065918 43.677246 206.308594 43.677246 Z M 206.308594 42.839355 Q 207.560059 42.839355 208.223389 43.650391 Q 208.886719 44.461426 208.886719 45.997559 Q 208.886719 47.539062 208.226074 48.347412 Q 207.565430 49.155762 206.308594 49.155762 Q 205.057129 49.155762 204.396484 48.347412 Q 203.735840 47.539062 203.735840 45.997559 Q 203.735840 44.461426 204.396484 43.650391 Q 205.057129 42.839355 206.308594 42.839355 Z " fill="rgb(0, 0, 0)" fill-opacity="1.000000" />
<path d="M 213.770508 45.976074 L 213.442871 45.976074 Q 212.578125 45.976074 212.140381 46.279541 Q 211.702637 46.583008 211.702637 47.184570 Q 211.702637 47.727051 212.030273 48.027832 Q 212.357910 48.328613 212.937988 48.328613 Q 213.754395 48.328613 214.221680 47.761963 Q 214.688965 47.195312 214.694336 46.196289 L 214.694336 45.976074 Z M 215.687988 45.567871 L 215.687988 49.000000 L 214.694336 49.000000 L 214.694336 48.108398 Q 214.377441 48.645508 213.896729 48.900635 Q 213.416016 49.155762 212.728516 49.155762 Q 211.810059 49.155762 211.262207 48.637451 Q 210.714355 48.119141 210.714355 47.249023 Q 210.714355 46.244629 211.388428 45.723633 Q 212.062500 45.202637 213.367676 45.202637 L 214.694336 45.202637 L 214.694336 45.046875 Q 214.688965 44.327148 214.329102 44.002197 Q 213.969238 43.677246 213.179688 43.677246 Q 212.674805 43.677246 212.159180 43.822266 Q 211.643555 43.967285 211.154785 44.246582 L 211.154785 43.258301 Q 211.702637 43.048828 212.204834 42.944092 Q 212.707031 42.839355 213.179688 42.839355 Q 213.926270 42.839355 214.455322 43.059570 Q 214.984375 43.279785 215.312012 43.720215 Q 215.516113 43.988770 215.602051 44.383545 Q 215.687988 44.778320 215.687988 45.567871 Z " fill="rgb(0, 0, 0)" fill-opacity="1.000000" />
<path d="M 221.608398 43.752441 L 221.608398 40.642578 L 222.596680 40.642578 L 222.596680 49.000000 L 221.608398 49.000000 L 221.608398 48.242676 Q 221.361328 48.688477 220.950439 48.922119 Q 220.539551 49.155762 220.002441 49.155762 Q 218.912109 49.155762 218.286377 48.309814 Q 217.660645 47.463867 217.660645 45.976074 Q 217.660645 44.509766 218.289062 43.674561 Q 218.917480 42.839355 220.002441 42.839355 Q 220.544922 42.839355 220.958496 43.072998 Q 221.372070 43.306641 221.608398 43.752441 Z M 218.702637 45.997559 Q 218.702637 47.146973 219.067871 47.732422 Q 219.433105 48.317871 220.147461 48.317871 Q 220.861816 48.317871 221.235107 47.727051 Q 221.608398 47.136230 221.608398 45.997559 Q 221.608398 44.853516 221.235107 44.265381 Q 220.861816 43.677246 220.147461 43.677246 Q 219.433105 43.677246 219.067871 44.262695 Q 218.702637 44.848145 218.702637 45.997559 Z " fill="rgb(0, 0, 0)" fill-opacity="1.000000" />
<path d="M 234.297852 41.276367 L 234.297852 42.984375 L 236.542969 42.984375 L 236.542969 43.752441 L 234.297852 43.752441 L 234.297852 47.018066 Q 234.297852 47.684082 234.550293 47.947266 Q 234.802734 48.210449 235.431152 48.210449 L 236.542969 48.210449 L 236.542969 49.000000 L 235.334473 49.000000 Q 234.222656 49.000000 233.766113 48.554199 Q 233.309570 48.108398 233.309570 47.018066 L 233.309570 43.752441 L 231.703613 43.752441 L 231.703613 42.984375 L 233.309570 42.984375 L 233.309570 41.276367 Z " fill="rgb(0, 0, 0)" fill-opacity="1.000000" />
<path d="M 243.645020 45.272461 L 243.645020 49.000000 L 242.651367 49.000000 L 242.651367 45.272461 Q 242.651367 44.461426 242.366699 44.080078 Q 242.082031 43.698730 241.475098 43.698730 Q 240.782227 43.698730 240.408936 44.190186 Q 240.035645 44.681641 240.035645 45.600098 L 240.035645 49.000000 L 239.047363 49.000000 L 239.047363 40.642578 L 240.035645 40.642578 L 240.035645 43.886719 Q 240.298828 43.371094 240.750000 43.105225 Q 241.201172 42.839355 241.818848 42.839355 Q 242.737305 42.839355 243.191162 43.443604 Q 243.645020 44.047852 243.645020 45.272461 Z " fill="rgb(0, 0, 0)" fill-opacity="1.000000" />
<path d="M 251.015625 45.498047 L 251.015625 45.981445 L 246.734863 45.981445 L 246.734863 46.013672 Q 246.691895 47.243652 247.204834 47.780762 Q 247.717773 48.317871 248.652344 48.317871 Q 249.125000 48.317871 249.640625 48.167480 Q 250.156250 48.017090 250.741699 47.710938 L 250.741699 48.693848 Q 250.177734 48.924805 249.654053 49.040283 Q 249.130371 49.155762 248.641602 49.155762 Q 247.239746 49.155762 246.450195 48.315186 Q 245.660645 47.474609 245.660645 45.997559 Q 245.660645 44.558105 246.434082 43.698730 Q 247.207520 42.839355 248.496582 42.839355 Q 249.645996 42.839355 250.309326 43.618164 Q 250.972656 44.396973 251.015625 45.498047 Z M 250.027344 45.208008 Q 249.962891 44.584961 249.573486 44.131104 Q 249.184082 43.677246 248.453613 43.677246 Q 247.739258 43.677246 247.277344 44.149902 Q 246.815430 44.622559 246.772461 45.213379 Z " fill="rgb(0, 0, 0)" fill-opacity="1.000000" />
<path d="M 261.003418 48.086914 L 264.687988 48.086914 L 264.687988 49.000000 L 259.816406 49.000000 L 259.816406 48.086914 Q 260.820801 47.028809 261.572754 46.217773 Q 262.324707 45.406738 262.609375 45.073730 Q 263.146484 44.418457 263.334473 44.012939 Q 263.522461 43.607422 263.522461 43.183105 Q 263.522461 42.511719 263.127686 42.130371 Q 262.732910 41.749023 262.045410 41.749023 Q 261.556641 41.749023 261.019531 41.926270 Q 260.482422 42.103516 259.880859 42.463379 L 259.880859 41.367676 Q 260.434082 41.104492 260.968506 40.970215 Q 261.502930 40.835938 262.023926 40.835938 Q 263.200195 40.835938 263.917236 41.461670 Q 264.634277 42.087402 264.634277 43.102539 Q 264.634277 43.618164 264.395264 44.133789 Q 264.156250 44.649414 263.619141 45.272461 Q 263.318359 45.621582 262.746338 46.239258 Q 262.174316 46.856934 261.003418 48.086914 Z " fill="rgb(0, 0, 0)" fill-opacity="1.000000" />
<path d="M 6.892578 33.335938 L 6.892578 32.412109 L 13.729980 32.412109 L 13.729980 33.335938 Z " fill="rgb(0, 0, 0)" fill-opacity="1.000000" />
<path d="M 13.892578 33.335938 L 13.892578 32.412109 L 20.729980 32.412109 L 20.729980 33.335938 Z " fill="rgb(0, 0, 0)" fill-opacity="1.000000" />
<path d="M 20.892578 33.335938 L 20.892578 32.412109 L 27.729980 32.412109 L 27.729980 33.335938 Z " fill="rgb(0, 0, 0)" fill-opacity="1.000000" />
<path d="M 27.892578 33.335938 L 27.892578 32.412109 L 34.729980 32.412109 L 34.729980 33.335938 Z " fill="rgb(0, 0, 0)" fill-opacity="1.000000" />
<path d="M 34.892578 33.335938 L 34.892578 32.412109 L 41.729980 32.412109 L 41.729980 33.335938 Z " fill="rgb(0, 0, 0)" fill-opacity="1.000000" />
<path d="M 41.892578 33.335938 L 41.892578 32.412109 L 48.729980 32.412109 L 48.729980 33.335938 Z " fill="rgb(0, 0, 0)" fill-opacity="1.000000" />
<path d="M 48.892578 33.335938 L 48.892578 32.412109 L 55.729980 32.412109 L 55.729980 33.335938 Z " fill="rgb(0, 0, 0)" fill-opacity="1.000000" />
<path d="M 55.892578 33.335938 L 55.892578 32.412109 L 62.729980 32.412109 L 62.729980 33.335938 Z " fill="rgb(0, 0, 0)" fill-opacity="1.000000" />
<path d="M 62.892578 33.335938 L 62.892578 32.412109 L 69.729980 32.412109 L 69.729980 33.335938 Z " fill="rgb(0, 0, 0)" fill-opacity="1.000000" />
<path d="M 69.892578 33.335938 L 69.892578 32.412109 L 76.729980 32.412109 L 76.729980 33.335938 Z " fill="rgb(0, 0, 0)" fill-opacity="1.000000" />
<path d="M 76.892578 33.335938 L 76.892578 32.412109 L 83.729980 32.412109 L 83.729980 33.335938 Z " fill="rgb(0, 0, 0)" fill-opacity="1.000000" />
<path d="M 83.892578 33.335938 L 83.892578 32.412109 L 90.729980 32.412109 L 90.729980 33.335938 Z " fill="rgb(0, 0, 0)" fill-opacity="1.000000" />
<path d="M 90.892578 33.335938 L 90.892578 32.412109 L 97.729980 32.412109 L 97.729980 33.335938 Z " fill="rgb(0, 0, 0)" fill-opacity="1.000000" />
<path d="M 97.892578 33.335938 L 97.892578 32.412109 L 104.729980 32.412109 L 104.729980 33.335938 Z " fill="rgb(0, 0, 0)" fill-opacity="1.000000" />
<path d="M 104.892578 33.335938 L 104.892578 32.412109 L 111.729980 32.412109 L 111.729980 33.335938 Z " fill="rgb(0, 0, 0)" fill-opacity="1.000000" />
<path d="M 111.892578 33.335938 L 111.892578 32.412109 L 118.729980 32.412109 L 118.729980 33.335938 Z " fill="rgb(0, 0, 0)" fill-opacity="1.000000" />
<path d="M 118.892578 33.335938 L 118.892578 32.412109 L 125.729980 32.412109 L 125.729980 33.335938 Z " fill="rgb(0, 0, 0)" fill-opacity="1.000000" />
<path d="M 125.892578 33.335938 L 125.892578 32.412109 L 132.729980 32.412109 L 132.729980 33.335938 Z " fill="rgb(0, 0, 0)" fill-opacity="1.000000" />
<path d="M 135.878906 39.319336 L 135.878906 33.335938 L 132.892578 33.335938 L 132.892578 32.412109 L 135.878906 32.412109 L 135.878906 25.300781 L 136.738281 25.300781 L 136.738281 39.319336 Z " fill="rgb(0, 0, 0)" fill-opacity="1.000000" />
<path d="M 32.860840 18.998535 Q 32.860840 17.231445 32.498291 16.474121 Q 32.135742 15.716797 31.308594 15.716797 Q 30.486816 15.716797 30.124268 16.474121 Q 29.761719 17.231445 29.761719 18.998535 Q 29.761719 20.760254 30.124268 21.517578 Q 30.486816 22.274902 31.308594 22.274902 Q 32.135742 22.274902 32.498291 21.520264 Q 32.860840 20.765625 32.860840 18.998535 Z M 33.994141 18.998535 Q 33.994141 21.093262 33.330811 22.124512 Q 32.667480 23.155762 31.308594 23.155762 Q 29.949707 23.155762 29.289062 22.129883 Q 28.628418 21.104004 28.628418 18.998535 Q 28.628418 16.898438 29.291748 15.867188 Q 29.955078 14.835938 31.308594 14.835938 Q 32.667480 14.835938 33.330811 15.867188 Q 33.994141 16.898438 33.994141 18.998535 Z " fill="rgb(0, 0, 0)" fill-opacity="1.000000" />
<path d="M 37.014160 22.242676 L 37.014160 25.288086 L 36.020508 25.288086 L 36.020508 16.984375 L 37.014160 16.984375 L 37.014160 17.752441 Q 37.261230 17.306641 37.672119 17.072998 Q 38.083008 16.839355 38.620117 16.839355 Q 39.710449 16.839355 40.330811 17.682617 Q 40.951172 18.525879 40.951172 20.019043 Q 40.951172 21.485352 40.328125 22.320557 Q 39.705078 23.155762 38.620117 23.155762 Q 38.072266 23.155762 37.661377 22.922119 Q 37.250488 22.688477 37.014160 22.242676 Z M 39.914551 19.997559 Q 39.914551 18.848145 39.552002 18.262695 Q 39.189453 17.677246 38.475098 17.677246 Q 37.755371 17.677246 37.384766 18.265381 Q 37.014160 18.853516 37.014160 19.997559 Q 37.014160 21.136230 37.384766 21.727051 Q 37.755371 22.317871 38.475098 22.317871 Q 39.189453 22.317871 39.552002 21.732422 Q 39.914551 21.146973 39.914551 19.997559 Z " fill="rgb(0, 0, 0)" fill-opacity="1.000000" />
<path d="M 47.763184 22.715332 Q 47.349609 22.935547 46.914551 23.045654 Q 46.479492 23.155762 45.990723 23.155762 Q 44.449219 23.155762 43.597900 22.065430 Q 42.746582 20.975098 42.746582 18.998535 Q 42.746582 17.032715 43.603271 15.934326 Q 44.459961 14.835938 45.990723 14.835938 Q 46.479492 14.835938 46.914551 14.946045 Q 47.349609 15.056152 47.763184 15.276367 L 47.763184 16.388184 Q 47.365723 16.060547 46.909180 15.888672 Q 46.452637 15.716797 45.990723 15.716797 Q 44.932617 15.716797 44.406250 16.533203 Q 43.879883 17.349609 43.879883 18.998535 Q 43.879883 20.642090 44.406250 21.458496 Q 44.932617 22.274902 45.990723 22.274902 Q 46.463379 22.274902 46.917236 22.103027 Q 47.371094 21.931152 47.763184 21.603516 Z " fill="rgb(0, 0, 0)" fill-opacity="1.000000" />
<path d="M 52.308594 17.677246 Q 51.556641 17.677246 51.169922 18.262695 Q 50.783203 18.848145 50.783203 19.997559 Q 50.783203 21.141602 51.169922 21.729736 Q 51.556641 22.317871 52.308594 22.317871 Q 53.065918 22.317871 53.452637 21.729736 Q 53.839355 21.141602 53.839355 19.997559 Q 53.839355 18.848145 53.452637 18.262695 Q 53.065918 17.677246 52.308594 17.677246 Z M 52.308594 16.839355 Q 53.560059 16.839355 54.223389 17.650391 Q 54.886719 18.461426 54.886719 19.997559 Q 54.886719 21.539062 54.226074 22.347412 Q 53.565430 23.155762 52.308594 23.155762 Q 51.057129 23.155762 50.396484 22.347412 Q 49.735840 21.539062 49.735840 19.997559 Q 49.735840 18.461426 50.396484 17.650391 Q 51.057129 16.839355 52.308594 16.839355 Z " fill="rgb(0, 0, 0)" fill-opacity="1.000000" />
<path d="M 61.645020 19.272461 L 61.645020 23.000000 L 60.651367 23.000000 L 60.651367 19.272461 Q 60.651367 18.461426 60.366699 18.080078 Q 60.082031 17.698730 59.475098 17.698730 Q 58.782227 17.698730 58.408936 18.190186 Q 58.035645 18.681641 58.035645 19.600098 L 58.035645 23.000000 L 57.047363 23.000000 L 57.047363 16.984375 L 58.035645 16.984375 L 58.035645 17.886719 Q 58.298828 17.371094 58.750000 17.105225 Q 59.201172 16.839355 59.818848 16.839355 Q 60.737305 16.839355 61.191162 17.443604 Q 61.645020 18.047852 61.645020 19.272461 Z " fill="rgb(0, 0, 0)" fill-opacity="1.000000" />
<path d="M 68.226074 17.193848 L 68.226074 18.160645 Q 67.801758 17.913574 67.372070 17.790039 Q 66.942383 17.666504 66.496582 17.666504 Q 65.825195 17.666504 65.494873 17.884033 Q 65.164551 18.101562 65.164551 18.547363 Q 65.164551 18.950195 65.411621 19.148926 Q 65.658691 19.347656 66.641602 19.535645 L 67.039062 19.610840 Q 67.774902 19.750488 68.153564 20.169434 Q 68.532227 20.588379 68.532227 21.259766 Q 68.532227 22.151367 67.898438 22.653564 Q 67.264648 23.155762 66.136719 23.155762 Q 65.690918 23.155762 65.202148 23.061768 Q 64.713379 22.967773 64.144043 22.779785 L 64.144043 21.759277 Q 64.697266 22.043945 65.202148 22.186279 Q 65.707031 22.328613 66.158203 22.328613 Q 66.813477 22.328613 67.173340 22.062744 Q 67.533203 21.796875 67.533203 21.318848 Q 67.533203 20.631348 66.217285 20.368164 L 66.174316 20.357422 L 65.803711 20.282227 Q 64.949707 20.115723 64.557617 19.720947 Q 64.165527 19.326172 64.165527 18.644043 Q 64.165527 17.779297 64.750977 17.309326 Q 65.336426 16.839355 66.421387 16.839355 Q 66.904785 16.839355 67.350586 16.927979 Q 67.796387 17.016602 68.226074 17.193848 Z " fill="rgb(0, 0, 0)" fill-opacity="1.000000" />
<path d="M 73.297852 15.276367 L 73.297852 16.984375 L 75.542969 16.984375 L 75.542969 17.752441 L 73.297852 17.752441 L 73.297852 21.018066 Q 73.297852 21.684082 73.550293 21.947266 Q 73.802734 22.210449 74.431152 22.210449 L 75.542969 22.210449 L 75.542969 23.000000 L 74.334473 23.000000 Q 73.222656 23.000000 72.766113 22.554199 Q 72.309570 22.108398 72.309570 21.018066 L 72.309570 17.752441 L 70.703613 17.752441 L 70.703613 16.984375 L 72.309570 16.984375 L 72.309570 15.276367 Z " fill="rgb(0, 0, 0)" fill-opacity="1.000000" />
<path d="M 80.770508 19.976074 L 80.442871 19.976074 Q 79.578125 19.976074 79.140381 20.279541 Q 78.702637 20.583008 78.702637 21.184570 Q 78.702637 21.727051 79.030273 22.027832 Q 79.357910 22.328613 79.937988 22.328613 Q 80.754395 22.328613 81.221680 21.761963 Q 81.688965 21.195312 81.694336 20.196289 L 81.694336 19.976074 Z M 82.687988 19.567871 L 82.687988 23.000000 L 81.694336 23.000000 L 81.694336 22.108398 Q 81.377441 22.645508 80.896729 22.900635 Q 80.416016 23.155762 79.728516 23.155762 Q 78.810059 23.155762 78.262207 22.637451 Q 77.714355 22.119141 77.714355 21.249023 Q 77.714355 20.244629 78.388428 19.723633 Q 79.062500 19.202637 80.367676 19.202637 L 81.694336 19.202637 L 81.694336 19.046875 Q 81.688965 18.327148 81.329102 18.002197 Q 80.969238 17.677246 80.179688 17.677246 Q 79.674805 17.677246 79.159180 17.822266 Q 78.643555 17.967285 78.154785 18.246582 L 78.154785 17.258301 Q 78.702637 17.048828 79.204834 16.944092 Q 79.707031 16.839355 80.179688 16.839355 Q 80.926270 16.839355 81.455322 17.059570 Q 81.984375 17.279785 82.312012 17.720215 Q 82.516113 17.988770 82.602051 18.383545 Q 82.687988 18.778320 82.687988 19.567871 Z " fill="rgb(0, 0, 0)" fill-opacity="1.000000" />
<path d="M 89.645020 19.272461 L 89.645020 23.000000 L 88.651367 23.000000 L 88.651367 19.272461 Q 88.651367 18.461426 88.366699 18.080078 Q 88.082031 17.698730 87.475098 17.698730 Q 86.782227 17.698730 86.408936 18.190186 Q 86.035645 18.681641 86.035645 19.600098 L 86.035645 23.000000 L 85.047363 23.000000 L 85.047363 16.984375 L 86.035645 16.984375 L 86.035645 17.886719 Q 86.298828 17.371094 86.750000 17.105225 Q 87.201172 16.839355 87.818848 16.839355 Q 88.737305 16.839355 89.191162 17.443604 Q 89.645020 18.047852 89.645020 19.272461 Z " fill="rgb(0, 0, 0)" fill-opacity="1.000000" />
<path d="M 94.297852 15.276367 L 94.297852 16.984375 L 96.542969 16.984375 L 96.542969 17.752441 L 94.297852 17.752441 L 94.297852 21.018066 Q 94.297852 21.684082 94.550293 21.947266 Q 94.802734 22.210449 95.431152 22.210449 L 96.542969 22.210449 L 96.542969 23.000000 L 95.334473 23.000000 Q 94.222656 23.000000 93.766113 22.554199 Q 93.309570 22.108398 93.309570 21.018066 L 93.309570 17.752441 L 91.703613 17.752441 L 91.703613 16.984375 L 93.309570 16.984375 L 93.309570 15.276367 Z " fill="rgb(0, 0, 0)" fill-opacity="1.000000" />
<path d="M 108.308594 14.862793 Q 109.592285 14.862793 110.250244 15.910156 Q 110.908203 16.957520 110.908203 19.009277 Q 110.908203 21.061035 110.250244 22.108398 Q 109.592285 23.155762 108.308594 23.155762 Q 107.024902 23.155762 106.369629 22.108398 Q 105.714355 21.061035 105.714355 19.009277 Q 105.714355 16.957520 106.369629 15.910156 Q 107.024902 14.862793 108.308594 14.862793 Z M 108.308594 22.296387 Q 109.071289 22.296387 109.444580 21.485352 Q 109.817871 20.674316 109.817871 19.009277 Q 109.817871 18.123047 109.710449 17.408691 L 107.153809 21.410156 Q 107.556641 22.296387 108.308594 22.296387 Z M 108.308594 15.722168 Q 107.551270 15.722168 107.177979 16.533203 Q 106.804688 17.344238 106.804688 19.009277 Q 106.804688 19.766602 106.906738 20.427246 L 109.409668 16.436523 Q 109.001465 15.722168 108.308594 15.722168 Z " fill="rgb(0, 0, 0)" fill-opacity="1.000000" />
<path d="M 135.878906 26.319336 L 135.878906 12.300781 L 136.738281 12.300781 L 136.738281 26.319336 Z " fill="rgb(0, 0, 0)" fill-opacity="1.000000" />
<path d="M 141.256836 20.142578 L 145.978027 22.505859 L 145.978027 17.779297 Z M 140.032227 20.142578 L 146.590332 16.866211 L 146.590332 23.418945 Z " fill="rgb(0, 0, 0)" fill-opacity="1.000000" />
<path d="M 146.892578 20.335938 L 146.892578 19.412109 L 153.729980 19.412109 L 153.729980 20.335938 Z " fill="rgb(0, 0, 0)" fill-opacity="1.000000" />
<path d="M 153.892578 20.335938 L 153.892578 19.412109 L 160.729980 19.412109 L 160.729980 20.335938 Z " fill="rgb(0, 0, 0)" fill-opacity="1.000000" />
<path d="M 160.892578 20.335938 L 160.892578 19.412109 L 167.729980 19.412109 L 167.729980 20.335938 Z " fill="rgb(0, 0, 0)" fill-opacity="1.000000" />
<path d="M 167.892578 20.335938 L 167.892578 19.412109 L 174.729980 19.412109 L 174.729980 20.335938 Z " fill="rgb(0, 0, 0)" fill-opacity="1.000000" />
<path d="M 174.892578 20.335938 L 174.892578 19.412109 L 181.729980 19.412109 L 181.729980 20.335938 Z " fill="rgb(0, 0, 0)" fill-opacity="1.000000" />
<path d="M 181.892578 20.335938 L 181.892578 19.412109 L 188.729980 19.412109 L 188.729980 20.335938 Z " fill="rgb(0, 0, 0)" fill-opacity="1.000000" />
<path d="M 197.154785 14.980957 L 198.245117 14.980957 L 198.245117 22.086914 L 202.117676 22.086914 L 202.117676 23.000000 L 197.154785 23.000000 Z " fill="rgb(0, 0, 0)" fill-opacity="1.000000" />
<path d="M 206.308594 17.677246 Q 205.556641 17.677246 205.169922 18.262695 Q 204.783203 18.848145 204.783203 19.997559 Q 204.783203 21.141602 205.169922 21.729736 Q 205.556641 22.317871 206.308594 22.317871 Q 207.065918 22.317871 207.452637 21.729736 Q 207.839355 21.141602 207.839355 19.997559 Q 207.839355 18.848145 207.452637 18.262695 Q 207.065918 17.677246 206.308594 17.677246 Z M 206.308594 16.839355 Q 207.560059 16.839355 208.223389 17.650391 Q 208.886719 18.461426 208.886719 19.997559 Q 208.886719 21.539062 208.226074 22.347412 Q 207.565430 23.155762 206.308594 23.155762 Q 205.057129 23.155762 204.396484 22.347412 Q 203.735840 21.539062 203.735840 19.997559 Q 203.735840 18.461426 204.396484 17.650391 Q 205.057129 16.839355 206.308594 16.839355 Z " fill="rgb(0, 0, 0)" fill-opacity="1.000000" />
<path d="M 213.770508 19.976074 L 213.442871 19.976074 Q 212.578125 19.976074 212.140381 20.279541 Q 211.702637 20.583008 211.702637 21.184570 Q 211.702637 21.727051 212.030273 22.027832 Q 212.357910 22.328613 212.937988 22.328613 Q 213.754395 22.328613 214.221680 21.761963 Q 214.688965 21.195312 214.694336 20.196289 L 214.694336 19.976074 Z M 215.687988 19.567871 L 215.687988 23.000000 L 214.694336 23.000000 L 214.694336 22.108398 Q 214.377441 22.645508 213.896729 22.900635 Q 213.416016 23.155762 212.728516 23.155762 Q 211.810059 23.155762 211.262207 22.637451 Q 210.714355 22.119141 210.714355 21.249023 Q 210.714355 20.244629 211.388428 19.723633 Q 212.062500 19.202637 213.367676 19.202637 L 214.694336 19.202637 L 214.694336 19.046875 Q 214.688965 18.327148 214.329102 18.002197 Q 213.969238 17.677246 213.179688 17.677246 Q 212.674805 17.677246 212.159180 17.822266 Q 211.643555 17.967285 211.154785 18.246582 L 211.154785 17.258301 Q 211.702637 17.048828 212.204834 16.944092 Q 212.707031 16.839355 213.179688 16.839355 Q 213.926270 16.839355 214.455322 17.059570 Q 214.984375 17.279785 215.312012 17.720215 Q 215.516113 17.988770 215.602051 18.383545 Q 215.687988 18.778320 215.687988 19.567871 Z " fill="rgb(0, 0, 0)" fill-opacity="1.000000" />
<path d="M 221.608398 17.752441 L 221.608398 14.642578 L 222.596680 14.642578 L 222.596680 23.000000 L 221.608398 23.000000 L 221.608398 22.242676 Q 221.361328 22.688477 220.950439 22.922119 Q 220.539551 23.155762 220.002441 23.155762 Q 218.912109 23.155762 218.286377 22.309814 Q 217.660645 21.463867 217.660645 19.976074 Q 217.660645 18.509766 218.289062 17.674561 Q 218.917480 16.839355 220.002441 16.839355 Q 220.544922 16.839355 220.958496 17.072998 Q 221.372070 17.306641 221.608398 17.752441 Z M 218.702637 19.997559 Q 218.702637 21.146973 219.067871 21.732422 Q 219.433105 22.317871 220.147461 22.317871 Q 220.861816 22.317871 221.235107 21.727051 Q 221.608398 21.136230 221.608398 19.997559 Q 221.608398 18.853516 221.235107 18.265381 Q 220.861816 17.677246 220.147461 17.677246 Q 219.433105 17.677246 219.067871 18.262695 Q 218.702637 18.848145 218.702637 19.997559 Z " fill="rgb(0, 0, 0)" fill-opacity="1.000000" />
<path d="M 234.297852 15.276367 L 234.297852 16.984375 L 236.542969 16.984375 L 236.542969 17.752441 L 234.297852 17.752441 L 234.297852 21.018066 Q 234.297852 21.684082 234.550293 21.947266 Q 234.802734 22.210449 235.431152 22.210449 L 236.542969 22.210449 L 236.542969 23.000000 L 235.334473 23.000000 Q 234.222656 23.000000 233.766113 22.554199 Q 233.309570 22.108398 233.309570 21.018066 L 233.309570 17.752441 L 231.703613 17.752441 L 231.703613 16.984375 L 233.309570 16.984375 L 233.309570 15.276367 Z " fill="rgb(0, 0, 0)" fill-opacity="1.000000" />
<path d="M 243.645020 19.272461 L 243.645020 23.000000 L 242.651367 23.000000 L 242.651367 19.272461 Q 242.651367 18.461426 242.366699 18.080078 Q 242.082031 17.698730 241.475098 17.698730 Q 240.782227 17.698730 240.408936 18.190186 Q 240.035645 18.681641 240.035645 19.600098 L 240.035645 23.000000 L 239.047363 23.000000 L 239.047363 14.642578 L 240.035645 14.642578 L 240.035645 17.886719 Q 240.298828 17.371094 240.750000 17.105225 Q 241.201172 16.839355 241.818848 16.839355 Q 242.737305 16.839355 243.191162 17.443604 Q 243.645020 18.047852 243.645020 19.272461 Z " fill="rgb(0, 0, 0)" fill-opacity="1.000000" />
<path d="M 251.015625 19.498047 L 251.015625 19.981445 L 246.734863 19.981445 L 246.734863 20.013672 Q 246.691895 21.243652 247.204834 21.780762 Q 247.717773 22.317871 248.652344 22.317871 Q 249.125000 22.317871 249.640625 22.167480 Q 250.156250 22.017090 250.741699 21.710938 L 250.741699 22.693848 Q 250.177734 22.924805 249.654053 23.040283 Q 249.130371 23.155762 248.641602 23.155762 Q 247.239746 23.155762 246.450195 22.315186 Q 245.660645 21.474609 245.660645 19.997559 Q 245.660645 18.558105 246.434082 17.698730 Q 247.207520 16.839355 248.496582 16.839355 Q 249.645996 16.839355 250.309326 17.618164 Q 250.972656 18.396973 251.015625 19.498047 Z M 250.027344 19.208008 Q 249.962891 18.584961 249.573486 18.131104 Q 249.184082 17.677246 248.453613 17.677246 Q 247.739258 17.677246 247.277344 18.149902 Q 246.815430 18.622559 246.772461 19.213379 Z " fill="rgb(0, 0, 0)" fill-opacity="1.000000" />
<path d="M 260.111816 14.980957 L 264.172363 14.980957 L 264.172363 15.894043 L 261.100098 15.894043 L 261.100098 17.865234 Q 261.331055 17.779297 261.564697 17.739014 Q 261.798340 17.698730 262.034668 17.698730 Q 263.280762 17.698730 264.011230 18.434570 Q 264.741699 19.170410 264.741699 20.427246 Q 264.741699 21.694824 263.976318 22.425293 Q 263.210938 23.155762 261.884277 23.155762 Q 261.245117 23.155762 260.716064 23.069824 Q 260.187012 22.983887 259.768066 22.812012 L 259.768066 21.710938 Q 260.262207 21.979492 260.761719 22.111084 Q 261.261230 22.242676 261.782227 22.242676 Q 262.679199 22.242676 263.165283 21.770020 Q 263.651367 21.297363 263.651367 20.427246 Q 263.651367 19.567871 263.149170 19.089844 Q 262.646973 18.611816 261.750000 18.611816 Q 261.314941 18.611816 260.901367 18.711182 Q 260.487793 18.810547 260.111816 19.009277 Z " fill="rgb(0, 0, 0)" fill-opacity="1.000000" />
<path d="M 6.892578 7.335938 L 6.892578 6.412109 L 13.729980 6.412109 L 13.729980 7.335938 Z " fill="rgb(0, 0, 0)" fill-opacity="1.000000" />
<path d="M 13.892578 7.335938 L 13.892578 6.412109 L 20.729980 6.412109 L 20.729980 7.335938 Z " fill="rgb(0, 0, 0)" fill-opacity="1.000000" />
<path d="M 20.892578 7.335938 L 20.892578 6.412109 L 27.729980 6.412109 L 27.729980 7.335938 Z " fill="rgb(0, 0, 0)" fill-opacity="1.000000" />
<path d="M 27.892578 7.335938 L 27.892578 6.412109 L 34.729980 6.412109 L 34.729980 7.335938 Z " fill="rgb(0, 0, 0)" fill-opacity="1.000000" />
<path d="M 34.892578 7.335938 L 34.892578 6.412109 L 41.729980 6.412109 L 41.729980 7.335938 Z " fill="rgb(0, 0, 0)" fill-opacity="1.000000" />
<path d="M 41.892578 7.335938 L 41.892578 6.412109 L 48.729980 6.412109 L 48.729980 7.335938 Z " fill="rgb(0, 0, 0)" fill-opacity="1.000000" />
<path d="M 48.892578 7.335938 L 48.892578 6.412109 L 55.729980 6.412109 L 55.729980 7.335938 Z " fill="rgb(0, 0, 0)" fill-opacity="1.000000" />
<path d="M 55.892578 7.335938 L 55.892578 6.412109 L 62.729980 6.412109 L 62.729980 7.335938 Z " fill="rgb(0, 0, 0)" fill-opacity="1.000000" />
<path d="M 62.892578 7.335938 L 62.892578 6.412109 L 69.729980 6.412109 L 69.729980 7.335938 Z " fill="rgb(0, 0, 0)" fill-opacity="1.000000" />
<path d="M 69.892578 7.335938 L 69.892578 6.412109 L 76.729980 6.412109 L 76.729980 7.335938 Z " fill="rgb(0, 0, 0)" fill-opacity="1.000000" />
<path d="M 76.892578 7.335938 L 76.892578 6.412109 L 83.729980 6.412109 L 83.729980 7.335938 Z " fill="rgb(0, 0, 0)" fill-opacity="1.000000" />
<path d="M 83.892578 7.335938 L 83.892578 6.412109 L 90.729980 6.412109 L 90.729980 7.335938 Z " fill="rgb(0, 0, 0)" fill-opacity="1.000000" />
<path d="M 90.892578 7.335938 L 90.892578 6.412109 L 97.729980 6.412109 L 97.729980 7.335938 Z " fill="rgb(0, 0, 0)" fill-opacity="1.000000" />
<path d="M 97.892578 7.335938 L 97.892578 6.412109 L 104.729980 6.412109 L 104.729980 7.335938 Z " fill="rgb(0, 0, 0)" fill-opacity="1.000000" />
<path d="M 104.892578 7.335938 L 104.892578 6.412109 L 111.729980 6.412109 L 111.729980 7.335938 Z " fill="rgb(0, 0, 0)" fill-opacity="1.000000" />
<path d="M 111.892578 7.335938 L 111.892578 6.412109 L 118.729980 6.412109 L 118.729980 7.335938 Z " fill="rgb(0, 0, 0)" fill-opacity="1.000000" />
<path d="M 118.892578 7.335938 L 118.892578 6.412109 L 125.729980 6.412109 L 125.729980 7.335938 Z " fill="rgb(0, 0, 0)" fill-opacity="1.000000" />
<path d="M 125.892578 7.335938 L 125.892578 6.412109 L 132.729980 6.412109 L 132.729980 7.335938 Z " fill="rgb(0, 0, 0)" fill-opacity="1.000000" />
<path d="M 135.878906 13.319336 L 135.878906 7.335938 L 132.892578 7.335938 L 132.892578 6.412109 L 136.738281 6.412109 L 136.738281 13.319336 Z " fill="rgb(0, 0, 0)" fill-opacity="1.000000" />
</svg>