<svg xmlns="http://www.w3.org/2000/svg" version="1.1" width="274" height="92">
<path d="M 2.878906 13.319336 L 2.878906 6.412109 L 6.729980 6.412109 L 6.729980 7.335938 L 3.738281 7.335938 L 3.738281 13.319336 Z " fill="rgb(0, 0, 0)" fill-opacity="1.000000" />
<path d="M 2.878906 26.319336 L 2.878906 12.300781 L 3.738281 12.300781 L 3.738281 26.319336 Z " fill="rgb(0, 0, 0)" fill-opacity="1.000000" />
<path d="M 2.878906 39.319336 L 2.878906 25.300781 L 3.738281 25.300781 L 3.738281 32.412109 L 6.729980 32.412109 L 6.729980 33.335938 L 3.738281 33.335938 L 3.738281 39.319336 Z " fill="rgb(0, 0, 0)" fill-opacity="1.000000" />
<path d="M 2.878906 52.319336 L 2.878906 38.300781 L 3.738281 38.300781 L 3.738281 52.319336 Z " fill="rgb(0, 0, 0)" fill-opacity="1.000000" />
<path d="M 2.878906 65.319336 L 2.878906 51.300781 L 3.738281 51.300781 L 3.738281 58.412109 L 6.729980 58.412109 L 6.729980 59.335938 L 3.738281 59.335938 L 3.738281 65.319336 Z " fill="rgb(0, 0, 0)" fill-opacity="1.000000" />
<path d="M 2.878906 78.319336 L 2.878906 64.300781 L 3.738281 64.300781 L 3.738281 78.319336 Z " fill="rgb(0, 0, 0)" fill-opacity="1.000000" />
<path d="M 2.878906 85.335938 L 2.878906 77.300781 L 3.738281 77.300781 L 3.738281 84.412109 L 6.729980 84.412109 L 6.729980 85.335938 Z " fill="rgb(0, 0, 0)" fill-opacity="1.000000" />
<path d="M 6.892578 85.335938 L 6.892578 84.412109 L 13.729980 84.412109 L 13.729980 85.335938 Z " fill="rgb(0, 0, 0)" fill-opacity="1.000000" />
<path d="M 13.892578 85.335938 L 13.892578 84.412109 L 20.729980 84.412109 L 20.729980 85.335938 Z " fill="rgb(0, 0, 0)" fill-opacity="1.000000" />
<path d="M 20.892578 85.335938 L 20.892578 84.412109 L 27.729980 84.412109 L 27.729980 85.335938 Z " fill="rgb(0, 0, 0)" fill-opacity="1.000000" />
<path d="M 27.892578 85.335938 L 27.892578 84.412109 L 34.729980 84.412109 L 34.729980 85.335938 Z " fill="rgb(0, 0, 0)" fill-opacity="1.000000" />
<path d="M 34.892578 85.335938 L 34.892578 84.412109 L 41.729980 84.412109 L 41.729980 85.335938 Z " fill="rgb(0, 0, 0)" fill-opacity="1.000000" />
<path d="M 41.892578 85.335938 L 41.892578 84.412109 L 48.729980 84.412109 L 48.729980 85.335938 Z " fill="rgb(0, 0, 0)" fill-opacity="1.000000" />
<path d="M 48.892578 85.335938 L 48.892578 84.412109 L 55.729980 84.412109 L 55.729980 85.335938 Z " fill="rgb(0, 0, 0)" fill-opacity="1.000000" />
<path d="M 55.892578 85.335938 L 55.892578 84.412109 L 62.729980 84.412109 L 62.729980 85.335938 Z " fill="rgb(0, 0, 0)" fill-opacity="1.000000" />
<path d="M 62.892578 85.335938 L 62.892578 84.412109 L 69.729980 84.412109 L 69.729980 85.335938 Z " fill="rgb(0, 0, 0)" fill-opacity="1.000000" />
<path d="M 69.892578 85.335938 L 69.892578 84.412109 L 76.729980 84.412109 L 76.729980 85.335938 Z " fill="rgb(0, 0, 0)" fill-opacity="1.000000" />
<path d="M 76.892578 85.335938 L 76.892578 84.412109 L 83.729980 84.412109 L 83.729980 85.335938 Z " fill="rgb(0, 0, 0)" fill-opacity="1.000000" />
<path d="M 83.892578 85.335938 L 83.892578 84.412109 L 90.729980 84.412109 L 90.729980 85.335938 Z " fill="rgb(0, 0, 0)" fill-opacity="1.000000" />
<path d="M 90.892578 85.335938 L 90.892578 84.412109 L 97.729980 84.412109 L 97.729980 85.335938 Z " fill="rgb(0, 0, 0)" fill-opacity="1.000000" />
<path d="M 97.892578 85.335938 L 97.892578 84.412109 L 104.729980 84.412109 L 104.729980 85.335938 Z " fill="rgb(0, 0, 0)" fill-opacity="1.000000" />
<path d="M 104.892578 85.335938 L 104.892578 84.412109 L 111.729980 84.412109 L 111.729980 85.335938 Z " fill="rgb(0, 0, 0)" fill-opacity="1.000000" />
<path d="M 111.892578 85.335938 L 111.892578 84.412109 L 118.729980 84.412109 L 118.729980 85.335938 Z " fill="rgb(0, 0, 0)" fill-opacity="1.000000" />
<path d="M 118.892578 85.335938 L 118.892578 84.412109 L 125.729980 84.412109 L 125.729980 85.335938 Z " fill="rgb(0, 0, 0)" fill-opacity="1.000000" />
<path d="M 125.892578 85.335938 L 125.892578 84.412109 L 132.729980 84.412109 L 132.729980 85.335938 Z " fill="rgb(0, 0, 0)" fill-opacity="1.000000" />
<path d="M 132.892578 85.335938 L 132.892578 84.412109 L 135.878906 84.412109 L 135.878906 77.300781 L 136.738281 77.300781 L 136.738281 85.335938 Z " fill="rgb(0, 0, 0)" fill-opacity="1.000000" />
<path d="M 53.860840 70.998535 Q 53.860840 69.231445 53.498291 68.474121 Q 53.135742 67.716797 52.308594 67.716797 Q 51.486816 67.716797 51.124268 68.474121 Q 50.761719 69.231445 50.761719 70.998535 Q 50.761719 72.760254 51.124268 73.517578 Q 51.486816 74.274902 52.308594 74.274902 Q 53.135742 74.274902 53.498291 73.520264 Q 53.860840 72.765625 53.860840 70.998535 Z M 54.994141 70.998535 Q 54.994141 73.093262 54.330811 74.124512 Q 53.667480 75.155762 52.308594 75.155762 Q 50.949707 75.155762 50.289062 74.129883 Q 49.628418 73.104004 49.628418 70.998535 Q 49.628418 68.898438 50.291748 67.867188 Q 50.955078 66.835938 52.308594 66.835938 Q 53.667480 66.835938 54.330811 67.867188 Q 54.994141 68.898438 54.994141 70.998535 Z " fill="rgb(0, 0, 0)" fill-opacity="1.000000" />
<path d="M 58.014160 74.242676 L 58.014160 77.288086 L 57.020508 77.288086 L 57.020508 68.984375 L 58.014160 68.984375 L 58.014160 69.752441 Q 58.261230 69.306641 58.672119 69.072998 Q 59.083008 68.839355 59.620117 68.839355 Q 60.710449 68.839355 61.330811 69.682617 Q 61.951172 70.525879 61.951172 72.019043 Q 61.951172 73.485352 61.328125 74.320557 Q 60.705078 75.155762 59.620117 75.155762 Q 59.072266 75.155762 58.661377 74.922119 Q 58.250488 74.688477 58.014160 74.242676 Z M 60.914551 71.997559 Q 60.914551 70.848145 60.552002 70.262695 Q 60.189453 69.677246 59.475098 69.677246 Q 58.755371 69.677246 58.384766 70.265381 Q 58.014160 70.853516 58.014160 71.997559 Q 58.014160 73.136230 58.384766 73.727051 Q 58.755371 74.317871 59.475098 74.317871 Q 60.189453 74.317871 60.552002 73.732422 Q 60.914551 73.146973 60.914551 71.997559 Z " fill="rgb(0, 0, 0)" fill-opacity="1.000000" />
<path d="M 68.435547 67.254883 L 68.435547 68.355957 Q 67.941406 68.039062 67.444580 67.877930 Q 66.947754 67.716797 66.442871 67.716797 Q 65.674805 67.716797 65.229004 68.073975 Q 64.783203 68.431152 64.783203 69.038086 Q 64.783203 69.569824 65.075928 69.849121 Q 65.368652 70.128418 66.168945 70.316406 L 66.738281 70.445312 Q 67.866211 70.708496 68.381836 71.272461 Q 68.897461 71.836426 68.897461 72.808594 Q 68.897461 73.952637 68.188477 74.554199 Q 67.479492 75.155762 66.125977 75.155762 Q 65.562012 75.155762 64.992676 75.034912 Q 64.423340 74.914062 63.848633 74.672363 L 63.848633 73.517578 Q 64.466309 73.909668 65.016846 74.092285 Q 65.567383 74.274902 66.125977 74.274902 Q 66.947754 74.274902 67.404297 73.906982 Q 67.860840 73.539062 67.860840 72.878418 Q 67.860840 72.276855 67.546631 71.959961 Q 67.232422 71.643066 66.453613 71.471191 L 65.873535 71.336914 Q 64.756348 71.084473 64.251465 70.574219 Q 63.746582 70.063965 63.746582 69.204590 Q 63.746582 68.130371 64.468994 67.483154 Q 65.191406 66.835938 66.389160 66.835938 Q 66.851074 66.835938 67.361328 66.940674 Q 67.871582 67.045410 68.435547 67.254883 Z " fill="rgb(0, 0, 0)" fill-opacity="1.000000" />
<path d="M 71.047363 72.722656 L 71.047363 68.995117 L 72.035645 68.995117 L 72.035645 72.722656 Q 72.035645 73.533691 72.322998 73.915039 Q 72.610352 74.296387 73.211914 74.296387 Q 73.910156 74.296387 74.280762 73.804932 Q 74.651367 73.313477 74.651367 72.395020 L 74.651367 68.995117 L 75.645020 68.995117 L 75.645020 75.000000 L 74.651367 75.000000 L 74.651367 74.097656 Q 74.388184 74.618652 73.934326 74.887207 Q 73.480469 75.155762 72.873535 75.155762 Q 71.949707 75.155762 71.498535 74.551514 Q 71.047363 73.947266 71.047363 72.722656 Z " fill="rgb(0, 0, 0)" fill-opacity="1.000000" />
<path d="M 81.930664 71.997559 Q 81.930664 70.848145 81.565430 70.262695 Q 81.200195 69.677246 80.485840 69.677246 Q 79.766113 69.677246 79.395508 70.265381 Q 79.024902 70.853516 79.024902 71.997559 Q 79.024902 73.136230 79.395508 73.727051 Q 79.766113 74.317871 80.485840 74.317871 Q 81.200195 74.317871 81.565430 73.732422 Q 81.930664 73.146973 81.930664 71.997559 Z M 79.024902 69.752441 Q 79.261230 69.312012 79.677490 69.075684 Q 80.093750 68.839355 80.641602 68.839355 Q 81.726562 68.839355 82.349609 69.674561 Q 82.972656 70.509766 82.972656 71.976074 Q 82.972656 73.463867 82.346924 74.309814 Q 81.721191 75.155762 80.630859 75.155762 Q 80.093750 75.155762 79.682861 74.922119 Q 79.271973 74.688477 79.024902 74.242676 L 79.024902 75.000000 L 78.036621 75.000000 L 78.036621 66.642578 L 79.024902 66.642578 Z " fill="rgb(0, 0, 0)" fill-opacity="1.000000" />
<path d="M 135.878906 78.319336 L 135.878906 64.300781 L 136.738281 64.300781 L 136.738281 78.319336 Z " fill="rgb(0, 0, 0)" fill-opacity="1.000000" />
<path d="M 6.892578 59.335938 L 6.892578 58.412109 L 13.729980 58.412109 L 13.729980 59.335938 Z " fill="rgb(0, 0, 0)" fill-opacity="1.000000" />
<path d="M 13.892578 59.335938 L 13.892578 58.412109 L 20.729980 58.412109 L 20.729980 59.335938 Z " fill="rgb(0, 0, 0)" fill-opacity="1.000000" />
<path d="M 20.892578 59.335938 L 20.892578 58.412109 L 27.729980 58.412109 L 27.729980 59.335938 Z " fill="rgb(0, 0, 0)" fill-opacity="1.000000" />
<path d="M 27.892578 59.335938 L 27.892578 58.412109 L 34.729980 58.412109 L 34.729980 59.335938 Z " fill="rgb(0, 0, 0)" fill-opacity="1.000000" />
<path d="M 34.892578 59.335938 L 34.892578 58.412109 L 41.729980 58.412109 L 41.729980 59.335938 Z " fill="rgb(0, 0, 0)" fill-opacity="1.000000" />
<path d="M 41.892578 59.335938 L 41.892578 58.412109 L 48.729980 58.412109 L 48.729980 59.335938 Z " fill="rgb(0, 0, 0)" fill-opacity="1.000000" />
<path d="M 48.892578 59.335938 L 48.892578 58.412109 L 55.729980 58.412109 L 55.729980 59.335938 Z " fill="rgb(0, 0, 0)" fill-opacity="1.000000" />
<path d="M 55.892578 59.335938 L 55.892578 58.412109 L 62.729980 58.412109 L 62.729980 59.335938 Z " fill="rgb(0, 0, 0)" fill-opacity="1.000000" />
<path d="M 62.892578 59.335938 L 62.892578 58.412109 L 69.729980 58.412109 L 69.729980 59.335938 Z " fill="rgb(0, 0, 0)" fill-opacity="1.000000" />
<path d="M 69.892578 59.335938 L 69.892578 58.412109 L 76.729980 58.412109 L 76.729980 59.335938 Z " fill="rgb(0, 0, 0)" fill-opacity="1.000000" />
<path d="M 76.892578 59.335938 L 76.892578 58.412109 L 83.729980 58.412109 L 83.729980 59.335938 Z " fill="rgb(0, 0, 0)" fill-opacity="1.000000" />
<path d="M 83.892578 59.335938 L 83.892578 58.412109 L 90.729980 58.412109 L 90.729980 59.335938 Z " fill="rgb(0, 0, 0)" fill-opacity="1.000000" />
<path d="M 90.892578 59.335938 L 90.892578 58.412109 L 97.729980 58.412109 L 97.729980 59.335938 Z " fill="rgb(0, 0, 0)" fill-opacity="1.000000" />
<path d="M 97.892578 59.335938 L 97.892578 58.412109 L 104.729980 58.412109 L 104.729980 59.335938 Z " fill="rgb(0, 0, 0)" fill-opacity="1.000000" />
<path d="M 104.892578 59.335938 L 104.892578 58.412109 L 111.729980 58.412109 L 111.729980 59.335938 Z " fill="rgb(0, 0, 0)" fill-opacity="1.000000" />
<path d="M 111.892578 59.335938 L 111.892578 58.412109 L 118.729980 58.412109 L 118.729980 59.335938 Z " fill="rgb(0, 0, 0)" fill-opacity="1.000000" />
<path d="M 118.892578 59.335938 L 118.892578 58.412109 L 125.729980 58.412109 L 125.729980 59.335938 Z " fill="rgb(0, 0, 0)" fill-opacity="1.000000" />
<path d="M 125.892578 59.335938 L 125.892578 58.412109 L 132.729980 58.412109 L 132.729980 59.335938 Z " fill="rgb(0, 0, 0)" fill-opacity="1.000000" />
<path d="M 135.878906 65.319336 L 135.878906 59.335938 L 132.892578 59.335938 L 132.892578 58.412109 L 135.878906 58.412109 L 135.878906 51.300781 L 136.738281 51.300781 L 136.738281 65.319336 Z " fill="rgb(0, 0, 0)" fill-opacity="1.000000" />
<path d="M 32.860840 44.998535 Q 32.860840 43.231445 32.498291 42.474121 Q 32.135742 41.716797 31.308594 41.716797 Q 30.486816 41.716797 30.124268 42.474121 Q 29.761719 43.231445 29.761719 44.998535 Q 29.761719 46.760254 30.124268 47.517578 Q 30.486816 48.274902 31.308594 48.274902 Q 32.135742 48.274902 32.498291 47.520264 Q 32.860840 46.765625 32.860840 44.998535 Z M 33.994141 44.998535 Q 33.994141 47.093262 33.330811 48.124512 Q 32.667480 49.155762 31.308594 49.155762 Q 29.949707 49.155762 29.289062 48.129883 Q 28.628418 47.104004 28.628418 44.998535 Q 28.628418 42.898438 29.291748 41.867188 Q 29.955078 40.835938 31.308594 40.835938 Q 32.667480 40.835938 33.330811 41.867188 Q 33.994141 42.898438 33.994141 44.998535 Z " fill="rgb(0, 0, 0)" fill-opacity="1.000000" />
<path d="M 37.014160 48.242676 L 37.014160 51.288086 L 36.020508 51.288086 L 36.020508 42.984375 L 37.014160 42.984375 L 37.014160 43.752441 Q 37.261230 43.306641 37.672119 43.072998 Q 38.083008 42.839355 38.620117 42.839355 Q 39.710449 42.839355 40.330811 43.682617 Q 40.951172 44.525879 40.951172 46.019043 Q 40.951172 47.485352 40.328125 48.320557 Q 39.705078 49.155762 38.620117 49.155762 Q 38.072266 49.155762 37.661377 48.922119 Q 37.250488 48.688477 37.014160 48.242676 Z M 39.914551 45.997559 Q 39.914551 44.848145 39.552002 44.262695 Q 39.189453 43.677246 38.475098 43.677246 Q 37.755371 43.677246 37.384766 44.265381 Q 37.014160 44.853516 37.014160 45.997559 Q 37.014160 47.136230 37.384766 47.727051 Q 37.755371 48.317871 38.475098 48.317871 Q 39.189453 48.317871 39.552002 47.732422 Q 39.914551 47.146973 39.914551 45.997559 Z " fill="rgb(0, 0, 0)" fill-opacity="1.000000" />
<path d="M 47.763184 48.715332 Q 47.349609 48.935547 46.914551 49.045654 Q 46.479492 49.155762 45.990723 49.155762 Q 44.449219 49.155762 43.597900 48.065430 Q 42.746582 46.975098 42.746582 44.998535 Q 42.746582 43.032715 43.603271 41.934326 Q 44.459961 40.835938 45.990723 40.835938 Q 46.479492 40.835938 46.914551 40.946045 Q 47.349609 41.056152 47.763184 41.276367 L 47.763184 42.388184 Q 47.365723 42.060547 46.909180 41.888672 Q 46.452637 41.716797 45.990723 41.716797 Q 44.932617 41.716797 44.406250 42.533203 Q 43.879883 43.349609 43.879883 44.998535 Q 43.879883 46.642090 44.406250 47.458496 Q 44.932617 48.274902 45.990723 48.274902 Q 46.463379 48.274902 46.917236 48.103027 Q 47.371094 47.931152 47.763184 47.603516 Z " fill="rgb(0, 0, 0)" fill-opacity="1.000000" />
<path d="M 52.308594 43.677246 Q 51.556641 43.677246 51.169922 44.262695 Q 50.783203 44.848145 50.783203 45.997559 Q 50.783203 47.141602 51.169922 47.729736 Q 51.556641 48.317871 52.308594 48.317871 Q 53.065918 48.317871 53.452637 47.729736 Q 53.839355 47.141602 53.839355 45.997559 Q 53.839355 44.848145 53.452637 44.262695 Q 53.065918 43.677246 52.308594 43.677246 Z M 52.308594 42.839355 Q 53.560059 42.839355 54.223389 43.650391 Q 54.886719 44.461426 54.886719 45.997559 Q 54.886719 47.539062 54.226074 48.347412 Q 53.565430 49.155762 52.308594 49.155762 Q 51.057129 49.155762 50.396484 48.347412 Q 49.735840 47.539062 49.735840 45.997559 Q 49.735840 44.461426 50.396484 43.650391 Q 51.057129 42.839355 52.308594 42.839355 Z " fill="rgb(0, 0, 0)" fill-opacity="1.000000" />
<path d="M 61.645020 45.272461 L 61.645020 49.000000 L 60.651367 49.000000 L 60.651367 45.272461 Q 60.651367 44.461426 60.366699 44.080078 Q 60.082031 43.698730 59.475098 43.698730 Q 58.782227 43.698730 58.408936 44.190186 Q 58.035645 44.681641 58.035645 45.600098 L 58.035645 49.000000 L 57.047363 49.000000 L 57.047363 42.984375 L 58.035645 42.984375 L 58.035645 43.886719 Q 58.298828 43.371094 58.750000 43.105225 Q 59.201172 42.839355 59.818848 42.839355 Q 60.737305 42.839355 61.191162 43.443604 Q 61.645020 44.047852 61.645020 45.272461 Z " fill="rgb(0, 0, 0)" fill-opacity="1.000000" />
<path d="M 68.226074 43.193848 L 68.226074 44.160645 Q 67.801758 43.913574 67.372070 43.790039 Q 66.942383 43.666504 66.496582 43.666504 Q 65.825195 43.666504 65.494873 43.884033 Q 65.164551 44.101562 65.164551 44.547363 Q 65.164551 44.950195 65.411621 45.148926 Q 65.658691 45.347656 66.641602 45.535645 L 67.039062 45.610840 Q 67.774902 45.750488 68.153564 46.169434 Q 68.532227 46.588379 68.532227 47.259766 Q 68.532227 48.151367 67.898438 48.653564 Q 67.264648 49.155762 66.136719 49.155762 Q 65.690918 49.155762 65.202148 49.061768 Q 64.713379 48.967773 64.144043 48.779785 L 64.144043 47.759277 Q 64.697266 48.043945 65.202148 48.186279 Q 65.707031 48.328613 66.158203 48.328613 Q 66.813477 48.328613 67.173340 48.062744 Q 67.533203 47.796875 67.533203 47.318848 Q 67.533203 46.631348 66.217285 46.368164 L 66.174316 46.357422 L 65.803711 46.282227 Q 64.949707 46.115723 64.557617 45.720947 Q 64.165527 45.326172 64.165527 44.644043 Q 64.165527 43.779297 64.750977 43.309326 Q 65.336426 42.839355 66.421387 42.839355 Q 66.904785 42.839355 67.350586 42.927979 Q 67.796387 43.016602 68.226074 43.193848 Z " fill="rgb(0, 0, 0)" fill-opacity="1.000000" />
<path d="M 73.297852 41.276367 L 73.297852 42.984375 L 75.542969 42.984375 L 75.542969 43.752441 L 73.297852 43.752441 L 73.297852 47.018066 Q 73.297852 47.684082 73.550293 47.947266 Q 73.802734 48.210449 74.431152 48.210449 L 75.542969 48.210449 L 75.542969 49.000000 L 74.334473 49.000000 Q 73.222656 49.000000 72.766113 48.554199 Q 72.309570 48.108398 72.309570 47.018066 L 72.309570 43.752441 L 70.703613 43.752441 L 70.703613 42.984375 L 72.309570 42.984375 L 72.309570 41.276367 Z " fill="rgb(0, 0, 0)" fill-opacity="1.000000" />
<path d="M 80.770508 45.976074 L 80.442871 45.976074 Q 79.578125 45.976074 79.140381 46.279541 Q 78.702637 46.583008 78.702637 47.184570 Q 78.702637 47.727051 79.030273 48.027832 Q 79.357910 48.328613 79.937988 48.328613 Q 80.754395 48.328613 81.221680 47.761963 Q 81.688965 47.195312 81.694336 46.196289 L 81.694336 45.976074 Z M 82.687988 45.567871 L 82.687988 49.000000 L 81.694336 49.000000 L 81.694336 48.108398 Q 81.377441 48.645508 80.896729 48.900635 Q 80.416016 49.155762 79.728516 49.155762 Q 78.810059 49.155762 78.262207 48.637451 Q 77.714355 48.119141 77.714355 47.249023 Q 77.714355 46.244629 78.388428 45.723633 Q 79.062500 45.202637 80.367676 45.202637 L 81.694336 45.202637 L 81.694336 45.046875 Q 81.688965 44.327148 81.329102 44.002197 Q 80.969238 43.677246 80.179688 43.677246 Q 79.674805 43.677246 79.159180 43.822266 Q 78.643555 43.967285 78.154785 44.246582 L 78.154785 43.258301 Q 78.702637 43.048828 79.204834 42.944092 Q 79.707031 42.839355 80.179688 42.839355 Q 80.926270 42.839355 81.455322 43.059570 Q 81.984375 43.279785 82.312012 43.720215 Q 82.516113 43.988770 82.602051 44.383545 Q 82.687988 44.778320 82.687988 45.567871 Z " fill="rgb(0, 0, 0)" fill-opacity="1.000000" />
<path d="M 89.645020 45.272461 L 89.645020 49.000000 L 88.651367 49.000000 L 88.651367 45.272461 Q 88.651367 44.461426 88.366699 44.080078 Q 88.082031 43.698730 87.475098 43.698730 Q 86.782227 43.698730 86.408936 44.190186 Q 86.035645 44.681641 86.035645 45.600098 L 86.035645 49.000000 L 85.047363 49.000000 L 85.047363 42.984375 L 86.035645 42.984375 L 86.035645 43.886719 Q 86.298828 43.371094 86.750000 43.105225 Q 87.201172 42.839355 87.818848 42.839355 Q 88.737305 42.839355 89.191162 43.443604 Q 89.645020 44.047852 89.645020 45.272461 Z " fill="rgb(0, 0, 0)" fill-opacity="1.000000" />
<path d="M 94.297852 41.276367 L 94.297852 42.984375 L 96.542969 42.984375 L 96.542969 43.752441 L 94.297852 43.752441 L 94.297852 47.018066 Q 94.297852 47.684082 94.550293 47.947266 Q 94.802734 48.210449 95.431152 48.210449 L 96.542969 48.210449 L 96.542969 49.000000 L 95.334473 49.000000 Q 94.222656 49.000000 93.766113 48.554199 Q 93.309570 48.108398 93.309570 47.018066 L 93.309570 43.752441 L 91.703613 43.752441 L 91.703613 42.984375 L 93.309570 42.984375 L 93.309570 41.276367 Z " fill="rgb(0, 0, 0)" fill-opacity="1.000000" />
<path d="M 106.111816 40.980957 L 110.172363 40.980957 L 110.172363 41.894043 L 107.100098 41.894043 L 107.100098 43.865234 Q 107.331055 43.779297 107.564697 43.739014 Q 107.798340 43.698730 108.034668 43.698730 Q 109.280762 43.698730 110.011230 44.434570 Q 110.741699 45.170410 110.741699 46.427246 Q 110.741699 47.694824 109.976318 48.425293 Q 109.210938 49.155762 107.884277 49.155762 Q 107.245117 49.155762 106.716064 49.069824 Q 106.187012 48.983887 105.768066 48.812012 L 105.768066 47.710938 Q 106.262207 47.979492 106.761719 48.111084 Q 107.261230 48.242676 107.782227 48.242676 Q 108.679199 48.242676 109.165283 47.770020 Q 109.651367 47.297363 109.651367 46.427246 Q 109.651367 45.567871 109.149170 45.089844 Q 108.646973 44.611816 107.750000 44.611816 Q 107.314941 44.611816 106.901367 44.711182 Q 106.487793 44.810547 106.111816 45.009277 Z " fill="rgb(0, 0, 0)" fill-opacity="1.000000" />
<path d="M 135.878906 52.319336 L 135.878906 38.300781 L 136.738281 38.300781 L 136.738281 52.319336 Z " fill="rgb(0, 0, 0)" fill-opacity="1.000000" />
<path d="M 141.256836 46.142578 L 145.978027 48.505859 L 145.978027 43.779297 Z M 140.032227 46.142578 L 146.590332 42.866211 L 146.590332 49.418945 Z " fill="rgb(0, 0, 0)" fill-opacity="1.000000" />
<path d="M 146.892578 46.335938 L 146.892578 45.412109 L 153.729980 45.412109 L 153.729980 46.335938 Z " fill="rgb(0, 0, 0)" fill-opacity="1.000000" />
<path d="M 153.892578 46.335938 L 153.892578 45.412109 L 160.729980 45.412109 L 160.729980 46.335938 Z " fill="rgb(0, 0, 0)" fill-opacity="1.000000" />
<path d="M 160.892578 46.335938 L 160.892578 45.412109 L 167.729980 45.412109 L 167.729980 46.335938 Z " fill="rgb(0, 0, 0)" fill-opacity="1.000000" />
<path d="M 167.892578 46.335938 L 167.892578 45.412109 L 174.729980 45.412109 L 174.729980 46.335938 Z " fill="rgb(0, 0, 0)" fill-opacity="1.000000" />
<path d="M 174.892578 46.335938 L 174.892578 45.412109 L 181.729980 45.412109 L 181.729980 46.335938 Z " fill="rgb(0, 0, 0)" fill-opacity="1.000000" />
<path d="M 181.892578 46.335938 L 181.892578 45.412109 L 188.729980 45.412109 L 188.729980 46.335938 Z " fill="rgb(0, 0, 0)" fill-opacity="1.000000" />
<path d="M 197.154785 40.980957 L 198.245117 40.980957 L 198.245117 48.086914 L 202.117676 48.086914 L 202.117676 49.000000 L 197.154785 49.000000 Z " fill="rgb(0, 0, 0)" fill-opacity="1.000000" />
<path d="M 206.308594 43.677246 Q 205.556641 43.677246 205.169922 44.262695 Q 204.783203 44.848145 204.783203 45.997559 Q 204.783203 47.141602 205.169922 47.729736 Q 205.556641 48.317871 206.308594 48.317871 Q 207.065918 48.317871 207.452637 47.729736 Q 207.839355 47.141602 207.839355 45.997559 Q 207.839355 44.848145 207.452637 44.262695 Q 207.065918 43.677246 206.308594 43.677246 Z M 206.308594 42.839355 Q 207.560059 42.839355 208.223389 43.650391 Q 208.886719 44.461426 208.886719 45.997559 Q 208.886719 47.539062 208.226074 48.347412 Q 207.565430 49.155762 206.308594 49.155762 Q 205.057129 49.155762 204.396484 48.347412 Q 203.735840 47.539062 203.735840 45.997559 Q 203.735840 44.461426 204.396484 43.650391 Q 205.057129 42.839355 206.308594 42.839355 Z " fill="rgb(0, 0, 0)" fill-opacity="1.000000" />
<path d="M 213.770508 45.976074 L 213.442871 45.976074 Q 212.578125 45.976074 212.140381 46.279541 Q 211.702637 46.583008 211.702637 47.184570 Q 211.702637 47.727051 212.030273 48.027832 Q 212.357910 48.328613 212.937988 48.328613 Q 213.754395 48.328613 214.221680 47.761963 Q 214.688965 47.195312 214.694336 46.196289 L 214.694336 45.976074 Z M 215.687988 45.567871 L 215.687988 49.000000 L 214.694336 49.000000 L 214.694336 48.108398 Q 214.377441 48.645508 213.896729 48.900635 Q 213.416016 49.155762 212.728516 49.155762 Q 211.810059 49.155762 211.262207 48.637451 Q 210.714355 48.119141 210.714355 47.249023 Q 210.714355 46.244629 211.388428 45.723633 Q 212.062500 45.202637 213.367676 45.202637 L 214.694336 45.202637 L 214.694336 45.046875 Q 214.688965 44.327148 214.329102 44.002197 Q 213.969238 43.677246 213.179688 43.677246 Q 212.674805 43.677246 212.159180 43.822266 Q 211.643555 43.967285 211.154785 44.246582 L 211.154785 43.258301 Q 211.702637 43.048828 212.204834 42.944092 Q 212.707031 42.839355 213.179688 42.839355 Q 213.926270 42.839355 214.455322 43.059570 Q 214.984375 43.279785 215.312012 43.720215 Q 215.516113 43.988770 215.602051 44.383545 Q 215.687988 44.778320 215.687988 45.567871 Z " fill="rgb(0, 0, 0)" fill-opacity="1.000000" />
<path d="M 221.608398 43.752441 L 221.608398 40.642578 L 222.596680 40.642578 L 222.596680 49.000000 L 221.608398 49.000000 L 221.608398 48.242676 Q 221.361328 48.688477 220.950439 48.922119 Q 220.539551 49.155762 220.002441 49.155762 Q 218.912109 49.155762 218.286377 48.309814 Q 217.660645 47.463867 217.660645 45.976074 Q 217.660645 44.509766 218.289062 43.674561 Q 218.917480 42.839355 220.002441 42.839355 Q 220.544922 42.839355 220.958496 43.072998 Q 221.372070 43.306641 221.608398 43.752441 Z M 218.702637 45.997559 Q 218.702637 47.146973 219.067871 47.732422 Q 219.433105 48.317871 220.147461 48.317871 Q 220.861816 48.317871 221.235107 47.727051 Q 221.608398 47.136230 221.608398 45.997559 Q 221.608398 44.853516 221.235107 44.265381 Q 220.861816 43.677246 220.147461 43.677246 Q 219.433105 43.677246 219.067871 44.262695 Q 218.702637 44.848145 218.702637 45.997559 Z " fill="rgb(0, 0, 0)" fill-opacity="1.000000" />
<path d="M 234.297852 41.276367 L 234.297852 42.984375 L 236.542969 42.984375 L 236.542969 43.752441 L 234.297852 43.752441 L 234.297852 47.018066 Q 234.297852 47.684082 234.550293 47.947266 Q 234.802734 48.210449 235.431152 48.210449 L 236.542969 48.210449 L 236.542969 49.000000 L 235.334473 49.000000 Q 234.222656 49.000000 233.766113 48.554199 Q 233.309570 48.108398 233.309570 47.018066 L 233.309570 43.752441 L 231.703613 43.752441 L 231.703613 42.984375 L 233.309570 42.984375 L 233.309570 41.276367 Z " fill="rgb(0, 0, 0)" fill-opacity="1.000000" />
<path d="M 243.645020 45.272461 L 243.645020 49.000000 L 242.651367 49.000000 L 242.651367 45.272461 Q 242.651367 44.461426 242.366699 44.080078 Q 242.082031 43.698730 241.475098 43.698730 Q 240.782227 43.698730 240.408936 44.190186 Q 240.035645 44.681641 240.035645 45.600098 L 240.035645 49.000000 L 239.047363 49.000000 L 239.047363 40.642578 L 240.035645 40.642578 L 240.035645 43.886719 Q 240.298828 43.371094 240.750000 43.105225 Q 241.201172 42.839355 241.818848 42.839355 Q 242.737305 42.839355 243.191162 43.443604 Q 243.645020 44.047852 243.645020 45.272461 Z " fill="rgb(0, 0, 0)" fill-opacity="1.000000" />
<path d="M 251.015625 45.498047 L 251.015625 45.981445 L 246.734863 45.981445 L 246.734863 46.013672 Q 246.691895 47.243652 247.204834 47.780762 Q 247.717773 48.317871 248.652344 48.317871 Q 249.125000 48.317871 249.640625 48.167480 Q 250.156250 48.017090 250.741699 47.710938 L 250.741699 48.693848 Q 250.177734 48.924805 249.654053 49.040283 Q 249.130371 49.155762 248.641602 49.155762 Q 247.239746 49.155762 246.450195 48.315186 Q 245.660645 47.474609 245.660645 45.997559 Q 245.660645 44.558105 246.434082 43.698730 Q 247.207520 42.839355 248.496582 42.839355 Q 249.645996 42.839355 250.309326 43.618164 Q 250.972656 44.396973 251.015625 45.498047 Z M 250.027344 45.208008 Q 249.962891 44.584961 249.573486 44.131104 Q 249.184082 43.677246 248.453613 43.677246 Q 247.739258 43.677246 247.277344 44.149902 Q 246.815430 44.622559 246.772461 45.213379 Z " fill="rgb(0, 0, 0)" fill-opacity="1.000000" />
<path d="M 261.003418 48.086914 L 264.687988 48.086914 L 264.687988 49.000000 L 259.816406 49.000000 L 259.816406 48.086914 Q 260.820801 47.028809 261.572754 46.217773 Q 262.324707 45.406738 262.609375 45.073730 Q 263.146484 44.418457 263.334473 44.012939 Q 263.522461 43.607422 263.522461 43.183105 Q 263.522461 42.511719 263.127686 42.130371 Q 262.732910 41.749023 262.045410 41.749023 Q 261.556641 41.749023 261.019531 41.926270 Q 260.482422 42.103516 259.880859 42.463379 L 259.880859 41.367676 Q 260.434082 41.104492 260.968506 40.970215 Q 261.502930 40.835938 262.023926 40.835938 Q 263.200195 40.835938 263.917236 41.461670 Q 264.634277 42.087402 264.634277 43.102539 Q 264.634277 43.618164 264.395264 44.133789 Q 264.156250 44.649414 263.619141 45.272461 Q 263.318359 45.621582 262.746338 46.239258 Q 262.174316 46.856934 261.003418 48.086914 Z " fill="rgb(0, 0, 0)" fill-opacity="1.000000" />
<path d="M 267.111816 40.980957 L 271.172363 40.980957 L 271.172363 41.894043 L 268.100098 41.894043 L 268.100098 43.865234 Q 268.331055 43.779297 268.564697 43.739014 Q 268.798340 43.698730 269.034668 43.698730 Q 270.280762 43.698730 271.011230 44.434570 Q 271.741699 45.170410 271.741699 46.427246 Q 271.741699 47.694824 270.976318 48.425293 Q 270.210938 49.155762 268.884277 49.155762 Q 268.245117 49.155762 267.716064 49.069824 Q 267.187012 48.983887 266.768066 48.812012 L 266.768066 47.710938 Q 267.262207 47.979492 267.761719 48.111084 Q 268.261230 48.242676 268.782227 48.242676 Q 269.679199 48.242676 270.165283 47.770020 Q 270.651367 47.297363 270.651367 46.427246 Q 270.651367 45.567871 270.149170 45.089844 Q 269.646973 44.611816 268.750000 44.611816 Q 268.314941 44.611816 267.901367 44.711182 Q 267.487793 44.810547 267.111816 45.009277 Z " fill="rgb(0, 0, 0)" fill-opacity="1.000000" />
<path d="M 6.892578 33.335938 L 6.892578 32.412109 L 13.729980 32.412109 L 13.729980 33.335938 Z " fill="rgb(0, 0, 0)" fill-opacity="1.000000" />
<path d="M 13.892578 33.335938 L 13.892578 32.412109 L 20.729980 32.412109 L 20.729980 33.335938 Z " fill="rgb(0, 0, 0)" fill-opacity="1.000000" />
<path d="M 20.892578 33.335938 L 20.892578 32.412109 L 27.729980 32.412109 L 27.729980 33.335938 Z " fill="rgb(0, 0, 0)" fill-opacity="1.000000" />
<path d="M 27.892578 33.335938 L 27.892578 32.412109 L 34.729980 32.412109 L 34.729980 33.335938 Z " fill="rgb(0, 0, 0)" fill-opacity="1.000000" />
<path d="M 34.892578 33.335938 L 34.892578 32.412109 L 41.729980 32.412109 L 41.729980 33.335938 Z " fill="rgb(0, 0, 0)" fill-opacity="1.000000" />
<path d="M 41.892578 33.335938 L 41.892578 32.412109 L 48.729980 32.412109 L 48.729980 33.335938 Z " fill="rgb(0, 0, 0)" fill-opacity="1.000000" />
<path d="M 48.892578 33.335938 L 48.892578 32.412109 L 55.729980 32.412109 L 55.729980 33.335938 Z " fill="rgb(0, 0, 0)" fill-opacity="1.000000" />
<path d="M 55.892578 33.335938 L 55.892578 32.412109 L 62.729980 32.412109 L 62.729980 33.335938 Z " fill="rgb(0, 0, 0)" fill-opacity="1.000000" />
<path d="M 62.892578 33.335938 L 62.892578 32.412109 L 69.729980 32.412109 L 69.729980 33.335938 Z " fill="rgb(0, 0, 0)" fill-opacity="1.000000" />
<path d="M 69.892578 33.335938 L 69.892578 32.412109 L 76.729980 32.412109 L 76.729980 33.335938 Z " fill="rgb(0, 0, 0)" fill-opacity="1.000000" />
<path d="M 76.892578 33.335938 L 76.892578 32.412109 L 83.729980 32.412109 L 83.729980 33.335938 Z " fill="rgb(0, 0, 0)" fill-opacity="1.000000" />
<path d="M 83.892578 33.335938 L 83.892578 32.412109 L 90.729980 32.412109 L 90.729980 33.335938 Z " fill="rgb(0, 0, 0)" fill-opacity="1.000000" />
<path d="M 90.892578 33.335938 L 90.892578 32.412109 L 97.729980 32.412109 L 97.729980 33.335938 Z " fill="rgb(0, 0, 0)" fill-opacity="1.000000" />
<path d="M 97.892578 33.335938 L 97.892578 32.412109 L 104.729980 32.412109 L 104.729980 33.335938 Z " fill="rgb(0, 0, 0)" fill-opacity="1.000000" />
<path d="M 104.892578 33.335938 L 104.892578 32.412109 L 111.729980 32.412109 L 111.729980 33.335938 Z " fill="rgb(0, 0, 0)" fill-opacity="1.000000" />
<path d="M 111.892578 33.335938 L 111.892578 32.412109 L 118.729980 32.412109 L 118.729980 33.335938 Z " fill="rgb(0, 0, 0)" fill-opacity="1.000000" />
<path d="M 118.892578 33.335938 L 118.892578 32.412109 L 125.729980 32.412109 L 125.729980 33.335938 Z " fill="rgb(0, 0, 0)" fill-opacity="1.000000" />
<path d="M 125.892578 33.335938 L 125.892578 32.412109 L 132.729980 32.412109 L 132.729980 33.335938 Z " fill="rgb(0, 0, 0)" fill-opacity="1.000000" />
<path d="M 135.878906 39.319336 L 135.878906 33.335938 L 132.892578 33.335938 L 132.892578 32.412109 L 135.878906 32.412109 L 135.878906 25.300781 L 136.738281 25.300781 L 136.738281 39.319336 Z " fill="rgb(0, 0, 0)" fill-opacity="1.000000" />
<path d="M 32.860840 18.998535 Q 32.860840 17.231445 32.498291 16.474121 Q 32.135742 15.716797 31.308594 15.716797 Q 30.486816 15.716797 30.124268 16.474121 Q 29.761719 17.231445 29.761719 18.998535 Q 29.761719 20.760254 30.124268 21.517578 Q 30.486816 22.274902 31.308594 22.274902 Q 32.135742 22.274902 32.498291 21.520264 Q 32.860840 20.765625 32.860840 18.998535 Z M 33.994141 18.998535 Q 33.994141 21.093262 33.330811 22.124512 Q 32.667480 23.155762 31.308594 23.155762 Q 29.949707 23.155762 29.289062 22.129883 Q 28.628418 21.104004 28.628418 18.998535 Q 28.628418 16.898438 29.291748 15.867188 Q 29.955078 14.835938 31.308594 14.835938 Q 32.667480 14.835938 33.330811 15.867188 Q 33.994141 16.898438 33.994141 18.998535 Z " fill="rgb(0, 0, 0)" fill-opacity="1.000000" />
<path d="M 37.014160 22.242676 L 37.014160 25.288086 L 36.020508 25.288086 L 36.020508 16.984375 L 37.014160 16.984375 L 37.014160 17.752441 Q 37.261230 17.306641 37.672119 17.072998 Q 38.083008 16.839355 38.620117 16.839355 Q 39.710449 16.839355 40.330811 17.682617 Q 40.951172 18.525879 40.951172 20.019043 Q 40.951172 21.485352 40.328125 22.320557 Q 39.705078 23.155762 38.620117 23.155762 Q 38.072266 23.155762 37.661377 22.922119 Q 37.250488 22.688477 37.014160 22.242676 Z M 39.914551 19.997559 Q 39.914551 18.848145 39.552002 18.262695 Q 39.189453 17.677246 38.475098 17.677246 Q 37.755371 17.677246 37.384766 18.265381 Q 37.014160 18.853516 37.014160 19.997559 Q 37.014160 21.136230 37.384766 21.727051 Q 37.755371 22.317871 38.475098 22.317871 Q 39.189453 22.317871 39.552002 21.732422 Q 39.914551 21.146973 39.914551 19.997559 Z " fill="rgb(0, 0, 0)" fill-opacity="1.000000" />
<path d="M 47.763184 22.715332 Q 47.349609 22.935547 46.914551 23.045654 Q 46.479492 23.155762 45.990723 23.155762 Q 44.449219 23.155762 43.597900 22.065430 Q 42.746582 20.975098 42.746582 18.998535 Q 42.746582 17.032715 43.603271 15.934326 Q 44.459961 14.835938 45.990723 14.835938 Q 46.479492 14.835938 46.914551 14.946045 Q 47.349609 15.056152 47.763184 15.276367 L 47.763184 16.388184 Q 47.365723 16.060547 46.909180 15.888672 Q 46.452637 15.716797 45.990723 15.716797 Q 44.932617 15.716797 44.406250 16.533203 Q 43.879883 17.349609 43.879883 18.998535 Q 43.879883 20.642090 44.406250 21.458496 Q 44.932617 22.274902 45.990723 22.274902 Q 46.463379 22.274902 46.917236 22.103027 Q 47.371094 21.931152 47.763184 21.603516 Z " fill="rgb(0, 0, 0)" fill-opacity="1.000000" />
<path d="M 52.308594 17.677246 Q 51.556641 17.677246 51.169922 18.262695 Q 50.783203 18.848145 50.783203 19.997559 Q 50.783203 21.141602 51.169922 21.729736 Q 51.556641 22.317871 52.308594 22.317871 Q 53.065918 22.317871 53.452637 21.729736 Q 53.839355 21.141602 53.839355 19.997559 Q 53.839355 18.848145 53.452637 18.262695 Q 53.065918 17.677246 52.308594 17.677246 Z M 52.308594 16.839355 Q 53.560059 16.839355 54.223389 17.650391 Q 54.886719 18.461426 54.886719 19.997559 Q 54.886719 21.539062 54.226074 22.347412 Q 53.565430 23.155762 52.308594 23.155762 Q 51.057129 23.155762 50.396484 22.347412 Q 49.735840 21.539062 49.735840 19.997559 Q 49.735840 18.461426 50.396484 17.650391 Q 51.057129 16.839355 52.308594 16.839355 Z " fill="rgb(0, 0, 0)" fill-opacity="1.000000" />
<path d="M 61.645020 19.272461 L 61.645020 23.000000 L 60.651367 23.000000 L 60.651367 19.272461 Q 60.651367 18.461426 60.366699 18.080078 Q 60.082031 17.698730 59.475098 17.698730 Q 58.782227 17.698730 58.408936 18.190186 Q 58.035645 18.681641 58.035645 19.600098 L 58.035645 23.000000 L 57.047363 23.000000 L 57.047363 16.984375 L 58.035645 16.984375 L 58.035645 17.886719 Q 58.298828 17.371094 58.750000 17.105225 Q 59.201172 16.839355 59.818848 16.839355 Q 60.737305 16.839355 61.191162 17.443604 Q 61.645020 18.047852 61.645020 19.272461 Z " fill="rgb(0, 0, 0)" fill-opacity="1.000000" />
<path d="M 68.226074 17.193848 L 68.226074 18.160645 Q 67.801758 17.913574 67.372070 17.790039 Q 66.942383 17.666504 66.496582 17.666504 Q 65.825195 17.666504 65.494873 17.884033 Q 65.164551 18.101562 65.164551 18.547363 Q 65.164551 18.950195 65.411621 19.148926 Q 65.658691 19.347656 66.641602 19.535645 L 67.039062 19.610840 Q 67.774902 19.750488 68.153564 20.169434 Q 68.532227 20.588379 68.532227 21.259766 Q 68.532227 22.151367 67.898438 22.653564 Q 67.264648 23.155762 66.136719 23.155762 Q 65.690918 23.155762 65.202148 23.061768 Q 64.713379 22.967773 64.144043 22.779785 L 64.144043 21.759277 Q 64.697266 22.043945 65.202148 22.186279 Q 65.707031 22.328613 66.158203 22.328613 Q 66.813477 22.328613 67.173340 22.062744 Q 67.533203 21.796875 67.533203 21.318848 Q 67.533203 20.631348 66.217285 20.368164 L 66.174316 20.357422 L 65.803711 20.282227 Q 64.949707 20.115723 64.557617 19.720947 Q 64.165527 19.326172 64.165527 18.644043 Q 64.165527 17.779297 64.750977 17.309326 Q 65.336426 16.839355 66.421387 16.839355 Q 66.904785 16.839355 67.350586 16.927979 Q 67.796387 17.016602 68.226074 17.193848 Z " fill="rgb(0, 0, 0)" fill-opacity="1.000000" />
<path d="M 73.297852 15.276367 L 73.297852 16.984375 L 75.542969 16.984375 L 75.542969 17.752441 L 73.297852 17.752441 L 73.297852 21.018066 Q 73.297852 21.684082 73.550293 21.947266 Q 73.802734 22.210449 74.431152 22.210449 L 75.542969 22.210449 L 75.542969 23.000000 L 74.334473 23.000000 Q 73.222656 23.000000 72.766113 22.554199 Q 72.309570 22.108398 72.309570 21.018066 L 72.309570 17.752441 L 70.703613 17.752441 L 70.703613 16.984375 L 72.309570 16.984375 L 72.309570 15.276367 Z " fill="rgb(0, 0, 0)" fill-opacity="1.000000" />
<path d="M 80.770508 19.976074 L 80.442871 19.976074 Q 79.578125 19.976074 79.140381 20.279541 Q 78.702637 20.583008 78.702637 21.184570 Q 78.702637 21.727051 79.030273 22.027832 Q 79.357910 22.328613 79.937988 22.328613 Q 80.754395 22.328613 81.221680 21.761963 Q 81.688965 21.195312 81.694336 20.196289 L 81.694336 19.976074 Z M 82.687988 19.567871 L 82.687988 23.000000 L 81.694336 23.000000 L 81.694336 22.108398 Q 81.377441 22.645508 80.896729 22.900635 Q 80.416016 23.155762 79.728516 23.155762 Q 78.810059 23.155762 78.262207 22.637451 Q 77.714355 22.119141 77.714355 21.249023 Q 77.714355 20.244629 78.388428 19.723633 Q 79.062500 19.202637 80.367676 19.202637 L 81.694336 19.202637 L 81.694336 19.046875 Q 81.688965 18.327148 81.329102 18.002197 Q 80.969238 17.677246 80.179688 17.677246 Q 79.674805 17.677246 79.159180 17.822266 Q 78.643555 17.967285 78.154785 18.246582 L 78.154785 17.258301 Q 78.702637 17.048828 79.204834 16.944092 Q 79.707031 16.839355 80.179688 16.839355 Q 80.926270 16.839355 81.455322 17.059570 Q 81.984375 17.279785 82.312012 17.720215 Q 82.516113 17.988770 82.602051 18.383545 Q 82.687988 18.778320 82.687988 19.567871 Z " fill="rgb(0, 0, 0)" fill-opacity="1.000000" />
<path d="M 89.645020 19.272461 L 89.645020 23.000000 L 88.651367 23.000000 L 88.651367 19.272461 Q 88.651367 18.461426 88.366699 18.080078 Q 88.082031 17.698730 87.475098 17.698730 Q 86.782227 17.698730 86.408936 18.190186 Q 86.035645 18.681641 86.035645 19.600098 L 86.035645 23.000000 L 85.047363 23.000000 L 85.047363 16.984375 L 86.035645 16.984375 L 86.035645 17.886719 Q 86.298828 17.371094 86.750000 17.105225 Q 87.201172 16.839355 87.818848 16.839355 Q 88.737305 16.839355 89.191162 17.443604 Q 89.645020 18.047852 89.645020 19.272461 Z " fill="rgb(0, 0, 0)" fill-opacity="1.000000" />
<path d="M 94.297852 15.276367 L 94.297852 16.984375 L 96.542969 16.984375 L 96.542969 17.752441 L 94.297852 17.752441 L 94.297852 21.018066 Q 94.297852 21.684082 94.550293 21.947266 Q 94.802734 22.210449 95.431152 22.210449 L 96.542969 22.210449 L 96.542969 23.000000 L 95.334473 23.000000 Q 94.222656 23.000000 93.766113 22.554199 Q 93.309570 22.108398 93.309570 21.018066 L 93.309570 17.752441 L 91.703613 17.752441 L 91.703613 16.984375 L 93.309570 16.984375 L 93.309570 15.276367 Z " fill="rgb(0, 0, 0)" fill-opacity="1.000000" />
<path d="M 108.947754 15.969238 L 106.417969 20.207031 L 108.947754 20.207031 Z M 108.770508 14.980957 L 110.027344 14.980957 L 110.027344 20.207031 L 111.096191 20.207031 L 111.096191 21.087891 L 110.027344 21.087891 L 110.027344 23.000000 L 108.947754 23.000000 L 108.947754 21.087891 L 105.547852 21.087891 L 105.547852 20.062012 Z " fill="rgb(0, 0, 0)" fill-opacity="1.000000" />
<path d="M 135.878906 26.319336 L 135.878906 12.300781 L 136.738281 12.300781 L 136.738281 26.319336 Z " fill="rgb(0, 0, 0)" fill-opacity="1.000000" />
<path d="M 141.256836 20.142578 L 145.978027 22.505859 L 145.978027 17.779297 Z M 140.032227 20.142578 L 146.590332 16.866211 L 146.590332 23.418945 Z " fill="rgb(0, 0, 0)" fill-opacity="1.000000" />
<path d="M 146.892578 20.335938 L 146.892578 19.412109 L 153.729980 19.412109 L 153.729980 20.335938 Z " fill="rgb(0, 0, 0)" fill-opacity="1.000000" />
<path d="M 153.892578 20.335938 L 153.892578 19.412109 L 160.729980 19.412109 L 160.729980 20.335938 Z " fill="rgb(0, 0, 0)" fill-opacity="1.000000" />
<path d="M 160.892578 20.335938 L 160.892578 19.412109 L 167.729980 19.412109 L 167.729980 20.335938 Z " fill="rgb(0, 0, 0)" fill-opacity="1.000000" />
<path d="M 167.892578 20.335938 L 167.892578 19.412109 L 174.729980 19.412109 L 174.729980 20.335938 Z " fill="rgb(0, 0, 0)" fill-opacity="1.000000" />
<path d="M 174.892578 20.335938 L 174.892578 19.412109 L 181.729980 19.412109 L 181.729980 20.335938 Z " fill="rgb(0, 0, 0)" fill-opacity="1.000000" />
<path d="M 181.892578 20.335938 L 181.892578 19.412109 L 188.729980 19.412109 L 188.729980 20.335938 Z " fill="rgb(0, 0, 0)" fill-opacity="1.000000" />
<path d="M 197.154785 14.980957 L 198.245117 14.980957 L 198.245117 22.086914 L 202.117676 22.086914 L 202.117676 23.000000 L 197.154785 23.000000 Z " fill="rgb(0, 0, 0)" fill-opacity="1.000000" />
<path d="M 206.308594 17.677246 Q 205.556641 17.677246 205.169922 18.262695 Q 204.783203 18.848145 204.783203 19.997559 Q 204.783203 21.141602 205.169922 21.729736 Q 205.556641 22.317871 206.308594 22.317871 Q 207.065918 22.317871 207.452637 21.729736 Q 207.839355 21.141602 207.839355 19.997559 Q 207.839355 18.848145 207.452637 18.262695 Q 207.065918 17.677246 206.308594 17.677246 Z M 206.308594 16.839355 Q 207.560059 16.839355 208.223389 17.650391 Q 208.886719 18.461426 208.886719 19.997559 Q 208.886719 21.539062 208.226074 22.347412 Q 207.565430 23.155762 206.308594 23.155762 Q 205.057129 23.155762 204.396484 22.347412 Q 203.735840 21.539062 203.735840 19.997559 Q 203.735840 18.461426 204.396484 17.650391 Q 205.057129 16.839355 206.308594 16.839355 Z " fill="rgb(0, 0, 0)" fill-opacity="1.000000" />
<path d="M 213.770508 19.976074 L 213.442871 19.976074 Q 212.578125 19.976074 212.140381 20.279541 Q 211.702637 20.583008 211.702637 21.184570 Q 211.702637 21.727051 212.030273 22.027832 Q 212.357910 22.328613 212.937988 22.328613 Q 213.754395 22.328613 214.221680 21.761963 Q 214.688965 21.195312 214.694336 20.196289 L 214.694336 19.976074 Z M 215.687988 19.567871 L 215.687988 23.000000 L 214.694336 23.000000 L 214.694336 22.108398 Q 214.377441 22.645508 213.896729 22.900635 Q 213.416016 23.155762 212.728516 23.155762 Q 211.810059 23.155762 211.262207 22.637451 Q 210.714355 22.119141 210.714355 21.249023 Q 210.714355 20.244629 211.388428 19.723633 Q 212.062500 19.202637 213.367676 19.202637 L 214.694336 19.202637 L 214.694336 19.046875 Q 214.688965 18.327148 214.329102 18.002197 Q 213.969238 17.677246 213.179688 17.677246 Q 212.674805 17.677246 212.159180 17.822266 Q 211.643555 17.967285 211.154785 18.246582 L 211.154785 17.258301 Q 211.702637 17.048828 212.204834 16.944092 Q 212.707031 16.839355 213.179688 16.839355 Q 213.926270 16.839355 214.455322 17.059570 Q 214.984375 17.279785 215.312012 17.720215 Q 215.516113 17.988770 215.602051 18.383545 Q 215.687988 18.778320 215.687988 19.567871 Z " fill="rgb(0, 0, 0)" fill-opacity="1.000000" />
<path d="M 221.608398 17.752441 L 221.608398 14.642578 L 222.596680 14.642578 L 222.596680 23.000000 L 221.608398 23.000000 L 221.608398 22.242676 Q 221.361328 22.688477 220.950439 22.922119 Q 220.539551 23.155762 220.002441 23.155762 Q 218.912109 23.155762 218.286377 22.309814 Q 217.660645 21.463867 217.660645 19.976074 Q 217.660645 18.509766 218.289062 17.674561 Q 218.917480 16.839355 220.002441 16.839355 Q 220.544922 16.839355 220.958496 17.072998 Q 221.372070 17.306641 221.608398 17.752441 Z M 218.702637 19.997559 Q 218.702637 21.146973 219.067871 21.732422 Q 219.433105 22.317871 220.147461 22.317871 Q 220.861816 22.317871 221.235107 21.727051 Q 221.608398 21.136230 221.608398 19.997559 Q 221.608398 18.853516 221.235107 18.265381 Q 220.861816 17.677246 220.147461 17.677246 Q 219.433105 17.677246 219.067871 18.262695 Q 218.702637 18.848145 218.702637 19.997559 Z " fill="rgb(0, 0, 0)" fill-opacity="1.000000" />
<path d="M 234.297852 15.276367 L 234.297852 16.984375 L 236.542969 16.984375 L 236.542969 17.752441 L 234.297852 17.752441 L 234.297852 21.018066 Q 234.297852 21.684082 234.550293 21.947266 Q 234.802734 22.210449 235.431152 22.210449 L 236.542969 22.210449 L 236.542969 23.000000 L 235.334473 23.000000 Q 234.222656 23.000000 233.766113 22.554199 Q 233.309570 22.108398 233.309570 21.018066 L 233.309570 17.752441 L 231.703613 17.752441 L 231.703613 16.984375 L 233.309570 16.984375 L 233.309570 15.276367 Z " fill="rgb(0, 0, 0)" fill-opacity="1.000000" />
<path d="M 243.645020 19.272461 L 243.645020 23.000000 L 242.651367 23.000000 L 242.651367 19.272461 Q 242.651367 18.461426 242.366699 18.080078 Q 242.082031 17.698730 241.475098 17.698730 Q 240.782227 17.698730 240.408936 18.190186 Q 240.035645 18.681641 240.035645 19.600098 L 240.035645 23.000000 L 239.047363 23.000000 L 239.047363 14.642578 L 240.035645 14.642578 L 240.035645 17.886719 Q 240.298828 17.371094 240.750000 17.105225 Q 241.201172 16.839355 241.818848 16.839355 Q 242.737305 16.839355 243.191162 17.443604 Q 243.645020 18.047852 243.645020 19.272461 Z " fill="rgb(0, 0, 0)" fill-opacity="1.000000" />
<path d="M 251.015625 19.498047 L 251.015625 19.981445 L 246.734863 19.981445 L 246.734863 20.013672 Q 246.691895 21.243652 247.204834 21.780762 Q 247.717773 22.317871 248.652344 22.317871 Q 249.125000 22.317871 249.640625 22.167480 Q 250.156250 22.017090 250.741699 21.710938 L 250.741699 22.693848 Q 250.177734 22.924805 249.654053 23.040283 Q 249.130371 23.155762 248.641602 23.155762 Q 247.239746 23.155762 246.450195 22.315186 Q 245.660645 21.474609 245.660645 19.997559 Q 245.660645 18.558105 246.434082 17.698730 Q 247.207520 16.839355 248.496582 16.839355 Q 249.645996 16.839355 250.309326 17.618164 Q 250.972656 18.396973 251.015625 19.498047 Z M 250.027344 19.208008 Q 249.962891 18.584961 249.573486 18.131104 Q 249.184082 17.677246 248.453613 17.677246 Q 247.739258 17.677246 247.277344 18.149902 Q 246.815430 18.622559 246.772461 19.213379 Z " fill="rgb(0, 0, 0)" fill-opacity="1.000000" />
<path d="M 260.111816 14.980957 L 264.172363 14.980957 L 264.172363 15.894043 L 261.100098 15.894043 L 261.100098 17.865234 Q 261.331055 17.779297 261.564697 17.739014 Q 261.798340 17.698730 262.034668 17.698730 Q 263.280762 17.698730 264.011230 18.434570 Q 264.741699 19.170410 264.741699 20.427246 Q 264.741699 21.694824 263.976318 22.425293 Q 263.210938 23.155762 261.884277 23.155762 Q 261.245117 23.155762 260.716064 23.069824 Q 260.187012 22.983887 259.768066 22.812012 L 259.768066 21.710938 Q 260.262207 21.979492 260.761719 22.111084 Q 261.261230 22.242676 261.782227 22.242676 Q 262.679199 22.242676 263.165283 21.770020 Q 263.651367 21.297363 263.651367 20.427246 Q 263.651367 19.567871 263.149170 19.089844 Q 262.646973 18.611816 261.750000 18.611816 Q 261.314941 18.611816 260.901367 18.711182 Q 260.487793 18.810547 260.111816 19.009277 Z " fill="rgb(0, 0, 0)" fill-opacity="1.000000" />
<path d="M 269.308594 14.862793 Q 270.592285 14.862793 271.250244 15.910156 Q 271.908203 16.957520 271.908203 19.009277 Q 271.908203 21.061035 271.250244 22.108398 Q 270.592285 23.155762 269.308594 23.155762 Q 268.024902 23.155762 267.369629 22.108398 Q 266.714355 21.061035 266.714355 19.009277 Q 266.714355 16.957520 267.369629 15.910156 Q 268.024902 14.862793 269.308594 14.862793 Z M 269.308594 22.296387 Q 270.071289 22.296387 270.444580 21.485352 Q 270.817871 20.674316 270.817871 19.009277 Q 270.817871 18.123047 270.710449 17.408691 L 268.153809 21.410156 Q 268.556641 22.296387 269.308594 22.296387 Z M 269.308594 15.722168 Q 268.551270 15.722168 268.177979 16.533203 Q 267.804688 17.344238 267.804688 19.009277 Q 267.804688 19.766602 267.906738 20.427246 L 270.409668 16.436523 Q 270.001465 15.722168 269.308594 15.722168 Z " fill="rgb(0, 0, 0)" fill-opacity="1.000000" />
<path d="M 6.892578 7.335938 L 6.892578 6.412109 L 13.729980 6.412109 L 13.729980 7.335938 Z " fill="rgb(0, 0, 0)" fill-opacity="1.000000" />
<path d="M 13.892578 7.335938 L 13.892578 6.412109 L 20.729980 6.412109 L 20.729980 7.335938 Z " fill="rgb(0, 0, 0)" fill-opacity="1.000000" />
<path d="M 20.892578 7.335938 L 20.892578 6.412109 L 27.729980 6.412109 L 27.729980 7.335938 Z " fill="rgb(0, 0, 0)" fill-opacity="1.000000" />
<path d="M 27.892578 7.335938 L 27.892578 6.412109 L 34.729980 6.412109 L 34.729980 7.335938 Z " fill="rgb(0, 0, 0)" fill-opacity="1.000000" />
<path d="M 34.892578 7.335938 L 34.892578 6.412109 L 41.729980 6.412109 L 41.729980 7.335938 Z " fill="rgb(0, 0, 0)" fill-opacity="1.000000" />
<path d="M 41.892578 7.335938 L 41.892578 6.412109 L 48.729980 6.412109 L 48.729980 7.335938 Z " fill="rgb(0, 0, 0)" fill-opacity="1.000000" />
<path d="M 48.892578 7.335938 L 48.892578 6.412109 L 55.729980 6.412109 L 55.729980 7.335938 Z " fill="rgb(0, 0, 0)" fill-opacity="1.000000" />
<path d="M 55.892578 7.335938 L 55.892578 6.412109 L 62.729980 6.412109 L 62.729980 7.335938 Z " fill="rgb(0, 0, 0)" fill-opacity="1.000000" />
<path d="M 62.892578 7.335938 L 62.892578 6.412109 L 69.729980 6.412109 L 69.729980 7.335938 Z " fill="rgb(0, 0, 0)" fill-opacity="1.000000" />
<path d="M 69.892578 7.335938 L 69.892578 6.412109 L 76.729980 6.412109 L 76.729980 7.335938 Z " fill="rgb(0, 0, 0)" fill-opacity="1.000000" />
<path d="M 76.892578 7.335938 L 76.892578 6.412109 L 83.729980 6.412109 L 83.729980 7.335938 Z " fill="rgb(0, 0, 0)" fill-opacity="1.000000" />
<path d="M 83.892578 7.335938 L 83.892578 6.412109 L 90.729980 6.412109 L 90.729980 7.335938 Z " fill="rgb(0, 0, 0)" fill-opacity="1.000000" />
<path d="M 90.892578 7.335938 L 90.892578 6.412109 L 97.729980 6.412109 L 97.729980 7.335938 Z " fill="rgb(0, 0, 0)" fill-opacity="1.000000" />
<path d="M 97.892578 7.335938 L 97.892578 6.412109 L 104.729980 6.412109 L 104.729980 7.335938 Z " fill="rgb(0, 0, 0)" fill-opacity="1.000000" />
<path d="M 104.892578 7.335938 L 104.892578 6.412109 L 111.729980 6.412109 L 111.729980 7.335938 Z " fill="rgb(0, 0, 0)" fill-opacity="1.000000" />
<path d="M 111.892578 7.335938 L 111.892578 6.412109 L 118.729980 6.412109 L 118.729980 7.335938 Z " fill="rgb(0, 0, 0)" fill-opacity="1.000000" />
<path d="M 118.892578 7.335938 L 118.892578 6.412109 L 125.729980 6.412109 L 125.729980 7.335938 Z " fill="rgb(0, 0, 0)" fill-opacity="1.000000" />
<path d="M 125.892578 7.335938 L 125.892578 6.412109 L 132.729980 6.412109 L 132.729980 7.335938 Z " fill="rgb(0, 0, 0)" fill-opacity="1.000000" />
<path d="M 135.878906 13.319336 L 135.878906 7.335938 L 132.892578 7.335938 L 132.892578 6.412109 L 136.738281 6.412109 L 136.738281 13.319336 Z " fill="rgb(0, 0, 0)" fill-opacity="1.000000" />
</svg>